M48
; DRILL file KiCad 10.0.1 date 2026-09-08T15:03:45
; FORMAT={-:-/ absolute / metric / decimal}
; #@! TF.CreationDate,2026-09-08T15:03:45-05:00
; #@! TF.GenerationSoftware,Kicad,Pcbnew,10.0.1
; #@! TF.FileFunction,MixedPlating,1,2
FMAT,2
METRIC
; #@! TA.AperFunction,Plated,PTH,ViaDrill
T1C0.400
; #@! TA.AperFunction,Plated,PTH,ComponentDrill
T2C0.750
; #@! TA.AperFunction,Plated,PTH,ComponentDrill
T3C1.000
; #@! TA.AperFunction,Plated,PTH,ComponentDrill
T4C2.200
%
G90
G05
T1
X107.246Y-116.061
X107.246Y-124.877
X107.246Y-127.815
X112.2Y-112.65
X114.0Y-124.0
X119.0Y-107.5
X119.0Y-113.0
X120.171Y-126.85
X122.0Y-129.0
X124.0Y-124.0
X130.0Y-126.0
X130.631Y-116.063
T2
X109.0Y-134.2
X111.0Y-134.2
T3
X110.0Y-110.11
X110.0Y-112.65
X110.0Y-115.19
X110.0Y-117.73
X110.0Y-120.27
X110.0Y-122.81
X110.0Y-125.35
X110.0Y-127.89
X111.0Y-103.8
X113.5Y-103.8
X124.5Y-103.8
X125.0Y-134.2
X127.04Y-103.8
X127.5Y-134.2
X128.0Y-110.11
X128.0Y-112.65
X128.0Y-115.19
X128.0Y-117.73
X128.0Y-120.27
X128.0Y-122.81
X128.0Y-125.35
X128.0Y-127.89
X129.58Y-103.8
T4
X103.5Y-103.5
X103.5Y-134.5
X134.5Y-103.5
X134.5Y-134.5
M30
