%TF.GenerationSoftware,KiCad,Pcbnew,10.0.1*%
%TF.CreationDate,2026-09-08T15:03:45-05:00*%
%TF.ProjectId,WebShooter,57656253-686f-46f7-9465-722e6b696361,rev?*%
%TF.SameCoordinates,Original*%
%TF.FileFunction,Soldermask,Top*%
%TF.FilePolarity,Negative*%
%FSLAX46Y46*%
G04 Gerber Fmt 4.6, Leading zero omitted, Abs format (unit mm)*
G04 Created by KiCad (PCBNEW 10.0.1) date 2026-09-08 15:03:45*
%MOMM*%
%LPD*%
G01*
G04 APERTURE LIST*
G04 Aperture macros list*
%AMRoundRect*
0 Rectangle with rounded corners*
0 $1 Rounding radius*
0 $2 $3 $4 $5 $6 $7 $8 $9 X,Y pos of 4 corners*
0 Add a 4 corners polygon primitive as box body*
4,1,4,$2,$3,$4,$5,$6,$7,$8,$9,$2,$3,0*
0 Add four circle primitives for the rounded corners*
1,1,$1+$1,$2,$3*
1,1,$1+$1,$4,$5*
1,1,$1+$1,$6,$7*
1,1,$1+$1,$8,$9*
0 Add four rect primitives between the rounded corners*
20,1,$1+$1,$2,$3,$4,$5,0*
20,1,$1+$1,$4,$5,$6,$7,0*
20,1,$1+$1,$6,$7,$8,$9,0*
20,1,$1+$1,$8,$9,$2,$3,0*%
G04 Aperture macros list end*
%ADD10C,1.500000*%
%ADD11RoundRect,0.225000X-0.225000X-0.375000X0.225000X-0.375000X0.225000X0.375000X-0.225000X0.375000X0*%
%ADD12RoundRect,0.250000X-0.250000X-0.475000X0.250000X-0.475000X0.250000X0.475000X-0.250000X0.475000X0*%
%ADD13RoundRect,0.250000X-0.350000X-0.625000X0.350000X-0.625000X0.350000X0.625000X-0.350000X0.625000X0*%
%ADD14O,1.200000X1.750000*%
%ADD15C,4.400000*%
%ADD16RoundRect,0.250000X-0.262500X-0.450000X0.262500X-0.450000X0.262500X0.450000X-0.262500X0.450000X0*%
%ADD17RoundRect,0.243750X-0.243750X-0.456250X0.243750X-0.456250X0.243750X0.456250X-0.243750X0.456250X0*%
%ADD18RoundRect,0.250000X0.250000X0.475000X-0.250000X0.475000X-0.250000X-0.475000X0.250000X-0.475000X0*%
%ADD19R,1.700000X1.700000*%
%ADD20C,1.700000*%
%ADD21RoundRect,0.250000X0.450000X-0.262500X0.450000X0.262500X-0.450000X0.262500X-0.450000X-0.262500X0*%
%ADD22RoundRect,0.150000X-0.587500X-0.150000X0.587500X-0.150000X0.587500X0.150000X-0.587500X0.150000X0*%
%ADD23RoundRect,0.375000X-0.625000X-0.375000X0.625000X-0.375000X0.625000X0.375000X-0.625000X0.375000X0*%
%ADD24RoundRect,0.500000X-0.500000X-1.400000X0.500000X-1.400000X0.500000X1.400000X-0.500000X1.400000X0*%
%ADD25RoundRect,0.250000X0.600000X0.750000X-0.600000X0.750000X-0.600000X-0.750000X0.600000X-0.750000X0*%
%ADD26O,1.700000X2.000000*%
%ADD27RoundRect,0.250000X-0.600000X-0.750000X0.600000X-0.750000X0.600000X0.750000X-0.600000X0.750000X0*%
G04 APERTURE END LIST*
D10*
%TO.C,TP_3V3*%
X104200000Y-128500000D03*
%TD*%
%TO.C,TP_VBATT*%
X105000000Y-108000000D03*
%TD*%
D11*
%TO.C,D1*%
X131850000Y-128500000D03*
X135150000Y-128500000D03*
%TD*%
D12*
%TO.C,C_FILT*%
X115050000Y-131000000D03*
X116950000Y-131000000D03*
%TD*%
D13*
%TO.C,J_FSR*%
X109000000Y-134200000D03*
D14*
X111000000Y-134200000D03*
%TD*%
D15*
%TO.C,H4*%
X134500000Y-134500000D03*
%TD*%
D16*
%TO.C,R_PD*%
X132587500Y-117000000D03*
X134412500Y-117000000D03*
%TD*%
D17*
%TO.C,D2*%
X132562500Y-111000000D03*
X134437500Y-111000000D03*
%TD*%
D18*
%TO.C,C_OUT*%
X103250000Y-125500000D03*
X105150000Y-125500000D03*
%TD*%
D19*
%TO.C,J1*%
X110000000Y-110110000D03*
D20*
X110000000Y-112650000D03*
X110000000Y-115190000D03*
X110000000Y-117730000D03*
X110000000Y-120270000D03*
X110000000Y-122810000D03*
X110000000Y-125350000D03*
X110000000Y-127890000D03*
%TD*%
D16*
%TO.C,R_PWM*%
X119087500Y-104500000D03*
X120912500Y-104500000D03*
%TD*%
D10*
%TO.C,TP_ESC*%
X124500000Y-108000000D03*
%TD*%
D15*
%TO.C,H1*%
X103500000Y-103500000D03*
%TD*%
D19*
%TO.C,J2*%
X128000000Y-110110000D03*
D20*
X128000000Y-112650000D03*
X128000000Y-115190000D03*
X128000000Y-117730000D03*
X128000000Y-120270000D03*
X128000000Y-122810000D03*
X128000000Y-125350000D03*
X128000000Y-127890000D03*
%TD*%
D16*
%TO.C,R_PROT*%
X117587500Y-128000000D03*
X119412500Y-128000000D03*
%TD*%
D10*
%TO.C,TP_GATE*%
X124000000Y-120000000D03*
%TD*%
D16*
%TO.C,R_G*%
X132587500Y-120000000D03*
X134412500Y-120000000D03*
%TD*%
D18*
%TO.C,C_IN*%
X103250000Y-112500000D03*
X105150000Y-112500000D03*
%TD*%
D21*
%TO.C,R_REF*%
X115087500Y-134200000D03*
X116912500Y-134200000D03*
%TD*%
D22*
%TO.C,Q1*%
X132562500Y-123050000D03*
X132562500Y-124950000D03*
X134437500Y-124000000D03*
%TD*%
D23*
%TO.C,U1*%
X101900000Y-122150000D03*
X104200000Y-122150000D03*
D24*
X104200000Y-115850000D03*
D23*
X106500000Y-122150000D03*
%TD*%
D25*
%TO.C,J_SOL*%
X127500000Y-134200000D03*
D26*
X125000000Y-134200000D03*
%TD*%
D19*
%TO.C,J_ESC*%
X124500000Y-103800000D03*
D20*
X127040000Y-103800000D03*
X129580000Y-103800000D03*
%TD*%
D10*
%TO.C,TP_GND*%
X119000000Y-107500000D03*
%TD*%
D16*
%TO.C,R_LED*%
X132587500Y-114000000D03*
X134412500Y-114000000D03*
%TD*%
D27*
%TO.C,J_BATT*%
X111000000Y-103800000D03*
D26*
X113500000Y-103800000D03*
%TD*%
D15*
%TO.C,H3*%
X103500000Y-134500000D03*
%TD*%
D10*
%TO.C,TP_FSR*%
X120000000Y-131000000D03*
%TD*%
D15*
%TO.C,H2*%
X134500000Y-103500000D03*
%TD*%
M02*
