%TF.GenerationSoftware,KiCad,Pcbnew,10.0.1*%
%TF.CreationDate,2026-09-04T22:03:54-05:00*%
%TF.ProjectId,WebShooter,57656253-686f-46f7-9465-722e6b696361,rev?*%
%TF.SameCoordinates,Original*%
%TF.FileFunction,Copper,L2,Bot*%
%TF.FilePolarity,Positive*%
%FSLAX46Y46*%
G04 Gerber Fmt 4.6, Leading zero omitted, Abs format (unit mm)*
G04 Created by KiCad (PCBNEW 10.0.1) date 2026-09-04 22:03:54*
%MOMM*%
%LPD*%
G01*
G04 APERTURE LIST*
G04 Aperture macros list*
%AMRoundRect*
0 Rectangle with rounded corners*
0 $1 Rounding radius*
0 $2 $3 $4 $5 $6 $7 $8 $9 X,Y pos of 4 corners*
0 Add a 4 corners polygon primitive as box body*
4,1,4,$2,$3,$4,$5,$6,$7,$8,$9,$2,$3,0*
0 Add four circle primitives for the rounded corners*
1,1,$1+$1,$2,$3*
1,1,$1+$1,$4,$5*
1,1,$1+$1,$6,$7*
1,1,$1+$1,$8,$9*
0 Add four rect primitives between the rounded corners*
20,1,$1+$1,$2,$3,$4,$5,0*
20,1,$1+$1,$4,$5,$6,$7,0*
20,1,$1+$1,$6,$7,$8,$9,0*
20,1,$1+$1,$8,$9,$2,$3,0*%
G04 Aperture macros list end*
%TA.AperFunction,ComponentPad*%
%ADD10RoundRect,0.250000X-0.350000X-0.625000X0.350000X-0.625000X0.350000X0.625000X-0.350000X0.625000X0*%
%TD*%
%TA.AperFunction,ComponentPad*%
%ADD11O,1.200000X1.750000*%
%TD*%
%TA.AperFunction,ComponentPad*%
%ADD12C,4.400000*%
%TD*%
%TA.AperFunction,ComponentPad*%
%ADD13R,1.700000X1.700000*%
%TD*%
%TA.AperFunction,ComponentPad*%
%ADD14C,1.700000*%
%TD*%
%TA.AperFunction,ComponentPad*%
%ADD15RoundRect,0.250000X0.600000X0.750000X-0.600000X0.750000X-0.600000X-0.750000X0.600000X-0.750000X0*%
%TD*%
%TA.AperFunction,ComponentPad*%
%ADD16O,1.700000X2.000000*%
%TD*%
%TA.AperFunction,ComponentPad*%
%ADD17RoundRect,0.250000X-0.600000X-0.750000X0.600000X-0.750000X0.600000X0.750000X-0.600000X0.750000X0*%
%TD*%
%TA.AperFunction,ViaPad*%
%ADD18C,0.800000*%
%TD*%
%TA.AperFunction,Conductor*%
%ADD19C,0.800000*%
%TD*%
%TA.AperFunction,Conductor*%
%ADD20C,1.200000*%
%TD*%
G04 APERTURE END LIST*
D10*
%TO.P,J_FSR,1*%
%TO.N,+3.3V*%
X111000000Y-140000000D03*
D11*
%TO.P,J_FSR,2*%
%TO.N,FSR_IN*%
X113000000Y-140000000D03*
%TD*%
D12*
%TO.P,H4,1*%
%TO.N,GND*%
X156000000Y-142000000D03*
%TD*%
D13*
%TO.P,J1,1*%
%TO.N,+3.3V*%
X121000000Y-123000000D03*
D14*
%TO.P,J1,2*%
%TO.N,GND*%
X121000000Y-125540000D03*
%TO.P,J1,3*%
%TO.N,FSR_ADC*%
X121000000Y-128080000D03*
%TO.P,J1,4*%
%TO.N,N/C*%
X121000000Y-130620000D03*
%TO.P,J1,5*%
X121000000Y-133160000D03*
%TO.P,J1,6*%
X121000000Y-135700000D03*
%TO.P,J1,7*%
X121000000Y-138240000D03*
%TO.P,J1,8*%
X121000000Y-140780000D03*
%TD*%
D12*
%TO.P,H1,1*%
%TO.N,GND*%
X104000000Y-104000000D03*
%TD*%
D13*
%TO.P,J2,1*%
%TO.N,MCU_PWM*%
X139000000Y-123000000D03*
D14*
%TO.P,J2,2*%
%TO.N,MCU_GATE*%
X139000000Y-125540000D03*
%TO.P,J2,3*%
%TO.N,LED_STAT*%
X139000000Y-128080000D03*
%TO.P,J2,4*%
%TO.N,N/C*%
X139000000Y-130620000D03*
%TO.P,J2,5*%
X139000000Y-133160000D03*
%TO.P,J2,6*%
X139000000Y-135700000D03*
%TO.P,J2,7*%
X139000000Y-138240000D03*
%TO.P,J2,8*%
X139000000Y-140780000D03*
%TD*%
D15*
%TO.P,J_SOL,1*%
%TO.N,+BATT*%
X148250000Y-140000000D03*
D16*
%TO.P,J_SOL,2*%
%TO.N,SOL_DRAIN*%
X145750000Y-140000000D03*
%TD*%
D13*
%TO.P,J_ESC,1*%
%TO.N,ESC_PWM*%
X147000000Y-106500000D03*
D14*
%TO.P,J_ESC,2*%
%TO.N,GND*%
X147000000Y-109040000D03*
%TO.P,J_ESC,3*%
%TO.N,N/C*%
X147000000Y-111580000D03*
%TD*%
D17*
%TO.P,J_BATT,1*%
%TO.N,+BATT*%
X113000000Y-106500000D03*
D16*
%TO.P,J_BATT,2*%
%TO.N,GND*%
X115500000Y-106500000D03*
%TD*%
D12*
%TO.P,H3,1*%
%TO.N,GND*%
X104000000Y-142000000D03*
%TD*%
%TO.P,H2,1*%
%TO.N,GND*%
X156000000Y-104000000D03*
%TD*%
D18*
%TO.N,+BATT*%
X107000000Y-118800000D03*
X146350000Y-136500000D03*
%TO.N,GND*%
X112500000Y-112000000D03*
%TD*%
%TO.N,+3.3V*%
D19*
X111000000Y-130000000D02*
X111000000Y-140000000D01*
X118000000Y-123000000D02*
X111000000Y-130000000D01*
X121000000Y-123000000D02*
X118000000Y-123000000D01*
%TO.N,+BATT*%
D20*
X113000000Y-104500000D02*
X113000000Y-106500000D01*
X107000000Y-104500000D02*
X108500000Y-103000000D01*
X151000000Y-104000000D02*
X151000000Y-137250000D01*
X111500000Y-103000000D02*
X113000000Y-104500000D01*
X108500000Y-103000000D02*
X150000000Y-103000000D01*
X107000000Y-118800000D02*
X107000000Y-104500000D01*
X150000000Y-103000000D02*
X151000000Y-104000000D01*
X148500000Y-136500000D02*
X146350000Y-136500000D01*
X151000000Y-134000000D02*
X148500000Y-136500000D01*
X151000000Y-137250000D02*
X148250000Y-140000000D01*
%TD*%
%TA.AperFunction,Conductor*%
%TO.N,GND*%
G36*
X158212987Y-100817882D02*
G01*
X158413465Y-100939075D01*
X158425776Y-100947573D01*
X158651573Y-101124474D01*
X158662781Y-101134404D01*
X158865595Y-101337218D01*
X158875525Y-101348426D01*
X159052422Y-101574217D01*
X159060926Y-101586537D01*
X159182117Y-101787013D01*
X159200000Y-101851161D01*
X159200000Y-144148837D01*
X159182117Y-144212987D01*
X159060928Y-144413459D01*
X159052422Y-144425782D01*
X158875525Y-144651573D01*
X158865595Y-144662781D01*
X158662781Y-144865595D01*
X158651573Y-144875525D01*
X158425782Y-145052422D01*
X158413459Y-145060928D01*
X158212988Y-145182117D01*
X158148838Y-145200000D01*
X101851162Y-145200000D01*
X101787012Y-145182117D01*
X101586540Y-145060928D01*
X101574217Y-145052422D01*
X101348426Y-144875525D01*
X101337218Y-144865595D01*
X101134404Y-144662781D01*
X101124474Y-144651573D01*
X100947573Y-144425776D01*
X100939071Y-144413458D01*
X100817883Y-144212986D01*
X100800000Y-144148837D01*
X100800000Y-139324983D01*
X109899500Y-139324983D01*
X109899500Y-140675001D01*
X109899501Y-140675018D01*
X109910000Y-140777796D01*
X109910001Y-140777799D01*
X109965185Y-140944331D01*
X109965187Y-140944336D01*
X109988870Y-140982732D01*
X110057288Y-141093656D01*
X110181344Y-141217712D01*
X110330666Y-141309814D01*
X110497203Y-141364999D01*
X110599991Y-141375500D01*
X111400008Y-141375499D01*
X111400016Y-141375498D01*
X111400019Y-141375498D01*
X111456302Y-141369748D01*
X111502797Y-141364999D01*
X111669334Y-141309814D01*
X111818656Y-141217712D01*
X111942712Y-141093656D01*
X111982310Y-141029456D01*
X112034258Y-140982732D01*
X112103220Y-140971509D01*
X112167303Y-140999352D01*
X112175530Y-141006872D01*
X112283072Y-141114414D01*
X112423212Y-141216232D01*
X112577555Y-141294873D01*
X112742299Y-141348402D01*
X112913389Y-141375500D01*
X112913390Y-141375500D01*
X113086610Y-141375500D01*
X113086611Y-141375500D01*
X113257701Y-141348402D01*
X113422445Y-141294873D01*
X113576788Y-141216232D01*
X113716928Y-141114414D01*
X113839414Y-140991928D01*
X113941232Y-140851788D01*
X114019873Y-140697445D01*
X114073402Y-140532701D01*
X114100500Y-140361611D01*
X114100500Y-139638389D01*
X114073402Y-139467299D01*
X114019873Y-139302555D01*
X113941232Y-139148212D01*
X113839414Y-139008072D01*
X113716928Y-138885586D01*
X113576788Y-138783768D01*
X113422445Y-138705127D01*
X113257701Y-138651598D01*
X113257699Y-138651597D01*
X113257698Y-138651597D01*
X113126271Y-138630781D01*
X113086611Y-138624500D01*
X112913389Y-138624500D01*
X112873728Y-138630781D01*
X112742302Y-138651597D01*
X112577552Y-138705128D01*
X112423211Y-138783768D01*
X112283073Y-138885585D01*
X112175530Y-138993128D01*
X112157596Y-139002919D01*
X112142543Y-139016732D01*
X112127555Y-139019323D01*
X112114207Y-139026612D01*
X112093829Y-139025154D01*
X112073695Y-139028636D01*
X112059685Y-139022712D01*
X112044515Y-139021628D01*
X112028158Y-139009383D01*
X112009340Y-139001427D01*
X111993777Y-138983645D01*
X111988582Y-138979756D01*
X111985480Y-138975421D01*
X111983829Y-138973005D01*
X111942712Y-138906344D01*
X111928650Y-138892282D01*
X111922131Y-138882745D01*
X111914764Y-138860060D01*
X111903334Y-138839128D01*
X111901041Y-138817805D01*
X111900550Y-138816292D01*
X111900783Y-138815404D01*
X111900500Y-138812770D01*
X111900500Y-130424362D01*
X111920185Y-130357323D01*
X111936819Y-130336681D01*
X118336681Y-123936819D01*
X118398004Y-123903334D01*
X118424362Y-123900500D01*
X119548560Y-123900500D01*
X119615599Y-123920185D01*
X119661354Y-123972989D01*
X119664742Y-123981167D01*
X119706202Y-124092328D01*
X119706206Y-124092335D01*
X119792452Y-124207544D01*
X119792455Y-124207547D01*
X119907664Y-124293793D01*
X119907671Y-124293797D01*
X119952618Y-124310561D01*
X120042517Y-124344091D01*
X120102127Y-124350500D01*
X120112685Y-124350499D01*
X120179723Y-124370179D01*
X120200372Y-124386818D01*
X120870591Y-125057037D01*
X120807007Y-125074075D01*
X120692993Y-125139901D01*
X120599901Y-125232993D01*
X120534075Y-125347007D01*
X120517037Y-125410591D01*
X119884728Y-124778282D01*
X119884727Y-124778282D01*
X119845380Y-124832439D01*
X119748904Y-125021782D01*
X119683242Y-125223869D01*
X119683242Y-125223872D01*
X119650000Y-125433753D01*
X119650000Y-125646246D01*
X119683242Y-125856127D01*
X119683242Y-125856130D01*
X119748904Y-126058217D01*
X119845375Y-126247550D01*
X119884728Y-126301716D01*
X120517037Y-125669408D01*
X120534075Y-125732993D01*
X120599901Y-125847007D01*
X120692993Y-125940099D01*
X120807007Y-126005925D01*
X120870590Y-126022962D01*
X120238282Y-126655269D01*
X120238282Y-126655270D01*
X120292452Y-126694626D01*
X120292451Y-126694626D01*
X120301495Y-126699234D01*
X120352292Y-126747208D01*
X120369087Y-126815029D01*
X120346550Y-126881164D01*
X120301499Y-126920202D01*
X120292182Y-126924949D01*
X120120213Y-127049890D01*
X119969890Y-127200213D01*
X119844951Y-127372179D01*
X119748444Y-127561585D01*
X119682753Y-127763760D01*
X119649500Y-127973713D01*
X119649500Y-128186286D01*
X119682753Y-128396239D01*
X119748444Y-128598414D01*
X119844951Y-128787820D01*
X119969890Y-128959786D01*
X120120213Y-129110109D01*
X120292182Y-129235050D01*
X120300946Y-129239516D01*
X120351742Y-129287491D01*
X120368536Y-129355312D01*
X120345998Y-129421447D01*
X120300946Y-129460484D01*
X120292182Y-129464949D01*
X120120213Y-129589890D01*
X119969890Y-129740213D01*
X119844951Y-129912179D01*
X119748444Y-130101585D01*
X119682753Y-130303760D01*
X119649500Y-130513713D01*
X119649500Y-130726286D01*
X119682753Y-130936239D01*
X119748444Y-131138414D01*
X119844951Y-131327820D01*
X119969890Y-131499786D01*
X120120213Y-131650109D01*
X120292182Y-131775050D01*
X120300946Y-131779516D01*
X120351742Y-131827491D01*
X120368536Y-131895312D01*
X120345998Y-131961447D01*
X120300946Y-132000484D01*
X120292182Y-132004949D01*
X120120213Y-132129890D01*
X119969890Y-132280213D01*
X119844951Y-132452179D01*
X119748444Y-132641585D01*
X119682753Y-132843760D01*
X119649500Y-133053713D01*
X119649500Y-133266287D01*
X119682754Y-133476243D01*
X119688132Y-133492796D01*
X119748444Y-133678414D01*
X119844951Y-133867820D01*
X119969890Y-134039786D01*
X120120213Y-134190109D01*
X120292182Y-134315050D01*
X120300946Y-134319516D01*
X120351742Y-134367491D01*
X120368536Y-134435312D01*
X120345998Y-134501447D01*
X120300946Y-134540484D01*
X120292182Y-134544949D01*
X120120213Y-134669890D01*
X119969890Y-134820213D01*
X119844951Y-134992179D01*
X119748444Y-135181585D01*
X119682753Y-135383760D01*
X119649500Y-135593713D01*
X119649500Y-135806286D01*
X119682753Y-136016239D01*
X119748444Y-136218414D01*
X119844951Y-136407820D01*
X119969890Y-136579786D01*
X120120213Y-136730109D01*
X120292182Y-136855050D01*
X120300946Y-136859516D01*
X120351742Y-136907491D01*
X120368536Y-136975312D01*
X120345998Y-137041447D01*
X120300946Y-137080484D01*
X120292182Y-137084949D01*
X120120213Y-137209890D01*
X119969890Y-137360213D01*
X119844951Y-137532179D01*
X119748444Y-137721585D01*
X119682753Y-137923760D01*
X119649500Y-138133713D01*
X119649500Y-138346286D01*
X119679033Y-138532754D01*
X119682754Y-138556243D01*
X119727823Y-138694951D01*
X119748444Y-138758414D01*
X119844951Y-138947820D01*
X119969890Y-139119786D01*
X120120213Y-139270109D01*
X120292182Y-139395050D01*
X120300946Y-139399516D01*
X120351742Y-139447491D01*
X120368536Y-139515312D01*
X120345998Y-139581447D01*
X120300946Y-139620484D01*
X120292182Y-139624949D01*
X120120213Y-139749890D01*
X119969890Y-139900213D01*
X119844951Y-140072179D01*
X119748444Y-140261585D01*
X119682753Y-140463760D01*
X119649500Y-140673713D01*
X119649500Y-140886286D01*
X119678491Y-141069331D01*
X119682754Y-141096243D01*
X119747292Y-141294871D01*
X119748444Y-141298414D01*
X119844951Y-141487820D01*
X119969890Y-141659786D01*
X120120213Y-141810109D01*
X120292179Y-141935048D01*
X120292181Y-141935049D01*
X120292184Y-141935051D01*
X120481588Y-142031557D01*
X120683757Y-142097246D01*
X120893713Y-142130500D01*
X120893714Y-142130500D01*
X121106286Y-142130500D01*
X121106287Y-142130500D01*
X121316243Y-142097246D01*
X121518412Y-142031557D01*
X121707816Y-141935051D01*
X121729789Y-141919086D01*
X121879786Y-141810109D01*
X121879788Y-141810106D01*
X121879792Y-141810104D01*
X122030104Y-141659792D01*
X122030106Y-141659788D01*
X122030109Y-141659786D01*
X122155048Y-141487820D01*
X122155047Y-141487820D01*
X122155051Y-141487816D01*
X122251557Y-141298412D01*
X122317246Y-141096243D01*
X122350500Y-140886287D01*
X122350500Y-140673713D01*
X122317246Y-140463757D01*
X122251557Y-140261588D01*
X122155051Y-140072184D01*
X122155049Y-140072181D01*
X122155048Y-140072179D01*
X122030109Y-139900213D01*
X121879786Y-139749890D01*
X121707820Y-139624951D01*
X121707115Y-139624591D01*
X121699054Y-139620485D01*
X121648259Y-139572512D01*
X121631463Y-139504692D01*
X121653999Y-139438556D01*
X121699054Y-139399515D01*
X121707816Y-139395051D01*
X121835131Y-139302552D01*
X121879786Y-139270109D01*
X121879788Y-139270106D01*
X121879792Y-139270104D01*
X122030104Y-139119792D01*
X122030106Y-139119788D01*
X122030109Y-139119786D01*
X122155048Y-138947820D01*
X122155047Y-138947820D01*
X122155051Y-138947816D01*
X122251557Y-138758412D01*
X122317246Y-138556243D01*
X122350500Y-138346287D01*
X122350500Y-138133713D01*
X122317246Y-137923757D01*
X122251557Y-137721588D01*
X122155051Y-137532184D01*
X122155049Y-137532181D01*
X122155048Y-137532179D01*
X122030109Y-137360213D01*
X121879786Y-137209890D01*
X121707820Y-137084951D01*
X121707115Y-137084591D01*
X121699054Y-137080485D01*
X121648259Y-137032512D01*
X121631463Y-136964692D01*
X121653999Y-136898556D01*
X121699054Y-136859515D01*
X121707816Y-136855051D01*
X121841808Y-136757701D01*
X121879786Y-136730109D01*
X121879788Y-136730106D01*
X121879792Y-136730104D01*
X122030104Y-136579792D01*
X122030106Y-136579788D01*
X122030109Y-136579786D01*
X122155048Y-136407820D01*
X122155047Y-136407820D01*
X122155051Y-136407816D01*
X122251557Y-136218412D01*
X122317246Y-136016243D01*
X122350500Y-135806287D01*
X122350500Y-135593713D01*
X122317246Y-135383757D01*
X122251557Y-135181588D01*
X122155051Y-134992184D01*
X122155049Y-134992181D01*
X122155048Y-134992179D01*
X122030109Y-134820213D01*
X121879786Y-134669890D01*
X121707820Y-134544951D01*
X121707115Y-134544591D01*
X121699054Y-134540485D01*
X121648259Y-134492512D01*
X121631463Y-134424692D01*
X121653999Y-134358556D01*
X121699054Y-134319515D01*
X121707816Y-134315051D01*
X121729789Y-134299086D01*
X121879786Y-134190109D01*
X121879788Y-134190106D01*
X121879792Y-134190104D01*
X122030104Y-134039792D01*
X122030106Y-134039788D01*
X122030109Y-134039786D01*
X122155048Y-133867820D01*
X122155047Y-133867820D01*
X122155051Y-133867816D01*
X122251557Y-133678412D01*
X122317246Y-133476243D01*
X122350500Y-133266287D01*
X122350500Y-133053713D01*
X122317246Y-132843757D01*
X122251557Y-132641588D01*
X122155051Y-132452184D01*
X122155049Y-132452181D01*
X122155048Y-132452179D01*
X122030109Y-132280213D01*
X121879786Y-132129890D01*
X121707820Y-132004951D01*
X121707115Y-132004591D01*
X121699054Y-132000485D01*
X121648259Y-131952512D01*
X121631463Y-131884692D01*
X121653999Y-131818556D01*
X121699054Y-131779515D01*
X121707816Y-131775051D01*
X121729789Y-131759086D01*
X121879786Y-131650109D01*
X121879788Y-131650106D01*
X121879792Y-131650104D01*
X122030104Y-131499792D01*
X122030106Y-131499788D01*
X122030109Y-131499786D01*
X122155048Y-131327820D01*
X122155047Y-131327820D01*
X122155051Y-131327816D01*
X122251557Y-131138412D01*
X122317246Y-130936243D01*
X122350500Y-130726287D01*
X122350500Y-130513713D01*
X122317246Y-130303757D01*
X122251557Y-130101588D01*
X122155051Y-129912184D01*
X122155049Y-129912181D01*
X122155048Y-129912179D01*
X122030109Y-129740213D01*
X121879786Y-129589890D01*
X121707820Y-129464951D01*
X121707115Y-129464591D01*
X121699054Y-129460485D01*
X121648259Y-129412512D01*
X121631463Y-129344692D01*
X121653999Y-129278556D01*
X121699054Y-129239515D01*
X121707816Y-129235051D01*
X121729789Y-129219086D01*
X121879786Y-129110109D01*
X121879788Y-129110106D01*
X121879792Y-129110104D01*
X122030104Y-128959792D01*
X122030106Y-128959788D01*
X122030109Y-128959786D01*
X122155048Y-128787820D01*
X122155047Y-128787820D01*
X122155051Y-128787816D01*
X122251557Y-128598412D01*
X122317246Y-128396243D01*
X122350500Y-128186287D01*
X122350500Y-127973713D01*
X122317246Y-127763757D01*
X122251557Y-127561588D01*
X122155051Y-127372184D01*
X122155049Y-127372181D01*
X122155048Y-127372179D01*
X122030109Y-127200213D01*
X121879786Y-127049890D01*
X121707817Y-126924949D01*
X121698504Y-126920204D01*
X121647707Y-126872230D01*
X121630912Y-126804409D01*
X121653449Y-126738274D01*
X121698507Y-126699232D01*
X121707555Y-126694622D01*
X121761716Y-126655270D01*
X121761717Y-126655270D01*
X121129408Y-126022962D01*
X121192993Y-126005925D01*
X121307007Y-125940099D01*
X121400099Y-125847007D01*
X121465925Y-125732993D01*
X121482962Y-125669408D01*
X122115270Y-126301717D01*
X122115270Y-126301716D01*
X122154622Y-126247554D01*
X122251095Y-126058217D01*
X122316757Y-125856130D01*
X122316757Y-125856127D01*
X122350000Y-125646246D01*
X122350000Y-125433753D01*
X122316757Y-125223872D01*
X122316757Y-125223869D01*
X122251095Y-125021782D01*
X122154624Y-124832449D01*
X122115270Y-124778282D01*
X122115269Y-124778282D01*
X121482962Y-125410590D01*
X121465925Y-125347007D01*
X121400099Y-125232993D01*
X121307007Y-125139901D01*
X121192993Y-125074075D01*
X121129409Y-125057037D01*
X121799627Y-124386818D01*
X121860950Y-124353333D01*
X121887307Y-124350499D01*
X121897872Y-124350499D01*
X121957483Y-124344091D01*
X122092331Y-124293796D01*
X122207546Y-124207546D01*
X122293796Y-124092331D01*
X122344091Y-123957483D01*
X122350500Y-123897873D01*
X122350499Y-122102135D01*
X137649500Y-122102135D01*
X137649500Y-123897870D01*
X137649501Y-123897876D01*
X137655908Y-123957483D01*
X137706202Y-124092328D01*
X137706206Y-124092335D01*
X137792452Y-124207544D01*
X137792455Y-124207547D01*
X137907664Y-124293793D01*
X137907671Y-124293797D01*
X138039082Y-124342810D01*
X138095016Y-124384681D01*
X138119433Y-124450145D01*
X138104582Y-124518418D01*
X138083431Y-124546673D01*
X137969889Y-124660215D01*
X137844951Y-124832179D01*
X137748444Y-125021585D01*
X137682753Y-125223760D01*
X137649500Y-125433713D01*
X137649500Y-125646286D01*
X137682753Y-125856239D01*
X137748444Y-126058414D01*
X137844951Y-126247820D01*
X137969890Y-126419786D01*
X138120213Y-126570109D01*
X138292182Y-126695050D01*
X138300946Y-126699516D01*
X138351742Y-126747491D01*
X138368536Y-126815312D01*
X138345998Y-126881447D01*
X138300946Y-126920484D01*
X138292182Y-126924949D01*
X138120213Y-127049890D01*
X137969890Y-127200213D01*
X137844951Y-127372179D01*
X137748444Y-127561585D01*
X137682753Y-127763760D01*
X137649500Y-127973713D01*
X137649500Y-128186286D01*
X137682753Y-128396239D01*
X137748444Y-128598414D01*
X137844951Y-128787820D01*
X137969890Y-128959786D01*
X138120213Y-129110109D01*
X138292182Y-129235050D01*
X138300946Y-129239516D01*
X138351742Y-129287491D01*
X138368536Y-129355312D01*
X138345998Y-129421447D01*
X138300946Y-129460484D01*
X138292182Y-129464949D01*
X138120213Y-129589890D01*
X137969890Y-129740213D01*
X137844951Y-129912179D01*
X137748444Y-130101585D01*
X137682753Y-130303760D01*
X137649500Y-130513713D01*
X137649500Y-130726286D01*
X137682753Y-130936239D01*
X137748444Y-131138414D01*
X137844951Y-131327820D01*
X137969890Y-131499786D01*
X138120213Y-131650109D01*
X138292182Y-131775050D01*
X138300946Y-131779516D01*
X138351742Y-131827491D01*
X138368536Y-131895312D01*
X138345998Y-131961447D01*
X138300946Y-132000484D01*
X138292182Y-132004949D01*
X138120213Y-132129890D01*
X137969890Y-132280213D01*
X137844951Y-132452179D01*
X137748444Y-132641585D01*
X137682753Y-132843760D01*
X137649500Y-133053713D01*
X137649500Y-133266287D01*
X137682754Y-133476243D01*
X137688132Y-133492796D01*
X137748444Y-133678414D01*
X137844951Y-133867820D01*
X137969890Y-134039786D01*
X138120213Y-134190109D01*
X138292182Y-134315050D01*
X138300946Y-134319516D01*
X138351742Y-134367491D01*
X138368536Y-134435312D01*
X138345998Y-134501447D01*
X138300946Y-134540484D01*
X138292182Y-134544949D01*
X138120213Y-134669890D01*
X137969890Y-134820213D01*
X137844951Y-134992179D01*
X137748444Y-135181585D01*
X137682753Y-135383760D01*
X137649500Y-135593713D01*
X137649500Y-135806286D01*
X137682753Y-136016239D01*
X137748444Y-136218414D01*
X137844951Y-136407820D01*
X137969890Y-136579786D01*
X138120213Y-136730109D01*
X138292182Y-136855050D01*
X138300946Y-136859516D01*
X138351742Y-136907491D01*
X138368536Y-136975312D01*
X138345998Y-137041447D01*
X138300946Y-137080484D01*
X138292182Y-137084949D01*
X138120213Y-137209890D01*
X137969890Y-137360213D01*
X137844951Y-137532179D01*
X137748444Y-137721585D01*
X137682753Y-137923760D01*
X137649500Y-138133713D01*
X137649500Y-138346286D01*
X137679033Y-138532754D01*
X137682754Y-138556243D01*
X137727823Y-138694951D01*
X137748444Y-138758414D01*
X137844951Y-138947820D01*
X137969890Y-139119786D01*
X138120213Y-139270109D01*
X138292182Y-139395050D01*
X138300946Y-139399516D01*
X138351742Y-139447491D01*
X138368536Y-139515312D01*
X138345998Y-139581447D01*
X138300946Y-139620484D01*
X138292182Y-139624949D01*
X138120213Y-139749890D01*
X137969890Y-139900213D01*
X137844951Y-140072179D01*
X137748444Y-140261585D01*
X137682753Y-140463760D01*
X137649500Y-140673713D01*
X137649500Y-140886286D01*
X137678491Y-141069331D01*
X137682754Y-141096243D01*
X137747292Y-141294871D01*
X137748444Y-141298414D01*
X137844951Y-141487820D01*
X137969890Y-141659786D01*
X138120213Y-141810109D01*
X138292179Y-141935048D01*
X138292181Y-141935049D01*
X138292184Y-141935051D01*
X138481588Y-142031557D01*
X138683757Y-142097246D01*
X138893713Y-142130500D01*
X138893714Y-142130500D01*
X139106286Y-142130500D01*
X139106287Y-142130500D01*
X139316243Y-142097246D01*
X139518412Y-142031557D01*
X139707816Y-141935051D01*
X139729789Y-141919086D01*
X139879786Y-141810109D01*
X139879788Y-141810106D01*
X139879792Y-141810104D01*
X140030104Y-141659792D01*
X140030106Y-141659788D01*
X140030109Y-141659786D01*
X140155048Y-141487820D01*
X140155047Y-141487820D01*
X140155051Y-141487816D01*
X140251557Y-141298412D01*
X140317246Y-141096243D01*
X140350500Y-140886287D01*
X140350500Y-140673713D01*
X140317246Y-140463757D01*
X140251557Y-140261588D01*
X140155051Y-140072184D01*
X140155049Y-140072181D01*
X140155048Y-140072179D01*
X140030109Y-139900213D01*
X139879786Y-139749890D01*
X139707820Y-139624951D01*
X139707115Y-139624591D01*
X139699054Y-139620485D01*
X139648259Y-139572512D01*
X139631463Y-139504692D01*
X139653999Y-139438556D01*
X139699054Y-139399515D01*
X139707816Y-139395051D01*
X139835131Y-139302552D01*
X139879786Y-139270109D01*
X139879788Y-139270106D01*
X139879792Y-139270104D01*
X140030104Y-139119792D01*
X140030106Y-139119788D01*
X140030109Y-139119786D01*
X140155048Y-138947820D01*
X140155047Y-138947820D01*
X140155051Y-138947816D01*
X140251557Y-138758412D01*
X140317246Y-138556243D01*
X140350500Y-138346287D01*
X140350500Y-138133713D01*
X140317246Y-137923757D01*
X140251557Y-137721588D01*
X140155051Y-137532184D01*
X140155049Y-137532181D01*
X140155048Y-137532179D01*
X140030109Y-137360213D01*
X139879786Y-137209890D01*
X139707820Y-137084951D01*
X139707115Y-137084591D01*
X139699054Y-137080485D01*
X139648259Y-137032512D01*
X139631463Y-136964692D01*
X139653999Y-136898556D01*
X139699054Y-136859515D01*
X139707816Y-136855051D01*
X139841808Y-136757701D01*
X139879786Y-136730109D01*
X139879788Y-136730106D01*
X139879792Y-136730104D01*
X140030104Y-136579792D01*
X140030106Y-136579788D01*
X140030109Y-136579786D01*
X140155048Y-136407820D01*
X140155047Y-136407820D01*
X140155051Y-136407816D01*
X140251557Y-136218412D01*
X140317246Y-136016243D01*
X140350500Y-135806287D01*
X140350500Y-135593713D01*
X140317246Y-135383757D01*
X140251557Y-135181588D01*
X140155051Y-134992184D01*
X140155049Y-134992181D01*
X140155048Y-134992179D01*
X140030109Y-134820213D01*
X139879786Y-134669890D01*
X139707820Y-134544951D01*
X139707115Y-134544591D01*
X139699054Y-134540485D01*
X139648259Y-134492512D01*
X139631463Y-134424692D01*
X139653999Y-134358556D01*
X139699054Y-134319515D01*
X139707816Y-134315051D01*
X139729789Y-134299086D01*
X139879786Y-134190109D01*
X139879788Y-134190106D01*
X139879792Y-134190104D01*
X140030104Y-134039792D01*
X140030106Y-134039788D01*
X140030109Y-134039786D01*
X140155048Y-133867820D01*
X140155047Y-133867820D01*
X140155051Y-133867816D01*
X140251557Y-133678412D01*
X140317246Y-133476243D01*
X140350500Y-133266287D01*
X140350500Y-133053713D01*
X140317246Y-132843757D01*
X140251557Y-132641588D01*
X140155051Y-132452184D01*
X140155049Y-132452181D01*
X140155048Y-132452179D01*
X140030109Y-132280213D01*
X139879786Y-132129890D01*
X139707820Y-132004951D01*
X139707115Y-132004591D01*
X139699054Y-132000485D01*
X139648259Y-131952512D01*
X139631463Y-131884692D01*
X139653999Y-131818556D01*
X139699054Y-131779515D01*
X139707816Y-131775051D01*
X139729789Y-131759086D01*
X139879786Y-131650109D01*
X139879788Y-131650106D01*
X139879792Y-131650104D01*
X140030104Y-131499792D01*
X140030106Y-131499788D01*
X140030109Y-131499786D01*
X140155048Y-131327820D01*
X140155047Y-131327820D01*
X140155051Y-131327816D01*
X140251557Y-131138412D01*
X140317246Y-130936243D01*
X140350500Y-130726287D01*
X140350500Y-130513713D01*
X140317246Y-130303757D01*
X140251557Y-130101588D01*
X140155051Y-129912184D01*
X140155049Y-129912181D01*
X140155048Y-129912179D01*
X140030109Y-129740213D01*
X139879786Y-129589890D01*
X139707820Y-129464951D01*
X139707115Y-129464591D01*
X139699054Y-129460485D01*
X139648259Y-129412512D01*
X139631463Y-129344692D01*
X139653999Y-129278556D01*
X139699054Y-129239515D01*
X139707816Y-129235051D01*
X139729789Y-129219086D01*
X139879786Y-129110109D01*
X139879788Y-129110106D01*
X139879792Y-129110104D01*
X140030104Y-128959792D01*
X140030106Y-128959788D01*
X140030109Y-128959786D01*
X140155048Y-128787820D01*
X140155047Y-128787820D01*
X140155051Y-128787816D01*
X140251557Y-128598412D01*
X140317246Y-128396243D01*
X140350500Y-128186287D01*
X140350500Y-127973713D01*
X140317246Y-127763757D01*
X140251557Y-127561588D01*
X140155051Y-127372184D01*
X140155049Y-127372181D01*
X140155048Y-127372179D01*
X140030109Y-127200213D01*
X139879786Y-127049890D01*
X139707820Y-126924951D01*
X139707115Y-126924591D01*
X139699054Y-126920485D01*
X139648259Y-126872512D01*
X139631463Y-126804692D01*
X139653999Y-126738556D01*
X139699054Y-126699515D01*
X139707816Y-126695051D01*
X139762572Y-126655269D01*
X139879786Y-126570109D01*
X139879788Y-126570106D01*
X139879792Y-126570104D01*
X140030104Y-126419792D01*
X140030106Y-126419788D01*
X140030109Y-126419786D01*
X140155048Y-126247820D01*
X140155047Y-126247820D01*
X140155051Y-126247816D01*
X140251557Y-126058412D01*
X140317246Y-125856243D01*
X140350500Y-125646287D01*
X140350500Y-125433713D01*
X140317246Y-125223757D01*
X140251557Y-125021588D01*
X140155051Y-124832184D01*
X140155049Y-124832181D01*
X140155048Y-124832179D01*
X140030109Y-124660213D01*
X139916569Y-124546673D01*
X139883084Y-124485350D01*
X139888068Y-124415658D01*
X139929940Y-124359725D01*
X139960915Y-124342810D01*
X140092331Y-124293796D01*
X140207546Y-124207546D01*
X140293796Y-124092331D01*
X140344091Y-123957483D01*
X140350500Y-123897873D01*
X140350499Y-122102128D01*
X140344091Y-122042517D01*
X140335257Y-122018833D01*
X140293797Y-121907671D01*
X140293793Y-121907664D01*
X140207547Y-121792455D01*
X140207544Y-121792452D01*
X140092335Y-121706206D01*
X140092328Y-121706202D01*
X139957482Y-121655908D01*
X139957483Y-121655908D01*
X139897883Y-121649501D01*
X139897881Y-121649500D01*
X139897873Y-121649500D01*
X139897864Y-121649500D01*
X138102129Y-121649500D01*
X138102123Y-121649501D01*
X138042516Y-121655908D01*
X137907671Y-121706202D01*
X137907664Y-121706206D01*
X137792455Y-121792452D01*
X137792452Y-121792455D01*
X137706206Y-121907664D01*
X137706202Y-121907671D01*
X137655908Y-122042517D01*
X137649816Y-122099184D01*
X137649501Y-122102123D01*
X137649500Y-122102135D01*
X122350499Y-122102135D01*
X122350499Y-122102128D01*
X122344091Y-122042517D01*
X122335257Y-122018833D01*
X122293797Y-121907671D01*
X122293793Y-121907664D01*
X122207547Y-121792455D01*
X122207544Y-121792452D01*
X122092335Y-121706206D01*
X122092328Y-121706202D01*
X121957482Y-121655908D01*
X121957483Y-121655908D01*
X121897883Y-121649501D01*
X121897881Y-121649500D01*
X121897873Y-121649500D01*
X121897864Y-121649500D01*
X120102129Y-121649500D01*
X120102123Y-121649501D01*
X120042516Y-121655908D01*
X119907671Y-121706202D01*
X119907664Y-121706206D01*
X119792455Y-121792452D01*
X119792452Y-121792455D01*
X119706206Y-121907664D01*
X119706202Y-121907671D01*
X119664742Y-122018833D01*
X119622871Y-122074767D01*
X119557407Y-122099184D01*
X119548560Y-122099500D01*
X117911303Y-122099500D01*
X117737341Y-122134103D01*
X117737329Y-122134106D01*
X117655392Y-122168045D01*
X117655393Y-122168046D01*
X117573455Y-122201985D01*
X117485040Y-122261063D01*
X117485039Y-122261064D01*
X117425961Y-122300537D01*
X110300537Y-129425961D01*
X110263380Y-129481572D01*
X110261063Y-129485040D01*
X110201987Y-129573453D01*
X110182914Y-129619500D01*
X110179853Y-129626889D01*
X110179850Y-129626895D01*
X110134106Y-129737331D01*
X110134103Y-129737341D01*
X110113114Y-129842859D01*
X110113115Y-129842860D01*
X110099500Y-129911310D01*
X110099500Y-138812770D01*
X110079815Y-138879809D01*
X110063181Y-138900451D01*
X110057289Y-138906342D01*
X109965187Y-139055663D01*
X109965186Y-139055666D01*
X109910001Y-139222203D01*
X109910001Y-139222204D01*
X109910000Y-139222204D01*
X109899500Y-139324983D01*
X100800000Y-139324983D01*
X100800000Y-104413389D01*
X105899500Y-104413389D01*
X105899500Y-118886611D01*
X105926598Y-119057701D01*
X105980127Y-119222445D01*
X106058768Y-119376788D01*
X106160586Y-119516928D01*
X106283072Y-119639414D01*
X106423212Y-119741232D01*
X106577555Y-119819873D01*
X106742299Y-119873402D01*
X106913389Y-119900500D01*
X106913390Y-119900500D01*
X107086610Y-119900500D01*
X107086611Y-119900500D01*
X107257701Y-119873402D01*
X107422445Y-119819873D01*
X107576788Y-119741232D01*
X107716928Y-119639414D01*
X107839414Y-119516928D01*
X107941232Y-119376788D01*
X108019873Y-119222445D01*
X108073402Y-119057701D01*
X108100500Y-118886611D01*
X108100500Y-105007204D01*
X108120185Y-104940165D01*
X108136819Y-104919523D01*
X108919523Y-104136819D01*
X108980846Y-104103334D01*
X109007204Y-104100500D01*
X110992796Y-104100500D01*
X111059835Y-104120185D01*
X111080477Y-104136819D01*
X111863181Y-104919523D01*
X111877884Y-104946450D01*
X111894477Y-104972269D01*
X111895368Y-104978469D01*
X111896666Y-104980846D01*
X111899500Y-105007204D01*
X111899500Y-105137770D01*
X111879815Y-105204809D01*
X111863181Y-105225451D01*
X111807289Y-105281342D01*
X111715187Y-105430663D01*
X111715185Y-105430668D01*
X111710180Y-105445772D01*
X111660001Y-105597203D01*
X111660001Y-105597204D01*
X111660000Y-105597204D01*
X111649500Y-105699983D01*
X111649500Y-107300001D01*
X111649501Y-107300018D01*
X111660000Y-107402796D01*
X111660001Y-107402799D01*
X111715185Y-107569331D01*
X111715187Y-107569336D01*
X111729373Y-107592335D01*
X111807288Y-107718656D01*
X111931344Y-107842712D01*
X112080666Y-107934814D01*
X112247203Y-107989999D01*
X112349991Y-108000500D01*
X113650008Y-108000499D01*
X113752797Y-107989999D01*
X113919334Y-107934814D01*
X114068656Y-107842712D01*
X114192712Y-107718656D01*
X114284814Y-107569334D01*
X114284814Y-107569331D01*
X114288448Y-107563441D01*
X114340395Y-107516716D01*
X114409358Y-107505493D01*
X114473440Y-107533336D01*
X114481668Y-107540856D01*
X114620535Y-107679723D01*
X114620540Y-107679727D01*
X114792442Y-107804620D01*
X114981782Y-107901095D01*
X115183871Y-107966757D01*
X115250000Y-107977231D01*
X115250000Y-106933012D01*
X115307007Y-106965925D01*
X115434174Y-107000000D01*
X115565826Y-107000000D01*
X115692993Y-106965925D01*
X115750000Y-106933012D01*
X115750000Y-107977230D01*
X115816126Y-107966757D01*
X115816129Y-107966757D01*
X116018217Y-107901095D01*
X116207557Y-107804620D01*
X116379459Y-107679727D01*
X116379464Y-107679723D01*
X116529723Y-107529464D01*
X116529727Y-107529459D01*
X116654620Y-107357557D01*
X116751095Y-107168217D01*
X116816757Y-106966130D01*
X116816757Y-106966127D01*
X116850000Y-106756246D01*
X116850000Y-106750000D01*
X115933012Y-106750000D01*
X115965925Y-106692993D01*
X116000000Y-106565826D01*
X116000000Y-106434174D01*
X115965925Y-106307007D01*
X115933012Y-106250000D01*
X116850000Y-106250000D01*
X116850000Y-106243753D01*
X116816757Y-106033872D01*
X116816757Y-106033869D01*
X116751095Y-105831782D01*
X116661071Y-105655101D01*
X116654620Y-105642442D01*
X116625336Y-105602135D01*
X145649500Y-105602135D01*
X145649500Y-107397870D01*
X145649501Y-107397876D01*
X145655908Y-107457483D01*
X145706202Y-107592328D01*
X145706206Y-107592335D01*
X145792452Y-107707544D01*
X145792455Y-107707547D01*
X145907664Y-107793793D01*
X145907671Y-107793797D01*
X145952618Y-107810561D01*
X146042517Y-107844091D01*
X146102127Y-107850500D01*
X146112685Y-107850499D01*
X146179723Y-107870179D01*
X146200372Y-107886818D01*
X146870591Y-108557037D01*
X146807007Y-108574075D01*
X146692993Y-108639901D01*
X146599901Y-108732993D01*
X146534075Y-108847007D01*
X146517037Y-108910591D01*
X145884728Y-108278282D01*
X145884727Y-108278282D01*
X145845380Y-108332439D01*
X145748904Y-108521782D01*
X145683242Y-108723869D01*
X145683242Y-108723872D01*
X145650000Y-108933753D01*
X145650000Y-109146246D01*
X145683242Y-109356127D01*
X145683242Y-109356130D01*
X145748904Y-109558217D01*
X145845375Y-109747550D01*
X145884728Y-109801716D01*
X146517037Y-109169408D01*
X146534075Y-109232993D01*
X146599901Y-109347007D01*
X146692993Y-109440099D01*
X146807007Y-109505925D01*
X146870590Y-109522962D01*
X146238282Y-110155269D01*
X146238282Y-110155270D01*
X146292452Y-110194626D01*
X146292451Y-110194626D01*
X146301495Y-110199234D01*
X146352292Y-110247208D01*
X146369087Y-110315029D01*
X146346550Y-110381164D01*
X146301499Y-110420202D01*
X146292182Y-110424949D01*
X146120213Y-110549890D01*
X145969890Y-110700213D01*
X145844951Y-110872179D01*
X145748444Y-111061585D01*
X145682753Y-111263760D01*
X145649500Y-111473713D01*
X145649500Y-111686286D01*
X145682753Y-111896239D01*
X145748444Y-112098414D01*
X145844951Y-112287820D01*
X145969890Y-112459786D01*
X146120213Y-112610109D01*
X146292179Y-112735048D01*
X146292181Y-112735049D01*
X146292184Y-112735051D01*
X146481588Y-112831557D01*
X146683757Y-112897246D01*
X146893713Y-112930500D01*
X146893714Y-112930500D01*
X147106286Y-112930500D01*
X147106287Y-112930500D01*
X147316243Y-112897246D01*
X147518412Y-112831557D01*
X147707816Y-112735051D01*
X147729789Y-112719086D01*
X147879786Y-112610109D01*
X147879788Y-112610106D01*
X147879792Y-112610104D01*
X148030104Y-112459792D01*
X148030106Y-112459788D01*
X148030109Y-112459786D01*
X148155048Y-112287820D01*
X148155047Y-112287820D01*
X148155051Y-112287816D01*
X148251557Y-112098412D01*
X148317246Y-111896243D01*
X148350500Y-111686287D01*
X148350500Y-111473713D01*
X148317246Y-111263757D01*
X148251557Y-111061588D01*
X148155051Y-110872184D01*
X148155049Y-110872181D01*
X148155048Y-110872179D01*
X148030109Y-110700213D01*
X147879786Y-110549890D01*
X147707817Y-110424949D01*
X147698504Y-110420204D01*
X147647707Y-110372230D01*
X147630912Y-110304409D01*
X147653449Y-110238274D01*
X147698507Y-110199232D01*
X147707555Y-110194622D01*
X147761716Y-110155270D01*
X147761717Y-110155270D01*
X147129408Y-109522962D01*
X147192993Y-109505925D01*
X147307007Y-109440099D01*
X147400099Y-109347007D01*
X147465925Y-109232993D01*
X147482962Y-109169408D01*
X148115270Y-109801717D01*
X148115270Y-109801716D01*
X148154622Y-109747554D01*
X148251095Y-109558217D01*
X148316757Y-109356130D01*
X148316757Y-109356127D01*
X148350000Y-109146246D01*
X148350000Y-108933753D01*
X148316757Y-108723872D01*
X148316757Y-108723869D01*
X148251095Y-108521782D01*
X148154624Y-108332449D01*
X148115270Y-108278282D01*
X148115269Y-108278282D01*
X147482962Y-108910590D01*
X147465925Y-108847007D01*
X147400099Y-108732993D01*
X147307007Y-108639901D01*
X147192993Y-108574075D01*
X147129409Y-108557037D01*
X147799627Y-107886818D01*
X147860950Y-107853333D01*
X147887307Y-107850499D01*
X147897872Y-107850499D01*
X147957483Y-107844091D01*
X148092331Y-107793796D01*
X148207546Y-107707546D01*
X148293796Y-107592331D01*
X148344091Y-107457483D01*
X148350500Y-107397873D01*
X148350499Y-105602128D01*
X148344091Y-105542517D01*
X148317245Y-105470540D01*
X148293797Y-105407671D01*
X148293793Y-105407664D01*
X148207547Y-105292455D01*
X148207544Y-105292452D01*
X148092335Y-105206206D01*
X148092328Y-105206202D01*
X147957482Y-105155908D01*
X147957483Y-105155908D01*
X147897883Y-105149501D01*
X147897881Y-105149500D01*
X147897873Y-105149500D01*
X147897864Y-105149500D01*
X146102129Y-105149500D01*
X146102123Y-105149501D01*
X146042516Y-105155908D01*
X145907671Y-105206202D01*
X145907664Y-105206206D01*
X145792455Y-105292452D01*
X145792452Y-105292455D01*
X145706206Y-105407664D01*
X145706202Y-105407671D01*
X145655908Y-105542517D01*
X145650029Y-105597203D01*
X145649501Y-105602123D01*
X145649500Y-105602135D01*
X116625336Y-105602135D01*
X116529727Y-105470540D01*
X116529723Y-105470535D01*
X116379464Y-105320276D01*
X116379459Y-105320272D01*
X116207557Y-105195379D01*
X116018215Y-105098903D01*
X115816124Y-105033241D01*
X115750000Y-105022768D01*
X115750000Y-106066988D01*
X115692993Y-106034075D01*
X115565826Y-106000000D01*
X115434174Y-106000000D01*
X115307007Y-106034075D01*
X115250000Y-106066988D01*
X115250000Y-105022768D01*
X115249999Y-105022768D01*
X115183875Y-105033241D01*
X114981784Y-105098903D01*
X114792442Y-105195379D01*
X114620541Y-105320271D01*
X114481668Y-105459144D01*
X114420345Y-105492628D01*
X114350653Y-105487644D01*
X114294720Y-105445772D01*
X114288448Y-105436558D01*
X114270630Y-105407671D01*
X114192712Y-105281344D01*
X114136819Y-105225451D01*
X114103334Y-105164128D01*
X114100500Y-105137770D01*
X114100500Y-104413389D01*
X114073655Y-104243898D01*
X114082610Y-104174605D01*
X114127606Y-104121153D01*
X114194357Y-104100513D01*
X114196128Y-104100500D01*
X149492796Y-104100500D01*
X149559835Y-104120185D01*
X149580477Y-104136819D01*
X149863181Y-104419523D01*
X149896666Y-104480846D01*
X149899500Y-104507204D01*
X149899500Y-133492796D01*
X149879815Y-133559835D01*
X149863181Y-133580477D01*
X148080477Y-135363181D01*
X148019154Y-135396666D01*
X147992796Y-135399500D01*
X146263389Y-135399500D01*
X146223728Y-135405781D01*
X146092302Y-135426597D01*
X145927552Y-135480128D01*
X145773211Y-135558768D01*
X145725114Y-135593713D01*
X145633072Y-135660586D01*
X145633070Y-135660588D01*
X145633069Y-135660588D01*
X145510588Y-135783069D01*
X145510588Y-135783070D01*
X145510586Y-135783072D01*
X145466859Y-135843256D01*
X145408768Y-135923211D01*
X145330128Y-136077552D01*
X145276597Y-136242302D01*
X145249500Y-136413389D01*
X145249500Y-136586610D01*
X145260623Y-136656842D01*
X145276598Y-136757701D01*
X145330127Y-136922445D01*
X145408768Y-137076788D01*
X145510586Y-137216928D01*
X145633072Y-137339414D01*
X145773212Y-137441232D01*
X145927555Y-137519873D01*
X146092299Y-137573402D01*
X146263389Y-137600500D01*
X146263390Y-137600500D01*
X148586610Y-137600500D01*
X148586611Y-137600500D01*
X148757701Y-137573402D01*
X148803539Y-137558507D01*
X148873378Y-137556513D01*
X148933211Y-137592593D01*
X148964040Y-137655294D01*
X148956076Y-137724708D01*
X148929537Y-137764120D01*
X148230475Y-138463181D01*
X148169152Y-138496666D01*
X148142794Y-138499500D01*
X147599998Y-138499500D01*
X147599980Y-138499501D01*
X147497203Y-138510000D01*
X147497200Y-138510001D01*
X147330668Y-138565185D01*
X147330663Y-138565187D01*
X147181342Y-138657289D01*
X147057289Y-138781342D01*
X146961821Y-138936121D01*
X146909873Y-138982845D01*
X146840910Y-138994068D01*
X146776828Y-138966224D01*
X146768601Y-138958705D01*
X146629786Y-138819890D01*
X146457820Y-138694951D01*
X146268414Y-138598444D01*
X146268413Y-138598443D01*
X146268412Y-138598443D01*
X146066243Y-138532754D01*
X146066241Y-138532753D01*
X146066240Y-138532753D01*
X145904957Y-138507208D01*
X145856287Y-138499500D01*
X145643713Y-138499500D01*
X145595042Y-138507208D01*
X145433760Y-138532753D01*
X145231585Y-138598444D01*
X145042179Y-138694951D01*
X144870213Y-138819890D01*
X144719890Y-138970213D01*
X144594951Y-139142179D01*
X144498444Y-139331585D01*
X144498443Y-139331587D01*
X144498443Y-139331588D01*
X144477823Y-139395050D01*
X144432753Y-139533760D01*
X144399500Y-139743713D01*
X144399500Y-140256286D01*
X144432360Y-140463760D01*
X144432754Y-140466243D01*
X144454346Y-140532697D01*
X144498444Y-140668414D01*
X144594951Y-140857820D01*
X144719890Y-141029786D01*
X144870213Y-141180109D01*
X145042179Y-141305048D01*
X145042181Y-141305049D01*
X145042184Y-141305051D01*
X145231588Y-141401557D01*
X145433757Y-141467246D01*
X145643713Y-141500500D01*
X145643714Y-141500500D01*
X145856286Y-141500500D01*
X145856287Y-141500500D01*
X146066243Y-141467246D01*
X146268412Y-141401557D01*
X146457816Y-141305051D01*
X146578029Y-141217712D01*
X146629784Y-141180110D01*
X146629784Y-141180109D01*
X146629792Y-141180104D01*
X146768604Y-141041291D01*
X146829923Y-141007809D01*
X146899615Y-141012793D01*
X146955549Y-141054664D01*
X146961821Y-141063878D01*
X146965185Y-141069333D01*
X146965186Y-141069334D01*
X147057288Y-141218656D01*
X147181344Y-141342712D01*
X147330666Y-141434814D01*
X147497203Y-141489999D01*
X147599991Y-141500500D01*
X148900008Y-141500499D01*
X149002797Y-141489999D01*
X149169334Y-141434814D01*
X149318656Y-141342712D01*
X149442712Y-141218656D01*
X149534814Y-141069334D01*
X149589999Y-140902797D01*
X149600500Y-140800009D01*
X149600499Y-140257202D01*
X149620183Y-140190164D01*
X149636813Y-140169527D01*
X151839414Y-137966928D01*
X151941232Y-137826788D01*
X152019873Y-137672446D01*
X152073402Y-137507701D01*
X152100500Y-137336611D01*
X152100500Y-137163390D01*
X152100500Y-103913389D01*
X152100500Y-103913384D01*
X152088784Y-103839415D01*
X152088784Y-103839414D01*
X152073403Y-103742299D01*
X152019873Y-103577555D01*
X152019871Y-103577552D01*
X152019871Y-103577550D01*
X151942957Y-103426598D01*
X151942961Y-103426595D01*
X151942948Y-103426581D01*
X151941232Y-103423212D01*
X151839414Y-103283072D01*
X151716928Y-103160586D01*
X150716928Y-102160586D01*
X150576788Y-102058768D01*
X150422445Y-101980127D01*
X150257701Y-101926598D01*
X150257699Y-101926597D01*
X150257698Y-101926597D01*
X150126271Y-101905781D01*
X150086611Y-101899500D01*
X108586610Y-101899500D01*
X108413389Y-101899500D01*
X108327844Y-101913049D01*
X108242298Y-101926598D01*
X108077549Y-101980128D01*
X107923211Y-102058768D01*
X107847653Y-102113665D01*
X107783072Y-102160586D01*
X107783070Y-102160588D01*
X107783069Y-102160588D01*
X106160588Y-103783069D01*
X106160588Y-103783070D01*
X106160586Y-103783072D01*
X106119651Y-103839414D01*
X106058768Y-103923211D01*
X105980128Y-104077552D01*
X105926597Y-104242302D01*
X105899500Y-104413389D01*
X100800000Y-104413389D01*
X100800000Y-101851161D01*
X100804531Y-101834906D01*
X100804108Y-101819507D01*
X100817881Y-101787015D01*
X100939080Y-101586526D01*
X100947567Y-101574230D01*
X101124481Y-101348417D01*
X101134396Y-101337226D01*
X101337226Y-101134396D01*
X101348417Y-101124481D01*
X101574230Y-100947567D01*
X101586534Y-100939075D01*
X101697097Y-100872238D01*
X101787013Y-100817883D01*
X101851162Y-100800000D01*
X158148838Y-100800000D01*
X158212987Y-100817882D01*
G37*
%TD.AperFunction*%
%TD*%
M02*
