%TF.GenerationSoftware,KiCad,Pcbnew,10.0.1*%
%TF.CreationDate,2026-09-04T22:03:54-05:00*%
%TF.ProjectId,WebShooter,57656253-686f-46f7-9465-722e6b696361,rev?*%
%TF.SameCoordinates,Original*%
%TF.FileFunction,Soldermask,Top*%
%TF.FilePolarity,Negative*%
%FSLAX46Y46*%
G04 Gerber Fmt 4.6, Leading zero omitted, Abs format (unit mm)*
G04 Created by KiCad (PCBNEW 10.0.1) date 2026-09-04 22:03:54*
%MOMM*%
%LPD*%
G01*
G04 APERTURE LIST*
G04 Aperture macros list*
%AMRoundRect*
0 Rectangle with rounded corners*
0 $1 Rounding radius*
0 $2 $3 $4 $5 $6 $7 $8 $9 X,Y pos of 4 corners*
0 Add a 4 corners polygon primitive as box body*
4,1,4,$2,$3,$4,$5,$6,$7,$8,$9,$2,$3,0*
0 Add four circle primitives for the rounded corners*
1,1,$1+$1,$2,$3*
1,1,$1+$1,$4,$5*
1,1,$1+$1,$6,$7*
1,1,$1+$1,$8,$9*
0 Add four rect primitives between the rounded corners*
20,1,$1+$1,$2,$3,$4,$5,0*
20,1,$1+$1,$4,$5,$6,$7,0*
20,1,$1+$1,$6,$7,$8,$9,0*
20,1,$1+$1,$8,$9,$2,$3,0*%
G04 Aperture macros list end*
%ADD10C,1.500000*%
%ADD11RoundRect,0.225000X-0.225000X-0.375000X0.225000X-0.375000X0.225000X0.375000X-0.225000X0.375000X0*%
%ADD12RoundRect,0.250000X-0.250000X-0.475000X0.250000X-0.475000X0.250000X0.475000X-0.250000X0.475000X0*%
%ADD13RoundRect,0.250000X-0.350000X-0.625000X0.350000X-0.625000X0.350000X0.625000X-0.350000X0.625000X0*%
%ADD14O,1.200000X1.750000*%
%ADD15C,4.400000*%
%ADD16RoundRect,0.250000X-0.262500X-0.450000X0.262500X-0.450000X0.262500X0.450000X-0.262500X0.450000X0*%
%ADD17RoundRect,0.243750X-0.243750X-0.456250X0.243750X-0.456250X0.243750X0.456250X-0.243750X0.456250X0*%
%ADD18RoundRect,0.250000X0.250000X0.475000X-0.250000X0.475000X-0.250000X-0.475000X0.250000X-0.475000X0*%
%ADD19R,1.700000X1.700000*%
%ADD20C,1.700000*%
%ADD21RoundRect,0.250000X0.450000X-0.262500X0.450000X0.262500X-0.450000X0.262500X-0.450000X-0.262500X0*%
%ADD22RoundRect,0.150000X-0.587500X-0.150000X0.587500X-0.150000X0.587500X0.150000X-0.587500X0.150000X0*%
%ADD23RoundRect,0.375000X-0.625000X-0.375000X0.625000X-0.375000X0.625000X0.375000X-0.625000X0.375000X0*%
%ADD24RoundRect,0.500000X-0.500000X-1.400000X0.500000X-1.400000X0.500000X1.400000X-0.500000X1.400000X0*%
%ADD25RoundRect,0.250000X0.600000X0.750000X-0.600000X0.750000X-0.600000X-0.750000X0.600000X-0.750000X0*%
%ADD26O,1.700000X2.000000*%
%ADD27RoundRect,0.250000X-0.600000X-0.750000X0.600000X-0.750000X0.600000X0.750000X-0.600000X0.750000X0*%
G04 APERTURE END LIST*
D10*
%TO.C,TP_3V3*%
X120000000Y-108000000D03*
%TD*%
%TO.C,TP_VBATT*%
X120000000Y-103500000D03*
%TD*%
D11*
%TO.C,D1*%
X146350000Y-134000000D03*
X149650000Y-134000000D03*
%TD*%
D12*
%TO.C,C_FILT*%
X115550000Y-135000000D03*
X117450000Y-135000000D03*
%TD*%
D13*
%TO.C,J_FSR*%
X111000000Y-140000000D03*
D14*
X113000000Y-140000000D03*
%TD*%
D15*
%TO.C,H4*%
X156000000Y-142000000D03*
%TD*%
D16*
%TO.C,R_PD*%
X147087500Y-129500000D03*
X148912500Y-129500000D03*
%TD*%
D17*
%TO.C,D2*%
X130062500Y-141000000D03*
X131937500Y-141000000D03*
%TD*%
D18*
%TO.C,C_OUT*%
X106950000Y-113000000D03*
X105050000Y-113000000D03*
%TD*%
D19*
%TO.C,J1*%
X121000000Y-123000000D03*
D20*
X121000000Y-125540000D03*
X121000000Y-128080000D03*
X121000000Y-130620000D03*
X121000000Y-133160000D03*
X121000000Y-135700000D03*
X121000000Y-138240000D03*
X121000000Y-140780000D03*
%TD*%
D16*
%TO.C,R_PWM*%
X140087500Y-115000000D03*
X141912500Y-115000000D03*
%TD*%
D10*
%TO.C,TP_ESC*%
X136000000Y-106500000D03*
%TD*%
D15*
%TO.C,H1*%
X104000000Y-104000000D03*
%TD*%
D19*
%TO.C,J2*%
X139000000Y-123000000D03*
D20*
X139000000Y-125540000D03*
X139000000Y-128080000D03*
X139000000Y-130620000D03*
X139000000Y-133160000D03*
X139000000Y-135700000D03*
X139000000Y-138240000D03*
X139000000Y-140780000D03*
%TD*%
D16*
%TO.C,R_PROT*%
X115587500Y-130000000D03*
X117412500Y-130000000D03*
%TD*%
D10*
%TO.C,TP_GATE*%
X151000000Y-126000000D03*
%TD*%
D16*
%TO.C,R_G*%
X143087500Y-126000000D03*
X144912500Y-126000000D03*
%TD*%
D18*
%TO.C,C_IN*%
X106950000Y-118800000D03*
X105050000Y-118800000D03*
%TD*%
D21*
%TO.C,R_REF*%
X116500000Y-140912500D03*
X116500000Y-139087500D03*
%TD*%
D22*
%TO.C,Q1*%
X142562500Y-133050000D03*
X142562500Y-134950000D03*
X144437500Y-134000000D03*
%TD*%
D23*
%TO.C,U1*%
X109350000Y-114200000D03*
X109350000Y-116500000D03*
D24*
X115650000Y-116500000D03*
D23*
X109350000Y-118800000D03*
%TD*%
D25*
%TO.C,J_SOL*%
X148250000Y-140000000D03*
D26*
X145750000Y-140000000D03*
%TD*%
D19*
%TO.C,J_ESC*%
X147000000Y-106500000D03*
D20*
X147000000Y-109040000D03*
X147000000Y-111580000D03*
%TD*%
D10*
%TO.C,TP_GND*%
X130000000Y-103500000D03*
%TD*%
D16*
%TO.C,R_LED*%
X125087500Y-141000000D03*
X126912500Y-141000000D03*
%TD*%
D27*
%TO.C,J_BATT*%
X113000000Y-106500000D03*
D26*
X115500000Y-106500000D03*
%TD*%
D15*
%TO.C,H3*%
X104000000Y-142000000D03*
%TD*%
D10*
%TO.C,TP_FSR*%
X111000000Y-130000000D03*
%TD*%
D15*
%TO.C,H2*%
X156000000Y-104000000D03*
%TD*%
M02*
