%TF.GenerationSoftware,KiCad,Pcbnew,10.0.1*%
%TF.CreationDate,2026-09-04T22:03:54-05:00*%
%TF.ProjectId,WebShooter,57656253-686f-46f7-9465-722e6b696361,rev?*%
%TF.SameCoordinates,Original*%
%TF.FileFunction,Other,User*%
%FSLAX46Y46*%
G04 Gerber Fmt 4.6, Leading zero omitted, Abs format (unit mm)*
G04 Created by KiCad (PCBNEW 10.0.1) date 2026-09-04 22:03:54*
%MOMM*%
%LPD*%
G01*
G04 APERTURE LIST*
%ADD10C,0.050000*%
G04 APERTURE END LIST*
%TO.C,TP_3V3*%
D10*
X121250000Y-108000000D02*
G75*
G02*
X118750000Y-108000000I-1250000J0D01*
G01*
X118750000Y-108000000D02*
G75*
G02*
X121250000Y-108000000I1250000J0D01*
G01*
%TO.C,TP_VBATT*%
X121250000Y-103500000D02*
G75*
G02*
X118750000Y-103500000I-1250000J0D01*
G01*
X118750000Y-103500000D02*
G75*
G02*
X121250000Y-103500000I1250000J0D01*
G01*
%TO.C,D1*%
X145650000Y-132850000D02*
X145650000Y-135150000D01*
X145650000Y-132850000D02*
X150350000Y-132850000D01*
X150350000Y-132850000D02*
X150350000Y-135150000D01*
X150350000Y-135150000D02*
X145650000Y-135150000D01*
%TO.C,C_FILT*%
X114800000Y-134020000D02*
X118200000Y-134020000D01*
X118200000Y-135980000D01*
X114800000Y-135980000D01*
X114800000Y-134020000D01*
%TO.C,J_FSR*%
X108550000Y-137800000D02*
X115450000Y-137800000D01*
X115450000Y-143300000D01*
X108550000Y-143300000D01*
X108550000Y-137800000D01*
%TO.C,H4*%
X158450000Y-142000000D02*
G75*
G02*
X153550000Y-142000000I-2450000J0D01*
G01*
X153550000Y-142000000D02*
G75*
G02*
X158450000Y-142000000I2450000J0D01*
G01*
%TO.C,R_PD*%
X146320000Y-128550000D02*
X149680000Y-128550000D01*
X149680000Y-130450000D01*
X146320000Y-130450000D01*
X146320000Y-128550000D01*
%TO.C,D2*%
X129320000Y-140050000D02*
X132680000Y-140050000D01*
X132680000Y-141950000D01*
X129320000Y-141950000D01*
X129320000Y-140050000D01*
%TO.C,C_OUT*%
X104300000Y-112020000D02*
X107700000Y-112020000D01*
X107700000Y-113980000D01*
X104300000Y-113980000D01*
X104300000Y-112020000D01*
%TO.C,J1*%
X119230000Y-121230000D02*
X122770000Y-121230000D01*
X119230000Y-142550000D02*
X119230000Y-121230000D01*
X122770000Y-121230000D02*
X122770000Y-142550000D01*
X122770000Y-142550000D02*
X119230000Y-142550000D01*
%TO.C,R_PWM*%
X139320000Y-114050000D02*
X142680000Y-114050000D01*
X142680000Y-115950000D01*
X139320000Y-115950000D01*
X139320000Y-114050000D01*
%TO.C,TP_ESC*%
X137250000Y-106500000D02*
G75*
G02*
X134750000Y-106500000I-1250000J0D01*
G01*
X134750000Y-106500000D02*
G75*
G02*
X137250000Y-106500000I1250000J0D01*
G01*
%TO.C,H1*%
X106450000Y-104000000D02*
G75*
G02*
X101550000Y-104000000I-2450000J0D01*
G01*
X101550000Y-104000000D02*
G75*
G02*
X106450000Y-104000000I2450000J0D01*
G01*
%TO.C,J2*%
X137230000Y-121230000D02*
X140770000Y-121230000D01*
X137230000Y-142550000D02*
X137230000Y-121230000D01*
X140770000Y-121230000D02*
X140770000Y-142550000D01*
X140770000Y-142550000D02*
X137230000Y-142550000D01*
%TO.C,R_PROT*%
X114820000Y-129050000D02*
X118180000Y-129050000D01*
X118180000Y-130950000D01*
X114820000Y-130950000D01*
X114820000Y-129050000D01*
%TO.C,TP_GATE*%
X152250000Y-126000000D02*
G75*
G02*
X149750000Y-126000000I-1250000J0D01*
G01*
X149750000Y-126000000D02*
G75*
G02*
X152250000Y-126000000I1250000J0D01*
G01*
%TO.C,R_G*%
X142320000Y-125050000D02*
X145680000Y-125050000D01*
X145680000Y-126950000D01*
X142320000Y-126950000D01*
X142320000Y-125050000D01*
%TO.C,C_IN*%
X104300000Y-117820000D02*
X107700000Y-117820000D01*
X107700000Y-119780000D01*
X104300000Y-119780000D01*
X104300000Y-117820000D01*
%TO.C,R_REF*%
X115550000Y-138320000D02*
X117450000Y-138320000D01*
X117450000Y-141680000D01*
X115550000Y-141680000D01*
X115550000Y-138320000D01*
%TO.C,Q1*%
X141570000Y-132500000D02*
X142600000Y-132500000D01*
X141570000Y-133610000D02*
X141570000Y-132500000D01*
X141570000Y-134390000D02*
X142600000Y-134390000D01*
X141570000Y-135500000D02*
X141570000Y-134390000D01*
X142600000Y-132300000D02*
X144400000Y-132300000D01*
X142600000Y-132500000D02*
X142600000Y-132300000D01*
X142600000Y-133610000D02*
X141570000Y-133610000D01*
X142600000Y-134390000D02*
X142600000Y-133610000D01*
X142600000Y-135500000D02*
X141570000Y-135500000D01*
X142600000Y-135700000D02*
X142600000Y-135500000D01*
X144400000Y-132300000D02*
X144400000Y-133450000D01*
X144400000Y-133450000D02*
X145430000Y-133450000D01*
X144400000Y-134550000D02*
X144400000Y-135700000D01*
X144400000Y-135700000D02*
X142600000Y-135700000D01*
X145430000Y-133450000D02*
X145430000Y-134550000D01*
X145430000Y-134550000D02*
X144400000Y-134550000D01*
%TO.C,U1*%
X108100000Y-112900000D02*
X108100000Y-120100000D01*
X108100000Y-120100000D02*
X116900000Y-120100000D01*
X116900000Y-112900000D02*
X108100000Y-112900000D01*
X116900000Y-120100000D02*
X116900000Y-112900000D01*
%TO.C,J_SOL*%
X142800000Y-136100000D02*
X151200000Y-136100000D01*
X151200000Y-142850000D01*
X142800000Y-142850000D01*
X142800000Y-136100000D01*
%TO.C,J_ESC*%
X145230000Y-104730000D02*
X148770000Y-104730000D01*
X148770000Y-113350000D01*
X145230000Y-113350000D01*
X145230000Y-104730000D01*
%TO.C,TP_GND*%
X131250000Y-103500000D02*
G75*
G02*
X128750000Y-103500000I-1250000J0D01*
G01*
X128750000Y-103500000D02*
G75*
G02*
X131250000Y-103500000I1250000J0D01*
G01*
%TO.C,R_LED*%
X124320000Y-140050000D02*
X127680000Y-140050000D01*
X127680000Y-141950000D01*
X124320000Y-141950000D01*
X124320000Y-140050000D01*
%TO.C,J_BATT*%
X110050000Y-103650000D02*
X118450000Y-103650000D01*
X118450000Y-110400000D01*
X110050000Y-110400000D01*
X110050000Y-103650000D01*
%TO.C,H3*%
X106450000Y-142000000D02*
G75*
G02*
X101550000Y-142000000I-2450000J0D01*
G01*
X101550000Y-142000000D02*
G75*
G02*
X106450000Y-142000000I2450000J0D01*
G01*
%TO.C,TP_FSR*%
X112250000Y-130000000D02*
G75*
G02*
X109750000Y-130000000I-1250000J0D01*
G01*
X109750000Y-130000000D02*
G75*
G02*
X112250000Y-130000000I1250000J0D01*
G01*
%TO.C,H2*%
X158450000Y-104000000D02*
G75*
G02*
X153550000Y-104000000I-2450000J0D01*
G01*
X153550000Y-104000000D02*
G75*
G02*
X158450000Y-104000000I2450000J0D01*
G01*
%TD*%
M02*
