%TF.GenerationSoftware,KiCad,Pcbnew,10.0.1*%
%TF.CreationDate,2026-09-08T15:03:45-05:00*%
%TF.ProjectId,WebShooter,57656253-686f-46f7-9465-722e6b696361,rev?*%
%TF.SameCoordinates,Original*%
%TF.FileFunction,AssemblyDrawing,Top*%
%FSLAX46Y46*%
G04 Gerber Fmt 4.6, Leading zero omitted, Abs format (unit mm)*
G04 Created by KiCad (PCBNEW 10.0.1) date 2026-09-08 15:03:45*
%MOMM*%
%LPD*%
G01*
G04 APERTURE LIST*
%ADD10C,0.150000*%
%ADD11C,0.080000*%
%ADD12C,0.110000*%
%ADD13C,0.120000*%
%ADD14C,0.100000*%
G04 APERTURE END LIST*
D10*
X101652381Y-129704819D02*
X102223809Y-129704819D01*
X101938095Y-130704819D02*
X101938095Y-129704819D01*
X102557143Y-130704819D02*
X102557143Y-129704819D01*
X102557143Y-129704819D02*
X102938095Y-129704819D01*
X102938095Y-129704819D02*
X103033333Y-129752438D01*
X103033333Y-129752438D02*
X103080952Y-129800057D01*
X103080952Y-129800057D02*
X103128571Y-129895295D01*
X103128571Y-129895295D02*
X103128571Y-130038152D01*
X103128571Y-130038152D02*
X103080952Y-130133390D01*
X103080952Y-130133390D02*
X103033333Y-130181009D01*
X103033333Y-130181009D02*
X102938095Y-130228628D01*
X102938095Y-130228628D02*
X102557143Y-130228628D01*
X103319048Y-130800057D02*
X104080952Y-130800057D01*
X104223810Y-129704819D02*
X104842857Y-129704819D01*
X104842857Y-129704819D02*
X104509524Y-130085771D01*
X104509524Y-130085771D02*
X104652381Y-130085771D01*
X104652381Y-130085771D02*
X104747619Y-130133390D01*
X104747619Y-130133390D02*
X104795238Y-130181009D01*
X104795238Y-130181009D02*
X104842857Y-130276247D01*
X104842857Y-130276247D02*
X104842857Y-130514342D01*
X104842857Y-130514342D02*
X104795238Y-130609580D01*
X104795238Y-130609580D02*
X104747619Y-130657200D01*
X104747619Y-130657200D02*
X104652381Y-130704819D01*
X104652381Y-130704819D02*
X104366667Y-130704819D01*
X104366667Y-130704819D02*
X104271429Y-130657200D01*
X104271429Y-130657200D02*
X104223810Y-130609580D01*
X105128572Y-129704819D02*
X105461905Y-130704819D01*
X105461905Y-130704819D02*
X105795238Y-129704819D01*
X106033334Y-129704819D02*
X106652381Y-129704819D01*
X106652381Y-129704819D02*
X106319048Y-130085771D01*
X106319048Y-130085771D02*
X106461905Y-130085771D01*
X106461905Y-130085771D02*
X106557143Y-130133390D01*
X106557143Y-130133390D02*
X106604762Y-130181009D01*
X106604762Y-130181009D02*
X106652381Y-130276247D01*
X106652381Y-130276247D02*
X106652381Y-130514342D01*
X106652381Y-130514342D02*
X106604762Y-130609580D01*
X106604762Y-130609580D02*
X106557143Y-130657200D01*
X106557143Y-130657200D02*
X106461905Y-130704819D01*
X106461905Y-130704819D02*
X106176191Y-130704819D01*
X106176191Y-130704819D02*
X106080953Y-130657200D01*
X106080953Y-130657200D02*
X106033334Y-130609580D01*
X101652381Y-126304819D02*
X102223809Y-126304819D01*
X101938095Y-127304819D02*
X101938095Y-126304819D01*
X102557143Y-127304819D02*
X102557143Y-126304819D01*
X102557143Y-126304819D02*
X102938095Y-126304819D01*
X102938095Y-126304819D02*
X103033333Y-126352438D01*
X103033333Y-126352438D02*
X103080952Y-126400057D01*
X103080952Y-126400057D02*
X103128571Y-126495295D01*
X103128571Y-126495295D02*
X103128571Y-126638152D01*
X103128571Y-126638152D02*
X103080952Y-126733390D01*
X103080952Y-126733390D02*
X103033333Y-126781009D01*
X103033333Y-126781009D02*
X102938095Y-126828628D01*
X102938095Y-126828628D02*
X102557143Y-126828628D01*
X103319048Y-127400057D02*
X104080952Y-127400057D01*
X104223810Y-126304819D02*
X104842857Y-126304819D01*
X104842857Y-126304819D02*
X104509524Y-126685771D01*
X104509524Y-126685771D02*
X104652381Y-126685771D01*
X104652381Y-126685771D02*
X104747619Y-126733390D01*
X104747619Y-126733390D02*
X104795238Y-126781009D01*
X104795238Y-126781009D02*
X104842857Y-126876247D01*
X104842857Y-126876247D02*
X104842857Y-127114342D01*
X104842857Y-127114342D02*
X104795238Y-127209580D01*
X104795238Y-127209580D02*
X104747619Y-127257200D01*
X104747619Y-127257200D02*
X104652381Y-127304819D01*
X104652381Y-127304819D02*
X104366667Y-127304819D01*
X104366667Y-127304819D02*
X104271429Y-127257200D01*
X104271429Y-127257200D02*
X104223810Y-127209580D01*
X105128572Y-126304819D02*
X105461905Y-127304819D01*
X105461905Y-127304819D02*
X105795238Y-126304819D01*
X106033334Y-126304819D02*
X106652381Y-126304819D01*
X106652381Y-126304819D02*
X106319048Y-126685771D01*
X106319048Y-126685771D02*
X106461905Y-126685771D01*
X106461905Y-126685771D02*
X106557143Y-126733390D01*
X106557143Y-126733390D02*
X106604762Y-126781009D01*
X106604762Y-126781009D02*
X106652381Y-126876247D01*
X106652381Y-126876247D02*
X106652381Y-127114342D01*
X106652381Y-127114342D02*
X106604762Y-127209580D01*
X106604762Y-127209580D02*
X106557143Y-127257200D01*
X106557143Y-127257200D02*
X106461905Y-127304819D01*
X106461905Y-127304819D02*
X106176191Y-127304819D01*
X106176191Y-127304819D02*
X106080953Y-127257200D01*
X106080953Y-127257200D02*
X106033334Y-127209580D01*
X101714285Y-109204819D02*
X102285713Y-109204819D01*
X101999999Y-110204819D02*
X101999999Y-109204819D01*
X102619047Y-110204819D02*
X102619047Y-109204819D01*
X102619047Y-109204819D02*
X102999999Y-109204819D01*
X102999999Y-109204819D02*
X103095237Y-109252438D01*
X103095237Y-109252438D02*
X103142856Y-109300057D01*
X103142856Y-109300057D02*
X103190475Y-109395295D01*
X103190475Y-109395295D02*
X103190475Y-109538152D01*
X103190475Y-109538152D02*
X103142856Y-109633390D01*
X103142856Y-109633390D02*
X103095237Y-109681009D01*
X103095237Y-109681009D02*
X102999999Y-109728628D01*
X102999999Y-109728628D02*
X102619047Y-109728628D01*
X103380952Y-110300057D02*
X104142856Y-110300057D01*
X104238095Y-109204819D02*
X104571428Y-110204819D01*
X104571428Y-110204819D02*
X104904761Y-109204819D01*
X105571428Y-109681009D02*
X105714285Y-109728628D01*
X105714285Y-109728628D02*
X105761904Y-109776247D01*
X105761904Y-109776247D02*
X105809523Y-109871485D01*
X105809523Y-109871485D02*
X105809523Y-110014342D01*
X105809523Y-110014342D02*
X105761904Y-110109580D01*
X105761904Y-110109580D02*
X105714285Y-110157200D01*
X105714285Y-110157200D02*
X105619047Y-110204819D01*
X105619047Y-110204819D02*
X105238095Y-110204819D01*
X105238095Y-110204819D02*
X105238095Y-109204819D01*
X105238095Y-109204819D02*
X105571428Y-109204819D01*
X105571428Y-109204819D02*
X105666666Y-109252438D01*
X105666666Y-109252438D02*
X105714285Y-109300057D01*
X105714285Y-109300057D02*
X105761904Y-109395295D01*
X105761904Y-109395295D02*
X105761904Y-109490533D01*
X105761904Y-109490533D02*
X105714285Y-109585771D01*
X105714285Y-109585771D02*
X105666666Y-109633390D01*
X105666666Y-109633390D02*
X105571428Y-109681009D01*
X105571428Y-109681009D02*
X105238095Y-109681009D01*
X106190476Y-109919104D02*
X106666666Y-109919104D01*
X106095238Y-110204819D02*
X106428571Y-109204819D01*
X106428571Y-109204819D02*
X106761904Y-110204819D01*
X106952381Y-109204819D02*
X107523809Y-109204819D01*
X107238095Y-110204819D02*
X107238095Y-109204819D01*
X107714286Y-109204819D02*
X108285714Y-109204819D01*
X108000000Y-110204819D02*
X108000000Y-109204819D01*
X101714285Y-105804819D02*
X102285713Y-105804819D01*
X101999999Y-106804819D02*
X101999999Y-105804819D01*
X102619047Y-106804819D02*
X102619047Y-105804819D01*
X102619047Y-105804819D02*
X102999999Y-105804819D01*
X102999999Y-105804819D02*
X103095237Y-105852438D01*
X103095237Y-105852438D02*
X103142856Y-105900057D01*
X103142856Y-105900057D02*
X103190475Y-105995295D01*
X103190475Y-105995295D02*
X103190475Y-106138152D01*
X103190475Y-106138152D02*
X103142856Y-106233390D01*
X103142856Y-106233390D02*
X103095237Y-106281009D01*
X103095237Y-106281009D02*
X102999999Y-106328628D01*
X102999999Y-106328628D02*
X102619047Y-106328628D01*
X103380952Y-106900057D02*
X104142856Y-106900057D01*
X104238095Y-105804819D02*
X104571428Y-106804819D01*
X104571428Y-106804819D02*
X104904761Y-105804819D01*
X105571428Y-106281009D02*
X105714285Y-106328628D01*
X105714285Y-106328628D02*
X105761904Y-106376247D01*
X105761904Y-106376247D02*
X105809523Y-106471485D01*
X105809523Y-106471485D02*
X105809523Y-106614342D01*
X105809523Y-106614342D02*
X105761904Y-106709580D01*
X105761904Y-106709580D02*
X105714285Y-106757200D01*
X105714285Y-106757200D02*
X105619047Y-106804819D01*
X105619047Y-106804819D02*
X105238095Y-106804819D01*
X105238095Y-106804819D02*
X105238095Y-105804819D01*
X105238095Y-105804819D02*
X105571428Y-105804819D01*
X105571428Y-105804819D02*
X105666666Y-105852438D01*
X105666666Y-105852438D02*
X105714285Y-105900057D01*
X105714285Y-105900057D02*
X105761904Y-105995295D01*
X105761904Y-105995295D02*
X105761904Y-106090533D01*
X105761904Y-106090533D02*
X105714285Y-106185771D01*
X105714285Y-106185771D02*
X105666666Y-106233390D01*
X105666666Y-106233390D02*
X105571428Y-106281009D01*
X105571428Y-106281009D02*
X105238095Y-106281009D01*
X106190476Y-106519104D02*
X106666666Y-106519104D01*
X106095238Y-106804819D02*
X106428571Y-105804819D01*
X106428571Y-105804819D02*
X106761904Y-106804819D01*
X106952381Y-105804819D02*
X107523809Y-105804819D01*
X107238095Y-106804819D02*
X107238095Y-105804819D01*
X107714286Y-105804819D02*
X108285714Y-105804819D01*
X108000000Y-106804819D02*
X108000000Y-105804819D01*
X131785714Y-131007200D02*
X131928571Y-131054819D01*
X131928571Y-131054819D02*
X132166666Y-131054819D01*
X132166666Y-131054819D02*
X132261904Y-131007200D01*
X132261904Y-131007200D02*
X132309523Y-130959580D01*
X132309523Y-130959580D02*
X132357142Y-130864342D01*
X132357142Y-130864342D02*
X132357142Y-130769104D01*
X132357142Y-130769104D02*
X132309523Y-130673866D01*
X132309523Y-130673866D02*
X132261904Y-130626247D01*
X132261904Y-130626247D02*
X132166666Y-130578628D01*
X132166666Y-130578628D02*
X131976190Y-130531009D01*
X131976190Y-130531009D02*
X131880952Y-130483390D01*
X131880952Y-130483390D02*
X131833333Y-130435771D01*
X131833333Y-130435771D02*
X131785714Y-130340533D01*
X131785714Y-130340533D02*
X131785714Y-130245295D01*
X131785714Y-130245295D02*
X131833333Y-130150057D01*
X131833333Y-130150057D02*
X131880952Y-130102438D01*
X131880952Y-130102438D02*
X131976190Y-130054819D01*
X131976190Y-130054819D02*
X132214285Y-130054819D01*
X132214285Y-130054819D02*
X132357142Y-130102438D01*
X132738095Y-131007200D02*
X132880952Y-131054819D01*
X132880952Y-131054819D02*
X133119047Y-131054819D01*
X133119047Y-131054819D02*
X133214285Y-131007200D01*
X133214285Y-131007200D02*
X133261904Y-130959580D01*
X133261904Y-130959580D02*
X133309523Y-130864342D01*
X133309523Y-130864342D02*
X133309523Y-130769104D01*
X133309523Y-130769104D02*
X133261904Y-130673866D01*
X133261904Y-130673866D02*
X133214285Y-130626247D01*
X133214285Y-130626247D02*
X133119047Y-130578628D01*
X133119047Y-130578628D02*
X132928571Y-130531009D01*
X132928571Y-130531009D02*
X132833333Y-130483390D01*
X132833333Y-130483390D02*
X132785714Y-130435771D01*
X132785714Y-130435771D02*
X132738095Y-130340533D01*
X132738095Y-130340533D02*
X132738095Y-130245295D01*
X132738095Y-130245295D02*
X132785714Y-130150057D01*
X132785714Y-130150057D02*
X132833333Y-130102438D01*
X132833333Y-130102438D02*
X132928571Y-130054819D01*
X132928571Y-130054819D02*
X133166666Y-130054819D01*
X133166666Y-130054819D02*
X133309523Y-130102438D01*
X134261904Y-131054819D02*
X133690476Y-131054819D01*
X133976190Y-131054819D02*
X133976190Y-130054819D01*
X133976190Y-130054819D02*
X133880952Y-130197676D01*
X133880952Y-130197676D02*
X133785714Y-130292914D01*
X133785714Y-130292914D02*
X133690476Y-130340533D01*
X135119047Y-130388152D02*
X135119047Y-131054819D01*
X134880952Y-130007200D02*
X134642857Y-130721485D01*
X134642857Y-130721485D02*
X135261904Y-130721485D01*
X132761905Y-126954819D02*
X132761905Y-125954819D01*
X132761905Y-125954819D02*
X133000000Y-125954819D01*
X133000000Y-125954819D02*
X133142857Y-126002438D01*
X133142857Y-126002438D02*
X133238095Y-126097676D01*
X133238095Y-126097676D02*
X133285714Y-126192914D01*
X133285714Y-126192914D02*
X133333333Y-126383390D01*
X133333333Y-126383390D02*
X133333333Y-126526247D01*
X133333333Y-126526247D02*
X133285714Y-126716723D01*
X133285714Y-126716723D02*
X133238095Y-126811961D01*
X133238095Y-126811961D02*
X133142857Y-126907200D01*
X133142857Y-126907200D02*
X133000000Y-126954819D01*
X133000000Y-126954819D02*
X132761905Y-126954819D01*
X134285714Y-126954819D02*
X133714286Y-126954819D01*
X134000000Y-126954819D02*
X134000000Y-125954819D01*
X134000000Y-125954819D02*
X133904762Y-126097676D01*
X133904762Y-126097676D02*
X133809524Y-126192914D01*
X133809524Y-126192914D02*
X133714286Y-126240533D01*
X114452380Y-133134819D02*
X113880952Y-133134819D01*
X114166666Y-133134819D02*
X114166666Y-132134819D01*
X114166666Y-132134819D02*
X114071428Y-132277676D01*
X114071428Y-132277676D02*
X113976190Y-132372914D01*
X113976190Y-132372914D02*
X113880952Y-132420533D01*
X115071428Y-132134819D02*
X115166666Y-132134819D01*
X115166666Y-132134819D02*
X115261904Y-132182438D01*
X115261904Y-132182438D02*
X115309523Y-132230057D01*
X115309523Y-132230057D02*
X115357142Y-132325295D01*
X115357142Y-132325295D02*
X115404761Y-132515771D01*
X115404761Y-132515771D02*
X115404761Y-132753866D01*
X115404761Y-132753866D02*
X115357142Y-132944342D01*
X115357142Y-132944342D02*
X115309523Y-133039580D01*
X115309523Y-133039580D02*
X115261904Y-133087200D01*
X115261904Y-133087200D02*
X115166666Y-133134819D01*
X115166666Y-133134819D02*
X115071428Y-133134819D01*
X115071428Y-133134819D02*
X114976190Y-133087200D01*
X114976190Y-133087200D02*
X114928571Y-133039580D01*
X114928571Y-133039580D02*
X114880952Y-132944342D01*
X114880952Y-132944342D02*
X114833333Y-132753866D01*
X114833333Y-132753866D02*
X114833333Y-132515771D01*
X114833333Y-132515771D02*
X114880952Y-132325295D01*
X114880952Y-132325295D02*
X114928571Y-132230057D01*
X114928571Y-132230057D02*
X114976190Y-132182438D01*
X114976190Y-132182438D02*
X115071428Y-132134819D01*
X116023809Y-132134819D02*
X116119047Y-132134819D01*
X116119047Y-132134819D02*
X116214285Y-132182438D01*
X116214285Y-132182438D02*
X116261904Y-132230057D01*
X116261904Y-132230057D02*
X116309523Y-132325295D01*
X116309523Y-132325295D02*
X116357142Y-132515771D01*
X116357142Y-132515771D02*
X116357142Y-132753866D01*
X116357142Y-132753866D02*
X116309523Y-132944342D01*
X116309523Y-132944342D02*
X116261904Y-133039580D01*
X116261904Y-133039580D02*
X116214285Y-133087200D01*
X116214285Y-133087200D02*
X116119047Y-133134819D01*
X116119047Y-133134819D02*
X116023809Y-133134819D01*
X116023809Y-133134819D02*
X115928571Y-133087200D01*
X115928571Y-133087200D02*
X115880952Y-133039580D01*
X115880952Y-133039580D02*
X115833333Y-132944342D01*
X115833333Y-132944342D02*
X115785714Y-132753866D01*
X115785714Y-132753866D02*
X115785714Y-132515771D01*
X115785714Y-132515771D02*
X115833333Y-132325295D01*
X115833333Y-132325295D02*
X115880952Y-132230057D01*
X115880952Y-132230057D02*
X115928571Y-132182438D01*
X115928571Y-132182438D02*
X116023809Y-132134819D01*
X116785714Y-132468152D02*
X116785714Y-133134819D01*
X116785714Y-132563390D02*
X116833333Y-132515771D01*
X116833333Y-132515771D02*
X116928571Y-132468152D01*
X116928571Y-132468152D02*
X117071428Y-132468152D01*
X117071428Y-132468152D02*
X117166666Y-132515771D01*
X117166666Y-132515771D02*
X117214285Y-132611009D01*
X117214285Y-132611009D02*
X117214285Y-133134819D01*
X118023809Y-132611009D02*
X117690476Y-132611009D01*
X117690476Y-133134819D02*
X117690476Y-132134819D01*
X117690476Y-132134819D02*
X118166666Y-132134819D01*
D11*
X115238095Y-131179530D02*
X115214286Y-131203340D01*
X115214286Y-131203340D02*
X115142857Y-131227149D01*
X115142857Y-131227149D02*
X115095238Y-131227149D01*
X115095238Y-131227149D02*
X115023810Y-131203340D01*
X115023810Y-131203340D02*
X114976191Y-131155720D01*
X114976191Y-131155720D02*
X114952381Y-131108101D01*
X114952381Y-131108101D02*
X114928572Y-131012863D01*
X114928572Y-131012863D02*
X114928572Y-130941435D01*
X114928572Y-130941435D02*
X114952381Y-130846197D01*
X114952381Y-130846197D02*
X114976191Y-130798578D01*
X114976191Y-130798578D02*
X115023810Y-130750959D01*
X115023810Y-130750959D02*
X115095238Y-130727149D01*
X115095238Y-130727149D02*
X115142857Y-130727149D01*
X115142857Y-130727149D02*
X115214286Y-130750959D01*
X115214286Y-130750959D02*
X115238095Y-130774768D01*
X115333334Y-131274768D02*
X115714286Y-131274768D01*
X116000000Y-130965244D02*
X115833333Y-130965244D01*
X115833333Y-131227149D02*
X115833333Y-130727149D01*
X115833333Y-130727149D02*
X116071428Y-130727149D01*
X116261904Y-131227149D02*
X116261904Y-130727149D01*
X116738094Y-131227149D02*
X116499999Y-131227149D01*
X116499999Y-131227149D02*
X116499999Y-130727149D01*
X116833333Y-130727149D02*
X117119047Y-130727149D01*
X116976190Y-131227149D02*
X116976190Y-130727149D01*
D10*
X105833333Y-138131009D02*
X105500000Y-138131009D01*
X105500000Y-138654819D02*
X105500000Y-137654819D01*
X105500000Y-137654819D02*
X105976190Y-137654819D01*
X106309524Y-138607200D02*
X106452381Y-138654819D01*
X106452381Y-138654819D02*
X106690476Y-138654819D01*
X106690476Y-138654819D02*
X106785714Y-138607200D01*
X106785714Y-138607200D02*
X106833333Y-138559580D01*
X106833333Y-138559580D02*
X106880952Y-138464342D01*
X106880952Y-138464342D02*
X106880952Y-138369104D01*
X106880952Y-138369104D02*
X106833333Y-138273866D01*
X106833333Y-138273866D02*
X106785714Y-138226247D01*
X106785714Y-138226247D02*
X106690476Y-138178628D01*
X106690476Y-138178628D02*
X106500000Y-138131009D01*
X106500000Y-138131009D02*
X106404762Y-138083390D01*
X106404762Y-138083390D02*
X106357143Y-138035771D01*
X106357143Y-138035771D02*
X106309524Y-137940533D01*
X106309524Y-137940533D02*
X106309524Y-137845295D01*
X106309524Y-137845295D02*
X106357143Y-137750057D01*
X106357143Y-137750057D02*
X106404762Y-137702438D01*
X106404762Y-137702438D02*
X106500000Y-137654819D01*
X106500000Y-137654819D02*
X106738095Y-137654819D01*
X106738095Y-137654819D02*
X106880952Y-137702438D01*
X107880952Y-138654819D02*
X107547619Y-138178628D01*
X107309524Y-138654819D02*
X107309524Y-137654819D01*
X107309524Y-137654819D02*
X107690476Y-137654819D01*
X107690476Y-137654819D02*
X107785714Y-137702438D01*
X107785714Y-137702438D02*
X107833333Y-137750057D01*
X107833333Y-137750057D02*
X107880952Y-137845295D01*
X107880952Y-137845295D02*
X107880952Y-137988152D01*
X107880952Y-137988152D02*
X107833333Y-138083390D01*
X107833333Y-138083390D02*
X107785714Y-138131009D01*
X107785714Y-138131009D02*
X107690476Y-138178628D01*
X107690476Y-138178628D02*
X107309524Y-138178628D01*
X108071429Y-138750057D02*
X108833333Y-138750057D01*
X109023810Y-138607200D02*
X109166667Y-138654819D01*
X109166667Y-138654819D02*
X109404762Y-138654819D01*
X109404762Y-138654819D02*
X109500000Y-138607200D01*
X109500000Y-138607200D02*
X109547619Y-138559580D01*
X109547619Y-138559580D02*
X109595238Y-138464342D01*
X109595238Y-138464342D02*
X109595238Y-138369104D01*
X109595238Y-138369104D02*
X109547619Y-138273866D01*
X109547619Y-138273866D02*
X109500000Y-138226247D01*
X109500000Y-138226247D02*
X109404762Y-138178628D01*
X109404762Y-138178628D02*
X109214286Y-138131009D01*
X109214286Y-138131009D02*
X109119048Y-138083390D01*
X109119048Y-138083390D02*
X109071429Y-138035771D01*
X109071429Y-138035771D02*
X109023810Y-137940533D01*
X109023810Y-137940533D02*
X109023810Y-137845295D01*
X109023810Y-137845295D02*
X109071429Y-137750057D01*
X109071429Y-137750057D02*
X109119048Y-137702438D01*
X109119048Y-137702438D02*
X109214286Y-137654819D01*
X109214286Y-137654819D02*
X109452381Y-137654819D01*
X109452381Y-137654819D02*
X109595238Y-137702438D01*
X110023810Y-138131009D02*
X110357143Y-138131009D01*
X110500000Y-138654819D02*
X110023810Y-138654819D01*
X110023810Y-138654819D02*
X110023810Y-137654819D01*
X110023810Y-137654819D02*
X110500000Y-137654819D01*
X110928572Y-138654819D02*
X110928572Y-137654819D01*
X110928572Y-137654819D02*
X111500000Y-138654819D01*
X111500000Y-138654819D02*
X111500000Y-137654819D01*
X111928572Y-138607200D02*
X112071429Y-138654819D01*
X112071429Y-138654819D02*
X112309524Y-138654819D01*
X112309524Y-138654819D02*
X112404762Y-138607200D01*
X112404762Y-138607200D02*
X112452381Y-138559580D01*
X112452381Y-138559580D02*
X112500000Y-138464342D01*
X112500000Y-138464342D02*
X112500000Y-138369104D01*
X112500000Y-138369104D02*
X112452381Y-138273866D01*
X112452381Y-138273866D02*
X112404762Y-138226247D01*
X112404762Y-138226247D02*
X112309524Y-138178628D01*
X112309524Y-138178628D02*
X112119048Y-138131009D01*
X112119048Y-138131009D02*
X112023810Y-138083390D01*
X112023810Y-138083390D02*
X111976191Y-138035771D01*
X111976191Y-138035771D02*
X111928572Y-137940533D01*
X111928572Y-137940533D02*
X111928572Y-137845295D01*
X111928572Y-137845295D02*
X111976191Y-137750057D01*
X111976191Y-137750057D02*
X112023810Y-137702438D01*
X112023810Y-137702438D02*
X112119048Y-137654819D01*
X112119048Y-137654819D02*
X112357143Y-137654819D01*
X112357143Y-137654819D02*
X112500000Y-137702438D01*
X113119048Y-137654819D02*
X113309524Y-137654819D01*
X113309524Y-137654819D02*
X113404762Y-137702438D01*
X113404762Y-137702438D02*
X113500000Y-137797676D01*
X113500000Y-137797676D02*
X113547619Y-137988152D01*
X113547619Y-137988152D02*
X113547619Y-138321485D01*
X113547619Y-138321485D02*
X113500000Y-138511961D01*
X113500000Y-138511961D02*
X113404762Y-138607200D01*
X113404762Y-138607200D02*
X113309524Y-138654819D01*
X113309524Y-138654819D02*
X113119048Y-138654819D01*
X113119048Y-138654819D02*
X113023810Y-138607200D01*
X113023810Y-138607200D02*
X112928572Y-138511961D01*
X112928572Y-138511961D02*
X112880953Y-138321485D01*
X112880953Y-138321485D02*
X112880953Y-137988152D01*
X112880953Y-137988152D02*
X112928572Y-137797676D01*
X112928572Y-137797676D02*
X113023810Y-137702438D01*
X113023810Y-137702438D02*
X113119048Y-137654819D01*
X114547619Y-138654819D02*
X114214286Y-138178628D01*
X113976191Y-138654819D02*
X113976191Y-137654819D01*
X113976191Y-137654819D02*
X114357143Y-137654819D01*
X114357143Y-137654819D02*
X114452381Y-137702438D01*
X114452381Y-137702438D02*
X114500000Y-137750057D01*
X114500000Y-137750057D02*
X114547619Y-137845295D01*
X114547619Y-137845295D02*
X114547619Y-137988152D01*
X114547619Y-137988152D02*
X114500000Y-138083390D01*
X114500000Y-138083390D02*
X114452381Y-138131009D01*
X114452381Y-138131009D02*
X114357143Y-138178628D01*
X114357143Y-138178628D02*
X113976191Y-138178628D01*
X108357142Y-135154819D02*
X108357142Y-135869104D01*
X108357142Y-135869104D02*
X108309523Y-136011961D01*
X108309523Y-136011961D02*
X108214285Y-136107200D01*
X108214285Y-136107200D02*
X108071428Y-136154819D01*
X108071428Y-136154819D02*
X107976190Y-136154819D01*
X108595238Y-136250057D02*
X109357142Y-136250057D01*
X109928571Y-135631009D02*
X109595238Y-135631009D01*
X109595238Y-136154819D02*
X109595238Y-135154819D01*
X109595238Y-135154819D02*
X110071428Y-135154819D01*
X110404762Y-136107200D02*
X110547619Y-136154819D01*
X110547619Y-136154819D02*
X110785714Y-136154819D01*
X110785714Y-136154819D02*
X110880952Y-136107200D01*
X110880952Y-136107200D02*
X110928571Y-136059580D01*
X110928571Y-136059580D02*
X110976190Y-135964342D01*
X110976190Y-135964342D02*
X110976190Y-135869104D01*
X110976190Y-135869104D02*
X110928571Y-135773866D01*
X110928571Y-135773866D02*
X110880952Y-135726247D01*
X110880952Y-135726247D02*
X110785714Y-135678628D01*
X110785714Y-135678628D02*
X110595238Y-135631009D01*
X110595238Y-135631009D02*
X110500000Y-135583390D01*
X110500000Y-135583390D02*
X110452381Y-135535771D01*
X110452381Y-135535771D02*
X110404762Y-135440533D01*
X110404762Y-135440533D02*
X110404762Y-135345295D01*
X110404762Y-135345295D02*
X110452381Y-135250057D01*
X110452381Y-135250057D02*
X110500000Y-135202438D01*
X110500000Y-135202438D02*
X110595238Y-135154819D01*
X110595238Y-135154819D02*
X110833333Y-135154819D01*
X110833333Y-135154819D02*
X110976190Y-135202438D01*
X111976190Y-136154819D02*
X111642857Y-135678628D01*
X111404762Y-136154819D02*
X111404762Y-135154819D01*
X111404762Y-135154819D02*
X111785714Y-135154819D01*
X111785714Y-135154819D02*
X111880952Y-135202438D01*
X111880952Y-135202438D02*
X111928571Y-135250057D01*
X111928571Y-135250057D02*
X111976190Y-135345295D01*
X111976190Y-135345295D02*
X111976190Y-135488152D01*
X111976190Y-135488152D02*
X111928571Y-135583390D01*
X111928571Y-135583390D02*
X111880952Y-135631009D01*
X111880952Y-135631009D02*
X111785714Y-135678628D01*
X111785714Y-135678628D02*
X111404762Y-135678628D01*
X123595238Y-138104819D02*
X123595238Y-137104819D01*
X123595238Y-137104819D02*
X123928571Y-137819104D01*
X123928571Y-137819104D02*
X124261904Y-137104819D01*
X124261904Y-137104819D02*
X124261904Y-138104819D01*
X124880952Y-138104819D02*
X124785714Y-138057200D01*
X124785714Y-138057200D02*
X124738095Y-138009580D01*
X124738095Y-138009580D02*
X124690476Y-137914342D01*
X124690476Y-137914342D02*
X124690476Y-137628628D01*
X124690476Y-137628628D02*
X124738095Y-137533390D01*
X124738095Y-137533390D02*
X124785714Y-137485771D01*
X124785714Y-137485771D02*
X124880952Y-137438152D01*
X124880952Y-137438152D02*
X125023809Y-137438152D01*
X125023809Y-137438152D02*
X125119047Y-137485771D01*
X125119047Y-137485771D02*
X125166666Y-137533390D01*
X125166666Y-137533390D02*
X125214285Y-137628628D01*
X125214285Y-137628628D02*
X125214285Y-137914342D01*
X125214285Y-137914342D02*
X125166666Y-138009580D01*
X125166666Y-138009580D02*
X125119047Y-138057200D01*
X125119047Y-138057200D02*
X125023809Y-138104819D01*
X125023809Y-138104819D02*
X124880952Y-138104819D01*
X126071428Y-137438152D02*
X126071428Y-138104819D01*
X125642857Y-137438152D02*
X125642857Y-137961961D01*
X125642857Y-137961961D02*
X125690476Y-138057200D01*
X125690476Y-138057200D02*
X125785714Y-138104819D01*
X125785714Y-138104819D02*
X125928571Y-138104819D01*
X125928571Y-138104819D02*
X126023809Y-138057200D01*
X126023809Y-138057200D02*
X126071428Y-138009580D01*
X126547619Y-137438152D02*
X126547619Y-138104819D01*
X126547619Y-137533390D02*
X126595238Y-137485771D01*
X126595238Y-137485771D02*
X126690476Y-137438152D01*
X126690476Y-137438152D02*
X126833333Y-137438152D01*
X126833333Y-137438152D02*
X126928571Y-137485771D01*
X126928571Y-137485771D02*
X126976190Y-137581009D01*
X126976190Y-137581009D02*
X126976190Y-138104819D01*
X127309524Y-137438152D02*
X127690476Y-137438152D01*
X127452381Y-137104819D02*
X127452381Y-137961961D01*
X127452381Y-137961961D02*
X127500000Y-138057200D01*
X127500000Y-138057200D02*
X127595238Y-138104819D01*
X127595238Y-138104819D02*
X127690476Y-138104819D01*
X128023810Y-138104819D02*
X128023810Y-137438152D01*
X128023810Y-137104819D02*
X127976191Y-137152438D01*
X127976191Y-137152438D02*
X128023810Y-137200057D01*
X128023810Y-137200057D02*
X128071429Y-137152438D01*
X128071429Y-137152438D02*
X128023810Y-137104819D01*
X128023810Y-137104819D02*
X128023810Y-137200057D01*
X128500000Y-137438152D02*
X128500000Y-138104819D01*
X128500000Y-137533390D02*
X128547619Y-137485771D01*
X128547619Y-137485771D02*
X128642857Y-137438152D01*
X128642857Y-137438152D02*
X128785714Y-137438152D01*
X128785714Y-137438152D02*
X128880952Y-137485771D01*
X128880952Y-137485771D02*
X128928571Y-137581009D01*
X128928571Y-137581009D02*
X128928571Y-138104819D01*
X129833333Y-137438152D02*
X129833333Y-138247676D01*
X129833333Y-138247676D02*
X129785714Y-138342914D01*
X129785714Y-138342914D02*
X129738095Y-138390533D01*
X129738095Y-138390533D02*
X129642857Y-138438152D01*
X129642857Y-138438152D02*
X129500000Y-138438152D01*
X129500000Y-138438152D02*
X129404762Y-138390533D01*
X129833333Y-138057200D02*
X129738095Y-138104819D01*
X129738095Y-138104819D02*
X129547619Y-138104819D01*
X129547619Y-138104819D02*
X129452381Y-138057200D01*
X129452381Y-138057200D02*
X129404762Y-138009580D01*
X129404762Y-138009580D02*
X129357143Y-137914342D01*
X129357143Y-137914342D02*
X129357143Y-137628628D01*
X129357143Y-137628628D02*
X129404762Y-137533390D01*
X129404762Y-137533390D02*
X129452381Y-137485771D01*
X129452381Y-137485771D02*
X129547619Y-137438152D01*
X129547619Y-137438152D02*
X129738095Y-137438152D01*
X129738095Y-137438152D02*
X129833333Y-137485771D01*
X130309524Y-138104819D02*
X130309524Y-137104819D01*
X130309524Y-137581009D02*
X130880952Y-137581009D01*
X130880952Y-138104819D02*
X130880952Y-137104819D01*
X131500000Y-138104819D02*
X131404762Y-138057200D01*
X131404762Y-138057200D02*
X131357143Y-138009580D01*
X131357143Y-138009580D02*
X131309524Y-137914342D01*
X131309524Y-137914342D02*
X131309524Y-137628628D01*
X131309524Y-137628628D02*
X131357143Y-137533390D01*
X131357143Y-137533390D02*
X131404762Y-137485771D01*
X131404762Y-137485771D02*
X131500000Y-137438152D01*
X131500000Y-137438152D02*
X131642857Y-137438152D01*
X131642857Y-137438152D02*
X131738095Y-137485771D01*
X131738095Y-137485771D02*
X131785714Y-137533390D01*
X131785714Y-137533390D02*
X131833333Y-137628628D01*
X131833333Y-137628628D02*
X131833333Y-137914342D01*
X131833333Y-137914342D02*
X131785714Y-138009580D01*
X131785714Y-138009580D02*
X131738095Y-138057200D01*
X131738095Y-138057200D02*
X131642857Y-138104819D01*
X131642857Y-138104819D02*
X131500000Y-138104819D01*
X132404762Y-138104819D02*
X132309524Y-138057200D01*
X132309524Y-138057200D02*
X132261905Y-137961961D01*
X132261905Y-137961961D02*
X132261905Y-137104819D01*
X133166667Y-138057200D02*
X133071429Y-138104819D01*
X133071429Y-138104819D02*
X132880953Y-138104819D01*
X132880953Y-138104819D02*
X132785715Y-138057200D01*
X132785715Y-138057200D02*
X132738096Y-137961961D01*
X132738096Y-137961961D02*
X132738096Y-137581009D01*
X132738096Y-137581009D02*
X132785715Y-137485771D01*
X132785715Y-137485771D02*
X132880953Y-137438152D01*
X132880953Y-137438152D02*
X133071429Y-137438152D01*
X133071429Y-137438152D02*
X133166667Y-137485771D01*
X133166667Y-137485771D02*
X133214286Y-137581009D01*
X133214286Y-137581009D02*
X133214286Y-137676247D01*
X133214286Y-137676247D02*
X132738096Y-137771485D01*
X133404763Y-138200057D02*
X134166667Y-138200057D01*
X134357144Y-137200057D02*
X134404763Y-137152438D01*
X134404763Y-137152438D02*
X134500001Y-137104819D01*
X134500001Y-137104819D02*
X134738096Y-137104819D01*
X134738096Y-137104819D02*
X134833334Y-137152438D01*
X134833334Y-137152438D02*
X134880953Y-137200057D01*
X134880953Y-137200057D02*
X134928572Y-137295295D01*
X134928572Y-137295295D02*
X134928572Y-137390533D01*
X134928572Y-137390533D02*
X134880953Y-137533390D01*
X134880953Y-137533390D02*
X134309525Y-138104819D01*
X134309525Y-138104819D02*
X134928572Y-138104819D01*
X135357144Y-138009580D02*
X135404763Y-138057200D01*
X135404763Y-138057200D02*
X135357144Y-138104819D01*
X135357144Y-138104819D02*
X135309525Y-138057200D01*
X135309525Y-138057200D02*
X135357144Y-138009580D01*
X135357144Y-138009580D02*
X135357144Y-138104819D01*
X135785715Y-137200057D02*
X135833334Y-137152438D01*
X135833334Y-137152438D02*
X135928572Y-137104819D01*
X135928572Y-137104819D02*
X136166667Y-137104819D01*
X136166667Y-137104819D02*
X136261905Y-137152438D01*
X136261905Y-137152438D02*
X136309524Y-137200057D01*
X136309524Y-137200057D02*
X136357143Y-137295295D01*
X136357143Y-137295295D02*
X136357143Y-137390533D01*
X136357143Y-137390533D02*
X136309524Y-137533390D01*
X136309524Y-137533390D02*
X135738096Y-138104819D01*
X135738096Y-138104819D02*
X136357143Y-138104819D01*
X136785715Y-138104819D02*
X136785715Y-137438152D01*
X136785715Y-137533390D02*
X136833334Y-137485771D01*
X136833334Y-137485771D02*
X136928572Y-137438152D01*
X136928572Y-137438152D02*
X137071429Y-137438152D01*
X137071429Y-137438152D02*
X137166667Y-137485771D01*
X137166667Y-137485771D02*
X137214286Y-137581009D01*
X137214286Y-137581009D02*
X137214286Y-138104819D01*
X137214286Y-137581009D02*
X137261905Y-137485771D01*
X137261905Y-137485771D02*
X137357143Y-137438152D01*
X137357143Y-137438152D02*
X137500000Y-137438152D01*
X137500000Y-137438152D02*
X137595239Y-137485771D01*
X137595239Y-137485771D02*
X137642858Y-137581009D01*
X137642858Y-137581009D02*
X137642858Y-138104819D01*
X138119048Y-138104819D02*
X138119048Y-137438152D01*
X138119048Y-137533390D02*
X138166667Y-137485771D01*
X138166667Y-137485771D02*
X138261905Y-137438152D01*
X138261905Y-137438152D02*
X138404762Y-137438152D01*
X138404762Y-137438152D02*
X138500000Y-137485771D01*
X138500000Y-137485771D02*
X138547619Y-137581009D01*
X138547619Y-137581009D02*
X138547619Y-138104819D01*
X138547619Y-137581009D02*
X138595238Y-137485771D01*
X138595238Y-137485771D02*
X138690476Y-137438152D01*
X138690476Y-137438152D02*
X138833333Y-137438152D01*
X138833333Y-137438152D02*
X138928572Y-137485771D01*
X138928572Y-137485771D02*
X138976191Y-137581009D01*
X138976191Y-137581009D02*
X138976191Y-138104819D01*
X139214286Y-138200057D02*
X139976190Y-138200057D01*
X140214286Y-138104819D02*
X140214286Y-137104819D01*
X140214286Y-137104819D02*
X140547619Y-137819104D01*
X140547619Y-137819104D02*
X140880952Y-137104819D01*
X140880952Y-137104819D02*
X140880952Y-138104819D01*
X141309524Y-137200057D02*
X141357143Y-137152438D01*
X141357143Y-137152438D02*
X141452381Y-137104819D01*
X141452381Y-137104819D02*
X141690476Y-137104819D01*
X141690476Y-137104819D02*
X141785714Y-137152438D01*
X141785714Y-137152438D02*
X141833333Y-137200057D01*
X141833333Y-137200057D02*
X141880952Y-137295295D01*
X141880952Y-137295295D02*
X141880952Y-137390533D01*
X141880952Y-137390533D02*
X141833333Y-137533390D01*
X141833333Y-137533390D02*
X141261905Y-138104819D01*
X141261905Y-138104819D02*
X141880952Y-138104819D01*
X142071429Y-138200057D02*
X142833333Y-138200057D01*
X143071429Y-138104819D02*
X143071429Y-137104819D01*
X143071429Y-137104819D02*
X143452381Y-137104819D01*
X143452381Y-137104819D02*
X143547619Y-137152438D01*
X143547619Y-137152438D02*
X143595238Y-137200057D01*
X143595238Y-137200057D02*
X143642857Y-137295295D01*
X143642857Y-137295295D02*
X143642857Y-137438152D01*
X143642857Y-137438152D02*
X143595238Y-137533390D01*
X143595238Y-137533390D02*
X143547619Y-137581009D01*
X143547619Y-137581009D02*
X143452381Y-137628628D01*
X143452381Y-137628628D02*
X143071429Y-137628628D01*
X144500000Y-138104819D02*
X144500000Y-137581009D01*
X144500000Y-137581009D02*
X144452381Y-137485771D01*
X144452381Y-137485771D02*
X144357143Y-137438152D01*
X144357143Y-137438152D02*
X144166667Y-137438152D01*
X144166667Y-137438152D02*
X144071429Y-137485771D01*
X144500000Y-138057200D02*
X144404762Y-138104819D01*
X144404762Y-138104819D02*
X144166667Y-138104819D01*
X144166667Y-138104819D02*
X144071429Y-138057200D01*
X144071429Y-138057200D02*
X144023810Y-137961961D01*
X144023810Y-137961961D02*
X144023810Y-137866723D01*
X144023810Y-137866723D02*
X144071429Y-137771485D01*
X144071429Y-137771485D02*
X144166667Y-137723866D01*
X144166667Y-137723866D02*
X144404762Y-137723866D01*
X144404762Y-137723866D02*
X144500000Y-137676247D01*
X145404762Y-138104819D02*
X145404762Y-137104819D01*
X145404762Y-138057200D02*
X145309524Y-138104819D01*
X145309524Y-138104819D02*
X145119048Y-138104819D01*
X145119048Y-138104819D02*
X145023810Y-138057200D01*
X145023810Y-138057200D02*
X144976191Y-138009580D01*
X144976191Y-138009580D02*
X144928572Y-137914342D01*
X144928572Y-137914342D02*
X144928572Y-137628628D01*
X144928572Y-137628628D02*
X144976191Y-137533390D01*
X144976191Y-137533390D02*
X145023810Y-137485771D01*
X145023810Y-137485771D02*
X145119048Y-137438152D01*
X145119048Y-137438152D02*
X145309524Y-137438152D01*
X145309524Y-137438152D02*
X145404762Y-137485771D01*
X133738095Y-134954819D02*
X133738095Y-133954819D01*
X133738095Y-134431009D02*
X134309523Y-134431009D01*
X134309523Y-134954819D02*
X134309523Y-133954819D01*
X135214285Y-134288152D02*
X135214285Y-134954819D01*
X134976190Y-133907200D02*
X134738095Y-134621485D01*
X134738095Y-134621485D02*
X135357142Y-134621485D01*
X132904761Y-119104819D02*
X132333333Y-119104819D01*
X132619047Y-119104819D02*
X132619047Y-118104819D01*
X132619047Y-118104819D02*
X132523809Y-118247676D01*
X132523809Y-118247676D02*
X132428571Y-118342914D01*
X132428571Y-118342914D02*
X132333333Y-118390533D01*
X133523809Y-118104819D02*
X133619047Y-118104819D01*
X133619047Y-118104819D02*
X133714285Y-118152438D01*
X133714285Y-118152438D02*
X133761904Y-118200057D01*
X133761904Y-118200057D02*
X133809523Y-118295295D01*
X133809523Y-118295295D02*
X133857142Y-118485771D01*
X133857142Y-118485771D02*
X133857142Y-118723866D01*
X133857142Y-118723866D02*
X133809523Y-118914342D01*
X133809523Y-118914342D02*
X133761904Y-119009580D01*
X133761904Y-119009580D02*
X133714285Y-119057200D01*
X133714285Y-119057200D02*
X133619047Y-119104819D01*
X133619047Y-119104819D02*
X133523809Y-119104819D01*
X133523809Y-119104819D02*
X133428571Y-119057200D01*
X133428571Y-119057200D02*
X133380952Y-119009580D01*
X133380952Y-119009580D02*
X133333333Y-118914342D01*
X133333333Y-118914342D02*
X133285714Y-118723866D01*
X133285714Y-118723866D02*
X133285714Y-118485771D01*
X133285714Y-118485771D02*
X133333333Y-118295295D01*
X133333333Y-118295295D02*
X133380952Y-118200057D01*
X133380952Y-118200057D02*
X133428571Y-118152438D01*
X133428571Y-118152438D02*
X133523809Y-118104819D01*
X134285714Y-119104819D02*
X134285714Y-118104819D01*
X134380952Y-118723866D02*
X134666666Y-119104819D01*
X134666666Y-118438152D02*
X134285714Y-118819104D01*
D11*
X132964285Y-117227149D02*
X132797619Y-116989054D01*
X132678571Y-117227149D02*
X132678571Y-116727149D01*
X132678571Y-116727149D02*
X132869047Y-116727149D01*
X132869047Y-116727149D02*
X132916666Y-116750959D01*
X132916666Y-116750959D02*
X132940476Y-116774768D01*
X132940476Y-116774768D02*
X132964285Y-116822387D01*
X132964285Y-116822387D02*
X132964285Y-116893816D01*
X132964285Y-116893816D02*
X132940476Y-116941435D01*
X132940476Y-116941435D02*
X132916666Y-116965244D01*
X132916666Y-116965244D02*
X132869047Y-116989054D01*
X132869047Y-116989054D02*
X132678571Y-116989054D01*
X133059524Y-117274768D02*
X133440476Y-117274768D01*
X133559523Y-117227149D02*
X133559523Y-116727149D01*
X133559523Y-116727149D02*
X133749999Y-116727149D01*
X133749999Y-116727149D02*
X133797618Y-116750959D01*
X133797618Y-116750959D02*
X133821428Y-116774768D01*
X133821428Y-116774768D02*
X133845237Y-116822387D01*
X133845237Y-116822387D02*
X133845237Y-116893816D01*
X133845237Y-116893816D02*
X133821428Y-116941435D01*
X133821428Y-116941435D02*
X133797618Y-116965244D01*
X133797618Y-116965244D02*
X133749999Y-116989054D01*
X133749999Y-116989054D02*
X133559523Y-116989054D01*
X134059523Y-117227149D02*
X134059523Y-116727149D01*
X134059523Y-116727149D02*
X134178571Y-116727149D01*
X134178571Y-116727149D02*
X134249999Y-116750959D01*
X134249999Y-116750959D02*
X134297618Y-116798578D01*
X134297618Y-116798578D02*
X134321428Y-116846197D01*
X134321428Y-116846197D02*
X134345237Y-116941435D01*
X134345237Y-116941435D02*
X134345237Y-117012863D01*
X134345237Y-117012863D02*
X134321428Y-117108101D01*
X134321428Y-117108101D02*
X134297618Y-117155720D01*
X134297618Y-117155720D02*
X134249999Y-117203340D01*
X134249999Y-117203340D02*
X134178571Y-117227149D01*
X134178571Y-117227149D02*
X134059523Y-117227149D01*
D10*
X130809523Y-113104819D02*
X130333333Y-113104819D01*
X130333333Y-113104819D02*
X130333333Y-112104819D01*
X131142857Y-112581009D02*
X131476190Y-112581009D01*
X131619047Y-113104819D02*
X131142857Y-113104819D01*
X131142857Y-113104819D02*
X131142857Y-112104819D01*
X131142857Y-112104819D02*
X131619047Y-112104819D01*
X132047619Y-113104819D02*
X132047619Y-112104819D01*
X132047619Y-112104819D02*
X132285714Y-112104819D01*
X132285714Y-112104819D02*
X132428571Y-112152438D01*
X132428571Y-112152438D02*
X132523809Y-112247676D01*
X132523809Y-112247676D02*
X132571428Y-112342914D01*
X132571428Y-112342914D02*
X132619047Y-112533390D01*
X132619047Y-112533390D02*
X132619047Y-112676247D01*
X132619047Y-112676247D02*
X132571428Y-112866723D01*
X132571428Y-112866723D02*
X132523809Y-112961961D01*
X132523809Y-112961961D02*
X132428571Y-113057200D01*
X132428571Y-113057200D02*
X132285714Y-113104819D01*
X132285714Y-113104819D02*
X132047619Y-113104819D01*
X132809524Y-113200057D02*
X133571428Y-113200057D01*
X133761905Y-113057200D02*
X133904762Y-113104819D01*
X133904762Y-113104819D02*
X134142857Y-113104819D01*
X134142857Y-113104819D02*
X134238095Y-113057200D01*
X134238095Y-113057200D02*
X134285714Y-113009580D01*
X134285714Y-113009580D02*
X134333333Y-112914342D01*
X134333333Y-112914342D02*
X134333333Y-112819104D01*
X134333333Y-112819104D02*
X134285714Y-112723866D01*
X134285714Y-112723866D02*
X134238095Y-112676247D01*
X134238095Y-112676247D02*
X134142857Y-112628628D01*
X134142857Y-112628628D02*
X133952381Y-112581009D01*
X133952381Y-112581009D02*
X133857143Y-112533390D01*
X133857143Y-112533390D02*
X133809524Y-112485771D01*
X133809524Y-112485771D02*
X133761905Y-112390533D01*
X133761905Y-112390533D02*
X133761905Y-112295295D01*
X133761905Y-112295295D02*
X133809524Y-112200057D01*
X133809524Y-112200057D02*
X133857143Y-112152438D01*
X133857143Y-112152438D02*
X133952381Y-112104819D01*
X133952381Y-112104819D02*
X134190476Y-112104819D01*
X134190476Y-112104819D02*
X134333333Y-112152438D01*
X134619048Y-112104819D02*
X135190476Y-112104819D01*
X134904762Y-113104819D02*
X134904762Y-112104819D01*
X135476191Y-112819104D02*
X135952381Y-112819104D01*
X135380953Y-113104819D02*
X135714286Y-112104819D01*
X135714286Y-112104819D02*
X136047619Y-113104819D01*
X136238096Y-112104819D02*
X136809524Y-112104819D01*
X136523810Y-113104819D02*
X136523810Y-112104819D01*
D11*
X133130952Y-111227149D02*
X133130952Y-110727149D01*
X133130952Y-110727149D02*
X133250000Y-110727149D01*
X133250000Y-110727149D02*
X133321428Y-110750959D01*
X133321428Y-110750959D02*
X133369047Y-110798578D01*
X133369047Y-110798578D02*
X133392857Y-110846197D01*
X133392857Y-110846197D02*
X133416666Y-110941435D01*
X133416666Y-110941435D02*
X133416666Y-111012863D01*
X133416666Y-111012863D02*
X133392857Y-111108101D01*
X133392857Y-111108101D02*
X133369047Y-111155720D01*
X133369047Y-111155720D02*
X133321428Y-111203340D01*
X133321428Y-111203340D02*
X133250000Y-111227149D01*
X133250000Y-111227149D02*
X133130952Y-111227149D01*
X133607143Y-110774768D02*
X133630952Y-110750959D01*
X133630952Y-110750959D02*
X133678571Y-110727149D01*
X133678571Y-110727149D02*
X133797619Y-110727149D01*
X133797619Y-110727149D02*
X133845238Y-110750959D01*
X133845238Y-110750959D02*
X133869047Y-110774768D01*
X133869047Y-110774768D02*
X133892857Y-110822387D01*
X133892857Y-110822387D02*
X133892857Y-110870006D01*
X133892857Y-110870006D02*
X133869047Y-110941435D01*
X133869047Y-110941435D02*
X133583333Y-111227149D01*
X133583333Y-111227149D02*
X133892857Y-111227149D01*
D10*
X102557143Y-126730057D02*
X102604762Y-126682438D01*
X102604762Y-126682438D02*
X102700000Y-126634819D01*
X102700000Y-126634819D02*
X102938095Y-126634819D01*
X102938095Y-126634819D02*
X103033333Y-126682438D01*
X103033333Y-126682438D02*
X103080952Y-126730057D01*
X103080952Y-126730057D02*
X103128571Y-126825295D01*
X103128571Y-126825295D02*
X103128571Y-126920533D01*
X103128571Y-126920533D02*
X103080952Y-127063390D01*
X103080952Y-127063390D02*
X102509524Y-127634819D01*
X102509524Y-127634819D02*
X103128571Y-127634819D01*
X103509524Y-126730057D02*
X103557143Y-126682438D01*
X103557143Y-126682438D02*
X103652381Y-126634819D01*
X103652381Y-126634819D02*
X103890476Y-126634819D01*
X103890476Y-126634819D02*
X103985714Y-126682438D01*
X103985714Y-126682438D02*
X104033333Y-126730057D01*
X104033333Y-126730057D02*
X104080952Y-126825295D01*
X104080952Y-126825295D02*
X104080952Y-126920533D01*
X104080952Y-126920533D02*
X104033333Y-127063390D01*
X104033333Y-127063390D02*
X103461905Y-127634819D01*
X103461905Y-127634819D02*
X104080952Y-127634819D01*
X104938095Y-126968152D02*
X104938095Y-127634819D01*
X104509524Y-126968152D02*
X104509524Y-127491961D01*
X104509524Y-127491961D02*
X104557143Y-127587200D01*
X104557143Y-127587200D02*
X104652381Y-127634819D01*
X104652381Y-127634819D02*
X104795238Y-127634819D01*
X104795238Y-127634819D02*
X104890476Y-127587200D01*
X104890476Y-127587200D02*
X104938095Y-127539580D01*
X105747619Y-127111009D02*
X105414286Y-127111009D01*
X105414286Y-127634819D02*
X105414286Y-126634819D01*
X105414286Y-126634819D02*
X105890476Y-126634819D01*
D11*
X103449999Y-125679530D02*
X103426190Y-125703340D01*
X103426190Y-125703340D02*
X103354761Y-125727149D01*
X103354761Y-125727149D02*
X103307142Y-125727149D01*
X103307142Y-125727149D02*
X103235714Y-125703340D01*
X103235714Y-125703340D02*
X103188095Y-125655720D01*
X103188095Y-125655720D02*
X103164285Y-125608101D01*
X103164285Y-125608101D02*
X103140476Y-125512863D01*
X103140476Y-125512863D02*
X103140476Y-125441435D01*
X103140476Y-125441435D02*
X103164285Y-125346197D01*
X103164285Y-125346197D02*
X103188095Y-125298578D01*
X103188095Y-125298578D02*
X103235714Y-125250959D01*
X103235714Y-125250959D02*
X103307142Y-125227149D01*
X103307142Y-125227149D02*
X103354761Y-125227149D01*
X103354761Y-125227149D02*
X103426190Y-125250959D01*
X103426190Y-125250959D02*
X103449999Y-125274768D01*
X103545238Y-125774768D02*
X103926190Y-125774768D01*
X104140475Y-125227149D02*
X104235713Y-125227149D01*
X104235713Y-125227149D02*
X104283332Y-125250959D01*
X104283332Y-125250959D02*
X104330951Y-125298578D01*
X104330951Y-125298578D02*
X104354761Y-125393816D01*
X104354761Y-125393816D02*
X104354761Y-125560482D01*
X104354761Y-125560482D02*
X104330951Y-125655720D01*
X104330951Y-125655720D02*
X104283332Y-125703340D01*
X104283332Y-125703340D02*
X104235713Y-125727149D01*
X104235713Y-125727149D02*
X104140475Y-125727149D01*
X104140475Y-125727149D02*
X104092856Y-125703340D01*
X104092856Y-125703340D02*
X104045237Y-125655720D01*
X104045237Y-125655720D02*
X104021428Y-125560482D01*
X104021428Y-125560482D02*
X104021428Y-125393816D01*
X104021428Y-125393816D02*
X104045237Y-125298578D01*
X104045237Y-125298578D02*
X104092856Y-125250959D01*
X104092856Y-125250959D02*
X104140475Y-125227149D01*
X104569047Y-125227149D02*
X104569047Y-125631911D01*
X104569047Y-125631911D02*
X104592857Y-125679530D01*
X104592857Y-125679530D02*
X104616666Y-125703340D01*
X104616666Y-125703340D02*
X104664285Y-125727149D01*
X104664285Y-125727149D02*
X104759523Y-125727149D01*
X104759523Y-125727149D02*
X104807142Y-125703340D01*
X104807142Y-125703340D02*
X104830952Y-125679530D01*
X104830952Y-125679530D02*
X104854761Y-125631911D01*
X104854761Y-125631911D02*
X104854761Y-125227149D01*
X105021429Y-125227149D02*
X105307143Y-125227149D01*
X105164286Y-125727149D02*
X105164286Y-125227149D01*
D10*
X105809523Y-130591009D02*
X106142856Y-130591009D01*
X106285713Y-131114819D02*
X105809523Y-131114819D01*
X105809523Y-131114819D02*
X105809523Y-130114819D01*
X105809523Y-130114819D02*
X106285713Y-130114819D01*
X106666666Y-131067200D02*
X106809523Y-131114819D01*
X106809523Y-131114819D02*
X107047618Y-131114819D01*
X107047618Y-131114819D02*
X107142856Y-131067200D01*
X107142856Y-131067200D02*
X107190475Y-131019580D01*
X107190475Y-131019580D02*
X107238094Y-130924342D01*
X107238094Y-130924342D02*
X107238094Y-130829104D01*
X107238094Y-130829104D02*
X107190475Y-130733866D01*
X107190475Y-130733866D02*
X107142856Y-130686247D01*
X107142856Y-130686247D02*
X107047618Y-130638628D01*
X107047618Y-130638628D02*
X106857142Y-130591009D01*
X106857142Y-130591009D02*
X106761904Y-130543390D01*
X106761904Y-130543390D02*
X106714285Y-130495771D01*
X106714285Y-130495771D02*
X106666666Y-130400533D01*
X106666666Y-130400533D02*
X106666666Y-130305295D01*
X106666666Y-130305295D02*
X106714285Y-130210057D01*
X106714285Y-130210057D02*
X106761904Y-130162438D01*
X106761904Y-130162438D02*
X106857142Y-130114819D01*
X106857142Y-130114819D02*
X107095237Y-130114819D01*
X107095237Y-130114819D02*
X107238094Y-130162438D01*
X107666666Y-131114819D02*
X107666666Y-130114819D01*
X107666666Y-130114819D02*
X108047618Y-130114819D01*
X108047618Y-130114819D02*
X108142856Y-130162438D01*
X108142856Y-130162438D02*
X108190475Y-130210057D01*
X108190475Y-130210057D02*
X108238094Y-130305295D01*
X108238094Y-130305295D02*
X108238094Y-130448152D01*
X108238094Y-130448152D02*
X108190475Y-130543390D01*
X108190475Y-130543390D02*
X108142856Y-130591009D01*
X108142856Y-130591009D02*
X108047618Y-130638628D01*
X108047618Y-130638628D02*
X107666666Y-130638628D01*
X108571428Y-130114819D02*
X109190475Y-130114819D01*
X109190475Y-130114819D02*
X108857142Y-130495771D01*
X108857142Y-130495771D02*
X108999999Y-130495771D01*
X108999999Y-130495771D02*
X109095237Y-130543390D01*
X109095237Y-130543390D02*
X109142856Y-130591009D01*
X109142856Y-130591009D02*
X109190475Y-130686247D01*
X109190475Y-130686247D02*
X109190475Y-130924342D01*
X109190475Y-130924342D02*
X109142856Y-131019580D01*
X109142856Y-131019580D02*
X109095237Y-131067200D01*
X109095237Y-131067200D02*
X108999999Y-131114819D01*
X108999999Y-131114819D02*
X108714285Y-131114819D01*
X108714285Y-131114819D02*
X108619047Y-131067200D01*
X108619047Y-131067200D02*
X108571428Y-131019580D01*
X109571428Y-130210057D02*
X109619047Y-130162438D01*
X109619047Y-130162438D02*
X109714285Y-130114819D01*
X109714285Y-130114819D02*
X109952380Y-130114819D01*
X109952380Y-130114819D02*
X110047618Y-130162438D01*
X110047618Y-130162438D02*
X110095237Y-130210057D01*
X110095237Y-130210057D02*
X110142856Y-130305295D01*
X110142856Y-130305295D02*
X110142856Y-130400533D01*
X110142856Y-130400533D02*
X110095237Y-130543390D01*
X110095237Y-130543390D02*
X109523809Y-131114819D01*
X109523809Y-131114819D02*
X110142856Y-131114819D01*
X110333333Y-131210057D02*
X111095237Y-131210057D01*
X111809523Y-131114819D02*
X111333333Y-131114819D01*
X111333333Y-131114819D02*
X111333333Y-130114819D01*
X112142857Y-130591009D02*
X112476190Y-130591009D01*
X112619047Y-131114819D02*
X112142857Y-131114819D01*
X112142857Y-131114819D02*
X112142857Y-130114819D01*
X112142857Y-130114819D02*
X112619047Y-130114819D01*
X113380952Y-130591009D02*
X113047619Y-130591009D01*
X113047619Y-131114819D02*
X113047619Y-130114819D01*
X113047619Y-130114819D02*
X113523809Y-130114819D01*
X113761905Y-130114819D02*
X114333333Y-130114819D01*
X114047619Y-131114819D02*
X114047619Y-130114819D01*
X109454819Y-119333333D02*
X110169104Y-119333333D01*
X110169104Y-119333333D02*
X110311961Y-119380952D01*
X110311961Y-119380952D02*
X110407200Y-119476190D01*
X110407200Y-119476190D02*
X110454819Y-119619047D01*
X110454819Y-119619047D02*
X110454819Y-119714285D01*
X110454819Y-118333333D02*
X110454819Y-118904761D01*
X110454819Y-118619047D02*
X109454819Y-118619047D01*
X109454819Y-118619047D02*
X109597676Y-118714285D01*
X109597676Y-118714285D02*
X109692914Y-118809523D01*
X109692914Y-118809523D02*
X109740533Y-118904761D01*
X119333333Y-106604819D02*
X118761905Y-106604819D01*
X119047619Y-106604819D02*
X119047619Y-105604819D01*
X119047619Y-105604819D02*
X118952381Y-105747676D01*
X118952381Y-105747676D02*
X118857143Y-105842914D01*
X118857143Y-105842914D02*
X118761905Y-105890533D01*
X119952381Y-105604819D02*
X120047619Y-105604819D01*
X120047619Y-105604819D02*
X120142857Y-105652438D01*
X120142857Y-105652438D02*
X120190476Y-105700057D01*
X120190476Y-105700057D02*
X120238095Y-105795295D01*
X120238095Y-105795295D02*
X120285714Y-105985771D01*
X120285714Y-105985771D02*
X120285714Y-106223866D01*
X120285714Y-106223866D02*
X120238095Y-106414342D01*
X120238095Y-106414342D02*
X120190476Y-106509580D01*
X120190476Y-106509580D02*
X120142857Y-106557200D01*
X120142857Y-106557200D02*
X120047619Y-106604819D01*
X120047619Y-106604819D02*
X119952381Y-106604819D01*
X119952381Y-106604819D02*
X119857143Y-106557200D01*
X119857143Y-106557200D02*
X119809524Y-106509580D01*
X119809524Y-106509580D02*
X119761905Y-106414342D01*
X119761905Y-106414342D02*
X119714286Y-106223866D01*
X119714286Y-106223866D02*
X119714286Y-105985771D01*
X119714286Y-105985771D02*
X119761905Y-105795295D01*
X119761905Y-105795295D02*
X119809524Y-105700057D01*
X119809524Y-105700057D02*
X119857143Y-105652438D01*
X119857143Y-105652438D02*
X119952381Y-105604819D01*
X120904762Y-105604819D02*
X121000000Y-105604819D01*
X121000000Y-105604819D02*
X121095238Y-105652438D01*
X121095238Y-105652438D02*
X121142857Y-105700057D01*
X121142857Y-105700057D02*
X121190476Y-105795295D01*
X121190476Y-105795295D02*
X121238095Y-105985771D01*
X121238095Y-105985771D02*
X121238095Y-106223866D01*
X121238095Y-106223866D02*
X121190476Y-106414342D01*
X121190476Y-106414342D02*
X121142857Y-106509580D01*
X121142857Y-106509580D02*
X121095238Y-106557200D01*
X121095238Y-106557200D02*
X121000000Y-106604819D01*
X121000000Y-106604819D02*
X120904762Y-106604819D01*
X120904762Y-106604819D02*
X120809524Y-106557200D01*
X120809524Y-106557200D02*
X120761905Y-106509580D01*
X120761905Y-106509580D02*
X120714286Y-106414342D01*
X120714286Y-106414342D02*
X120666667Y-106223866D01*
X120666667Y-106223866D02*
X120666667Y-105985771D01*
X120666667Y-105985771D02*
X120714286Y-105795295D01*
X120714286Y-105795295D02*
X120761905Y-105700057D01*
X120761905Y-105700057D02*
X120809524Y-105652438D01*
X120809524Y-105652438D02*
X120904762Y-105604819D01*
D11*
X119142856Y-104727149D02*
X118976190Y-104489054D01*
X118857142Y-104727149D02*
X118857142Y-104227149D01*
X118857142Y-104227149D02*
X119047618Y-104227149D01*
X119047618Y-104227149D02*
X119095237Y-104250959D01*
X119095237Y-104250959D02*
X119119047Y-104274768D01*
X119119047Y-104274768D02*
X119142856Y-104322387D01*
X119142856Y-104322387D02*
X119142856Y-104393816D01*
X119142856Y-104393816D02*
X119119047Y-104441435D01*
X119119047Y-104441435D02*
X119095237Y-104465244D01*
X119095237Y-104465244D02*
X119047618Y-104489054D01*
X119047618Y-104489054D02*
X118857142Y-104489054D01*
X119238095Y-104774768D02*
X119619047Y-104774768D01*
X119738094Y-104727149D02*
X119738094Y-104227149D01*
X119738094Y-104227149D02*
X119928570Y-104227149D01*
X119928570Y-104227149D02*
X119976189Y-104250959D01*
X119976189Y-104250959D02*
X119999999Y-104274768D01*
X119999999Y-104274768D02*
X120023808Y-104322387D01*
X120023808Y-104322387D02*
X120023808Y-104393816D01*
X120023808Y-104393816D02*
X119999999Y-104441435D01*
X119999999Y-104441435D02*
X119976189Y-104465244D01*
X119976189Y-104465244D02*
X119928570Y-104489054D01*
X119928570Y-104489054D02*
X119738094Y-104489054D01*
X120190475Y-104227149D02*
X120309523Y-104727149D01*
X120309523Y-104727149D02*
X120404761Y-104370006D01*
X120404761Y-104370006D02*
X120499999Y-104727149D01*
X120499999Y-104727149D02*
X120619047Y-104227149D01*
X120809523Y-104727149D02*
X120809523Y-104227149D01*
X120809523Y-104227149D02*
X120976190Y-104584292D01*
X120976190Y-104584292D02*
X121142856Y-104227149D01*
X121142856Y-104227149D02*
X121142856Y-104727149D01*
D10*
X121904762Y-109204819D02*
X122476190Y-109204819D01*
X122190476Y-110204819D02*
X122190476Y-109204819D01*
X122809524Y-110204819D02*
X122809524Y-109204819D01*
X122809524Y-109204819D02*
X123190476Y-109204819D01*
X123190476Y-109204819D02*
X123285714Y-109252438D01*
X123285714Y-109252438D02*
X123333333Y-109300057D01*
X123333333Y-109300057D02*
X123380952Y-109395295D01*
X123380952Y-109395295D02*
X123380952Y-109538152D01*
X123380952Y-109538152D02*
X123333333Y-109633390D01*
X123333333Y-109633390D02*
X123285714Y-109681009D01*
X123285714Y-109681009D02*
X123190476Y-109728628D01*
X123190476Y-109728628D02*
X122809524Y-109728628D01*
X123571429Y-110300057D02*
X124333333Y-110300057D01*
X124571429Y-109681009D02*
X124904762Y-109681009D01*
X125047619Y-110204819D02*
X124571429Y-110204819D01*
X124571429Y-110204819D02*
X124571429Y-109204819D01*
X124571429Y-109204819D02*
X125047619Y-109204819D01*
X125428572Y-110157200D02*
X125571429Y-110204819D01*
X125571429Y-110204819D02*
X125809524Y-110204819D01*
X125809524Y-110204819D02*
X125904762Y-110157200D01*
X125904762Y-110157200D02*
X125952381Y-110109580D01*
X125952381Y-110109580D02*
X126000000Y-110014342D01*
X126000000Y-110014342D02*
X126000000Y-109919104D01*
X126000000Y-109919104D02*
X125952381Y-109823866D01*
X125952381Y-109823866D02*
X125904762Y-109776247D01*
X125904762Y-109776247D02*
X125809524Y-109728628D01*
X125809524Y-109728628D02*
X125619048Y-109681009D01*
X125619048Y-109681009D02*
X125523810Y-109633390D01*
X125523810Y-109633390D02*
X125476191Y-109585771D01*
X125476191Y-109585771D02*
X125428572Y-109490533D01*
X125428572Y-109490533D02*
X125428572Y-109395295D01*
X125428572Y-109395295D02*
X125476191Y-109300057D01*
X125476191Y-109300057D02*
X125523810Y-109252438D01*
X125523810Y-109252438D02*
X125619048Y-109204819D01*
X125619048Y-109204819D02*
X125857143Y-109204819D01*
X125857143Y-109204819D02*
X126000000Y-109252438D01*
X127000000Y-110109580D02*
X126952381Y-110157200D01*
X126952381Y-110157200D02*
X126809524Y-110204819D01*
X126809524Y-110204819D02*
X126714286Y-110204819D01*
X126714286Y-110204819D02*
X126571429Y-110157200D01*
X126571429Y-110157200D02*
X126476191Y-110061961D01*
X126476191Y-110061961D02*
X126428572Y-109966723D01*
X126428572Y-109966723D02*
X126380953Y-109776247D01*
X126380953Y-109776247D02*
X126380953Y-109633390D01*
X126380953Y-109633390D02*
X126428572Y-109442914D01*
X126428572Y-109442914D02*
X126476191Y-109347676D01*
X126476191Y-109347676D02*
X126571429Y-109252438D01*
X126571429Y-109252438D02*
X126714286Y-109204819D01*
X126714286Y-109204819D02*
X126809524Y-109204819D01*
X126809524Y-109204819D02*
X126952381Y-109252438D01*
X126952381Y-109252438D02*
X127000000Y-109300057D01*
X121904762Y-105804819D02*
X122476190Y-105804819D01*
X122190476Y-106804819D02*
X122190476Y-105804819D01*
X122809524Y-106804819D02*
X122809524Y-105804819D01*
X122809524Y-105804819D02*
X123190476Y-105804819D01*
X123190476Y-105804819D02*
X123285714Y-105852438D01*
X123285714Y-105852438D02*
X123333333Y-105900057D01*
X123333333Y-105900057D02*
X123380952Y-105995295D01*
X123380952Y-105995295D02*
X123380952Y-106138152D01*
X123380952Y-106138152D02*
X123333333Y-106233390D01*
X123333333Y-106233390D02*
X123285714Y-106281009D01*
X123285714Y-106281009D02*
X123190476Y-106328628D01*
X123190476Y-106328628D02*
X122809524Y-106328628D01*
X123571429Y-106900057D02*
X124333333Y-106900057D01*
X124571429Y-106281009D02*
X124904762Y-106281009D01*
X125047619Y-106804819D02*
X124571429Y-106804819D01*
X124571429Y-106804819D02*
X124571429Y-105804819D01*
X124571429Y-105804819D02*
X125047619Y-105804819D01*
X125428572Y-106757200D02*
X125571429Y-106804819D01*
X125571429Y-106804819D02*
X125809524Y-106804819D01*
X125809524Y-106804819D02*
X125904762Y-106757200D01*
X125904762Y-106757200D02*
X125952381Y-106709580D01*
X125952381Y-106709580D02*
X126000000Y-106614342D01*
X126000000Y-106614342D02*
X126000000Y-106519104D01*
X126000000Y-106519104D02*
X125952381Y-106423866D01*
X125952381Y-106423866D02*
X125904762Y-106376247D01*
X125904762Y-106376247D02*
X125809524Y-106328628D01*
X125809524Y-106328628D02*
X125619048Y-106281009D01*
X125619048Y-106281009D02*
X125523810Y-106233390D01*
X125523810Y-106233390D02*
X125476191Y-106185771D01*
X125476191Y-106185771D02*
X125428572Y-106090533D01*
X125428572Y-106090533D02*
X125428572Y-105995295D01*
X125428572Y-105995295D02*
X125476191Y-105900057D01*
X125476191Y-105900057D02*
X125523810Y-105852438D01*
X125523810Y-105852438D02*
X125619048Y-105804819D01*
X125619048Y-105804819D02*
X125857143Y-105804819D01*
X125857143Y-105804819D02*
X126000000Y-105852438D01*
X127000000Y-106709580D02*
X126952381Y-106757200D01*
X126952381Y-106757200D02*
X126809524Y-106804819D01*
X126809524Y-106804819D02*
X126714286Y-106804819D01*
X126714286Y-106804819D02*
X126571429Y-106757200D01*
X126571429Y-106757200D02*
X126476191Y-106661961D01*
X126476191Y-106661961D02*
X126428572Y-106566723D01*
X126428572Y-106566723D02*
X126380953Y-106376247D01*
X126380953Y-106376247D02*
X126380953Y-106233390D01*
X126380953Y-106233390D02*
X126428572Y-106042914D01*
X126428572Y-106042914D02*
X126476191Y-105947676D01*
X126476191Y-105947676D02*
X126571429Y-105852438D01*
X126571429Y-105852438D02*
X126714286Y-105804819D01*
X126714286Y-105804819D02*
X126809524Y-105804819D01*
X126809524Y-105804819D02*
X126952381Y-105852438D01*
X126952381Y-105852438D02*
X127000000Y-105900057D01*
X92595238Y-107104819D02*
X92595238Y-106104819D01*
X92595238Y-106104819D02*
X92928571Y-106819104D01*
X92928571Y-106819104D02*
X93261904Y-106104819D01*
X93261904Y-106104819D02*
X93261904Y-107104819D01*
X93880952Y-107104819D02*
X93785714Y-107057200D01*
X93785714Y-107057200D02*
X93738095Y-107009580D01*
X93738095Y-107009580D02*
X93690476Y-106914342D01*
X93690476Y-106914342D02*
X93690476Y-106628628D01*
X93690476Y-106628628D02*
X93738095Y-106533390D01*
X93738095Y-106533390D02*
X93785714Y-106485771D01*
X93785714Y-106485771D02*
X93880952Y-106438152D01*
X93880952Y-106438152D02*
X94023809Y-106438152D01*
X94023809Y-106438152D02*
X94119047Y-106485771D01*
X94119047Y-106485771D02*
X94166666Y-106533390D01*
X94166666Y-106533390D02*
X94214285Y-106628628D01*
X94214285Y-106628628D02*
X94214285Y-106914342D01*
X94214285Y-106914342D02*
X94166666Y-107009580D01*
X94166666Y-107009580D02*
X94119047Y-107057200D01*
X94119047Y-107057200D02*
X94023809Y-107104819D01*
X94023809Y-107104819D02*
X93880952Y-107104819D01*
X95071428Y-106438152D02*
X95071428Y-107104819D01*
X94642857Y-106438152D02*
X94642857Y-106961961D01*
X94642857Y-106961961D02*
X94690476Y-107057200D01*
X94690476Y-107057200D02*
X94785714Y-107104819D01*
X94785714Y-107104819D02*
X94928571Y-107104819D01*
X94928571Y-107104819D02*
X95023809Y-107057200D01*
X95023809Y-107057200D02*
X95071428Y-107009580D01*
X95547619Y-106438152D02*
X95547619Y-107104819D01*
X95547619Y-106533390D02*
X95595238Y-106485771D01*
X95595238Y-106485771D02*
X95690476Y-106438152D01*
X95690476Y-106438152D02*
X95833333Y-106438152D01*
X95833333Y-106438152D02*
X95928571Y-106485771D01*
X95928571Y-106485771D02*
X95976190Y-106581009D01*
X95976190Y-106581009D02*
X95976190Y-107104819D01*
X96309524Y-106438152D02*
X96690476Y-106438152D01*
X96452381Y-106104819D02*
X96452381Y-106961961D01*
X96452381Y-106961961D02*
X96500000Y-107057200D01*
X96500000Y-107057200D02*
X96595238Y-107104819D01*
X96595238Y-107104819D02*
X96690476Y-107104819D01*
X97023810Y-107104819D02*
X97023810Y-106438152D01*
X97023810Y-106104819D02*
X96976191Y-106152438D01*
X96976191Y-106152438D02*
X97023810Y-106200057D01*
X97023810Y-106200057D02*
X97071429Y-106152438D01*
X97071429Y-106152438D02*
X97023810Y-106104819D01*
X97023810Y-106104819D02*
X97023810Y-106200057D01*
X97500000Y-106438152D02*
X97500000Y-107104819D01*
X97500000Y-106533390D02*
X97547619Y-106485771D01*
X97547619Y-106485771D02*
X97642857Y-106438152D01*
X97642857Y-106438152D02*
X97785714Y-106438152D01*
X97785714Y-106438152D02*
X97880952Y-106485771D01*
X97880952Y-106485771D02*
X97928571Y-106581009D01*
X97928571Y-106581009D02*
X97928571Y-107104819D01*
X98833333Y-106438152D02*
X98833333Y-107247676D01*
X98833333Y-107247676D02*
X98785714Y-107342914D01*
X98785714Y-107342914D02*
X98738095Y-107390533D01*
X98738095Y-107390533D02*
X98642857Y-107438152D01*
X98642857Y-107438152D02*
X98500000Y-107438152D01*
X98500000Y-107438152D02*
X98404762Y-107390533D01*
X98833333Y-107057200D02*
X98738095Y-107104819D01*
X98738095Y-107104819D02*
X98547619Y-107104819D01*
X98547619Y-107104819D02*
X98452381Y-107057200D01*
X98452381Y-107057200D02*
X98404762Y-107009580D01*
X98404762Y-107009580D02*
X98357143Y-106914342D01*
X98357143Y-106914342D02*
X98357143Y-106628628D01*
X98357143Y-106628628D02*
X98404762Y-106533390D01*
X98404762Y-106533390D02*
X98452381Y-106485771D01*
X98452381Y-106485771D02*
X98547619Y-106438152D01*
X98547619Y-106438152D02*
X98738095Y-106438152D01*
X98738095Y-106438152D02*
X98833333Y-106485771D01*
X99309524Y-107104819D02*
X99309524Y-106104819D01*
X99309524Y-106581009D02*
X99880952Y-106581009D01*
X99880952Y-107104819D02*
X99880952Y-106104819D01*
X100500000Y-107104819D02*
X100404762Y-107057200D01*
X100404762Y-107057200D02*
X100357143Y-107009580D01*
X100357143Y-107009580D02*
X100309524Y-106914342D01*
X100309524Y-106914342D02*
X100309524Y-106628628D01*
X100309524Y-106628628D02*
X100357143Y-106533390D01*
X100357143Y-106533390D02*
X100404762Y-106485771D01*
X100404762Y-106485771D02*
X100500000Y-106438152D01*
X100500000Y-106438152D02*
X100642857Y-106438152D01*
X100642857Y-106438152D02*
X100738095Y-106485771D01*
X100738095Y-106485771D02*
X100785714Y-106533390D01*
X100785714Y-106533390D02*
X100833333Y-106628628D01*
X100833333Y-106628628D02*
X100833333Y-106914342D01*
X100833333Y-106914342D02*
X100785714Y-107009580D01*
X100785714Y-107009580D02*
X100738095Y-107057200D01*
X100738095Y-107057200D02*
X100642857Y-107104819D01*
X100642857Y-107104819D02*
X100500000Y-107104819D01*
X101404762Y-107104819D02*
X101309524Y-107057200D01*
X101309524Y-107057200D02*
X101261905Y-106961961D01*
X101261905Y-106961961D02*
X101261905Y-106104819D01*
X102166667Y-107057200D02*
X102071429Y-107104819D01*
X102071429Y-107104819D02*
X101880953Y-107104819D01*
X101880953Y-107104819D02*
X101785715Y-107057200D01*
X101785715Y-107057200D02*
X101738096Y-106961961D01*
X101738096Y-106961961D02*
X101738096Y-106581009D01*
X101738096Y-106581009D02*
X101785715Y-106485771D01*
X101785715Y-106485771D02*
X101880953Y-106438152D01*
X101880953Y-106438152D02*
X102071429Y-106438152D01*
X102071429Y-106438152D02*
X102166667Y-106485771D01*
X102166667Y-106485771D02*
X102214286Y-106581009D01*
X102214286Y-106581009D02*
X102214286Y-106676247D01*
X102214286Y-106676247D02*
X101738096Y-106771485D01*
X102404763Y-107200057D02*
X103166667Y-107200057D01*
X103357144Y-106200057D02*
X103404763Y-106152438D01*
X103404763Y-106152438D02*
X103500001Y-106104819D01*
X103500001Y-106104819D02*
X103738096Y-106104819D01*
X103738096Y-106104819D02*
X103833334Y-106152438D01*
X103833334Y-106152438D02*
X103880953Y-106200057D01*
X103880953Y-106200057D02*
X103928572Y-106295295D01*
X103928572Y-106295295D02*
X103928572Y-106390533D01*
X103928572Y-106390533D02*
X103880953Y-106533390D01*
X103880953Y-106533390D02*
X103309525Y-107104819D01*
X103309525Y-107104819D02*
X103928572Y-107104819D01*
X104357144Y-107009580D02*
X104404763Y-107057200D01*
X104404763Y-107057200D02*
X104357144Y-107104819D01*
X104357144Y-107104819D02*
X104309525Y-107057200D01*
X104309525Y-107057200D02*
X104357144Y-107009580D01*
X104357144Y-107009580D02*
X104357144Y-107104819D01*
X104785715Y-106200057D02*
X104833334Y-106152438D01*
X104833334Y-106152438D02*
X104928572Y-106104819D01*
X104928572Y-106104819D02*
X105166667Y-106104819D01*
X105166667Y-106104819D02*
X105261905Y-106152438D01*
X105261905Y-106152438D02*
X105309524Y-106200057D01*
X105309524Y-106200057D02*
X105357143Y-106295295D01*
X105357143Y-106295295D02*
X105357143Y-106390533D01*
X105357143Y-106390533D02*
X105309524Y-106533390D01*
X105309524Y-106533390D02*
X104738096Y-107104819D01*
X104738096Y-107104819D02*
X105357143Y-107104819D01*
X105785715Y-107104819D02*
X105785715Y-106438152D01*
X105785715Y-106533390D02*
X105833334Y-106485771D01*
X105833334Y-106485771D02*
X105928572Y-106438152D01*
X105928572Y-106438152D02*
X106071429Y-106438152D01*
X106071429Y-106438152D02*
X106166667Y-106485771D01*
X106166667Y-106485771D02*
X106214286Y-106581009D01*
X106214286Y-106581009D02*
X106214286Y-107104819D01*
X106214286Y-106581009D02*
X106261905Y-106485771D01*
X106261905Y-106485771D02*
X106357143Y-106438152D01*
X106357143Y-106438152D02*
X106500000Y-106438152D01*
X106500000Y-106438152D02*
X106595239Y-106485771D01*
X106595239Y-106485771D02*
X106642858Y-106581009D01*
X106642858Y-106581009D02*
X106642858Y-107104819D01*
X107119048Y-107104819D02*
X107119048Y-106438152D01*
X107119048Y-106533390D02*
X107166667Y-106485771D01*
X107166667Y-106485771D02*
X107261905Y-106438152D01*
X107261905Y-106438152D02*
X107404762Y-106438152D01*
X107404762Y-106438152D02*
X107500000Y-106485771D01*
X107500000Y-106485771D02*
X107547619Y-106581009D01*
X107547619Y-106581009D02*
X107547619Y-107104819D01*
X107547619Y-106581009D02*
X107595238Y-106485771D01*
X107595238Y-106485771D02*
X107690476Y-106438152D01*
X107690476Y-106438152D02*
X107833333Y-106438152D01*
X107833333Y-106438152D02*
X107928572Y-106485771D01*
X107928572Y-106485771D02*
X107976191Y-106581009D01*
X107976191Y-106581009D02*
X107976191Y-107104819D01*
X108214286Y-107200057D02*
X108976190Y-107200057D01*
X109214286Y-107104819D02*
X109214286Y-106104819D01*
X109214286Y-106104819D02*
X109547619Y-106819104D01*
X109547619Y-106819104D02*
X109880952Y-106104819D01*
X109880952Y-106104819D02*
X109880952Y-107104819D01*
X110309524Y-106200057D02*
X110357143Y-106152438D01*
X110357143Y-106152438D02*
X110452381Y-106104819D01*
X110452381Y-106104819D02*
X110690476Y-106104819D01*
X110690476Y-106104819D02*
X110785714Y-106152438D01*
X110785714Y-106152438D02*
X110833333Y-106200057D01*
X110833333Y-106200057D02*
X110880952Y-106295295D01*
X110880952Y-106295295D02*
X110880952Y-106390533D01*
X110880952Y-106390533D02*
X110833333Y-106533390D01*
X110833333Y-106533390D02*
X110261905Y-107104819D01*
X110261905Y-107104819D02*
X110880952Y-107104819D01*
X111071429Y-107200057D02*
X111833333Y-107200057D01*
X112071429Y-107104819D02*
X112071429Y-106104819D01*
X112071429Y-106104819D02*
X112452381Y-106104819D01*
X112452381Y-106104819D02*
X112547619Y-106152438D01*
X112547619Y-106152438D02*
X112595238Y-106200057D01*
X112595238Y-106200057D02*
X112642857Y-106295295D01*
X112642857Y-106295295D02*
X112642857Y-106438152D01*
X112642857Y-106438152D02*
X112595238Y-106533390D01*
X112595238Y-106533390D02*
X112547619Y-106581009D01*
X112547619Y-106581009D02*
X112452381Y-106628628D01*
X112452381Y-106628628D02*
X112071429Y-106628628D01*
X113500000Y-107104819D02*
X113500000Y-106581009D01*
X113500000Y-106581009D02*
X113452381Y-106485771D01*
X113452381Y-106485771D02*
X113357143Y-106438152D01*
X113357143Y-106438152D02*
X113166667Y-106438152D01*
X113166667Y-106438152D02*
X113071429Y-106485771D01*
X113500000Y-107057200D02*
X113404762Y-107104819D01*
X113404762Y-107104819D02*
X113166667Y-107104819D01*
X113166667Y-107104819D02*
X113071429Y-107057200D01*
X113071429Y-107057200D02*
X113023810Y-106961961D01*
X113023810Y-106961961D02*
X113023810Y-106866723D01*
X113023810Y-106866723D02*
X113071429Y-106771485D01*
X113071429Y-106771485D02*
X113166667Y-106723866D01*
X113166667Y-106723866D02*
X113404762Y-106723866D01*
X113404762Y-106723866D02*
X113500000Y-106676247D01*
X114404762Y-107104819D02*
X114404762Y-106104819D01*
X114404762Y-107057200D02*
X114309524Y-107104819D01*
X114309524Y-107104819D02*
X114119048Y-107104819D01*
X114119048Y-107104819D02*
X114023810Y-107057200D01*
X114023810Y-107057200D02*
X113976191Y-107009580D01*
X113976191Y-107009580D02*
X113928572Y-106914342D01*
X113928572Y-106914342D02*
X113928572Y-106628628D01*
X113928572Y-106628628D02*
X113976191Y-106533390D01*
X113976191Y-106533390D02*
X114023810Y-106485771D01*
X114023810Y-106485771D02*
X114119048Y-106438152D01*
X114119048Y-106438152D02*
X114309524Y-106438152D01*
X114309524Y-106438152D02*
X114404762Y-106485771D01*
X102738095Y-103954819D02*
X102738095Y-102954819D01*
X102738095Y-103431009D02*
X103309523Y-103431009D01*
X103309523Y-103954819D02*
X103309523Y-102954819D01*
X104309523Y-103954819D02*
X103738095Y-103954819D01*
X104023809Y-103954819D02*
X104023809Y-102954819D01*
X104023809Y-102954819D02*
X103928571Y-103097676D01*
X103928571Y-103097676D02*
X103833333Y-103192914D01*
X103833333Y-103192914D02*
X103738095Y-103240533D01*
X123333333Y-130591009D02*
X123666666Y-130591009D01*
X123809523Y-131114819D02*
X123333333Y-131114819D01*
X123333333Y-131114819D02*
X123333333Y-130114819D01*
X123333333Y-130114819D02*
X123809523Y-130114819D01*
X124190476Y-131067200D02*
X124333333Y-131114819D01*
X124333333Y-131114819D02*
X124571428Y-131114819D01*
X124571428Y-131114819D02*
X124666666Y-131067200D01*
X124666666Y-131067200D02*
X124714285Y-131019580D01*
X124714285Y-131019580D02*
X124761904Y-130924342D01*
X124761904Y-130924342D02*
X124761904Y-130829104D01*
X124761904Y-130829104D02*
X124714285Y-130733866D01*
X124714285Y-130733866D02*
X124666666Y-130686247D01*
X124666666Y-130686247D02*
X124571428Y-130638628D01*
X124571428Y-130638628D02*
X124380952Y-130591009D01*
X124380952Y-130591009D02*
X124285714Y-130543390D01*
X124285714Y-130543390D02*
X124238095Y-130495771D01*
X124238095Y-130495771D02*
X124190476Y-130400533D01*
X124190476Y-130400533D02*
X124190476Y-130305295D01*
X124190476Y-130305295D02*
X124238095Y-130210057D01*
X124238095Y-130210057D02*
X124285714Y-130162438D01*
X124285714Y-130162438D02*
X124380952Y-130114819D01*
X124380952Y-130114819D02*
X124619047Y-130114819D01*
X124619047Y-130114819D02*
X124761904Y-130162438D01*
X125190476Y-131114819D02*
X125190476Y-130114819D01*
X125190476Y-130114819D02*
X125571428Y-130114819D01*
X125571428Y-130114819D02*
X125666666Y-130162438D01*
X125666666Y-130162438D02*
X125714285Y-130210057D01*
X125714285Y-130210057D02*
X125761904Y-130305295D01*
X125761904Y-130305295D02*
X125761904Y-130448152D01*
X125761904Y-130448152D02*
X125714285Y-130543390D01*
X125714285Y-130543390D02*
X125666666Y-130591009D01*
X125666666Y-130591009D02*
X125571428Y-130638628D01*
X125571428Y-130638628D02*
X125190476Y-130638628D01*
X126095238Y-130114819D02*
X126714285Y-130114819D01*
X126714285Y-130114819D02*
X126380952Y-130495771D01*
X126380952Y-130495771D02*
X126523809Y-130495771D01*
X126523809Y-130495771D02*
X126619047Y-130543390D01*
X126619047Y-130543390D02*
X126666666Y-130591009D01*
X126666666Y-130591009D02*
X126714285Y-130686247D01*
X126714285Y-130686247D02*
X126714285Y-130924342D01*
X126714285Y-130924342D02*
X126666666Y-131019580D01*
X126666666Y-131019580D02*
X126619047Y-131067200D01*
X126619047Y-131067200D02*
X126523809Y-131114819D01*
X126523809Y-131114819D02*
X126238095Y-131114819D01*
X126238095Y-131114819D02*
X126142857Y-131067200D01*
X126142857Y-131067200D02*
X126095238Y-131019580D01*
X127095238Y-130210057D02*
X127142857Y-130162438D01*
X127142857Y-130162438D02*
X127238095Y-130114819D01*
X127238095Y-130114819D02*
X127476190Y-130114819D01*
X127476190Y-130114819D02*
X127571428Y-130162438D01*
X127571428Y-130162438D02*
X127619047Y-130210057D01*
X127619047Y-130210057D02*
X127666666Y-130305295D01*
X127666666Y-130305295D02*
X127666666Y-130400533D01*
X127666666Y-130400533D02*
X127619047Y-130543390D01*
X127619047Y-130543390D02*
X127047619Y-131114819D01*
X127047619Y-131114819D02*
X127666666Y-131114819D01*
X127857143Y-131210057D02*
X128619047Y-131210057D01*
X129428571Y-131114819D02*
X129095238Y-130638628D01*
X128857143Y-131114819D02*
X128857143Y-130114819D01*
X128857143Y-130114819D02*
X129238095Y-130114819D01*
X129238095Y-130114819D02*
X129333333Y-130162438D01*
X129333333Y-130162438D02*
X129380952Y-130210057D01*
X129380952Y-130210057D02*
X129428571Y-130305295D01*
X129428571Y-130305295D02*
X129428571Y-130448152D01*
X129428571Y-130448152D02*
X129380952Y-130543390D01*
X129380952Y-130543390D02*
X129333333Y-130591009D01*
X129333333Y-130591009D02*
X129238095Y-130638628D01*
X129238095Y-130638628D02*
X128857143Y-130638628D01*
X129857143Y-131114819D02*
X129857143Y-130114819D01*
X130857142Y-130162438D02*
X130761904Y-130114819D01*
X130761904Y-130114819D02*
X130619047Y-130114819D01*
X130619047Y-130114819D02*
X130476190Y-130162438D01*
X130476190Y-130162438D02*
X130380952Y-130257676D01*
X130380952Y-130257676D02*
X130333333Y-130352914D01*
X130333333Y-130352914D02*
X130285714Y-130543390D01*
X130285714Y-130543390D02*
X130285714Y-130686247D01*
X130285714Y-130686247D02*
X130333333Y-130876723D01*
X130333333Y-130876723D02*
X130380952Y-130971961D01*
X130380952Y-130971961D02*
X130476190Y-131067200D01*
X130476190Y-131067200D02*
X130619047Y-131114819D01*
X130619047Y-131114819D02*
X130714285Y-131114819D01*
X130714285Y-131114819D02*
X130857142Y-131067200D01*
X130857142Y-131067200D02*
X130904761Y-131019580D01*
X130904761Y-131019580D02*
X130904761Y-130686247D01*
X130904761Y-130686247D02*
X130714285Y-130686247D01*
X131333333Y-131114819D02*
X131333333Y-130114819D01*
X131333333Y-130591009D02*
X131904761Y-130591009D01*
X131904761Y-131114819D02*
X131904761Y-130114819D01*
X132238095Y-130114819D02*
X132809523Y-130114819D01*
X132523809Y-131114819D02*
X132523809Y-130114819D01*
X127454819Y-119333333D02*
X128169104Y-119333333D01*
X128169104Y-119333333D02*
X128311961Y-119380952D01*
X128311961Y-119380952D02*
X128407200Y-119476190D01*
X128407200Y-119476190D02*
X128454819Y-119619047D01*
X128454819Y-119619047D02*
X128454819Y-119714285D01*
X127550057Y-118904761D02*
X127502438Y-118857142D01*
X127502438Y-118857142D02*
X127454819Y-118761904D01*
X127454819Y-118761904D02*
X127454819Y-118523809D01*
X127454819Y-118523809D02*
X127502438Y-118428571D01*
X127502438Y-118428571D02*
X127550057Y-118380952D01*
X127550057Y-118380952D02*
X127645295Y-118333333D01*
X127645295Y-118333333D02*
X127740533Y-118333333D01*
X127740533Y-118333333D02*
X127883390Y-118380952D01*
X127883390Y-118380952D02*
X128454819Y-118952380D01*
X128454819Y-118952380D02*
X128454819Y-118333333D01*
X118380952Y-130104819D02*
X117809524Y-130104819D01*
X118095238Y-130104819D02*
X118095238Y-129104819D01*
X118095238Y-129104819D02*
X118000000Y-129247676D01*
X118000000Y-129247676D02*
X117904762Y-129342914D01*
X117904762Y-129342914D02*
X117809524Y-129390533D01*
X118809524Y-130104819D02*
X118809524Y-129104819D01*
X118904762Y-129723866D02*
X119190476Y-130104819D01*
X119190476Y-129438152D02*
X118809524Y-129819104D01*
D11*
X117511904Y-128227149D02*
X117345238Y-127989054D01*
X117226190Y-128227149D02*
X117226190Y-127727149D01*
X117226190Y-127727149D02*
X117416666Y-127727149D01*
X117416666Y-127727149D02*
X117464285Y-127750959D01*
X117464285Y-127750959D02*
X117488095Y-127774768D01*
X117488095Y-127774768D02*
X117511904Y-127822387D01*
X117511904Y-127822387D02*
X117511904Y-127893816D01*
X117511904Y-127893816D02*
X117488095Y-127941435D01*
X117488095Y-127941435D02*
X117464285Y-127965244D01*
X117464285Y-127965244D02*
X117416666Y-127989054D01*
X117416666Y-127989054D02*
X117226190Y-127989054D01*
X117607143Y-128274768D02*
X117988095Y-128274768D01*
X118107142Y-128227149D02*
X118107142Y-127727149D01*
X118107142Y-127727149D02*
X118297618Y-127727149D01*
X118297618Y-127727149D02*
X118345237Y-127750959D01*
X118345237Y-127750959D02*
X118369047Y-127774768D01*
X118369047Y-127774768D02*
X118392856Y-127822387D01*
X118392856Y-127822387D02*
X118392856Y-127893816D01*
X118392856Y-127893816D02*
X118369047Y-127941435D01*
X118369047Y-127941435D02*
X118345237Y-127965244D01*
X118345237Y-127965244D02*
X118297618Y-127989054D01*
X118297618Y-127989054D02*
X118107142Y-127989054D01*
X118892856Y-128227149D02*
X118726190Y-127989054D01*
X118607142Y-128227149D02*
X118607142Y-127727149D01*
X118607142Y-127727149D02*
X118797618Y-127727149D01*
X118797618Y-127727149D02*
X118845237Y-127750959D01*
X118845237Y-127750959D02*
X118869047Y-127774768D01*
X118869047Y-127774768D02*
X118892856Y-127822387D01*
X118892856Y-127822387D02*
X118892856Y-127893816D01*
X118892856Y-127893816D02*
X118869047Y-127941435D01*
X118869047Y-127941435D02*
X118845237Y-127965244D01*
X118845237Y-127965244D02*
X118797618Y-127989054D01*
X118797618Y-127989054D02*
X118607142Y-127989054D01*
X119202380Y-127727149D02*
X119297618Y-127727149D01*
X119297618Y-127727149D02*
X119345237Y-127750959D01*
X119345237Y-127750959D02*
X119392856Y-127798578D01*
X119392856Y-127798578D02*
X119416666Y-127893816D01*
X119416666Y-127893816D02*
X119416666Y-128060482D01*
X119416666Y-128060482D02*
X119392856Y-128155720D01*
X119392856Y-128155720D02*
X119345237Y-128203340D01*
X119345237Y-128203340D02*
X119297618Y-128227149D01*
X119297618Y-128227149D02*
X119202380Y-128227149D01*
X119202380Y-128227149D02*
X119154761Y-128203340D01*
X119154761Y-128203340D02*
X119107142Y-128155720D01*
X119107142Y-128155720D02*
X119083333Y-128060482D01*
X119083333Y-128060482D02*
X119083333Y-127893816D01*
X119083333Y-127893816D02*
X119107142Y-127798578D01*
X119107142Y-127798578D02*
X119154761Y-127750959D01*
X119154761Y-127750959D02*
X119202380Y-127727149D01*
X119559524Y-127727149D02*
X119845238Y-127727149D01*
X119702381Y-128227149D02*
X119702381Y-127727149D01*
D10*
X121071428Y-121204819D02*
X121642856Y-121204819D01*
X121357142Y-122204819D02*
X121357142Y-121204819D01*
X121976190Y-122204819D02*
X121976190Y-121204819D01*
X121976190Y-121204819D02*
X122357142Y-121204819D01*
X122357142Y-121204819D02*
X122452380Y-121252438D01*
X122452380Y-121252438D02*
X122499999Y-121300057D01*
X122499999Y-121300057D02*
X122547618Y-121395295D01*
X122547618Y-121395295D02*
X122547618Y-121538152D01*
X122547618Y-121538152D02*
X122499999Y-121633390D01*
X122499999Y-121633390D02*
X122452380Y-121681009D01*
X122452380Y-121681009D02*
X122357142Y-121728628D01*
X122357142Y-121728628D02*
X121976190Y-121728628D01*
X122738095Y-122300057D02*
X123499999Y-122300057D01*
X124261904Y-121252438D02*
X124166666Y-121204819D01*
X124166666Y-121204819D02*
X124023809Y-121204819D01*
X124023809Y-121204819D02*
X123880952Y-121252438D01*
X123880952Y-121252438D02*
X123785714Y-121347676D01*
X123785714Y-121347676D02*
X123738095Y-121442914D01*
X123738095Y-121442914D02*
X123690476Y-121633390D01*
X123690476Y-121633390D02*
X123690476Y-121776247D01*
X123690476Y-121776247D02*
X123738095Y-121966723D01*
X123738095Y-121966723D02*
X123785714Y-122061961D01*
X123785714Y-122061961D02*
X123880952Y-122157200D01*
X123880952Y-122157200D02*
X124023809Y-122204819D01*
X124023809Y-122204819D02*
X124119047Y-122204819D01*
X124119047Y-122204819D02*
X124261904Y-122157200D01*
X124261904Y-122157200D02*
X124309523Y-122109580D01*
X124309523Y-122109580D02*
X124309523Y-121776247D01*
X124309523Y-121776247D02*
X124119047Y-121776247D01*
X124690476Y-121919104D02*
X125166666Y-121919104D01*
X124595238Y-122204819D02*
X124928571Y-121204819D01*
X124928571Y-121204819D02*
X125261904Y-122204819D01*
X125452381Y-121204819D02*
X126023809Y-121204819D01*
X125738095Y-122204819D02*
X125738095Y-121204819D01*
X126357143Y-121681009D02*
X126690476Y-121681009D01*
X126833333Y-122204819D02*
X126357143Y-122204819D01*
X126357143Y-122204819D02*
X126357143Y-121204819D01*
X126357143Y-121204819D02*
X126833333Y-121204819D01*
X121071428Y-117804819D02*
X121642856Y-117804819D01*
X121357142Y-118804819D02*
X121357142Y-117804819D01*
X121976190Y-118804819D02*
X121976190Y-117804819D01*
X121976190Y-117804819D02*
X122357142Y-117804819D01*
X122357142Y-117804819D02*
X122452380Y-117852438D01*
X122452380Y-117852438D02*
X122499999Y-117900057D01*
X122499999Y-117900057D02*
X122547618Y-117995295D01*
X122547618Y-117995295D02*
X122547618Y-118138152D01*
X122547618Y-118138152D02*
X122499999Y-118233390D01*
X122499999Y-118233390D02*
X122452380Y-118281009D01*
X122452380Y-118281009D02*
X122357142Y-118328628D01*
X122357142Y-118328628D02*
X121976190Y-118328628D01*
X122738095Y-118900057D02*
X123499999Y-118900057D01*
X124261904Y-117852438D02*
X124166666Y-117804819D01*
X124166666Y-117804819D02*
X124023809Y-117804819D01*
X124023809Y-117804819D02*
X123880952Y-117852438D01*
X123880952Y-117852438D02*
X123785714Y-117947676D01*
X123785714Y-117947676D02*
X123738095Y-118042914D01*
X123738095Y-118042914D02*
X123690476Y-118233390D01*
X123690476Y-118233390D02*
X123690476Y-118376247D01*
X123690476Y-118376247D02*
X123738095Y-118566723D01*
X123738095Y-118566723D02*
X123785714Y-118661961D01*
X123785714Y-118661961D02*
X123880952Y-118757200D01*
X123880952Y-118757200D02*
X124023809Y-118804819D01*
X124023809Y-118804819D02*
X124119047Y-118804819D01*
X124119047Y-118804819D02*
X124261904Y-118757200D01*
X124261904Y-118757200D02*
X124309523Y-118709580D01*
X124309523Y-118709580D02*
X124309523Y-118376247D01*
X124309523Y-118376247D02*
X124119047Y-118376247D01*
X124690476Y-118519104D02*
X125166666Y-118519104D01*
X124595238Y-118804819D02*
X124928571Y-117804819D01*
X124928571Y-117804819D02*
X125261904Y-118804819D01*
X125452381Y-117804819D02*
X126023809Y-117804819D01*
X125738095Y-118804819D02*
X125738095Y-117804819D01*
X126357143Y-118281009D02*
X126690476Y-118281009D01*
X126833333Y-118804819D02*
X126357143Y-118804819D01*
X126357143Y-118804819D02*
X126357143Y-117804819D01*
X126357143Y-117804819D02*
X126833333Y-117804819D01*
X132833333Y-122104819D02*
X132261905Y-122104819D01*
X132547619Y-122104819D02*
X132547619Y-121104819D01*
X132547619Y-121104819D02*
X132452381Y-121247676D01*
X132452381Y-121247676D02*
X132357143Y-121342914D01*
X132357143Y-121342914D02*
X132261905Y-121390533D01*
X133452381Y-121104819D02*
X133547619Y-121104819D01*
X133547619Y-121104819D02*
X133642857Y-121152438D01*
X133642857Y-121152438D02*
X133690476Y-121200057D01*
X133690476Y-121200057D02*
X133738095Y-121295295D01*
X133738095Y-121295295D02*
X133785714Y-121485771D01*
X133785714Y-121485771D02*
X133785714Y-121723866D01*
X133785714Y-121723866D02*
X133738095Y-121914342D01*
X133738095Y-121914342D02*
X133690476Y-122009580D01*
X133690476Y-122009580D02*
X133642857Y-122057200D01*
X133642857Y-122057200D02*
X133547619Y-122104819D01*
X133547619Y-122104819D02*
X133452381Y-122104819D01*
X133452381Y-122104819D02*
X133357143Y-122057200D01*
X133357143Y-122057200D02*
X133309524Y-122009580D01*
X133309524Y-122009580D02*
X133261905Y-121914342D01*
X133261905Y-121914342D02*
X133214286Y-121723866D01*
X133214286Y-121723866D02*
X133214286Y-121485771D01*
X133214286Y-121485771D02*
X133261905Y-121295295D01*
X133261905Y-121295295D02*
X133309524Y-121200057D01*
X133309524Y-121200057D02*
X133357143Y-121152438D01*
X133357143Y-121152438D02*
X133452381Y-121104819D01*
X134404762Y-121104819D02*
X134500000Y-121104819D01*
X134500000Y-121104819D02*
X134595238Y-121152438D01*
X134595238Y-121152438D02*
X134642857Y-121200057D01*
X134642857Y-121200057D02*
X134690476Y-121295295D01*
X134690476Y-121295295D02*
X134738095Y-121485771D01*
X134738095Y-121485771D02*
X134738095Y-121723866D01*
X134738095Y-121723866D02*
X134690476Y-121914342D01*
X134690476Y-121914342D02*
X134642857Y-122009580D01*
X134642857Y-122009580D02*
X134595238Y-122057200D01*
X134595238Y-122057200D02*
X134500000Y-122104819D01*
X134500000Y-122104819D02*
X134404762Y-122104819D01*
X134404762Y-122104819D02*
X134309524Y-122057200D01*
X134309524Y-122057200D02*
X134261905Y-122009580D01*
X134261905Y-122009580D02*
X134214286Y-121914342D01*
X134214286Y-121914342D02*
X134166667Y-121723866D01*
X134166667Y-121723866D02*
X134166667Y-121485771D01*
X134166667Y-121485771D02*
X134214286Y-121295295D01*
X134214286Y-121295295D02*
X134261905Y-121200057D01*
X134261905Y-121200057D02*
X134309524Y-121152438D01*
X134309524Y-121152438D02*
X134404762Y-121104819D01*
D11*
X133214285Y-120227149D02*
X133047619Y-119989054D01*
X132928571Y-120227149D02*
X132928571Y-119727149D01*
X132928571Y-119727149D02*
X133119047Y-119727149D01*
X133119047Y-119727149D02*
X133166666Y-119750959D01*
X133166666Y-119750959D02*
X133190476Y-119774768D01*
X133190476Y-119774768D02*
X133214285Y-119822387D01*
X133214285Y-119822387D02*
X133214285Y-119893816D01*
X133214285Y-119893816D02*
X133190476Y-119941435D01*
X133190476Y-119941435D02*
X133166666Y-119965244D01*
X133166666Y-119965244D02*
X133119047Y-119989054D01*
X133119047Y-119989054D02*
X132928571Y-119989054D01*
X133309524Y-120274768D02*
X133690476Y-120274768D01*
X134071428Y-119750959D02*
X134023809Y-119727149D01*
X134023809Y-119727149D02*
X133952380Y-119727149D01*
X133952380Y-119727149D02*
X133880952Y-119750959D01*
X133880952Y-119750959D02*
X133833333Y-119798578D01*
X133833333Y-119798578D02*
X133809523Y-119846197D01*
X133809523Y-119846197D02*
X133785714Y-119941435D01*
X133785714Y-119941435D02*
X133785714Y-120012863D01*
X133785714Y-120012863D02*
X133809523Y-120108101D01*
X133809523Y-120108101D02*
X133833333Y-120155720D01*
X133833333Y-120155720D02*
X133880952Y-120203340D01*
X133880952Y-120203340D02*
X133952380Y-120227149D01*
X133952380Y-120227149D02*
X133999999Y-120227149D01*
X133999999Y-120227149D02*
X134071428Y-120203340D01*
X134071428Y-120203340D02*
X134095237Y-120179530D01*
X134095237Y-120179530D02*
X134095237Y-120012863D01*
X134095237Y-120012863D02*
X133999999Y-120012863D01*
D10*
X103128571Y-114634819D02*
X102557143Y-114634819D01*
X102842857Y-114634819D02*
X102842857Y-113634819D01*
X102842857Y-113634819D02*
X102747619Y-113777676D01*
X102747619Y-113777676D02*
X102652381Y-113872914D01*
X102652381Y-113872914D02*
X102557143Y-113920533D01*
X103747619Y-113634819D02*
X103842857Y-113634819D01*
X103842857Y-113634819D02*
X103938095Y-113682438D01*
X103938095Y-113682438D02*
X103985714Y-113730057D01*
X103985714Y-113730057D02*
X104033333Y-113825295D01*
X104033333Y-113825295D02*
X104080952Y-114015771D01*
X104080952Y-114015771D02*
X104080952Y-114253866D01*
X104080952Y-114253866D02*
X104033333Y-114444342D01*
X104033333Y-114444342D02*
X103985714Y-114539580D01*
X103985714Y-114539580D02*
X103938095Y-114587200D01*
X103938095Y-114587200D02*
X103842857Y-114634819D01*
X103842857Y-114634819D02*
X103747619Y-114634819D01*
X103747619Y-114634819D02*
X103652381Y-114587200D01*
X103652381Y-114587200D02*
X103604762Y-114539580D01*
X103604762Y-114539580D02*
X103557143Y-114444342D01*
X103557143Y-114444342D02*
X103509524Y-114253866D01*
X103509524Y-114253866D02*
X103509524Y-114015771D01*
X103509524Y-114015771D02*
X103557143Y-113825295D01*
X103557143Y-113825295D02*
X103604762Y-113730057D01*
X103604762Y-113730057D02*
X103652381Y-113682438D01*
X103652381Y-113682438D02*
X103747619Y-113634819D01*
X104938095Y-113968152D02*
X104938095Y-114634819D01*
X104509524Y-113968152D02*
X104509524Y-114491961D01*
X104509524Y-114491961D02*
X104557143Y-114587200D01*
X104557143Y-114587200D02*
X104652381Y-114634819D01*
X104652381Y-114634819D02*
X104795238Y-114634819D01*
X104795238Y-114634819D02*
X104890476Y-114587200D01*
X104890476Y-114587200D02*
X104938095Y-114539580D01*
X105747619Y-114111009D02*
X105414286Y-114111009D01*
X105414286Y-114634819D02*
X105414286Y-113634819D01*
X105414286Y-113634819D02*
X105890476Y-113634819D01*
D11*
X103783333Y-112679530D02*
X103759524Y-112703340D01*
X103759524Y-112703340D02*
X103688095Y-112727149D01*
X103688095Y-112727149D02*
X103640476Y-112727149D01*
X103640476Y-112727149D02*
X103569048Y-112703340D01*
X103569048Y-112703340D02*
X103521429Y-112655720D01*
X103521429Y-112655720D02*
X103497619Y-112608101D01*
X103497619Y-112608101D02*
X103473810Y-112512863D01*
X103473810Y-112512863D02*
X103473810Y-112441435D01*
X103473810Y-112441435D02*
X103497619Y-112346197D01*
X103497619Y-112346197D02*
X103521429Y-112298578D01*
X103521429Y-112298578D02*
X103569048Y-112250959D01*
X103569048Y-112250959D02*
X103640476Y-112227149D01*
X103640476Y-112227149D02*
X103688095Y-112227149D01*
X103688095Y-112227149D02*
X103759524Y-112250959D01*
X103759524Y-112250959D02*
X103783333Y-112274768D01*
X103878572Y-112774768D02*
X104259524Y-112774768D01*
X104378571Y-112727149D02*
X104378571Y-112227149D01*
X104616666Y-112727149D02*
X104616666Y-112227149D01*
X104616666Y-112227149D02*
X104902380Y-112727149D01*
X104902380Y-112727149D02*
X104902380Y-112227149D01*
D10*
X116454819Y-136445238D02*
X116454819Y-137016666D01*
X116454819Y-136730952D02*
X115454819Y-136730952D01*
X115454819Y-136730952D02*
X115597676Y-136826190D01*
X115597676Y-136826190D02*
X115692914Y-136921428D01*
X115692914Y-136921428D02*
X115740533Y-137016666D01*
X115454819Y-135826190D02*
X115454819Y-135730952D01*
X115454819Y-135730952D02*
X115502438Y-135635714D01*
X115502438Y-135635714D02*
X115550057Y-135588095D01*
X115550057Y-135588095D02*
X115645295Y-135540476D01*
X115645295Y-135540476D02*
X115835771Y-135492857D01*
X115835771Y-135492857D02*
X116073866Y-135492857D01*
X116073866Y-135492857D02*
X116264342Y-135540476D01*
X116264342Y-135540476D02*
X116359580Y-135588095D01*
X116359580Y-135588095D02*
X116407200Y-135635714D01*
X116407200Y-135635714D02*
X116454819Y-135730952D01*
X116454819Y-135730952D02*
X116454819Y-135826190D01*
X116454819Y-135826190D02*
X116407200Y-135921428D01*
X116407200Y-135921428D02*
X116359580Y-135969047D01*
X116359580Y-135969047D02*
X116264342Y-136016666D01*
X116264342Y-136016666D02*
X116073866Y-136064285D01*
X116073866Y-136064285D02*
X115835771Y-136064285D01*
X115835771Y-136064285D02*
X115645295Y-136016666D01*
X115645295Y-136016666D02*
X115550057Y-135969047D01*
X115550057Y-135969047D02*
X115502438Y-135921428D01*
X115502438Y-135921428D02*
X115454819Y-135826190D01*
X116454819Y-135064285D02*
X115454819Y-135064285D01*
X116073866Y-134969047D02*
X116454819Y-134683333D01*
X115788152Y-134683333D02*
X116169104Y-135064285D01*
D11*
X116227149Y-134926190D02*
X115989054Y-135092856D01*
X116227149Y-135211904D02*
X115727149Y-135211904D01*
X115727149Y-135211904D02*
X115727149Y-135021428D01*
X115727149Y-135021428D02*
X115750959Y-134973809D01*
X115750959Y-134973809D02*
X115774768Y-134949999D01*
X115774768Y-134949999D02*
X115822387Y-134926190D01*
X115822387Y-134926190D02*
X115893816Y-134926190D01*
X115893816Y-134926190D02*
X115941435Y-134949999D01*
X115941435Y-134949999D02*
X115965244Y-134973809D01*
X115965244Y-134973809D02*
X115989054Y-135021428D01*
X115989054Y-135021428D02*
X115989054Y-135211904D01*
X116274768Y-134830952D02*
X116274768Y-134449999D01*
X116227149Y-134045238D02*
X115989054Y-134211904D01*
X116227149Y-134330952D02*
X115727149Y-134330952D01*
X115727149Y-134330952D02*
X115727149Y-134140476D01*
X115727149Y-134140476D02*
X115750959Y-134092857D01*
X115750959Y-134092857D02*
X115774768Y-134069047D01*
X115774768Y-134069047D02*
X115822387Y-134045238D01*
X115822387Y-134045238D02*
X115893816Y-134045238D01*
X115893816Y-134045238D02*
X115941435Y-134069047D01*
X115941435Y-134069047D02*
X115965244Y-134092857D01*
X115965244Y-134092857D02*
X115989054Y-134140476D01*
X115989054Y-134140476D02*
X115989054Y-134330952D01*
X115965244Y-133830952D02*
X115965244Y-133664285D01*
X116227149Y-133592857D02*
X116227149Y-133830952D01*
X116227149Y-133830952D02*
X115727149Y-133830952D01*
X115727149Y-133830952D02*
X115727149Y-133592857D01*
X115965244Y-133211904D02*
X115965244Y-133378571D01*
X116227149Y-133378571D02*
X115727149Y-133378571D01*
X115727149Y-133378571D02*
X115727149Y-133140476D01*
D10*
X130404762Y-126569104D02*
X130880952Y-126569104D01*
X130309524Y-126854819D02*
X130642857Y-125854819D01*
X130642857Y-125854819D02*
X130976190Y-126854819D01*
X131500000Y-125854819D02*
X131690476Y-125854819D01*
X131690476Y-125854819D02*
X131785714Y-125902438D01*
X131785714Y-125902438D02*
X131880952Y-125997676D01*
X131880952Y-125997676D02*
X131928571Y-126188152D01*
X131928571Y-126188152D02*
X131928571Y-126521485D01*
X131928571Y-126521485D02*
X131880952Y-126711961D01*
X131880952Y-126711961D02*
X131785714Y-126807200D01*
X131785714Y-126807200D02*
X131690476Y-126854819D01*
X131690476Y-126854819D02*
X131500000Y-126854819D01*
X131500000Y-126854819D02*
X131404762Y-126807200D01*
X131404762Y-126807200D02*
X131309524Y-126711961D01*
X131309524Y-126711961D02*
X131261905Y-126521485D01*
X131261905Y-126521485D02*
X131261905Y-126188152D01*
X131261905Y-126188152D02*
X131309524Y-125997676D01*
X131309524Y-125997676D02*
X131404762Y-125902438D01*
X131404762Y-125902438D02*
X131500000Y-125854819D01*
X132261905Y-125854819D02*
X132880952Y-125854819D01*
X132880952Y-125854819D02*
X132547619Y-126235771D01*
X132547619Y-126235771D02*
X132690476Y-126235771D01*
X132690476Y-126235771D02*
X132785714Y-126283390D01*
X132785714Y-126283390D02*
X132833333Y-126331009D01*
X132833333Y-126331009D02*
X132880952Y-126426247D01*
X132880952Y-126426247D02*
X132880952Y-126664342D01*
X132880952Y-126664342D02*
X132833333Y-126759580D01*
X132833333Y-126759580D02*
X132785714Y-126807200D01*
X132785714Y-126807200D02*
X132690476Y-126854819D01*
X132690476Y-126854819D02*
X132404762Y-126854819D01*
X132404762Y-126854819D02*
X132309524Y-126807200D01*
X132309524Y-126807200D02*
X132261905Y-126759580D01*
X133738095Y-126188152D02*
X133738095Y-126854819D01*
X133500000Y-125807200D02*
X133261905Y-126521485D01*
X133261905Y-126521485D02*
X133880952Y-126521485D01*
X134452381Y-125854819D02*
X134547619Y-125854819D01*
X134547619Y-125854819D02*
X134642857Y-125902438D01*
X134642857Y-125902438D02*
X134690476Y-125950057D01*
X134690476Y-125950057D02*
X134738095Y-126045295D01*
X134738095Y-126045295D02*
X134785714Y-126235771D01*
X134785714Y-126235771D02*
X134785714Y-126473866D01*
X134785714Y-126473866D02*
X134738095Y-126664342D01*
X134738095Y-126664342D02*
X134690476Y-126759580D01*
X134690476Y-126759580D02*
X134642857Y-126807200D01*
X134642857Y-126807200D02*
X134547619Y-126854819D01*
X134547619Y-126854819D02*
X134452381Y-126854819D01*
X134452381Y-126854819D02*
X134357143Y-126807200D01*
X134357143Y-126807200D02*
X134309524Y-126759580D01*
X134309524Y-126759580D02*
X134261905Y-126664342D01*
X134261905Y-126664342D02*
X134214286Y-126473866D01*
X134214286Y-126473866D02*
X134214286Y-126235771D01*
X134214286Y-126235771D02*
X134261905Y-126045295D01*
X134261905Y-126045295D02*
X134309524Y-125950057D01*
X134309524Y-125950057D02*
X134357143Y-125902438D01*
X134357143Y-125902438D02*
X134452381Y-125854819D01*
X135404762Y-125854819D02*
X135500000Y-125854819D01*
X135500000Y-125854819D02*
X135595238Y-125902438D01*
X135595238Y-125902438D02*
X135642857Y-125950057D01*
X135642857Y-125950057D02*
X135690476Y-126045295D01*
X135690476Y-126045295D02*
X135738095Y-126235771D01*
X135738095Y-126235771D02*
X135738095Y-126473866D01*
X135738095Y-126473866D02*
X135690476Y-126664342D01*
X135690476Y-126664342D02*
X135642857Y-126759580D01*
X135642857Y-126759580D02*
X135595238Y-126807200D01*
X135595238Y-126807200D02*
X135500000Y-126854819D01*
X135500000Y-126854819D02*
X135404762Y-126854819D01*
X135404762Y-126854819D02*
X135309524Y-126807200D01*
X135309524Y-126807200D02*
X135261905Y-126759580D01*
X135261905Y-126759580D02*
X135214286Y-126664342D01*
X135214286Y-126664342D02*
X135166667Y-126473866D01*
X135166667Y-126473866D02*
X135166667Y-126235771D01*
X135166667Y-126235771D02*
X135214286Y-126045295D01*
X135214286Y-126045295D02*
X135261905Y-125950057D01*
X135261905Y-125950057D02*
X135309524Y-125902438D01*
X135309524Y-125902438D02*
X135404762Y-125854819D01*
X136119048Y-126569104D02*
X136595238Y-126569104D01*
X136023810Y-126854819D02*
X136357143Y-125854819D01*
X136357143Y-125854819D02*
X136690476Y-126854819D01*
D12*
X133895937Y-124068571D02*
X133861651Y-124137142D01*
X133861651Y-124137142D02*
X133793080Y-124205714D01*
X133793080Y-124205714D02*
X133690222Y-124308571D01*
X133690222Y-124308571D02*
X133655937Y-124377142D01*
X133655937Y-124377142D02*
X133655937Y-124445714D01*
X133827365Y-124411428D02*
X133793080Y-124480000D01*
X133793080Y-124480000D02*
X133724508Y-124548571D01*
X133724508Y-124548571D02*
X133587365Y-124582857D01*
X133587365Y-124582857D02*
X133347365Y-124582857D01*
X133347365Y-124582857D02*
X133210222Y-124548571D01*
X133210222Y-124548571D02*
X133141651Y-124480000D01*
X133141651Y-124480000D02*
X133107365Y-124411428D01*
X133107365Y-124411428D02*
X133107365Y-124274285D01*
X133107365Y-124274285D02*
X133141651Y-124205714D01*
X133141651Y-124205714D02*
X133210222Y-124137142D01*
X133210222Y-124137142D02*
X133347365Y-124102857D01*
X133347365Y-124102857D02*
X133587365Y-124102857D01*
X133587365Y-124102857D02*
X133724508Y-124137142D01*
X133724508Y-124137142D02*
X133793080Y-124205714D01*
X133793080Y-124205714D02*
X133827365Y-124274285D01*
X133827365Y-124274285D02*
X133827365Y-124411428D01*
X133827365Y-123417142D02*
X133827365Y-123828571D01*
X133827365Y-123622856D02*
X133107365Y-123622856D01*
X133107365Y-123622856D02*
X133210222Y-123691428D01*
X133210222Y-123691428D02*
X133278794Y-123759999D01*
X133278794Y-123759999D02*
X133313080Y-123828571D01*
D10*
X103700000Y-119169104D02*
X104176190Y-119169104D01*
X103604762Y-119454819D02*
X103938095Y-118454819D01*
X103938095Y-118454819D02*
X104271428Y-119454819D01*
X104604762Y-119454819D02*
X104604762Y-118454819D01*
X104604762Y-118454819D02*
X104938095Y-119169104D01*
X104938095Y-119169104D02*
X105271428Y-118454819D01*
X105271428Y-118454819D02*
X105271428Y-119454819D01*
X105700000Y-119407200D02*
X105842857Y-119454819D01*
X105842857Y-119454819D02*
X106080952Y-119454819D01*
X106080952Y-119454819D02*
X106176190Y-119407200D01*
X106176190Y-119407200D02*
X106223809Y-119359580D01*
X106223809Y-119359580D02*
X106271428Y-119264342D01*
X106271428Y-119264342D02*
X106271428Y-119169104D01*
X106271428Y-119169104D02*
X106223809Y-119073866D01*
X106223809Y-119073866D02*
X106176190Y-119026247D01*
X106176190Y-119026247D02*
X106080952Y-118978628D01*
X106080952Y-118978628D02*
X105890476Y-118931009D01*
X105890476Y-118931009D02*
X105795238Y-118883390D01*
X105795238Y-118883390D02*
X105747619Y-118835771D01*
X105747619Y-118835771D02*
X105700000Y-118740533D01*
X105700000Y-118740533D02*
X105700000Y-118645295D01*
X105700000Y-118645295D02*
X105747619Y-118550057D01*
X105747619Y-118550057D02*
X105795238Y-118502438D01*
X105795238Y-118502438D02*
X105890476Y-118454819D01*
X105890476Y-118454819D02*
X106128571Y-118454819D01*
X106128571Y-118454819D02*
X106271428Y-118502438D01*
X107223809Y-119454819D02*
X106652381Y-119454819D01*
X106938095Y-119454819D02*
X106938095Y-118454819D01*
X106938095Y-118454819D02*
X106842857Y-118597676D01*
X106842857Y-118597676D02*
X106747619Y-118692914D01*
X106747619Y-118692914D02*
X106652381Y-118740533D01*
X108176190Y-119454819D02*
X107604762Y-119454819D01*
X107890476Y-119454819D02*
X107890476Y-118454819D01*
X107890476Y-118454819D02*
X107795238Y-118597676D01*
X107795238Y-118597676D02*
X107700000Y-118692914D01*
X107700000Y-118692914D02*
X107604762Y-118740533D01*
X109128571Y-119454819D02*
X108557143Y-119454819D01*
X108842857Y-119454819D02*
X108842857Y-118454819D01*
X108842857Y-118454819D02*
X108747619Y-118597676D01*
X108747619Y-118597676D02*
X108652381Y-118692914D01*
X108652381Y-118692914D02*
X108557143Y-118740533D01*
X109461905Y-118454819D02*
X110128571Y-118454819D01*
X110128571Y-118454819D02*
X109700000Y-119454819D01*
X110509524Y-119073866D02*
X111271429Y-119073866D01*
X111652381Y-118454819D02*
X112271428Y-118454819D01*
X112271428Y-118454819D02*
X111938095Y-118835771D01*
X111938095Y-118835771D02*
X112080952Y-118835771D01*
X112080952Y-118835771D02*
X112176190Y-118883390D01*
X112176190Y-118883390D02*
X112223809Y-118931009D01*
X112223809Y-118931009D02*
X112271428Y-119026247D01*
X112271428Y-119026247D02*
X112271428Y-119264342D01*
X112271428Y-119264342D02*
X112223809Y-119359580D01*
X112223809Y-119359580D02*
X112176190Y-119407200D01*
X112176190Y-119407200D02*
X112080952Y-119454819D01*
X112080952Y-119454819D02*
X111795238Y-119454819D01*
X111795238Y-119454819D02*
X111700000Y-119407200D01*
X111700000Y-119407200D02*
X111652381Y-119359580D01*
X112700000Y-119359580D02*
X112747619Y-119407200D01*
X112747619Y-119407200D02*
X112700000Y-119454819D01*
X112700000Y-119454819D02*
X112652381Y-119407200D01*
X112652381Y-119407200D02*
X112700000Y-119359580D01*
X112700000Y-119359580D02*
X112700000Y-119454819D01*
X113080952Y-118454819D02*
X113699999Y-118454819D01*
X113699999Y-118454819D02*
X113366666Y-118835771D01*
X113366666Y-118835771D02*
X113509523Y-118835771D01*
X113509523Y-118835771D02*
X113604761Y-118883390D01*
X113604761Y-118883390D02*
X113652380Y-118931009D01*
X113652380Y-118931009D02*
X113699999Y-119026247D01*
X113699999Y-119026247D02*
X113699999Y-119264342D01*
X113699999Y-119264342D02*
X113652380Y-119359580D01*
X113652380Y-119359580D02*
X113604761Y-119407200D01*
X113604761Y-119407200D02*
X113509523Y-119454819D01*
X113509523Y-119454819D02*
X113223809Y-119454819D01*
X113223809Y-119454819D02*
X113128571Y-119407200D01*
X113128571Y-119407200D02*
X113080952Y-119359580D01*
D13*
X103763855Y-119609523D02*
X104411474Y-119609523D01*
X104411474Y-119609523D02*
X104487664Y-119571428D01*
X104487664Y-119571428D02*
X104525760Y-119533333D01*
X104525760Y-119533333D02*
X104563855Y-119457142D01*
X104563855Y-119457142D02*
X104563855Y-119304761D01*
X104563855Y-119304761D02*
X104525760Y-119228571D01*
X104525760Y-119228571D02*
X104487664Y-119190476D01*
X104487664Y-119190476D02*
X104411474Y-119152380D01*
X104411474Y-119152380D02*
X103763855Y-119152380D01*
X104563855Y-118352381D02*
X104563855Y-118809524D01*
X104563855Y-118580952D02*
X103763855Y-118580952D01*
X103763855Y-118580952D02*
X103878140Y-118657143D01*
X103878140Y-118657143D02*
X103954331Y-118733333D01*
X103954331Y-118733333D02*
X103992426Y-118809524D01*
D10*
X122797619Y-130007200D02*
X122940476Y-130054819D01*
X122940476Y-130054819D02*
X123178571Y-130054819D01*
X123178571Y-130054819D02*
X123273809Y-130007200D01*
X123273809Y-130007200D02*
X123321428Y-129959580D01*
X123321428Y-129959580D02*
X123369047Y-129864342D01*
X123369047Y-129864342D02*
X123369047Y-129769104D01*
X123369047Y-129769104D02*
X123321428Y-129673866D01*
X123321428Y-129673866D02*
X123273809Y-129626247D01*
X123273809Y-129626247D02*
X123178571Y-129578628D01*
X123178571Y-129578628D02*
X122988095Y-129531009D01*
X122988095Y-129531009D02*
X122892857Y-129483390D01*
X122892857Y-129483390D02*
X122845238Y-129435771D01*
X122845238Y-129435771D02*
X122797619Y-129340533D01*
X122797619Y-129340533D02*
X122797619Y-129245295D01*
X122797619Y-129245295D02*
X122845238Y-129150057D01*
X122845238Y-129150057D02*
X122892857Y-129102438D01*
X122892857Y-129102438D02*
X122988095Y-129054819D01*
X122988095Y-129054819D02*
X123226190Y-129054819D01*
X123226190Y-129054819D02*
X123369047Y-129102438D01*
X123988095Y-129054819D02*
X124178571Y-129054819D01*
X124178571Y-129054819D02*
X124273809Y-129102438D01*
X124273809Y-129102438D02*
X124369047Y-129197676D01*
X124369047Y-129197676D02*
X124416666Y-129388152D01*
X124416666Y-129388152D02*
X124416666Y-129721485D01*
X124416666Y-129721485D02*
X124369047Y-129911961D01*
X124369047Y-129911961D02*
X124273809Y-130007200D01*
X124273809Y-130007200D02*
X124178571Y-130054819D01*
X124178571Y-130054819D02*
X123988095Y-130054819D01*
X123988095Y-130054819D02*
X123892857Y-130007200D01*
X123892857Y-130007200D02*
X123797619Y-129911961D01*
X123797619Y-129911961D02*
X123750000Y-129721485D01*
X123750000Y-129721485D02*
X123750000Y-129388152D01*
X123750000Y-129388152D02*
X123797619Y-129197676D01*
X123797619Y-129197676D02*
X123892857Y-129102438D01*
X123892857Y-129102438D02*
X123988095Y-129054819D01*
X125321428Y-130054819D02*
X124845238Y-130054819D01*
X124845238Y-130054819D02*
X124845238Y-129054819D01*
X125654762Y-129531009D02*
X125988095Y-129531009D01*
X126130952Y-130054819D02*
X125654762Y-130054819D01*
X125654762Y-130054819D02*
X125654762Y-129054819D01*
X125654762Y-129054819D02*
X126130952Y-129054819D01*
X126559524Y-130054819D02*
X126559524Y-129054819D01*
X126559524Y-129054819D02*
X127130952Y-130054819D01*
X127130952Y-130054819D02*
X127130952Y-129054819D01*
X127797619Y-129054819D02*
X127988095Y-129054819D01*
X127988095Y-129054819D02*
X128083333Y-129102438D01*
X128083333Y-129102438D02*
X128178571Y-129197676D01*
X128178571Y-129197676D02*
X128226190Y-129388152D01*
X128226190Y-129388152D02*
X128226190Y-129721485D01*
X128226190Y-129721485D02*
X128178571Y-129911961D01*
X128178571Y-129911961D02*
X128083333Y-130007200D01*
X128083333Y-130007200D02*
X127988095Y-130054819D01*
X127988095Y-130054819D02*
X127797619Y-130054819D01*
X127797619Y-130054819D02*
X127702381Y-130007200D01*
X127702381Y-130007200D02*
X127607143Y-129911961D01*
X127607143Y-129911961D02*
X127559524Y-129721485D01*
X127559524Y-129721485D02*
X127559524Y-129388152D01*
X127559524Y-129388152D02*
X127607143Y-129197676D01*
X127607143Y-129197676D02*
X127702381Y-129102438D01*
X127702381Y-129102438D02*
X127797619Y-129054819D01*
X128654762Y-130054819D02*
X128654762Y-129054819D01*
X129130952Y-130054819D02*
X129130952Y-129054819D01*
X129130952Y-129054819D02*
X129369047Y-129054819D01*
X129369047Y-129054819D02*
X129511904Y-129102438D01*
X129511904Y-129102438D02*
X129607142Y-129197676D01*
X129607142Y-129197676D02*
X129654761Y-129292914D01*
X129654761Y-129292914D02*
X129702380Y-129483390D01*
X129702380Y-129483390D02*
X129702380Y-129626247D01*
X129702380Y-129626247D02*
X129654761Y-129816723D01*
X129654761Y-129816723D02*
X129607142Y-129911961D01*
X129607142Y-129911961D02*
X129511904Y-130007200D01*
X129511904Y-130007200D02*
X129369047Y-130054819D01*
X129369047Y-130054819D02*
X129130952Y-130054819D01*
X124607142Y-130954819D02*
X124607142Y-131669104D01*
X124607142Y-131669104D02*
X124559523Y-131811961D01*
X124559523Y-131811961D02*
X124464285Y-131907200D01*
X124464285Y-131907200D02*
X124321428Y-131954819D01*
X124321428Y-131954819D02*
X124226190Y-131954819D01*
X124845238Y-132050057D02*
X125607142Y-132050057D01*
X125797619Y-131907200D02*
X125940476Y-131954819D01*
X125940476Y-131954819D02*
X126178571Y-131954819D01*
X126178571Y-131954819D02*
X126273809Y-131907200D01*
X126273809Y-131907200D02*
X126321428Y-131859580D01*
X126321428Y-131859580D02*
X126369047Y-131764342D01*
X126369047Y-131764342D02*
X126369047Y-131669104D01*
X126369047Y-131669104D02*
X126321428Y-131573866D01*
X126321428Y-131573866D02*
X126273809Y-131526247D01*
X126273809Y-131526247D02*
X126178571Y-131478628D01*
X126178571Y-131478628D02*
X125988095Y-131431009D01*
X125988095Y-131431009D02*
X125892857Y-131383390D01*
X125892857Y-131383390D02*
X125845238Y-131335771D01*
X125845238Y-131335771D02*
X125797619Y-131240533D01*
X125797619Y-131240533D02*
X125797619Y-131145295D01*
X125797619Y-131145295D02*
X125845238Y-131050057D01*
X125845238Y-131050057D02*
X125892857Y-131002438D01*
X125892857Y-131002438D02*
X125988095Y-130954819D01*
X125988095Y-130954819D02*
X126226190Y-130954819D01*
X126226190Y-130954819D02*
X126369047Y-131002438D01*
X126988095Y-130954819D02*
X127178571Y-130954819D01*
X127178571Y-130954819D02*
X127273809Y-131002438D01*
X127273809Y-131002438D02*
X127369047Y-131097676D01*
X127369047Y-131097676D02*
X127416666Y-131288152D01*
X127416666Y-131288152D02*
X127416666Y-131621485D01*
X127416666Y-131621485D02*
X127369047Y-131811961D01*
X127369047Y-131811961D02*
X127273809Y-131907200D01*
X127273809Y-131907200D02*
X127178571Y-131954819D01*
X127178571Y-131954819D02*
X126988095Y-131954819D01*
X126988095Y-131954819D02*
X126892857Y-131907200D01*
X126892857Y-131907200D02*
X126797619Y-131811961D01*
X126797619Y-131811961D02*
X126750000Y-131621485D01*
X126750000Y-131621485D02*
X126750000Y-131288152D01*
X126750000Y-131288152D02*
X126797619Y-131097676D01*
X126797619Y-131097676D02*
X126892857Y-131002438D01*
X126892857Y-131002438D02*
X126988095Y-130954819D01*
X128321428Y-131954819D02*
X127845238Y-131954819D01*
X127845238Y-131954819D02*
X127845238Y-130954819D01*
X129174286Y-103731009D02*
X129507619Y-103731009D01*
X129650476Y-104254819D02*
X129174286Y-104254819D01*
X129174286Y-104254819D02*
X129174286Y-103254819D01*
X129174286Y-103254819D02*
X129650476Y-103254819D01*
X130031429Y-104207200D02*
X130174286Y-104254819D01*
X130174286Y-104254819D02*
X130412381Y-104254819D01*
X130412381Y-104254819D02*
X130507619Y-104207200D01*
X130507619Y-104207200D02*
X130555238Y-104159580D01*
X130555238Y-104159580D02*
X130602857Y-104064342D01*
X130602857Y-104064342D02*
X130602857Y-103969104D01*
X130602857Y-103969104D02*
X130555238Y-103873866D01*
X130555238Y-103873866D02*
X130507619Y-103826247D01*
X130507619Y-103826247D02*
X130412381Y-103778628D01*
X130412381Y-103778628D02*
X130221905Y-103731009D01*
X130221905Y-103731009D02*
X130126667Y-103683390D01*
X130126667Y-103683390D02*
X130079048Y-103635771D01*
X130079048Y-103635771D02*
X130031429Y-103540533D01*
X130031429Y-103540533D02*
X130031429Y-103445295D01*
X130031429Y-103445295D02*
X130079048Y-103350057D01*
X130079048Y-103350057D02*
X130126667Y-103302438D01*
X130126667Y-103302438D02*
X130221905Y-103254819D01*
X130221905Y-103254819D02*
X130460000Y-103254819D01*
X130460000Y-103254819D02*
X130602857Y-103302438D01*
X131602857Y-104159580D02*
X131555238Y-104207200D01*
X131555238Y-104207200D02*
X131412381Y-104254819D01*
X131412381Y-104254819D02*
X131317143Y-104254819D01*
X131317143Y-104254819D02*
X131174286Y-104207200D01*
X131174286Y-104207200D02*
X131079048Y-104111961D01*
X131079048Y-104111961D02*
X131031429Y-104016723D01*
X131031429Y-104016723D02*
X130983810Y-103826247D01*
X130983810Y-103826247D02*
X130983810Y-103683390D01*
X130983810Y-103683390D02*
X131031429Y-103492914D01*
X131031429Y-103492914D02*
X131079048Y-103397676D01*
X131079048Y-103397676D02*
X131174286Y-103302438D01*
X131174286Y-103302438D02*
X131317143Y-103254819D01*
X131317143Y-103254819D02*
X131412381Y-103254819D01*
X131412381Y-103254819D02*
X131555238Y-103302438D01*
X131555238Y-103302438D02*
X131602857Y-103350057D01*
X131793334Y-104350057D02*
X132555238Y-104350057D01*
X132745715Y-104207200D02*
X132888572Y-104254819D01*
X132888572Y-104254819D02*
X133126667Y-104254819D01*
X133126667Y-104254819D02*
X133221905Y-104207200D01*
X133221905Y-104207200D02*
X133269524Y-104159580D01*
X133269524Y-104159580D02*
X133317143Y-104064342D01*
X133317143Y-104064342D02*
X133317143Y-103969104D01*
X133317143Y-103969104D02*
X133269524Y-103873866D01*
X133269524Y-103873866D02*
X133221905Y-103826247D01*
X133221905Y-103826247D02*
X133126667Y-103778628D01*
X133126667Y-103778628D02*
X132936191Y-103731009D01*
X132936191Y-103731009D02*
X132840953Y-103683390D01*
X132840953Y-103683390D02*
X132793334Y-103635771D01*
X132793334Y-103635771D02*
X132745715Y-103540533D01*
X132745715Y-103540533D02*
X132745715Y-103445295D01*
X132745715Y-103445295D02*
X132793334Y-103350057D01*
X132793334Y-103350057D02*
X132840953Y-103302438D01*
X132840953Y-103302438D02*
X132936191Y-103254819D01*
X132936191Y-103254819D02*
X133174286Y-103254819D01*
X133174286Y-103254819D02*
X133317143Y-103302438D01*
X133745715Y-104254819D02*
X133745715Y-103254819D01*
X134745714Y-103302438D02*
X134650476Y-103254819D01*
X134650476Y-103254819D02*
X134507619Y-103254819D01*
X134507619Y-103254819D02*
X134364762Y-103302438D01*
X134364762Y-103302438D02*
X134269524Y-103397676D01*
X134269524Y-103397676D02*
X134221905Y-103492914D01*
X134221905Y-103492914D02*
X134174286Y-103683390D01*
X134174286Y-103683390D02*
X134174286Y-103826247D01*
X134174286Y-103826247D02*
X134221905Y-104016723D01*
X134221905Y-104016723D02*
X134269524Y-104111961D01*
X134269524Y-104111961D02*
X134364762Y-104207200D01*
X134364762Y-104207200D02*
X134507619Y-104254819D01*
X134507619Y-104254819D02*
X134602857Y-104254819D01*
X134602857Y-104254819D02*
X134745714Y-104207200D01*
X134745714Y-104207200D02*
X134793333Y-104159580D01*
X134793333Y-104159580D02*
X134793333Y-103826247D01*
X134793333Y-103826247D02*
X134602857Y-103826247D01*
X126494819Y-105466666D02*
X127209104Y-105466666D01*
X127209104Y-105466666D02*
X127351961Y-105514285D01*
X127351961Y-105514285D02*
X127447200Y-105609523D01*
X127447200Y-105609523D02*
X127494819Y-105752380D01*
X127494819Y-105752380D02*
X127494819Y-105847618D01*
X127590057Y-105228571D02*
X127590057Y-104466666D01*
X126971009Y-104228570D02*
X126971009Y-103895237D01*
X127494819Y-103752380D02*
X127494819Y-104228570D01*
X127494819Y-104228570D02*
X126494819Y-104228570D01*
X126494819Y-104228570D02*
X126494819Y-103752380D01*
X127447200Y-103371427D02*
X127494819Y-103228570D01*
X127494819Y-103228570D02*
X127494819Y-102990475D01*
X127494819Y-102990475D02*
X127447200Y-102895237D01*
X127447200Y-102895237D02*
X127399580Y-102847618D01*
X127399580Y-102847618D02*
X127304342Y-102799999D01*
X127304342Y-102799999D02*
X127209104Y-102799999D01*
X127209104Y-102799999D02*
X127113866Y-102847618D01*
X127113866Y-102847618D02*
X127066247Y-102895237D01*
X127066247Y-102895237D02*
X127018628Y-102990475D01*
X127018628Y-102990475D02*
X126971009Y-103180951D01*
X126971009Y-103180951D02*
X126923390Y-103276189D01*
X126923390Y-103276189D02*
X126875771Y-103323808D01*
X126875771Y-103323808D02*
X126780533Y-103371427D01*
X126780533Y-103371427D02*
X126685295Y-103371427D01*
X126685295Y-103371427D02*
X126590057Y-103323808D01*
X126590057Y-103323808D02*
X126542438Y-103276189D01*
X126542438Y-103276189D02*
X126494819Y-103180951D01*
X126494819Y-103180951D02*
X126494819Y-102942856D01*
X126494819Y-102942856D02*
X126542438Y-102799999D01*
X127399580Y-101799999D02*
X127447200Y-101847618D01*
X127447200Y-101847618D02*
X127494819Y-101990475D01*
X127494819Y-101990475D02*
X127494819Y-102085713D01*
X127494819Y-102085713D02*
X127447200Y-102228570D01*
X127447200Y-102228570D02*
X127351961Y-102323808D01*
X127351961Y-102323808D02*
X127256723Y-102371427D01*
X127256723Y-102371427D02*
X127066247Y-102419046D01*
X127066247Y-102419046D02*
X126923390Y-102419046D01*
X126923390Y-102419046D02*
X126732914Y-102371427D01*
X126732914Y-102371427D02*
X126637676Y-102323808D01*
X126637676Y-102323808D02*
X126542438Y-102228570D01*
X126542438Y-102228570D02*
X126494819Y-102085713D01*
X126494819Y-102085713D02*
X126494819Y-101990475D01*
X126494819Y-101990475D02*
X126542438Y-101847618D01*
X126542438Y-101847618D02*
X126590057Y-101799999D01*
X116309524Y-108704819D02*
X116880952Y-108704819D01*
X116595238Y-109704819D02*
X116595238Y-108704819D01*
X117214286Y-109704819D02*
X117214286Y-108704819D01*
X117214286Y-108704819D02*
X117595238Y-108704819D01*
X117595238Y-108704819D02*
X117690476Y-108752438D01*
X117690476Y-108752438D02*
X117738095Y-108800057D01*
X117738095Y-108800057D02*
X117785714Y-108895295D01*
X117785714Y-108895295D02*
X117785714Y-109038152D01*
X117785714Y-109038152D02*
X117738095Y-109133390D01*
X117738095Y-109133390D02*
X117690476Y-109181009D01*
X117690476Y-109181009D02*
X117595238Y-109228628D01*
X117595238Y-109228628D02*
X117214286Y-109228628D01*
X117976191Y-109800057D02*
X118738095Y-109800057D01*
X119500000Y-108752438D02*
X119404762Y-108704819D01*
X119404762Y-108704819D02*
X119261905Y-108704819D01*
X119261905Y-108704819D02*
X119119048Y-108752438D01*
X119119048Y-108752438D02*
X119023810Y-108847676D01*
X119023810Y-108847676D02*
X118976191Y-108942914D01*
X118976191Y-108942914D02*
X118928572Y-109133390D01*
X118928572Y-109133390D02*
X118928572Y-109276247D01*
X118928572Y-109276247D02*
X118976191Y-109466723D01*
X118976191Y-109466723D02*
X119023810Y-109561961D01*
X119023810Y-109561961D02*
X119119048Y-109657200D01*
X119119048Y-109657200D02*
X119261905Y-109704819D01*
X119261905Y-109704819D02*
X119357143Y-109704819D01*
X119357143Y-109704819D02*
X119500000Y-109657200D01*
X119500000Y-109657200D02*
X119547619Y-109609580D01*
X119547619Y-109609580D02*
X119547619Y-109276247D01*
X119547619Y-109276247D02*
X119357143Y-109276247D01*
X119976191Y-109704819D02*
X119976191Y-108704819D01*
X119976191Y-108704819D02*
X120547619Y-109704819D01*
X120547619Y-109704819D02*
X120547619Y-108704819D01*
X121023810Y-109704819D02*
X121023810Y-108704819D01*
X121023810Y-108704819D02*
X121261905Y-108704819D01*
X121261905Y-108704819D02*
X121404762Y-108752438D01*
X121404762Y-108752438D02*
X121500000Y-108847676D01*
X121500000Y-108847676D02*
X121547619Y-108942914D01*
X121547619Y-108942914D02*
X121595238Y-109133390D01*
X121595238Y-109133390D02*
X121595238Y-109276247D01*
X121595238Y-109276247D02*
X121547619Y-109466723D01*
X121547619Y-109466723D02*
X121500000Y-109561961D01*
X121500000Y-109561961D02*
X121404762Y-109657200D01*
X121404762Y-109657200D02*
X121261905Y-109704819D01*
X121261905Y-109704819D02*
X121023810Y-109704819D01*
X116309524Y-105304819D02*
X116880952Y-105304819D01*
X116595238Y-106304819D02*
X116595238Y-105304819D01*
X117214286Y-106304819D02*
X117214286Y-105304819D01*
X117214286Y-105304819D02*
X117595238Y-105304819D01*
X117595238Y-105304819D02*
X117690476Y-105352438D01*
X117690476Y-105352438D02*
X117738095Y-105400057D01*
X117738095Y-105400057D02*
X117785714Y-105495295D01*
X117785714Y-105495295D02*
X117785714Y-105638152D01*
X117785714Y-105638152D02*
X117738095Y-105733390D01*
X117738095Y-105733390D02*
X117690476Y-105781009D01*
X117690476Y-105781009D02*
X117595238Y-105828628D01*
X117595238Y-105828628D02*
X117214286Y-105828628D01*
X117976191Y-106400057D02*
X118738095Y-106400057D01*
X119500000Y-105352438D02*
X119404762Y-105304819D01*
X119404762Y-105304819D02*
X119261905Y-105304819D01*
X119261905Y-105304819D02*
X119119048Y-105352438D01*
X119119048Y-105352438D02*
X119023810Y-105447676D01*
X119023810Y-105447676D02*
X118976191Y-105542914D01*
X118976191Y-105542914D02*
X118928572Y-105733390D01*
X118928572Y-105733390D02*
X118928572Y-105876247D01*
X118928572Y-105876247D02*
X118976191Y-106066723D01*
X118976191Y-106066723D02*
X119023810Y-106161961D01*
X119023810Y-106161961D02*
X119119048Y-106257200D01*
X119119048Y-106257200D02*
X119261905Y-106304819D01*
X119261905Y-106304819D02*
X119357143Y-106304819D01*
X119357143Y-106304819D02*
X119500000Y-106257200D01*
X119500000Y-106257200D02*
X119547619Y-106209580D01*
X119547619Y-106209580D02*
X119547619Y-105876247D01*
X119547619Y-105876247D02*
X119357143Y-105876247D01*
X119976191Y-106304819D02*
X119976191Y-105304819D01*
X119976191Y-105304819D02*
X120547619Y-106304819D01*
X120547619Y-106304819D02*
X120547619Y-105304819D01*
X121023810Y-106304819D02*
X121023810Y-105304819D01*
X121023810Y-105304819D02*
X121261905Y-105304819D01*
X121261905Y-105304819D02*
X121404762Y-105352438D01*
X121404762Y-105352438D02*
X121500000Y-105447676D01*
X121500000Y-105447676D02*
X121547619Y-105542914D01*
X121547619Y-105542914D02*
X121595238Y-105733390D01*
X121595238Y-105733390D02*
X121595238Y-105876247D01*
X121595238Y-105876247D02*
X121547619Y-106066723D01*
X121547619Y-106066723D02*
X121500000Y-106161961D01*
X121500000Y-106161961D02*
X121404762Y-106257200D01*
X121404762Y-106257200D02*
X121261905Y-106304819D01*
X121261905Y-106304819D02*
X121023810Y-106304819D01*
X133380952Y-116104819D02*
X132809524Y-116104819D01*
X133095238Y-116104819D02*
X133095238Y-115104819D01*
X133095238Y-115104819D02*
X133000000Y-115247676D01*
X133000000Y-115247676D02*
X132904762Y-115342914D01*
X132904762Y-115342914D02*
X132809524Y-115390533D01*
X133809524Y-116104819D02*
X133809524Y-115104819D01*
X133904762Y-115723866D02*
X134190476Y-116104819D01*
X134190476Y-115438152D02*
X133809524Y-115819104D01*
D11*
X132785714Y-114227149D02*
X132619048Y-113989054D01*
X132500000Y-114227149D02*
X132500000Y-113727149D01*
X132500000Y-113727149D02*
X132690476Y-113727149D01*
X132690476Y-113727149D02*
X132738095Y-113750959D01*
X132738095Y-113750959D02*
X132761905Y-113774768D01*
X132761905Y-113774768D02*
X132785714Y-113822387D01*
X132785714Y-113822387D02*
X132785714Y-113893816D01*
X132785714Y-113893816D02*
X132761905Y-113941435D01*
X132761905Y-113941435D02*
X132738095Y-113965244D01*
X132738095Y-113965244D02*
X132690476Y-113989054D01*
X132690476Y-113989054D02*
X132500000Y-113989054D01*
X132880953Y-114274768D02*
X133261905Y-114274768D01*
X133619047Y-114227149D02*
X133380952Y-114227149D01*
X133380952Y-114227149D02*
X133380952Y-113727149D01*
X133785714Y-113965244D02*
X133952381Y-113965244D01*
X134023809Y-114227149D02*
X133785714Y-114227149D01*
X133785714Y-114227149D02*
X133785714Y-113727149D01*
X133785714Y-113727149D02*
X134023809Y-113727149D01*
X134238095Y-114227149D02*
X134238095Y-113727149D01*
X134238095Y-113727149D02*
X134357143Y-113727149D01*
X134357143Y-113727149D02*
X134428571Y-113750959D01*
X134428571Y-113750959D02*
X134476190Y-113798578D01*
X134476190Y-113798578D02*
X134500000Y-113846197D01*
X134500000Y-113846197D02*
X134523809Y-113941435D01*
X134523809Y-113941435D02*
X134523809Y-114012863D01*
X134523809Y-114012863D02*
X134500000Y-114108101D01*
X134500000Y-114108101D02*
X134476190Y-114155720D01*
X134476190Y-114155720D02*
X134428571Y-114203340D01*
X134428571Y-114203340D02*
X134357143Y-114227149D01*
X134357143Y-114227149D02*
X134238095Y-114227149D01*
D10*
X109797618Y-108331009D02*
X109940475Y-108378628D01*
X109940475Y-108378628D02*
X109988094Y-108426247D01*
X109988094Y-108426247D02*
X110035713Y-108521485D01*
X110035713Y-108521485D02*
X110035713Y-108664342D01*
X110035713Y-108664342D02*
X109988094Y-108759580D01*
X109988094Y-108759580D02*
X109940475Y-108807200D01*
X109940475Y-108807200D02*
X109845237Y-108854819D01*
X109845237Y-108854819D02*
X109464285Y-108854819D01*
X109464285Y-108854819D02*
X109464285Y-107854819D01*
X109464285Y-107854819D02*
X109797618Y-107854819D01*
X109797618Y-107854819D02*
X109892856Y-107902438D01*
X109892856Y-107902438D02*
X109940475Y-107950057D01*
X109940475Y-107950057D02*
X109988094Y-108045295D01*
X109988094Y-108045295D02*
X109988094Y-108140533D01*
X109988094Y-108140533D02*
X109940475Y-108235771D01*
X109940475Y-108235771D02*
X109892856Y-108283390D01*
X109892856Y-108283390D02*
X109797618Y-108331009D01*
X109797618Y-108331009D02*
X109464285Y-108331009D01*
X110416666Y-108569104D02*
X110892856Y-108569104D01*
X110321428Y-108854819D02*
X110654761Y-107854819D01*
X110654761Y-107854819D02*
X110988094Y-108854819D01*
X111178571Y-107854819D02*
X111749999Y-107854819D01*
X111464285Y-108854819D02*
X111464285Y-107854819D01*
X111940476Y-107854819D02*
X112511904Y-107854819D01*
X112226190Y-108854819D02*
X112226190Y-107854819D01*
X112607143Y-108950057D02*
X113369047Y-108950057D01*
X113559524Y-107950057D02*
X113607143Y-107902438D01*
X113607143Y-107902438D02*
X113702381Y-107854819D01*
X113702381Y-107854819D02*
X113940476Y-107854819D01*
X113940476Y-107854819D02*
X114035714Y-107902438D01*
X114035714Y-107902438D02*
X114083333Y-107950057D01*
X114083333Y-107950057D02*
X114130952Y-108045295D01*
X114130952Y-108045295D02*
X114130952Y-108140533D01*
X114130952Y-108140533D02*
X114083333Y-108283390D01*
X114083333Y-108283390D02*
X113511905Y-108854819D01*
X113511905Y-108854819D02*
X114130952Y-108854819D01*
X114511905Y-108807200D02*
X114654762Y-108854819D01*
X114654762Y-108854819D02*
X114892857Y-108854819D01*
X114892857Y-108854819D02*
X114988095Y-108807200D01*
X114988095Y-108807200D02*
X115035714Y-108759580D01*
X115035714Y-108759580D02*
X115083333Y-108664342D01*
X115083333Y-108664342D02*
X115083333Y-108569104D01*
X115083333Y-108569104D02*
X115035714Y-108473866D01*
X115035714Y-108473866D02*
X114988095Y-108426247D01*
X114988095Y-108426247D02*
X114892857Y-108378628D01*
X114892857Y-108378628D02*
X114702381Y-108331009D01*
X114702381Y-108331009D02*
X114607143Y-108283390D01*
X114607143Y-108283390D02*
X114559524Y-108235771D01*
X114559524Y-108235771D02*
X114511905Y-108140533D01*
X114511905Y-108140533D02*
X114511905Y-108045295D01*
X114511905Y-108045295D02*
X114559524Y-107950057D01*
X114559524Y-107950057D02*
X114607143Y-107902438D01*
X114607143Y-107902438D02*
X114702381Y-107854819D01*
X114702381Y-107854819D02*
X114940476Y-107854819D01*
X114940476Y-107854819D02*
X115083333Y-107902438D01*
X110321428Y-105954819D02*
X110321428Y-106669104D01*
X110321428Y-106669104D02*
X110273809Y-106811961D01*
X110273809Y-106811961D02*
X110178571Y-106907200D01*
X110178571Y-106907200D02*
X110035714Y-106954819D01*
X110035714Y-106954819D02*
X109940476Y-106954819D01*
X110559524Y-107050057D02*
X111321428Y-107050057D01*
X111892857Y-106431009D02*
X112035714Y-106478628D01*
X112035714Y-106478628D02*
X112083333Y-106526247D01*
X112083333Y-106526247D02*
X112130952Y-106621485D01*
X112130952Y-106621485D02*
X112130952Y-106764342D01*
X112130952Y-106764342D02*
X112083333Y-106859580D01*
X112083333Y-106859580D02*
X112035714Y-106907200D01*
X112035714Y-106907200D02*
X111940476Y-106954819D01*
X111940476Y-106954819D02*
X111559524Y-106954819D01*
X111559524Y-106954819D02*
X111559524Y-105954819D01*
X111559524Y-105954819D02*
X111892857Y-105954819D01*
X111892857Y-105954819D02*
X111988095Y-106002438D01*
X111988095Y-106002438D02*
X112035714Y-106050057D01*
X112035714Y-106050057D02*
X112083333Y-106145295D01*
X112083333Y-106145295D02*
X112083333Y-106240533D01*
X112083333Y-106240533D02*
X112035714Y-106335771D01*
X112035714Y-106335771D02*
X111988095Y-106383390D01*
X111988095Y-106383390D02*
X111892857Y-106431009D01*
X111892857Y-106431009D02*
X111559524Y-106431009D01*
X112511905Y-106669104D02*
X112988095Y-106669104D01*
X112416667Y-106954819D02*
X112750000Y-105954819D01*
X112750000Y-105954819D02*
X113083333Y-106954819D01*
X113273810Y-105954819D02*
X113845238Y-105954819D01*
X113559524Y-106954819D02*
X113559524Y-105954819D01*
X114035715Y-105954819D02*
X114607143Y-105954819D01*
X114321429Y-106954819D02*
X114321429Y-105954819D01*
X92595238Y-138104819D02*
X92595238Y-137104819D01*
X92595238Y-137104819D02*
X92928571Y-137819104D01*
X92928571Y-137819104D02*
X93261904Y-137104819D01*
X93261904Y-137104819D02*
X93261904Y-138104819D01*
X93880952Y-138104819D02*
X93785714Y-138057200D01*
X93785714Y-138057200D02*
X93738095Y-138009580D01*
X93738095Y-138009580D02*
X93690476Y-137914342D01*
X93690476Y-137914342D02*
X93690476Y-137628628D01*
X93690476Y-137628628D02*
X93738095Y-137533390D01*
X93738095Y-137533390D02*
X93785714Y-137485771D01*
X93785714Y-137485771D02*
X93880952Y-137438152D01*
X93880952Y-137438152D02*
X94023809Y-137438152D01*
X94023809Y-137438152D02*
X94119047Y-137485771D01*
X94119047Y-137485771D02*
X94166666Y-137533390D01*
X94166666Y-137533390D02*
X94214285Y-137628628D01*
X94214285Y-137628628D02*
X94214285Y-137914342D01*
X94214285Y-137914342D02*
X94166666Y-138009580D01*
X94166666Y-138009580D02*
X94119047Y-138057200D01*
X94119047Y-138057200D02*
X94023809Y-138104819D01*
X94023809Y-138104819D02*
X93880952Y-138104819D01*
X95071428Y-137438152D02*
X95071428Y-138104819D01*
X94642857Y-137438152D02*
X94642857Y-137961961D01*
X94642857Y-137961961D02*
X94690476Y-138057200D01*
X94690476Y-138057200D02*
X94785714Y-138104819D01*
X94785714Y-138104819D02*
X94928571Y-138104819D01*
X94928571Y-138104819D02*
X95023809Y-138057200D01*
X95023809Y-138057200D02*
X95071428Y-138009580D01*
X95547619Y-137438152D02*
X95547619Y-138104819D01*
X95547619Y-137533390D02*
X95595238Y-137485771D01*
X95595238Y-137485771D02*
X95690476Y-137438152D01*
X95690476Y-137438152D02*
X95833333Y-137438152D01*
X95833333Y-137438152D02*
X95928571Y-137485771D01*
X95928571Y-137485771D02*
X95976190Y-137581009D01*
X95976190Y-137581009D02*
X95976190Y-138104819D01*
X96309524Y-137438152D02*
X96690476Y-137438152D01*
X96452381Y-137104819D02*
X96452381Y-137961961D01*
X96452381Y-137961961D02*
X96500000Y-138057200D01*
X96500000Y-138057200D02*
X96595238Y-138104819D01*
X96595238Y-138104819D02*
X96690476Y-138104819D01*
X97023810Y-138104819D02*
X97023810Y-137438152D01*
X97023810Y-137104819D02*
X96976191Y-137152438D01*
X96976191Y-137152438D02*
X97023810Y-137200057D01*
X97023810Y-137200057D02*
X97071429Y-137152438D01*
X97071429Y-137152438D02*
X97023810Y-137104819D01*
X97023810Y-137104819D02*
X97023810Y-137200057D01*
X97500000Y-137438152D02*
X97500000Y-138104819D01*
X97500000Y-137533390D02*
X97547619Y-137485771D01*
X97547619Y-137485771D02*
X97642857Y-137438152D01*
X97642857Y-137438152D02*
X97785714Y-137438152D01*
X97785714Y-137438152D02*
X97880952Y-137485771D01*
X97880952Y-137485771D02*
X97928571Y-137581009D01*
X97928571Y-137581009D02*
X97928571Y-138104819D01*
X98833333Y-137438152D02*
X98833333Y-138247676D01*
X98833333Y-138247676D02*
X98785714Y-138342914D01*
X98785714Y-138342914D02*
X98738095Y-138390533D01*
X98738095Y-138390533D02*
X98642857Y-138438152D01*
X98642857Y-138438152D02*
X98500000Y-138438152D01*
X98500000Y-138438152D02*
X98404762Y-138390533D01*
X98833333Y-138057200D02*
X98738095Y-138104819D01*
X98738095Y-138104819D02*
X98547619Y-138104819D01*
X98547619Y-138104819D02*
X98452381Y-138057200D01*
X98452381Y-138057200D02*
X98404762Y-138009580D01*
X98404762Y-138009580D02*
X98357143Y-137914342D01*
X98357143Y-137914342D02*
X98357143Y-137628628D01*
X98357143Y-137628628D02*
X98404762Y-137533390D01*
X98404762Y-137533390D02*
X98452381Y-137485771D01*
X98452381Y-137485771D02*
X98547619Y-137438152D01*
X98547619Y-137438152D02*
X98738095Y-137438152D01*
X98738095Y-137438152D02*
X98833333Y-137485771D01*
X99309524Y-138104819D02*
X99309524Y-137104819D01*
X99309524Y-137581009D02*
X99880952Y-137581009D01*
X99880952Y-138104819D02*
X99880952Y-137104819D01*
X100500000Y-138104819D02*
X100404762Y-138057200D01*
X100404762Y-138057200D02*
X100357143Y-138009580D01*
X100357143Y-138009580D02*
X100309524Y-137914342D01*
X100309524Y-137914342D02*
X100309524Y-137628628D01*
X100309524Y-137628628D02*
X100357143Y-137533390D01*
X100357143Y-137533390D02*
X100404762Y-137485771D01*
X100404762Y-137485771D02*
X100500000Y-137438152D01*
X100500000Y-137438152D02*
X100642857Y-137438152D01*
X100642857Y-137438152D02*
X100738095Y-137485771D01*
X100738095Y-137485771D02*
X100785714Y-137533390D01*
X100785714Y-137533390D02*
X100833333Y-137628628D01*
X100833333Y-137628628D02*
X100833333Y-137914342D01*
X100833333Y-137914342D02*
X100785714Y-138009580D01*
X100785714Y-138009580D02*
X100738095Y-138057200D01*
X100738095Y-138057200D02*
X100642857Y-138104819D01*
X100642857Y-138104819D02*
X100500000Y-138104819D01*
X101404762Y-138104819D02*
X101309524Y-138057200D01*
X101309524Y-138057200D02*
X101261905Y-137961961D01*
X101261905Y-137961961D02*
X101261905Y-137104819D01*
X102166667Y-138057200D02*
X102071429Y-138104819D01*
X102071429Y-138104819D02*
X101880953Y-138104819D01*
X101880953Y-138104819D02*
X101785715Y-138057200D01*
X101785715Y-138057200D02*
X101738096Y-137961961D01*
X101738096Y-137961961D02*
X101738096Y-137581009D01*
X101738096Y-137581009D02*
X101785715Y-137485771D01*
X101785715Y-137485771D02*
X101880953Y-137438152D01*
X101880953Y-137438152D02*
X102071429Y-137438152D01*
X102071429Y-137438152D02*
X102166667Y-137485771D01*
X102166667Y-137485771D02*
X102214286Y-137581009D01*
X102214286Y-137581009D02*
X102214286Y-137676247D01*
X102214286Y-137676247D02*
X101738096Y-137771485D01*
X102404763Y-138200057D02*
X103166667Y-138200057D01*
X103357144Y-137200057D02*
X103404763Y-137152438D01*
X103404763Y-137152438D02*
X103500001Y-137104819D01*
X103500001Y-137104819D02*
X103738096Y-137104819D01*
X103738096Y-137104819D02*
X103833334Y-137152438D01*
X103833334Y-137152438D02*
X103880953Y-137200057D01*
X103880953Y-137200057D02*
X103928572Y-137295295D01*
X103928572Y-137295295D02*
X103928572Y-137390533D01*
X103928572Y-137390533D02*
X103880953Y-137533390D01*
X103880953Y-137533390D02*
X103309525Y-138104819D01*
X103309525Y-138104819D02*
X103928572Y-138104819D01*
X104357144Y-138009580D02*
X104404763Y-138057200D01*
X104404763Y-138057200D02*
X104357144Y-138104819D01*
X104357144Y-138104819D02*
X104309525Y-138057200D01*
X104309525Y-138057200D02*
X104357144Y-138009580D01*
X104357144Y-138009580D02*
X104357144Y-138104819D01*
X104785715Y-137200057D02*
X104833334Y-137152438D01*
X104833334Y-137152438D02*
X104928572Y-137104819D01*
X104928572Y-137104819D02*
X105166667Y-137104819D01*
X105166667Y-137104819D02*
X105261905Y-137152438D01*
X105261905Y-137152438D02*
X105309524Y-137200057D01*
X105309524Y-137200057D02*
X105357143Y-137295295D01*
X105357143Y-137295295D02*
X105357143Y-137390533D01*
X105357143Y-137390533D02*
X105309524Y-137533390D01*
X105309524Y-137533390D02*
X104738096Y-138104819D01*
X104738096Y-138104819D02*
X105357143Y-138104819D01*
X105785715Y-138104819D02*
X105785715Y-137438152D01*
X105785715Y-137533390D02*
X105833334Y-137485771D01*
X105833334Y-137485771D02*
X105928572Y-137438152D01*
X105928572Y-137438152D02*
X106071429Y-137438152D01*
X106071429Y-137438152D02*
X106166667Y-137485771D01*
X106166667Y-137485771D02*
X106214286Y-137581009D01*
X106214286Y-137581009D02*
X106214286Y-138104819D01*
X106214286Y-137581009D02*
X106261905Y-137485771D01*
X106261905Y-137485771D02*
X106357143Y-137438152D01*
X106357143Y-137438152D02*
X106500000Y-137438152D01*
X106500000Y-137438152D02*
X106595239Y-137485771D01*
X106595239Y-137485771D02*
X106642858Y-137581009D01*
X106642858Y-137581009D02*
X106642858Y-138104819D01*
X107119048Y-138104819D02*
X107119048Y-137438152D01*
X107119048Y-137533390D02*
X107166667Y-137485771D01*
X107166667Y-137485771D02*
X107261905Y-137438152D01*
X107261905Y-137438152D02*
X107404762Y-137438152D01*
X107404762Y-137438152D02*
X107500000Y-137485771D01*
X107500000Y-137485771D02*
X107547619Y-137581009D01*
X107547619Y-137581009D02*
X107547619Y-138104819D01*
X107547619Y-137581009D02*
X107595238Y-137485771D01*
X107595238Y-137485771D02*
X107690476Y-137438152D01*
X107690476Y-137438152D02*
X107833333Y-137438152D01*
X107833333Y-137438152D02*
X107928572Y-137485771D01*
X107928572Y-137485771D02*
X107976191Y-137581009D01*
X107976191Y-137581009D02*
X107976191Y-138104819D01*
X108214286Y-138200057D02*
X108976190Y-138200057D01*
X109214286Y-138104819D02*
X109214286Y-137104819D01*
X109214286Y-137104819D02*
X109547619Y-137819104D01*
X109547619Y-137819104D02*
X109880952Y-137104819D01*
X109880952Y-137104819D02*
X109880952Y-138104819D01*
X110309524Y-137200057D02*
X110357143Y-137152438D01*
X110357143Y-137152438D02*
X110452381Y-137104819D01*
X110452381Y-137104819D02*
X110690476Y-137104819D01*
X110690476Y-137104819D02*
X110785714Y-137152438D01*
X110785714Y-137152438D02*
X110833333Y-137200057D01*
X110833333Y-137200057D02*
X110880952Y-137295295D01*
X110880952Y-137295295D02*
X110880952Y-137390533D01*
X110880952Y-137390533D02*
X110833333Y-137533390D01*
X110833333Y-137533390D02*
X110261905Y-138104819D01*
X110261905Y-138104819D02*
X110880952Y-138104819D01*
X111071429Y-138200057D02*
X111833333Y-138200057D01*
X112071429Y-138104819D02*
X112071429Y-137104819D01*
X112071429Y-137104819D02*
X112452381Y-137104819D01*
X112452381Y-137104819D02*
X112547619Y-137152438D01*
X112547619Y-137152438D02*
X112595238Y-137200057D01*
X112595238Y-137200057D02*
X112642857Y-137295295D01*
X112642857Y-137295295D02*
X112642857Y-137438152D01*
X112642857Y-137438152D02*
X112595238Y-137533390D01*
X112595238Y-137533390D02*
X112547619Y-137581009D01*
X112547619Y-137581009D02*
X112452381Y-137628628D01*
X112452381Y-137628628D02*
X112071429Y-137628628D01*
X113500000Y-138104819D02*
X113500000Y-137581009D01*
X113500000Y-137581009D02*
X113452381Y-137485771D01*
X113452381Y-137485771D02*
X113357143Y-137438152D01*
X113357143Y-137438152D02*
X113166667Y-137438152D01*
X113166667Y-137438152D02*
X113071429Y-137485771D01*
X113500000Y-138057200D02*
X113404762Y-138104819D01*
X113404762Y-138104819D02*
X113166667Y-138104819D01*
X113166667Y-138104819D02*
X113071429Y-138057200D01*
X113071429Y-138057200D02*
X113023810Y-137961961D01*
X113023810Y-137961961D02*
X113023810Y-137866723D01*
X113023810Y-137866723D02*
X113071429Y-137771485D01*
X113071429Y-137771485D02*
X113166667Y-137723866D01*
X113166667Y-137723866D02*
X113404762Y-137723866D01*
X113404762Y-137723866D02*
X113500000Y-137676247D01*
X114404762Y-138104819D02*
X114404762Y-137104819D01*
X114404762Y-138057200D02*
X114309524Y-138104819D01*
X114309524Y-138104819D02*
X114119048Y-138104819D01*
X114119048Y-138104819D02*
X114023810Y-138057200D01*
X114023810Y-138057200D02*
X113976191Y-138009580D01*
X113976191Y-138009580D02*
X113928572Y-137914342D01*
X113928572Y-137914342D02*
X113928572Y-137628628D01*
X113928572Y-137628628D02*
X113976191Y-137533390D01*
X113976191Y-137533390D02*
X114023810Y-137485771D01*
X114023810Y-137485771D02*
X114119048Y-137438152D01*
X114119048Y-137438152D02*
X114309524Y-137438152D01*
X114309524Y-137438152D02*
X114404762Y-137485771D01*
X102738095Y-134954819D02*
X102738095Y-133954819D01*
X102738095Y-134431009D02*
X103309523Y-134431009D01*
X103309523Y-134954819D02*
X103309523Y-133954819D01*
X103690476Y-133954819D02*
X104309523Y-133954819D01*
X104309523Y-133954819D02*
X103976190Y-134335771D01*
X103976190Y-134335771D02*
X104119047Y-134335771D01*
X104119047Y-134335771D02*
X104214285Y-134383390D01*
X104214285Y-134383390D02*
X104261904Y-134431009D01*
X104261904Y-134431009D02*
X104309523Y-134526247D01*
X104309523Y-134526247D02*
X104309523Y-134764342D01*
X104309523Y-134764342D02*
X104261904Y-134859580D01*
X104261904Y-134859580D02*
X104214285Y-134907200D01*
X104214285Y-134907200D02*
X104119047Y-134954819D01*
X104119047Y-134954819D02*
X103833333Y-134954819D01*
X103833333Y-134954819D02*
X103738095Y-134907200D01*
X103738095Y-134907200D02*
X103690476Y-134859580D01*
X117428571Y-132204819D02*
X117999999Y-132204819D01*
X117714285Y-133204819D02*
X117714285Y-132204819D01*
X118333333Y-133204819D02*
X118333333Y-132204819D01*
X118333333Y-132204819D02*
X118714285Y-132204819D01*
X118714285Y-132204819D02*
X118809523Y-132252438D01*
X118809523Y-132252438D02*
X118857142Y-132300057D01*
X118857142Y-132300057D02*
X118904761Y-132395295D01*
X118904761Y-132395295D02*
X118904761Y-132538152D01*
X118904761Y-132538152D02*
X118857142Y-132633390D01*
X118857142Y-132633390D02*
X118809523Y-132681009D01*
X118809523Y-132681009D02*
X118714285Y-132728628D01*
X118714285Y-132728628D02*
X118333333Y-132728628D01*
X119095238Y-133300057D02*
X119857142Y-133300057D01*
X120428571Y-132681009D02*
X120095238Y-132681009D01*
X120095238Y-133204819D02*
X120095238Y-132204819D01*
X120095238Y-132204819D02*
X120571428Y-132204819D01*
X120904762Y-133157200D02*
X121047619Y-133204819D01*
X121047619Y-133204819D02*
X121285714Y-133204819D01*
X121285714Y-133204819D02*
X121380952Y-133157200D01*
X121380952Y-133157200D02*
X121428571Y-133109580D01*
X121428571Y-133109580D02*
X121476190Y-133014342D01*
X121476190Y-133014342D02*
X121476190Y-132919104D01*
X121476190Y-132919104D02*
X121428571Y-132823866D01*
X121428571Y-132823866D02*
X121380952Y-132776247D01*
X121380952Y-132776247D02*
X121285714Y-132728628D01*
X121285714Y-132728628D02*
X121095238Y-132681009D01*
X121095238Y-132681009D02*
X121000000Y-132633390D01*
X121000000Y-132633390D02*
X120952381Y-132585771D01*
X120952381Y-132585771D02*
X120904762Y-132490533D01*
X120904762Y-132490533D02*
X120904762Y-132395295D01*
X120904762Y-132395295D02*
X120952381Y-132300057D01*
X120952381Y-132300057D02*
X121000000Y-132252438D01*
X121000000Y-132252438D02*
X121095238Y-132204819D01*
X121095238Y-132204819D02*
X121333333Y-132204819D01*
X121333333Y-132204819D02*
X121476190Y-132252438D01*
X122476190Y-133204819D02*
X122142857Y-132728628D01*
X121904762Y-133204819D02*
X121904762Y-132204819D01*
X121904762Y-132204819D02*
X122285714Y-132204819D01*
X122285714Y-132204819D02*
X122380952Y-132252438D01*
X122380952Y-132252438D02*
X122428571Y-132300057D01*
X122428571Y-132300057D02*
X122476190Y-132395295D01*
X122476190Y-132395295D02*
X122476190Y-132538152D01*
X122476190Y-132538152D02*
X122428571Y-132633390D01*
X122428571Y-132633390D02*
X122380952Y-132681009D01*
X122380952Y-132681009D02*
X122285714Y-132728628D01*
X122285714Y-132728628D02*
X121904762Y-132728628D01*
X117428571Y-128804819D02*
X117999999Y-128804819D01*
X117714285Y-129804819D02*
X117714285Y-128804819D01*
X118333333Y-129804819D02*
X118333333Y-128804819D01*
X118333333Y-128804819D02*
X118714285Y-128804819D01*
X118714285Y-128804819D02*
X118809523Y-128852438D01*
X118809523Y-128852438D02*
X118857142Y-128900057D01*
X118857142Y-128900057D02*
X118904761Y-128995295D01*
X118904761Y-128995295D02*
X118904761Y-129138152D01*
X118904761Y-129138152D02*
X118857142Y-129233390D01*
X118857142Y-129233390D02*
X118809523Y-129281009D01*
X118809523Y-129281009D02*
X118714285Y-129328628D01*
X118714285Y-129328628D02*
X118333333Y-129328628D01*
X119095238Y-129900057D02*
X119857142Y-129900057D01*
X120428571Y-129281009D02*
X120095238Y-129281009D01*
X120095238Y-129804819D02*
X120095238Y-128804819D01*
X120095238Y-128804819D02*
X120571428Y-128804819D01*
X120904762Y-129757200D02*
X121047619Y-129804819D01*
X121047619Y-129804819D02*
X121285714Y-129804819D01*
X121285714Y-129804819D02*
X121380952Y-129757200D01*
X121380952Y-129757200D02*
X121428571Y-129709580D01*
X121428571Y-129709580D02*
X121476190Y-129614342D01*
X121476190Y-129614342D02*
X121476190Y-129519104D01*
X121476190Y-129519104D02*
X121428571Y-129423866D01*
X121428571Y-129423866D02*
X121380952Y-129376247D01*
X121380952Y-129376247D02*
X121285714Y-129328628D01*
X121285714Y-129328628D02*
X121095238Y-129281009D01*
X121095238Y-129281009D02*
X121000000Y-129233390D01*
X121000000Y-129233390D02*
X120952381Y-129185771D01*
X120952381Y-129185771D02*
X120904762Y-129090533D01*
X120904762Y-129090533D02*
X120904762Y-128995295D01*
X120904762Y-128995295D02*
X120952381Y-128900057D01*
X120952381Y-128900057D02*
X121000000Y-128852438D01*
X121000000Y-128852438D02*
X121095238Y-128804819D01*
X121095238Y-128804819D02*
X121333333Y-128804819D01*
X121333333Y-128804819D02*
X121476190Y-128852438D01*
X122476190Y-129804819D02*
X122142857Y-129328628D01*
X121904762Y-129804819D02*
X121904762Y-128804819D01*
X121904762Y-128804819D02*
X122285714Y-128804819D01*
X122285714Y-128804819D02*
X122380952Y-128852438D01*
X122380952Y-128852438D02*
X122428571Y-128900057D01*
X122428571Y-128900057D02*
X122476190Y-128995295D01*
X122476190Y-128995295D02*
X122476190Y-129138152D01*
X122476190Y-129138152D02*
X122428571Y-129233390D01*
X122428571Y-129233390D02*
X122380952Y-129281009D01*
X122380952Y-129281009D02*
X122285714Y-129328628D01*
X122285714Y-129328628D02*
X121904762Y-129328628D01*
X123595238Y-107104819D02*
X123595238Y-106104819D01*
X123595238Y-106104819D02*
X123928571Y-106819104D01*
X123928571Y-106819104D02*
X124261904Y-106104819D01*
X124261904Y-106104819D02*
X124261904Y-107104819D01*
X124880952Y-107104819D02*
X124785714Y-107057200D01*
X124785714Y-107057200D02*
X124738095Y-107009580D01*
X124738095Y-107009580D02*
X124690476Y-106914342D01*
X124690476Y-106914342D02*
X124690476Y-106628628D01*
X124690476Y-106628628D02*
X124738095Y-106533390D01*
X124738095Y-106533390D02*
X124785714Y-106485771D01*
X124785714Y-106485771D02*
X124880952Y-106438152D01*
X124880952Y-106438152D02*
X125023809Y-106438152D01*
X125023809Y-106438152D02*
X125119047Y-106485771D01*
X125119047Y-106485771D02*
X125166666Y-106533390D01*
X125166666Y-106533390D02*
X125214285Y-106628628D01*
X125214285Y-106628628D02*
X125214285Y-106914342D01*
X125214285Y-106914342D02*
X125166666Y-107009580D01*
X125166666Y-107009580D02*
X125119047Y-107057200D01*
X125119047Y-107057200D02*
X125023809Y-107104819D01*
X125023809Y-107104819D02*
X124880952Y-107104819D01*
X126071428Y-106438152D02*
X126071428Y-107104819D01*
X125642857Y-106438152D02*
X125642857Y-106961961D01*
X125642857Y-106961961D02*
X125690476Y-107057200D01*
X125690476Y-107057200D02*
X125785714Y-107104819D01*
X125785714Y-107104819D02*
X125928571Y-107104819D01*
X125928571Y-107104819D02*
X126023809Y-107057200D01*
X126023809Y-107057200D02*
X126071428Y-107009580D01*
X126547619Y-106438152D02*
X126547619Y-107104819D01*
X126547619Y-106533390D02*
X126595238Y-106485771D01*
X126595238Y-106485771D02*
X126690476Y-106438152D01*
X126690476Y-106438152D02*
X126833333Y-106438152D01*
X126833333Y-106438152D02*
X126928571Y-106485771D01*
X126928571Y-106485771D02*
X126976190Y-106581009D01*
X126976190Y-106581009D02*
X126976190Y-107104819D01*
X127309524Y-106438152D02*
X127690476Y-106438152D01*
X127452381Y-106104819D02*
X127452381Y-106961961D01*
X127452381Y-106961961D02*
X127500000Y-107057200D01*
X127500000Y-107057200D02*
X127595238Y-107104819D01*
X127595238Y-107104819D02*
X127690476Y-107104819D01*
X128023810Y-107104819D02*
X128023810Y-106438152D01*
X128023810Y-106104819D02*
X127976191Y-106152438D01*
X127976191Y-106152438D02*
X128023810Y-106200057D01*
X128023810Y-106200057D02*
X128071429Y-106152438D01*
X128071429Y-106152438D02*
X128023810Y-106104819D01*
X128023810Y-106104819D02*
X128023810Y-106200057D01*
X128500000Y-106438152D02*
X128500000Y-107104819D01*
X128500000Y-106533390D02*
X128547619Y-106485771D01*
X128547619Y-106485771D02*
X128642857Y-106438152D01*
X128642857Y-106438152D02*
X128785714Y-106438152D01*
X128785714Y-106438152D02*
X128880952Y-106485771D01*
X128880952Y-106485771D02*
X128928571Y-106581009D01*
X128928571Y-106581009D02*
X128928571Y-107104819D01*
X129833333Y-106438152D02*
X129833333Y-107247676D01*
X129833333Y-107247676D02*
X129785714Y-107342914D01*
X129785714Y-107342914D02*
X129738095Y-107390533D01*
X129738095Y-107390533D02*
X129642857Y-107438152D01*
X129642857Y-107438152D02*
X129500000Y-107438152D01*
X129500000Y-107438152D02*
X129404762Y-107390533D01*
X129833333Y-107057200D02*
X129738095Y-107104819D01*
X129738095Y-107104819D02*
X129547619Y-107104819D01*
X129547619Y-107104819D02*
X129452381Y-107057200D01*
X129452381Y-107057200D02*
X129404762Y-107009580D01*
X129404762Y-107009580D02*
X129357143Y-106914342D01*
X129357143Y-106914342D02*
X129357143Y-106628628D01*
X129357143Y-106628628D02*
X129404762Y-106533390D01*
X129404762Y-106533390D02*
X129452381Y-106485771D01*
X129452381Y-106485771D02*
X129547619Y-106438152D01*
X129547619Y-106438152D02*
X129738095Y-106438152D01*
X129738095Y-106438152D02*
X129833333Y-106485771D01*
X130309524Y-107104819D02*
X130309524Y-106104819D01*
X130309524Y-106581009D02*
X130880952Y-106581009D01*
X130880952Y-107104819D02*
X130880952Y-106104819D01*
X131500000Y-107104819D02*
X131404762Y-107057200D01*
X131404762Y-107057200D02*
X131357143Y-107009580D01*
X131357143Y-107009580D02*
X131309524Y-106914342D01*
X131309524Y-106914342D02*
X131309524Y-106628628D01*
X131309524Y-106628628D02*
X131357143Y-106533390D01*
X131357143Y-106533390D02*
X131404762Y-106485771D01*
X131404762Y-106485771D02*
X131500000Y-106438152D01*
X131500000Y-106438152D02*
X131642857Y-106438152D01*
X131642857Y-106438152D02*
X131738095Y-106485771D01*
X131738095Y-106485771D02*
X131785714Y-106533390D01*
X131785714Y-106533390D02*
X131833333Y-106628628D01*
X131833333Y-106628628D02*
X131833333Y-106914342D01*
X131833333Y-106914342D02*
X131785714Y-107009580D01*
X131785714Y-107009580D02*
X131738095Y-107057200D01*
X131738095Y-107057200D02*
X131642857Y-107104819D01*
X131642857Y-107104819D02*
X131500000Y-107104819D01*
X132404762Y-107104819D02*
X132309524Y-107057200D01*
X132309524Y-107057200D02*
X132261905Y-106961961D01*
X132261905Y-106961961D02*
X132261905Y-106104819D01*
X133166667Y-107057200D02*
X133071429Y-107104819D01*
X133071429Y-107104819D02*
X132880953Y-107104819D01*
X132880953Y-107104819D02*
X132785715Y-107057200D01*
X132785715Y-107057200D02*
X132738096Y-106961961D01*
X132738096Y-106961961D02*
X132738096Y-106581009D01*
X132738096Y-106581009D02*
X132785715Y-106485771D01*
X132785715Y-106485771D02*
X132880953Y-106438152D01*
X132880953Y-106438152D02*
X133071429Y-106438152D01*
X133071429Y-106438152D02*
X133166667Y-106485771D01*
X133166667Y-106485771D02*
X133214286Y-106581009D01*
X133214286Y-106581009D02*
X133214286Y-106676247D01*
X133214286Y-106676247D02*
X132738096Y-106771485D01*
X133404763Y-107200057D02*
X134166667Y-107200057D01*
X134357144Y-106200057D02*
X134404763Y-106152438D01*
X134404763Y-106152438D02*
X134500001Y-106104819D01*
X134500001Y-106104819D02*
X134738096Y-106104819D01*
X134738096Y-106104819D02*
X134833334Y-106152438D01*
X134833334Y-106152438D02*
X134880953Y-106200057D01*
X134880953Y-106200057D02*
X134928572Y-106295295D01*
X134928572Y-106295295D02*
X134928572Y-106390533D01*
X134928572Y-106390533D02*
X134880953Y-106533390D01*
X134880953Y-106533390D02*
X134309525Y-107104819D01*
X134309525Y-107104819D02*
X134928572Y-107104819D01*
X135357144Y-107009580D02*
X135404763Y-107057200D01*
X135404763Y-107057200D02*
X135357144Y-107104819D01*
X135357144Y-107104819D02*
X135309525Y-107057200D01*
X135309525Y-107057200D02*
X135357144Y-107009580D01*
X135357144Y-107009580D02*
X135357144Y-107104819D01*
X135785715Y-106200057D02*
X135833334Y-106152438D01*
X135833334Y-106152438D02*
X135928572Y-106104819D01*
X135928572Y-106104819D02*
X136166667Y-106104819D01*
X136166667Y-106104819D02*
X136261905Y-106152438D01*
X136261905Y-106152438D02*
X136309524Y-106200057D01*
X136309524Y-106200057D02*
X136357143Y-106295295D01*
X136357143Y-106295295D02*
X136357143Y-106390533D01*
X136357143Y-106390533D02*
X136309524Y-106533390D01*
X136309524Y-106533390D02*
X135738096Y-107104819D01*
X135738096Y-107104819D02*
X136357143Y-107104819D01*
X136785715Y-107104819D02*
X136785715Y-106438152D01*
X136785715Y-106533390D02*
X136833334Y-106485771D01*
X136833334Y-106485771D02*
X136928572Y-106438152D01*
X136928572Y-106438152D02*
X137071429Y-106438152D01*
X137071429Y-106438152D02*
X137166667Y-106485771D01*
X137166667Y-106485771D02*
X137214286Y-106581009D01*
X137214286Y-106581009D02*
X137214286Y-107104819D01*
X137214286Y-106581009D02*
X137261905Y-106485771D01*
X137261905Y-106485771D02*
X137357143Y-106438152D01*
X137357143Y-106438152D02*
X137500000Y-106438152D01*
X137500000Y-106438152D02*
X137595239Y-106485771D01*
X137595239Y-106485771D02*
X137642858Y-106581009D01*
X137642858Y-106581009D02*
X137642858Y-107104819D01*
X138119048Y-107104819D02*
X138119048Y-106438152D01*
X138119048Y-106533390D02*
X138166667Y-106485771D01*
X138166667Y-106485771D02*
X138261905Y-106438152D01*
X138261905Y-106438152D02*
X138404762Y-106438152D01*
X138404762Y-106438152D02*
X138500000Y-106485771D01*
X138500000Y-106485771D02*
X138547619Y-106581009D01*
X138547619Y-106581009D02*
X138547619Y-107104819D01*
X138547619Y-106581009D02*
X138595238Y-106485771D01*
X138595238Y-106485771D02*
X138690476Y-106438152D01*
X138690476Y-106438152D02*
X138833333Y-106438152D01*
X138833333Y-106438152D02*
X138928572Y-106485771D01*
X138928572Y-106485771D02*
X138976191Y-106581009D01*
X138976191Y-106581009D02*
X138976191Y-107104819D01*
X139214286Y-107200057D02*
X139976190Y-107200057D01*
X140214286Y-107104819D02*
X140214286Y-106104819D01*
X140214286Y-106104819D02*
X140547619Y-106819104D01*
X140547619Y-106819104D02*
X140880952Y-106104819D01*
X140880952Y-106104819D02*
X140880952Y-107104819D01*
X141309524Y-106200057D02*
X141357143Y-106152438D01*
X141357143Y-106152438D02*
X141452381Y-106104819D01*
X141452381Y-106104819D02*
X141690476Y-106104819D01*
X141690476Y-106104819D02*
X141785714Y-106152438D01*
X141785714Y-106152438D02*
X141833333Y-106200057D01*
X141833333Y-106200057D02*
X141880952Y-106295295D01*
X141880952Y-106295295D02*
X141880952Y-106390533D01*
X141880952Y-106390533D02*
X141833333Y-106533390D01*
X141833333Y-106533390D02*
X141261905Y-107104819D01*
X141261905Y-107104819D02*
X141880952Y-107104819D01*
X142071429Y-107200057D02*
X142833333Y-107200057D01*
X143071429Y-107104819D02*
X143071429Y-106104819D01*
X143071429Y-106104819D02*
X143452381Y-106104819D01*
X143452381Y-106104819D02*
X143547619Y-106152438D01*
X143547619Y-106152438D02*
X143595238Y-106200057D01*
X143595238Y-106200057D02*
X143642857Y-106295295D01*
X143642857Y-106295295D02*
X143642857Y-106438152D01*
X143642857Y-106438152D02*
X143595238Y-106533390D01*
X143595238Y-106533390D02*
X143547619Y-106581009D01*
X143547619Y-106581009D02*
X143452381Y-106628628D01*
X143452381Y-106628628D02*
X143071429Y-106628628D01*
X144500000Y-107104819D02*
X144500000Y-106581009D01*
X144500000Y-106581009D02*
X144452381Y-106485771D01*
X144452381Y-106485771D02*
X144357143Y-106438152D01*
X144357143Y-106438152D02*
X144166667Y-106438152D01*
X144166667Y-106438152D02*
X144071429Y-106485771D01*
X144500000Y-107057200D02*
X144404762Y-107104819D01*
X144404762Y-107104819D02*
X144166667Y-107104819D01*
X144166667Y-107104819D02*
X144071429Y-107057200D01*
X144071429Y-107057200D02*
X144023810Y-106961961D01*
X144023810Y-106961961D02*
X144023810Y-106866723D01*
X144023810Y-106866723D02*
X144071429Y-106771485D01*
X144071429Y-106771485D02*
X144166667Y-106723866D01*
X144166667Y-106723866D02*
X144404762Y-106723866D01*
X144404762Y-106723866D02*
X144500000Y-106676247D01*
X145404762Y-107104819D02*
X145404762Y-106104819D01*
X145404762Y-107057200D02*
X145309524Y-107104819D01*
X145309524Y-107104819D02*
X145119048Y-107104819D01*
X145119048Y-107104819D02*
X145023810Y-107057200D01*
X145023810Y-107057200D02*
X144976191Y-107009580D01*
X144976191Y-107009580D02*
X144928572Y-106914342D01*
X144928572Y-106914342D02*
X144928572Y-106628628D01*
X144928572Y-106628628D02*
X144976191Y-106533390D01*
X144976191Y-106533390D02*
X145023810Y-106485771D01*
X145023810Y-106485771D02*
X145119048Y-106438152D01*
X145119048Y-106438152D02*
X145309524Y-106438152D01*
X145309524Y-106438152D02*
X145404762Y-106485771D01*
X133738095Y-103954819D02*
X133738095Y-102954819D01*
X133738095Y-103431009D02*
X134309523Y-103431009D01*
X134309523Y-103954819D02*
X134309523Y-102954819D01*
X134738095Y-103050057D02*
X134785714Y-103002438D01*
X134785714Y-103002438D02*
X134880952Y-102954819D01*
X134880952Y-102954819D02*
X135119047Y-102954819D01*
X135119047Y-102954819D02*
X135214285Y-103002438D01*
X135214285Y-103002438D02*
X135261904Y-103050057D01*
X135261904Y-103050057D02*
X135309523Y-103145295D01*
X135309523Y-103145295D02*
X135309523Y-103240533D01*
X135309523Y-103240533D02*
X135261904Y-103383390D01*
X135261904Y-103383390D02*
X134690476Y-103954819D01*
X134690476Y-103954819D02*
X135309523Y-103954819D01*
%TO.C,D1*%
D14*
X132100000Y-127600000D02*
X134900000Y-127600000D01*
X132100000Y-129400000D02*
X132100000Y-127600000D01*
X132750000Y-128500000D02*
X133150000Y-128500000D01*
X133150000Y-128500000D02*
X133150000Y-127950000D01*
X133150000Y-128500000D02*
X133150000Y-129050000D01*
X133150000Y-128500000D02*
X133750000Y-128100000D01*
X133750000Y-128100000D02*
X133750000Y-128900000D01*
X133750000Y-128500000D02*
X134250000Y-128500000D01*
X133750000Y-128900000D02*
X133150000Y-128500000D01*
X134900000Y-127600000D02*
X134900000Y-129400000D01*
X134900000Y-129400000D02*
X132100000Y-129400000D01*
%TO.C,C_FILT*%
X115000000Y-130375000D02*
X117000000Y-130375000D01*
X117000000Y-131625000D01*
X115000000Y-131625000D01*
X115000000Y-130375000D01*
%TO.C,J_FSR*%
X106640000Y-132090000D02*
X106640000Y-133340000D01*
X107890000Y-132090000D02*
X106640000Y-132090000D01*
X107050000Y-132500000D02*
X112950000Y-132500000D01*
X112950000Y-137000000D01*
X107050000Y-137000000D01*
X107050000Y-132500000D01*
%TO.C,R_PD*%
X132500000Y-116375000D02*
X134500000Y-116375000D01*
X134500000Y-117625000D01*
X132500000Y-117625000D01*
X132500000Y-116375000D01*
%TO.C,D2*%
X132500000Y-110700000D02*
X132500000Y-111600000D01*
X132500000Y-111600000D02*
X134500000Y-111600000D01*
X132800000Y-110400000D02*
X132500000Y-110700000D01*
X134500000Y-110400000D02*
X132800000Y-110400000D01*
X134500000Y-111600000D02*
X134500000Y-110400000D01*
%TO.C,C_OUT*%
X103200000Y-124875000D02*
X105200000Y-124875000D01*
X105200000Y-126125000D01*
X103200000Y-126125000D01*
X103200000Y-124875000D01*
%TO.C,J1*%
X108730000Y-108840000D02*
X110635000Y-108840000D01*
X108730000Y-129160000D02*
X108730000Y-108840000D01*
X110635000Y-108840000D02*
X111270000Y-109475000D01*
X111270000Y-109475000D02*
X111270000Y-129160000D01*
X111270000Y-129160000D02*
X108730000Y-129160000D01*
%TO.C,R_PWM*%
X119000000Y-103875000D02*
X121000000Y-103875000D01*
X121000000Y-105125000D01*
X119000000Y-105125000D01*
X119000000Y-103875000D01*
%TO.C,J2*%
X126730000Y-108840000D02*
X128635000Y-108840000D01*
X126730000Y-129160000D02*
X126730000Y-108840000D01*
X128635000Y-108840000D02*
X129270000Y-109475000D01*
X129270000Y-109475000D02*
X129270000Y-129160000D01*
X129270000Y-129160000D02*
X126730000Y-129160000D01*
%TO.C,R_PROT*%
X117500000Y-127375000D02*
X119500000Y-127375000D01*
X119500000Y-128625000D01*
X117500000Y-128625000D01*
X117500000Y-127375000D01*
%TO.C,R_G*%
X132500000Y-119375000D02*
X134500000Y-119375000D01*
X134500000Y-120625000D01*
X132500000Y-120625000D01*
X132500000Y-119375000D01*
%TO.C,C_IN*%
X103200000Y-111875000D02*
X105200000Y-111875000D01*
X105200000Y-113125000D01*
X103200000Y-113125000D01*
X103200000Y-111875000D01*
%TO.C,R_REF*%
X115000000Y-133575000D02*
X117000000Y-133575000D01*
X117000000Y-134825000D01*
X115000000Y-134825000D01*
X115000000Y-133575000D01*
%TO.C,Q1*%
X134150000Y-125450000D02*
X132850000Y-125450000D01*
X132850000Y-122875000D01*
X133175000Y-122550000D01*
X134150000Y-122550000D01*
X134150000Y-125450000D01*
%TO.C,U1*%
X100850000Y-117150000D02*
X107550000Y-117150000D01*
X100850000Y-119850000D02*
X100850000Y-117150000D01*
X101850000Y-120850000D02*
X100850000Y-119850000D01*
X101850000Y-120850000D02*
X107550000Y-120850000D01*
X107550000Y-120850000D02*
X107550000Y-117150000D01*
%TO.C,J_SOL*%
X127500000Y-135550000D02*
X126875000Y-136550000D01*
X128125000Y-136550000D02*
X127500000Y-135550000D01*
X122550000Y-130800000D02*
X129950000Y-130800000D01*
X129950000Y-136550000D01*
X122550000Y-136550000D01*
X122550000Y-130800000D01*
%TO.C,J_ESC*%
X123230000Y-102530000D02*
X130850000Y-102530000D01*
X123230000Y-104435000D02*
X123230000Y-102530000D01*
X123865000Y-105070000D02*
X123230000Y-104435000D01*
X130850000Y-102530000D02*
X130850000Y-105070000D01*
X130850000Y-105070000D02*
X123865000Y-105070000D01*
%TO.C,R_LED*%
X132500000Y-113375000D02*
X134500000Y-113375000D01*
X134500000Y-114625000D01*
X132500000Y-114625000D01*
X132500000Y-113375000D01*
%TO.C,J_BATT*%
X110375000Y-101450000D02*
X111000000Y-102450000D01*
X111000000Y-102450000D02*
X111625000Y-101450000D01*
X108550000Y-101450000D02*
X115950000Y-101450000D01*
X115950000Y-107200000D01*
X108550000Y-107200000D01*
X108550000Y-101450000D01*
%TD*%
M02*
