%TF.GenerationSoftware,KiCad,Pcbnew,10.0.1*%
%TF.CreationDate,2026-09-08T15:03:45-05:00*%
%TF.ProjectId,WebShooter,57656253-686f-46f7-9465-722e6b696361,rev?*%
%TF.SameCoordinates,Original*%
%TF.FileFunction,Copper,L1,Top*%
%TF.FilePolarity,Positive*%
%FSLAX46Y46*%
G04 Gerber Fmt 4.6, Leading zero omitted, Abs format (unit mm)*
G04 Created by KiCad (PCBNEW 10.0.1) date 2026-09-08 15:03:45*
%MOMM*%
%LPD*%
G01*
G04 APERTURE LIST*
G04 Aperture macros list*
%AMRoundRect*
0 Rectangle with rounded corners*
0 $1 Rounding radius*
0 $2 $3 $4 $5 $6 $7 $8 $9 X,Y pos of 4 corners*
0 Add a 4 corners polygon primitive as box body*
4,1,4,$2,$3,$4,$5,$6,$7,$8,$9,$2,$3,0*
0 Add four circle primitives for the rounded corners*
1,1,$1+$1,$2,$3*
1,1,$1+$1,$4,$5*
1,1,$1+$1,$6,$7*
1,1,$1+$1,$8,$9*
0 Add four rect primitives between the rounded corners*
20,1,$1+$1,$2,$3,$4,$5,0*
20,1,$1+$1,$4,$5,$6,$7,0*
20,1,$1+$1,$6,$7,$8,$9,0*
20,1,$1+$1,$8,$9,$2,$3,0*%
G04 Aperture macros list end*
%TA.AperFunction,SMDPad,CuDef*%
%ADD10C,1.500000*%
%TD*%
%TA.AperFunction,SMDPad,CuDef*%
%ADD11RoundRect,0.225000X-0.225000X-0.375000X0.225000X-0.375000X0.225000X0.375000X-0.225000X0.375000X0*%
%TD*%
%TA.AperFunction,SMDPad,CuDef*%
%ADD12RoundRect,0.250000X-0.250000X-0.475000X0.250000X-0.475000X0.250000X0.475000X-0.250000X0.475000X0*%
%TD*%
%TA.AperFunction,ComponentPad*%
%ADD13RoundRect,0.250000X-0.350000X-0.625000X0.350000X-0.625000X0.350000X0.625000X-0.350000X0.625000X0*%
%TD*%
%TA.AperFunction,ComponentPad*%
%ADD14O,1.200000X1.750000*%
%TD*%
%TA.AperFunction,ComponentPad*%
%ADD15C,4.400000*%
%TD*%
%TA.AperFunction,SMDPad,CuDef*%
%ADD16RoundRect,0.250000X-0.262500X-0.450000X0.262500X-0.450000X0.262500X0.450000X-0.262500X0.450000X0*%
%TD*%
%TA.AperFunction,SMDPad,CuDef*%
%ADD17RoundRect,0.243750X-0.243750X-0.456250X0.243750X-0.456250X0.243750X0.456250X-0.243750X0.456250X0*%
%TD*%
%TA.AperFunction,SMDPad,CuDef*%
%ADD18RoundRect,0.250000X0.250000X0.475000X-0.250000X0.475000X-0.250000X-0.475000X0.250000X-0.475000X0*%
%TD*%
%TA.AperFunction,ComponentPad*%
%ADD19R,1.700000X1.700000*%
%TD*%
%TA.AperFunction,ComponentPad*%
%ADD20C,1.700000*%
%TD*%
%TA.AperFunction,SMDPad,CuDef*%
%ADD21RoundRect,0.250000X0.450000X-0.262500X0.450000X0.262500X-0.450000X0.262500X-0.450000X-0.262500X0*%
%TD*%
%TA.AperFunction,SMDPad,CuDef*%
%ADD22RoundRect,0.150000X-0.587500X-0.150000X0.587500X-0.150000X0.587500X0.150000X-0.587500X0.150000X0*%
%TD*%
%TA.AperFunction,SMDPad,CuDef*%
%ADD23RoundRect,0.375000X-0.625000X-0.375000X0.625000X-0.375000X0.625000X0.375000X-0.625000X0.375000X0*%
%TD*%
%TA.AperFunction,SMDPad,CuDef*%
%ADD24RoundRect,0.500000X-0.500000X-1.400000X0.500000X-1.400000X0.500000X1.400000X-0.500000X1.400000X0*%
%TD*%
%TA.AperFunction,ComponentPad*%
%ADD25RoundRect,0.250000X0.600000X0.750000X-0.600000X0.750000X-0.600000X-0.750000X0.600000X-0.750000X0*%
%TD*%
%TA.AperFunction,ComponentPad*%
%ADD26O,1.700000X2.000000*%
%TD*%
%TA.AperFunction,ComponentPad*%
%ADD27RoundRect,0.250000X-0.600000X-0.750000X0.600000X-0.750000X0.600000X0.750000X-0.600000X0.750000X0*%
%TD*%
%TA.AperFunction,ViaPad*%
%ADD28C,0.800000*%
%TD*%
%TA.AperFunction,ViaPad*%
%ADD29C,0.600000*%
%TD*%
%TA.AperFunction,Conductor*%
%ADD30C,0.800000*%
%TD*%
%TA.AperFunction,Conductor*%
%ADD31C,1.200000*%
%TD*%
%TA.AperFunction,Conductor*%
%ADD32C,0.350000*%
%TD*%
G04 APERTURE END LIST*
D10*
%TO.P,TP_3V3,1*%
%TO.N,+3.3V*%
X104200000Y-128500000D03*
%TD*%
%TO.P,TP_VBATT,1*%
%TO.N,+BATT*%
X105000000Y-108000000D03*
%TD*%
D11*
%TO.P,D1,1*%
%TO.N,+BATT*%
X131850000Y-128500000D03*
%TO.P,D1,2*%
%TO.N,SOL_DRAIN*%
X135150000Y-128500000D03*
%TD*%
D12*
%TO.P,C_FILT,1*%
%TO.N,FSR_IN*%
X115050000Y-131000000D03*
%TO.P,C_FILT,2*%
%TO.N,GND*%
X116950000Y-131000000D03*
%TD*%
D13*
%TO.P,J_FSR,1*%
%TO.N,+3.3V*%
X109000000Y-134200000D03*
D14*
%TO.P,J_FSR,2*%
%TO.N,FSR_IN*%
X111000000Y-134200000D03*
%TD*%
D15*
%TO.P,H4,1*%
%TO.N,GND*%
X134500000Y-134500000D03*
%TD*%
D16*
%TO.P,R_PD,1*%
%TO.N,SOL_GATE*%
X132587500Y-117000000D03*
%TO.P,R_PD,2*%
%TO.N,GND*%
X134412500Y-117000000D03*
%TD*%
D17*
%TO.P,D2,1*%
%TO.N,GND*%
X132562500Y-111000000D03*
%TO.P,D2,2*%
%TO.N,LED_A*%
X134437500Y-111000000D03*
%TD*%
D18*
%TO.P,C_OUT,1*%
%TO.N,+3.3V*%
X103250000Y-125500000D03*
%TO.P,C_OUT,2*%
%TO.N,GND*%
X105150000Y-125500000D03*
%TD*%
D19*
%TO.P,J1,1*%
%TO.N,+3.3V*%
X110000000Y-110110000D03*
D20*
%TO.P,J1,2*%
%TO.N,GND*%
X110000000Y-112650000D03*
%TO.P,J1,3*%
%TO.N,FSR_ADC*%
X110000000Y-115190000D03*
%TO.P,J1,4*%
%TO.N,N/C*%
X110000000Y-117730000D03*
%TO.P,J1,5*%
X110000000Y-120270000D03*
%TO.P,J1,6*%
X110000000Y-122810000D03*
%TO.P,J1,7*%
X110000000Y-125350000D03*
%TO.P,J1,8*%
X110000000Y-127890000D03*
%TD*%
D16*
%TO.P,R_PWM,1*%
%TO.N,MCU_PWM*%
X119087500Y-104500000D03*
%TO.P,R_PWM,2*%
%TO.N,ESC_PWM*%
X120912500Y-104500000D03*
%TD*%
D10*
%TO.P,TP_ESC,1*%
%TO.N,ESC_PWM*%
X124500000Y-108000000D03*
%TD*%
D15*
%TO.P,H1,1*%
%TO.N,GND*%
X103500000Y-103500000D03*
%TD*%
D19*
%TO.P,J2,1*%
%TO.N,MCU_PWM*%
X128000000Y-110110000D03*
D20*
%TO.P,J2,2*%
%TO.N,MCU_GATE*%
X128000000Y-112650000D03*
%TO.P,J2,3*%
%TO.N,LED_STAT*%
X128000000Y-115190000D03*
%TO.P,J2,4*%
%TO.N,N/C*%
X128000000Y-117730000D03*
%TO.P,J2,5*%
X128000000Y-120270000D03*
%TO.P,J2,6*%
X128000000Y-122810000D03*
%TO.P,J2,7*%
X128000000Y-125350000D03*
%TO.P,J2,8*%
X128000000Y-127890000D03*
%TD*%
D16*
%TO.P,R_PROT,1*%
%TO.N,FSR_IN*%
X117587500Y-128000000D03*
%TO.P,R_PROT,2*%
%TO.N,FSR_ADC*%
X119412500Y-128000000D03*
%TD*%
D10*
%TO.P,TP_GATE,1*%
%TO.N,SOL_GATE*%
X124000000Y-120000000D03*
%TD*%
D16*
%TO.P,R_G,1*%
%TO.N,MCU_GATE*%
X132587500Y-120000000D03*
%TO.P,R_G,2*%
%TO.N,SOL_GATE*%
X134412500Y-120000000D03*
%TD*%
D18*
%TO.P,C_IN,1*%
%TO.N,+BATT*%
X103250000Y-112500000D03*
%TO.P,C_IN,2*%
%TO.N,GND*%
X105150000Y-112500000D03*
%TD*%
D21*
%TO.P,R_REF,1*%
%TO.N,FSR_IN*%
X115087500Y-134200000D03*
%TO.P,R_REF,2*%
%TO.N,GND*%
X116912500Y-134200000D03*
%TD*%
D22*
%TO.P,Q1,1*%
%TO.N,SOL_GATE*%
X132562500Y-123050000D03*
%TO.P,Q1,2*%
%TO.N,GND*%
X132562500Y-124950000D03*
%TO.P,Q1,3*%
%TO.N,SOL_DRAIN*%
X134437500Y-124000000D03*
%TD*%
D23*
%TO.P,U1,1*%
%TO.N,GND*%
X101900000Y-122150000D03*
%TO.P,U1,2*%
%TO.N,+3.3V*%
X104200000Y-122150000D03*
D24*
X104200000Y-115850000D03*
D23*
%TO.P,U1,3*%
%TO.N,+BATT*%
X106500000Y-122150000D03*
%TD*%
D25*
%TO.P,J_SOL,1*%
%TO.N,+BATT*%
X127500000Y-134200000D03*
D26*
%TO.P,J_SOL,2*%
%TO.N,SOL_DRAIN*%
X125000000Y-134200000D03*
%TD*%
D19*
%TO.P,J_ESC,1*%
%TO.N,ESC_PWM*%
X124500000Y-103800000D03*
D20*
%TO.P,J_ESC,2*%
%TO.N,GND*%
X127040000Y-103800000D03*
%TO.P,J_ESC,3*%
%TO.N,N/C*%
X129580000Y-103800000D03*
%TD*%
D10*
%TO.P,TP_GND,1*%
%TO.N,GND*%
X119000000Y-107500000D03*
%TD*%
D16*
%TO.P,R_LED,1*%
%TO.N,LED_STAT*%
X132587500Y-114000000D03*
%TO.P,R_LED,2*%
%TO.N,LED_A*%
X134412500Y-114000000D03*
%TD*%
D27*
%TO.P,J_BATT,1*%
%TO.N,+BATT*%
X111000000Y-103800000D03*
D26*
%TO.P,J_BATT,2*%
%TO.N,GND*%
X113500000Y-103800000D03*
%TD*%
D15*
%TO.P,H3,1*%
%TO.N,GND*%
X103500000Y-134500000D03*
%TD*%
D10*
%TO.P,TP_FSR,1*%
%TO.N,FSR_ADC*%
X120000000Y-131000000D03*
%TD*%
D15*
%TO.P,H2,1*%
%TO.N,GND*%
X134500000Y-103500000D03*
%TD*%
D28*
%TO.N,+3.3V*%
X107246300Y-116061200D03*
X107246300Y-127815200D03*
%TO.N,+BATT*%
X107246300Y-124876700D03*
%TO.N,GND*%
X122000000Y-129000000D03*
X130000000Y-126000000D03*
X112200000Y-112650000D03*
X124000000Y-124000000D03*
X119000000Y-113000000D03*
X119000000Y-107500000D03*
X114000000Y-124000000D03*
D29*
%TO.N,FSR_ADC*%
X120170600Y-126849700D03*
D28*
%TO.N,MCU_GATE*%
X130631100Y-116062800D03*
%TD*%
%TO.N,+3.3V*%
D30*
X104200000Y-128500000D02*
X103250000Y-127550000D01*
X104411200Y-121938800D02*
X104200000Y-122150000D01*
X104411200Y-116061200D02*
X104411200Y-121938800D01*
X103250000Y-124425400D02*
X104200000Y-123475400D01*
X107246300Y-127815200D02*
X106561500Y-128500000D01*
X104200000Y-123475400D02*
X104200000Y-122150000D01*
X103250000Y-127550000D02*
X103250000Y-125500000D01*
X107246300Y-116061200D02*
X104411200Y-116061200D01*
X106561500Y-128500000D02*
X104200000Y-128500000D01*
X104411200Y-116061200D02*
X104200000Y-115850000D01*
X103250000Y-125500000D02*
X103250000Y-124425400D01*
%TO.N,+BATT*%
D31*
X111000000Y-103800000D02*
X106800000Y-108000000D01*
X106800000Y-108000000D02*
X105000000Y-108000000D01*
X127500000Y-134200000D02*
X131850000Y-129850000D01*
X103250000Y-109750000D02*
X103250000Y-112500000D01*
X107246300Y-122896300D02*
X106500000Y-122150000D01*
X131850000Y-129850000D02*
X131850000Y-128500000D01*
X105000000Y-108000000D02*
X103250000Y-109750000D01*
X107246300Y-124876700D02*
X107246300Y-122896300D01*
%TO.N,SOL_DRAIN*%
X134437500Y-127787500D02*
X134437500Y-127013600D01*
X125000000Y-133313700D02*
X125965400Y-132348300D01*
X129702900Y-128610800D02*
X129702900Y-128519299D01*
X135150000Y-128500000D02*
X134437500Y-127787500D01*
X129702900Y-128519300D02*
X131208600Y-127013600D01*
X125965400Y-132348300D02*
X129702900Y-128610800D01*
X134437500Y-127013600D02*
X134437500Y-124000000D01*
X131208600Y-127013600D02*
X134437500Y-127013600D01*
X125000000Y-134199999D02*
X125000000Y-133313700D01*
%TO.N,FSR_IN*%
D32*
X115050000Y-130537500D02*
X117587500Y-128000000D01*
X115050000Y-131000000D02*
X115050000Y-130537500D01*
X115087500Y-132112500D02*
X115087500Y-134199999D01*
X115087500Y-132112500D02*
X115087500Y-131037500D01*
X115087500Y-131037500D02*
X115050000Y-131000000D01*
X113000000Y-134199999D02*
X115087500Y-132112500D01*
X111000000Y-134199999D02*
X113000000Y-134199999D01*
%TO.N,SOL_GATE*%
X124000000Y-119879600D02*
X124000000Y-120000000D01*
X127455000Y-116424600D02*
X124000000Y-119879600D01*
X134412500Y-120000000D02*
X132562500Y-121850000D01*
X130357700Y-115236100D02*
X129169200Y-116424600D01*
X134412500Y-118825000D02*
X132587500Y-117000000D01*
X129169200Y-116424600D02*
X127455000Y-116424600D01*
X132587500Y-116906800D02*
X130916800Y-115236100D01*
X134412500Y-120000000D02*
X134412500Y-118825000D01*
X130916800Y-115236100D02*
X130357700Y-115236100D01*
X132562500Y-121850000D02*
X132562500Y-123050000D01*
X132587500Y-117000000D02*
X132587500Y-116906800D01*
%TO.N,LED_A*%
X134412500Y-111025000D02*
X134412500Y-114000000D01*
X134437500Y-111000000D02*
X134412500Y-111025000D01*
%TO.N,FSR_ADC*%
X120000000Y-131000000D02*
X119412500Y-130412500D01*
X120170600Y-126849700D02*
X119412500Y-127607800D01*
X119412500Y-130412500D02*
X119412500Y-128000000D01*
X119412500Y-127607800D02*
X119412500Y-128000000D01*
%TO.N,MCU_PWM*%
X124697500Y-110110000D02*
X128000000Y-110110000D01*
X119087500Y-104500000D02*
X124697500Y-110110000D01*
%TO.N,ESC_PWM*%
X123873500Y-103800000D02*
X124916500Y-104843000D01*
X123873500Y-103800000D02*
X124500000Y-103800000D01*
X121612500Y-103800000D02*
X123873500Y-103800000D01*
X124916500Y-105443200D02*
X124916500Y-107583500D01*
X124916500Y-104843000D02*
X124916500Y-105443200D01*
X124916500Y-107583500D02*
X124500000Y-108000000D01*
X120912500Y-104500000D02*
X121612500Y-103800000D01*
%TO.N,MCU_GATE*%
X130631100Y-118043600D02*
X130631100Y-116062800D01*
X132587500Y-120000000D02*
X130631100Y-118043600D01*
%TO.N,LED_STAT*%
X129190000Y-114000000D02*
X132587500Y-114000000D01*
X128000000Y-115190000D02*
X129190000Y-114000000D01*
%TD*%
%TA.AperFunction,Conductor*%
%TO.N,GND*%
G36*
X129960031Y-116388464D02*
G01*
X129978952Y-116389818D01*
X129992311Y-116399818D01*
X130008052Y-116405355D01*
X130033473Y-116429838D01*
X130036228Y-116433378D01*
X130086986Y-116509342D01*
X130124728Y-116547084D01*
X130129454Y-116553156D01*
X130139564Y-116578781D01*
X130152766Y-116602958D01*
X130152203Y-116610819D01*
X130155096Y-116618150D01*
X130155600Y-116629318D01*
X130155600Y-117980999D01*
X130155600Y-118106201D01*
X130186665Y-118222134D01*
X130188005Y-118227136D01*
X130250604Y-118335562D01*
X130250606Y-118335565D01*
X131738181Y-119823140D01*
X131771666Y-119884463D01*
X131774500Y-119910821D01*
X131774500Y-120493102D01*
X131780061Y-120539409D01*
X131785122Y-120581561D01*
X131840639Y-120722343D01*
X131932077Y-120842922D01*
X132052656Y-120934360D01*
X132052657Y-120934360D01*
X132052658Y-120934361D01*
X132193436Y-120989877D01*
X132281898Y-121000500D01*
X132440179Y-121000500D01*
X132507218Y-121020185D01*
X132552973Y-121072989D01*
X132562917Y-121142147D01*
X132533892Y-121205703D01*
X132527860Y-121212181D01*
X132182006Y-121558034D01*
X132182004Y-121558037D01*
X132119405Y-121666463D01*
X132119405Y-121666464D01*
X132098686Y-121743789D01*
X132087000Y-121787400D01*
X132087000Y-122325500D01*
X132067315Y-122392539D01*
X132014511Y-122438294D01*
X131963000Y-122449500D01*
X131920730Y-122449500D01*
X131890300Y-122452353D01*
X131890298Y-122452353D01*
X131762119Y-122497206D01*
X131762117Y-122497207D01*
X131652850Y-122577850D01*
X131572207Y-122687117D01*
X131572206Y-122687119D01*
X131527353Y-122815298D01*
X131527353Y-122815300D01*
X131524500Y-122845730D01*
X131524500Y-123254269D01*
X131527353Y-123284699D01*
X131527353Y-123284701D01*
X131566685Y-123397102D01*
X131572207Y-123412882D01*
X131652850Y-123522150D01*
X131762118Y-123602793D01*
X131804845Y-123617744D01*
X131890299Y-123647646D01*
X131920730Y-123650500D01*
X131920734Y-123650500D01*
X133204270Y-123650500D01*
X133234699Y-123647646D01*
X133236984Y-123646847D01*
X133238779Y-123646755D01*
X133242073Y-123646036D01*
X133242192Y-123646580D01*
X133306763Y-123643283D01*
X133367391Y-123678010D01*
X133399620Y-123740003D01*
X133401401Y-123775462D01*
X133399501Y-123795730D01*
X133399500Y-123795738D01*
X133399500Y-124031051D01*
X133379815Y-124098090D01*
X133327011Y-124143845D01*
X133257853Y-124153789D01*
X133253220Y-124153033D01*
X133252491Y-124152899D01*
X133215649Y-124150000D01*
X132812500Y-124150000D01*
X132812500Y-125750000D01*
X133215634Y-125750000D01*
X133215649Y-125749999D01*
X133252489Y-125747100D01*
X133252495Y-125747099D01*
X133378405Y-125710519D01*
X133448274Y-125710718D01*
X133506944Y-125748660D01*
X133535788Y-125812299D01*
X133537000Y-125829595D01*
X133537000Y-125989100D01*
X133517315Y-126056139D01*
X133464511Y-126101894D01*
X133413000Y-126113100D01*
X131119907Y-126113100D01*
X131100616Y-126116937D01*
X131081324Y-126120775D01*
X131081323Y-126120775D01*
X130945941Y-126147703D01*
X130945932Y-126147706D01*
X130782057Y-126215584D01*
X130782055Y-126215585D01*
X130670503Y-126290123D01*
X130634564Y-126314136D01*
X130634560Y-126314139D01*
X129315757Y-127632941D01*
X129254434Y-127666426D01*
X129184742Y-127661442D01*
X129128809Y-127619570D01*
X129110145Y-127583577D01*
X129066213Y-127448366D01*
X129066211Y-127448360D01*
X129022787Y-127363138D01*
X128983996Y-127287006D01*
X128946095Y-127234839D01*
X128877558Y-127140505D01*
X128877554Y-127140500D01*
X128749499Y-127012445D01*
X128749494Y-127012441D01*
X128602997Y-126906006D01*
X128602996Y-126906005D01*
X128602994Y-126906004D01*
X128551300Y-126879664D01*
X128441639Y-126823788D01*
X128441636Y-126823787D01*
X128269410Y-126767829D01*
X128109321Y-126742473D01*
X128046186Y-126712544D01*
X128009255Y-126653232D01*
X128010253Y-126583370D01*
X128048863Y-126525137D01*
X128109321Y-126497527D01*
X128179425Y-126486422D01*
X128269409Y-126472171D01*
X128441639Y-126416211D01*
X128602994Y-126333996D01*
X128749501Y-126227553D01*
X128877553Y-126099501D01*
X128983996Y-125952994D01*
X129066211Y-125791639D01*
X129122171Y-125619409D01*
X129148886Y-125450738D01*
X129150500Y-125440551D01*
X129150500Y-125259448D01*
X129141084Y-125200001D01*
X131327704Y-125200001D01*
X131327899Y-125202486D01*
X131373718Y-125360198D01*
X131457314Y-125501552D01*
X131457321Y-125501561D01*
X131573438Y-125617678D01*
X131573447Y-125617685D01*
X131714803Y-125701282D01*
X131714806Y-125701283D01*
X131872504Y-125747099D01*
X131872510Y-125747100D01*
X131909350Y-125749999D01*
X131909366Y-125750000D01*
X132312500Y-125750000D01*
X132312500Y-125200000D01*
X131327705Y-125200000D01*
X131327704Y-125200001D01*
X129141084Y-125200001D01*
X129137133Y-125175054D01*
X129127271Y-125112790D01*
X129122171Y-125080591D01*
X129066211Y-124908361D01*
X129066211Y-124908360D01*
X129011324Y-124800639D01*
X129011323Y-124800637D01*
X128983995Y-124747004D01*
X128949843Y-124699998D01*
X131327704Y-124699998D01*
X131327705Y-124700000D01*
X132312500Y-124700000D01*
X132312500Y-124150000D01*
X131909350Y-124150000D01*
X131872510Y-124152899D01*
X131872504Y-124152900D01*
X131714806Y-124198716D01*
X131714803Y-124198717D01*
X131573447Y-124282314D01*
X131573438Y-124282321D01*
X131457321Y-124398438D01*
X131457314Y-124398447D01*
X131373718Y-124539801D01*
X131327899Y-124697513D01*
X131327704Y-124699998D01*
X128949843Y-124699998D01*
X128877558Y-124600505D01*
X128877554Y-124600500D01*
X128749499Y-124472445D01*
X128749494Y-124472441D01*
X128602997Y-124366006D01*
X128602996Y-124366005D01*
X128602994Y-124366004D01*
X128551300Y-124339664D01*
X128441639Y-124283788D01*
X128441636Y-124283787D01*
X128269410Y-124227829D01*
X128109321Y-124202473D01*
X128046186Y-124172544D01*
X128009255Y-124113232D01*
X128010253Y-124043370D01*
X128048863Y-123985137D01*
X128109321Y-123957527D01*
X128179425Y-123946422D01*
X128269409Y-123932171D01*
X128441639Y-123876211D01*
X128602994Y-123793996D01*
X128749501Y-123687553D01*
X128877553Y-123559501D01*
X128983996Y-123412994D01*
X129066211Y-123251639D01*
X129122171Y-123079409D01*
X129141828Y-122955301D01*
X129150500Y-122900551D01*
X129150500Y-122719448D01*
X129128072Y-122577850D01*
X129122171Y-122540591D01*
X129066211Y-122368361D01*
X129066211Y-122368360D01*
X129037740Y-122312484D01*
X128983996Y-122207006D01*
X128970396Y-122188287D01*
X128877558Y-122060505D01*
X128877554Y-122060500D01*
X128749499Y-121932445D01*
X128749494Y-121932441D01*
X128602997Y-121826006D01*
X128602996Y-121826005D01*
X128602994Y-121826004D01*
X128527228Y-121787399D01*
X128441639Y-121743788D01*
X128441636Y-121743787D01*
X128269410Y-121687829D01*
X128109321Y-121662473D01*
X128046186Y-121632544D01*
X128009255Y-121573232D01*
X128010253Y-121503370D01*
X128048863Y-121445137D01*
X128109321Y-121417527D01*
X128179425Y-121406422D01*
X128269409Y-121392171D01*
X128441639Y-121336211D01*
X128602994Y-121253996D01*
X128749501Y-121147553D01*
X128877553Y-121019501D01*
X128983996Y-120872994D01*
X129066211Y-120711639D01*
X129122171Y-120539409D01*
X129136765Y-120447259D01*
X129150500Y-120360551D01*
X129150500Y-120179448D01*
X129134019Y-120075397D01*
X129122171Y-120000591D01*
X129066211Y-119828361D01*
X129066211Y-119828360D01*
X129037740Y-119772484D01*
X128983996Y-119667006D01*
X128970396Y-119648287D01*
X128877558Y-119520505D01*
X128877554Y-119520500D01*
X128749499Y-119392445D01*
X128749494Y-119392441D01*
X128602997Y-119286006D01*
X128602996Y-119286005D01*
X128602994Y-119286004D01*
X128551300Y-119259664D01*
X128441639Y-119203788D01*
X128441636Y-119203787D01*
X128269410Y-119147829D01*
X128109321Y-119122473D01*
X128046186Y-119092544D01*
X128009255Y-119033232D01*
X128010253Y-118963370D01*
X128048863Y-118905137D01*
X128109321Y-118877527D01*
X128179425Y-118866422D01*
X128269409Y-118852171D01*
X128441639Y-118796211D01*
X128602994Y-118713996D01*
X128749501Y-118607553D01*
X128877553Y-118479501D01*
X128983996Y-118332994D01*
X129066211Y-118171639D01*
X129122171Y-117999409D01*
X129143891Y-117862274D01*
X129150500Y-117820551D01*
X129150500Y-117639448D01*
X129134019Y-117535397D01*
X129122171Y-117460591D01*
X129066211Y-117288361D01*
X129066211Y-117288360D01*
X128983995Y-117127005D01*
X128962185Y-117096986D01*
X128938705Y-117031179D01*
X128954530Y-116963125D01*
X129004636Y-116914430D01*
X129062503Y-116900100D01*
X129231799Y-116900100D01*
X129231801Y-116900100D01*
X129352736Y-116867695D01*
X129461164Y-116805095D01*
X129847940Y-116418317D01*
X129862583Y-116410322D01*
X129874159Y-116398303D01*
X129892614Y-116393923D01*
X129909261Y-116384834D01*
X129925905Y-116386024D01*
X129942140Y-116382172D01*
X129960031Y-116388464D01*
G37*
%TD.AperFunction*%
%TA.AperFunction,Conductor*%
G36*
X136943039Y-101019685D02*
G01*
X136988794Y-101072489D01*
X137000000Y-101124000D01*
X137000000Y-136876000D01*
X136980315Y-136943039D01*
X136927511Y-136988794D01*
X136876000Y-137000000D01*
X101124000Y-137000000D01*
X101056961Y-136980315D01*
X101011206Y-136927511D01*
X101000000Y-136876000D01*
X101000000Y-133531898D01*
X108099500Y-133531898D01*
X108099500Y-134868102D01*
X108103516Y-134901541D01*
X108110122Y-134956561D01*
X108165639Y-135097343D01*
X108257077Y-135217922D01*
X108377656Y-135309360D01*
X108377657Y-135309360D01*
X108377658Y-135309361D01*
X108518436Y-135364877D01*
X108606898Y-135375500D01*
X108606903Y-135375500D01*
X109393097Y-135375500D01*
X109393102Y-135375500D01*
X109481564Y-135364877D01*
X109622342Y-135309361D01*
X109742922Y-135217922D01*
X109834361Y-135097342D01*
X109889877Y-134956564D01*
X109900500Y-134868102D01*
X109900500Y-134797080D01*
X109920185Y-134730041D01*
X109972989Y-134684286D01*
X110042147Y-134674342D01*
X110105703Y-134703367D01*
X110139061Y-134749628D01*
X110201983Y-134901541D01*
X110201990Y-134901553D01*
X110300535Y-135049034D01*
X110300538Y-135049038D01*
X110425961Y-135174461D01*
X110425965Y-135174464D01*
X110573446Y-135273009D01*
X110573459Y-135273016D01*
X110696363Y-135323923D01*
X110737334Y-135340894D01*
X110737336Y-135340894D01*
X110737341Y-135340896D01*
X110911304Y-135375499D01*
X110911307Y-135375500D01*
X110911309Y-135375500D01*
X111088693Y-135375500D01*
X111088694Y-135375499D01*
X111146682Y-135363964D01*
X111262658Y-135340896D01*
X111262661Y-135340894D01*
X111262666Y-135340894D01*
X111426547Y-135273013D01*
X111574035Y-135174464D01*
X111699464Y-135049035D01*
X111798013Y-134901547D01*
X111798014Y-134901544D01*
X111798016Y-134901541D01*
X111859937Y-134752047D01*
X111903777Y-134697643D01*
X111970071Y-134675578D01*
X111974498Y-134675499D01*
X113062599Y-134675499D01*
X113062601Y-134675499D01*
X113183536Y-134643094D01*
X113291964Y-134580494D01*
X113875319Y-133997139D01*
X113936642Y-133963654D01*
X114006334Y-133968638D01*
X114062267Y-134010510D01*
X114086684Y-134075974D01*
X114087000Y-134084820D01*
X114087000Y-134505602D01*
X114087827Y-134512486D01*
X114097622Y-134594061D01*
X114153139Y-134734843D01*
X114244577Y-134855422D01*
X114365156Y-134946860D01*
X114365157Y-134946860D01*
X114365158Y-134946861D01*
X114505936Y-135002377D01*
X114594398Y-135013000D01*
X114594403Y-135013000D01*
X115580597Y-135013000D01*
X115580602Y-135013000D01*
X115669064Y-135002377D01*
X115788945Y-134955101D01*
X115858529Y-134948820D01*
X115920465Y-134981156D01*
X115922114Y-134982775D01*
X115994154Y-135054815D01*
X116143375Y-135146856D01*
X116143380Y-135146858D01*
X116309802Y-135202005D01*
X116309809Y-135202006D01*
X116412519Y-135212499D01*
X116662499Y-135212499D01*
X117162500Y-135212499D01*
X117412472Y-135212499D01*
X117412486Y-135212498D01*
X117515197Y-135202005D01*
X117681619Y-135146858D01*
X117681624Y-135146856D01*
X117830845Y-135054815D01*
X117954815Y-134930845D01*
X118046856Y-134781624D01*
X118046858Y-134781619D01*
X118102005Y-134615197D01*
X118102006Y-134615190D01*
X118112499Y-134512486D01*
X118112500Y-134512473D01*
X118112500Y-134450000D01*
X117162500Y-134450000D01*
X117162500Y-135212499D01*
X116662499Y-135212499D01*
X116662500Y-135212498D01*
X116662500Y-133950000D01*
X117162500Y-133950000D01*
X118112499Y-133950000D01*
X118112499Y-133887528D01*
X118112498Y-133887513D01*
X118102005Y-133784802D01*
X118046858Y-133618380D01*
X118046856Y-133618375D01*
X117954815Y-133469154D01*
X117830845Y-133345184D01*
X117681624Y-133253143D01*
X117681619Y-133253141D01*
X117515197Y-133197994D01*
X117515190Y-133197993D01*
X117412486Y-133187500D01*
X117162500Y-133187500D01*
X117162500Y-133950000D01*
X116662500Y-133950000D01*
X116662500Y-133187500D01*
X116412529Y-133187500D01*
X116412512Y-133187501D01*
X116309802Y-133197994D01*
X116143380Y-133253141D01*
X116143375Y-133253143D01*
X115994154Y-133345184D01*
X115922113Y-133417224D01*
X115906570Y-133425710D01*
X115894075Y-133438256D01*
X115876545Y-133442105D01*
X115860790Y-133450709D01*
X115843064Y-133449458D01*
X115825832Y-133453243D01*
X115793720Y-133445977D01*
X115791330Y-133445809D01*
X115790070Y-133445341D01*
X115669064Y-133397623D01*
X115657657Y-133396253D01*
X115643897Y-133391152D01*
X115627168Y-133378681D01*
X115607990Y-133370454D01*
X115599720Y-133358218D01*
X115587880Y-133349392D01*
X115580549Y-133329855D01*
X115568864Y-133312567D01*
X115565180Y-133288897D01*
X115563334Y-133283976D01*
X115563961Y-133281063D01*
X115563000Y-133274885D01*
X115563000Y-132028034D01*
X115582685Y-131960995D01*
X115612073Y-131929231D01*
X115692922Y-131867922D01*
X115763944Y-131774266D01*
X115789486Y-131740584D01*
X115791317Y-131741972D01*
X115832607Y-131701689D01*
X115901058Y-131687682D01*
X115966216Y-131712905D01*
X116007394Y-131769351D01*
X116008391Y-131772241D01*
X116015640Y-131794115D01*
X116015643Y-131794124D01*
X116107684Y-131943345D01*
X116231654Y-132067315D01*
X116380875Y-132159356D01*
X116380880Y-132159358D01*
X116547302Y-132214505D01*
X116547309Y-132214506D01*
X116650019Y-132224999D01*
X117200000Y-132224999D01*
X117249972Y-132224999D01*
X117249986Y-132224998D01*
X117352697Y-132214505D01*
X117519119Y-132159358D01*
X117519124Y-132159356D01*
X117668345Y-132067315D01*
X117792315Y-131943345D01*
X117884356Y-131794124D01*
X117884358Y-131794119D01*
X117939505Y-131627697D01*
X117939506Y-131627690D01*
X117949999Y-131524986D01*
X117950000Y-131524973D01*
X117950000Y-131250000D01*
X117200000Y-131250000D01*
X117200000Y-132224999D01*
X116650019Y-132224999D01*
X116699999Y-132224998D01*
X116700000Y-132224998D01*
X116700000Y-130750000D01*
X117200000Y-130750000D01*
X117949999Y-130750000D01*
X117949999Y-130475028D01*
X117949998Y-130475013D01*
X117939505Y-130372302D01*
X117884358Y-130205880D01*
X117884356Y-130205875D01*
X117792315Y-130056654D01*
X117668345Y-129932684D01*
X117519124Y-129840643D01*
X117519119Y-129840641D01*
X117352697Y-129785494D01*
X117352690Y-129785493D01*
X117249986Y-129775000D01*
X117200000Y-129775000D01*
X117200000Y-130750000D01*
X116700000Y-130750000D01*
X116700000Y-129775000D01*
X116680159Y-129755159D01*
X116662947Y-129723637D01*
X116646674Y-129693837D01*
X116649715Y-129651321D01*
X116651658Y-129624144D01*
X116651662Y-129624137D01*
X116680155Y-129579802D01*
X117223139Y-129036819D01*
X117284462Y-129003334D01*
X117310820Y-129000500D01*
X117893097Y-129000500D01*
X117893102Y-129000500D01*
X117981564Y-128989877D01*
X118122342Y-128934361D01*
X118242922Y-128842922D01*
X118334361Y-128722342D01*
X118384646Y-128594826D01*
X118427551Y-128539685D01*
X118493459Y-128516492D01*
X118561443Y-128532612D01*
X118609920Y-128582929D01*
X118615348Y-128594814D01*
X118632968Y-128639494D01*
X118665639Y-128722343D01*
X118757077Y-128842922D01*
X118884416Y-128939486D01*
X118882877Y-128941515D01*
X118922549Y-128982167D01*
X118937000Y-129040262D01*
X118937000Y-130349899D01*
X118937000Y-130475101D01*
X118944316Y-130502403D01*
X118969405Y-130596037D01*
X118969406Y-130596038D01*
X118975723Y-130606980D01*
X118992193Y-130674881D01*
X118989951Y-130693168D01*
X118949500Y-130896530D01*
X118949500Y-131103469D01*
X118989868Y-131306412D01*
X118989870Y-131306420D01*
X119069058Y-131497596D01*
X119184024Y-131669657D01*
X119330342Y-131815975D01*
X119330345Y-131815977D01*
X119502402Y-131930941D01*
X119693580Y-132010130D01*
X119893514Y-132049899D01*
X119896530Y-132050499D01*
X119896534Y-132050500D01*
X119896535Y-132050500D01*
X120103466Y-132050500D01*
X120103467Y-132050499D01*
X120306420Y-132010130D01*
X120497598Y-131930941D01*
X120669655Y-131815977D01*
X120815977Y-131669655D01*
X120930941Y-131497598D01*
X121010130Y-131306420D01*
X121050500Y-131103465D01*
X121050500Y-130896535D01*
X121010130Y-130693580D01*
X120930941Y-130502402D01*
X120815977Y-130330345D01*
X120815975Y-130330342D01*
X120669658Y-130184025D01*
X120669655Y-130184023D01*
X120562850Y-130112659D01*
X120497598Y-130069059D01*
X120428986Y-130040639D01*
X120306420Y-129989870D01*
X120306412Y-129989868D01*
X120103469Y-129949500D01*
X120103465Y-129949500D01*
X120012000Y-129949500D01*
X119944961Y-129929815D01*
X119899206Y-129877011D01*
X119888000Y-129825500D01*
X119888000Y-129040262D01*
X119907685Y-128973223D01*
X119941791Y-128941077D01*
X119940584Y-128939486D01*
X120067922Y-128842922D01*
X120122272Y-128771251D01*
X120159361Y-128722342D01*
X120214877Y-128581564D01*
X120225500Y-128493102D01*
X120225500Y-127551821D01*
X120245185Y-127484782D01*
X120297989Y-127439027D01*
X120317401Y-127432047D01*
X120402384Y-127409277D01*
X120539316Y-127330220D01*
X120651120Y-127218416D01*
X120730177Y-127081484D01*
X120771100Y-126928757D01*
X120771100Y-126770643D01*
X120730177Y-126617916D01*
X120700963Y-126567315D01*
X120651124Y-126480990D01*
X120651118Y-126480982D01*
X120539317Y-126369181D01*
X120539309Y-126369175D01*
X120402390Y-126290126D01*
X120402386Y-126290124D01*
X120402384Y-126290123D01*
X120249657Y-126249200D01*
X120091543Y-126249200D01*
X119938816Y-126290123D01*
X119938809Y-126290126D01*
X119801890Y-126369175D01*
X119801882Y-126369181D01*
X119690081Y-126480982D01*
X119690075Y-126480990D01*
X119611026Y-126617909D01*
X119611023Y-126617914D01*
X119576101Y-126748246D01*
X119568082Y-126762133D01*
X119565158Y-126775579D01*
X119544008Y-126803833D01*
X119384658Y-126963182D01*
X119323337Y-126996666D01*
X119296979Y-126999500D01*
X119106898Y-126999500D01*
X119067853Y-127004188D01*
X119018438Y-127010122D01*
X118877656Y-127065639D01*
X118757077Y-127157077D01*
X118665639Y-127277656D01*
X118635665Y-127353663D01*
X118615353Y-127405171D01*
X118572449Y-127460314D01*
X118506541Y-127483507D01*
X118438556Y-127467386D01*
X118390080Y-127417070D01*
X118384648Y-127405178D01*
X118334361Y-127277658D01*
X118334360Y-127277657D01*
X118334360Y-127277656D01*
X118242922Y-127157077D01*
X118122343Y-127065639D01*
X117981561Y-127010122D01*
X117935926Y-127004642D01*
X117893102Y-126999500D01*
X117281898Y-126999500D01*
X117242853Y-127004188D01*
X117193438Y-127010122D01*
X117052656Y-127065639D01*
X116932077Y-127157077D01*
X116840639Y-127277656D01*
X116785122Y-127418438D01*
X116781234Y-127450819D01*
X116774500Y-127506898D01*
X116774500Y-127506903D01*
X116774500Y-128089179D01*
X116754815Y-128156218D01*
X116738181Y-128176860D01*
X114976860Y-129938181D01*
X114915537Y-129971666D01*
X114889179Y-129974500D01*
X114756898Y-129974500D01*
X114717853Y-129979188D01*
X114668438Y-129985122D01*
X114527656Y-130040639D01*
X114407077Y-130132077D01*
X114315639Y-130252656D01*
X114260122Y-130393438D01*
X114256448Y-130424036D01*
X114249500Y-130481898D01*
X114249500Y-131518102D01*
X114250327Y-131524986D01*
X114260122Y-131606561D01*
X114315639Y-131747343D01*
X114407077Y-131867921D01*
X114407078Y-131867922D01*
X114437390Y-131890908D01*
X114478913Y-131947099D01*
X114483466Y-132016820D01*
X114450146Y-132077393D01*
X112839360Y-133688180D01*
X112778037Y-133721665D01*
X112751679Y-133724499D01*
X111974497Y-133724499D01*
X111907458Y-133704814D01*
X111861703Y-133652010D01*
X111859964Y-133648017D01*
X111798013Y-133498453D01*
X111798011Y-133498450D01*
X111798009Y-133498446D01*
X111699464Y-133350965D01*
X111699461Y-133350961D01*
X111574038Y-133225538D01*
X111574034Y-133225535D01*
X111426553Y-133126990D01*
X111426540Y-133126983D01*
X111262667Y-133059106D01*
X111262658Y-133059103D01*
X111088694Y-133024500D01*
X111088691Y-133024500D01*
X110911309Y-133024500D01*
X110911306Y-133024500D01*
X110737341Y-133059103D01*
X110737332Y-133059106D01*
X110573459Y-133126983D01*
X110573446Y-133126990D01*
X110425965Y-133225535D01*
X110425961Y-133225538D01*
X110300538Y-133350961D01*
X110300535Y-133350965D01*
X110201990Y-133498446D01*
X110201983Y-133498459D01*
X110139061Y-133650371D01*
X110095221Y-133704775D01*
X110028927Y-133726840D01*
X109961227Y-133709561D01*
X109913616Y-133658424D01*
X109900500Y-133602919D01*
X109900500Y-133531903D01*
X109900500Y-133531898D01*
X109889877Y-133443436D01*
X109834361Y-133302658D01*
X109834360Y-133302657D01*
X109834360Y-133302656D01*
X109742922Y-133182077D01*
X109622343Y-133090639D01*
X109481561Y-133035122D01*
X109435926Y-133029642D01*
X109393102Y-133024500D01*
X108606898Y-133024500D01*
X108567853Y-133029188D01*
X108518438Y-133035122D01*
X108377656Y-133090639D01*
X108257077Y-133182077D01*
X108165639Y-133302656D01*
X108110122Y-133443438D01*
X108104188Y-133492853D01*
X108099500Y-133531898D01*
X101000000Y-133531898D01*
X101000000Y-123516877D01*
X101019685Y-123449838D01*
X101072489Y-123404083D01*
X101141647Y-123394139D01*
X101153928Y-123396543D01*
X101156176Y-123397102D01*
X101198903Y-123400000D01*
X101650000Y-123400000D01*
X101650000Y-120900000D01*
X102150000Y-120900000D01*
X102150000Y-123400000D01*
X102601097Y-123400000D01*
X102643824Y-123397102D01*
X102828523Y-123351168D01*
X102999021Y-123266609D01*
X103144760Y-123149461D01*
X103162942Y-123141955D01*
X103178638Y-123130105D01*
X103194571Y-123128899D01*
X103209344Y-123122802D01*
X103228697Y-123126318D01*
X103248308Y-123124835D01*
X103271873Y-123134162D01*
X103278089Y-123135292D01*
X103281428Y-123137033D01*
X103284042Y-123138446D01*
X103295730Y-123145512D01*
X103298984Y-123146526D01*
X103307924Y-123151360D01*
X103329650Y-123172909D01*
X103352890Y-123192824D01*
X103354226Y-123197284D01*
X103357531Y-123200562D01*
X103364157Y-123230434D01*
X103372942Y-123259754D01*
X103371654Y-123264228D01*
X103372663Y-123268773D01*
X103362088Y-123297485D01*
X103353626Y-123326901D01*
X103349236Y-123332378D01*
X103348515Y-123334337D01*
X103346367Y-123335958D01*
X103336625Y-123348116D01*
X102705888Y-123978853D01*
X102705884Y-123978858D01*
X102684138Y-124011404D01*
X102678720Y-124019514D01*
X102662780Y-124043370D01*
X102629223Y-124093591D01*
X102576421Y-124221067D01*
X102576418Y-124221077D01*
X102549500Y-124356404D01*
X102549500Y-124666306D01*
X102529815Y-124733345D01*
X102524304Y-124741231D01*
X102515640Y-124752655D01*
X102515637Y-124752661D01*
X102460123Y-124893434D01*
X102460123Y-124893436D01*
X102449500Y-124981898D01*
X102449500Y-126018102D01*
X102450327Y-126024986D01*
X102460122Y-126106561D01*
X102460122Y-126106563D01*
X102460123Y-126106564D01*
X102515639Y-126247342D01*
X102524302Y-126258766D01*
X102549127Y-126324076D01*
X102549500Y-126333693D01*
X102549500Y-127481006D01*
X102549500Y-127618994D01*
X102549500Y-127618996D01*
X102549499Y-127618996D01*
X102576418Y-127754322D01*
X102576421Y-127754332D01*
X102629222Y-127881807D01*
X102705887Y-127996545D01*
X102705888Y-127996546D01*
X103113181Y-128403838D01*
X103146666Y-128465161D01*
X103149500Y-128491519D01*
X103149500Y-128603469D01*
X103189868Y-128806412D01*
X103189870Y-128806420D01*
X103245828Y-128941515D01*
X103269059Y-128997598D01*
X103300140Y-129044114D01*
X103384024Y-129169657D01*
X103530342Y-129315975D01*
X103530345Y-129315977D01*
X103702402Y-129430941D01*
X103893580Y-129510130D01*
X104096530Y-129550499D01*
X104096534Y-129550500D01*
X104096535Y-129550500D01*
X104303466Y-129550500D01*
X104303467Y-129550499D01*
X104506420Y-129510130D01*
X104697598Y-129430941D01*
X104869655Y-129315977D01*
X104948814Y-129236817D01*
X105010135Y-129203334D01*
X105036494Y-129200500D01*
X106630496Y-129200500D01*
X106721540Y-129182389D01*
X106765828Y-129173580D01*
X106859029Y-129134975D01*
X106893307Y-129120777D01*
X106893308Y-129120776D01*
X106893311Y-129120775D01*
X107008043Y-129044114D01*
X107790413Y-128261743D01*
X107793828Y-128256633D01*
X107867075Y-128147011D01*
X107905826Y-128053457D01*
X107919880Y-128019529D01*
X107934652Y-127945264D01*
X107946800Y-127884193D01*
X107946800Y-127746207D01*
X107946800Y-127746204D01*
X107919881Y-127610877D01*
X107919880Y-127610876D01*
X107919880Y-127610872D01*
X107902560Y-127569058D01*
X107867078Y-127483395D01*
X107867071Y-127483382D01*
X107790414Y-127368658D01*
X107790411Y-127368654D01*
X107692845Y-127271088D01*
X107692841Y-127271085D01*
X107578117Y-127194428D01*
X107578104Y-127194421D01*
X107450632Y-127141621D01*
X107450622Y-127141618D01*
X107315295Y-127114700D01*
X107315293Y-127114700D01*
X107177307Y-127114700D01*
X107177303Y-127114700D01*
X107075706Y-127134909D01*
X107075702Y-127134910D01*
X107068891Y-127136265D01*
X107041971Y-127141620D01*
X107004807Y-127157014D01*
X106999963Y-127159020D01*
X106999958Y-127159022D01*
X106914491Y-127194423D01*
X106831018Y-127250198D01*
X106831017Y-127250200D01*
X106816585Y-127259843D01*
X106799751Y-127271091D01*
X106307662Y-127763181D01*
X106246339Y-127796666D01*
X106219981Y-127799500D01*
X105036494Y-127799500D01*
X104969455Y-127779815D01*
X104948817Y-127763185D01*
X104869655Y-127684023D01*
X104697598Y-127569059D01*
X104506420Y-127489870D01*
X104506412Y-127489868D01*
X104303469Y-127449500D01*
X104303465Y-127449500D01*
X104191519Y-127449500D01*
X104162078Y-127440855D01*
X104132092Y-127434332D01*
X104127076Y-127430577D01*
X104124480Y-127429815D01*
X104103838Y-127413181D01*
X103986819Y-127296162D01*
X103953334Y-127234839D01*
X103950500Y-127208481D01*
X103950500Y-126333693D01*
X103970185Y-126266654D01*
X103975691Y-126258774D01*
X103984361Y-126247342D01*
X103984361Y-126247341D01*
X103989488Y-126240581D01*
X103991319Y-126241970D01*
X104032607Y-126201689D01*
X104101058Y-126187682D01*
X104166216Y-126212905D01*
X104207394Y-126269351D01*
X104208391Y-126272241D01*
X104215640Y-126294115D01*
X104215643Y-126294124D01*
X104307684Y-126443345D01*
X104431654Y-126567315D01*
X104580875Y-126659356D01*
X104580880Y-126659358D01*
X104747302Y-126714505D01*
X104747309Y-126714506D01*
X104850019Y-126724999D01*
X105400000Y-126724999D01*
X105449972Y-126724999D01*
X105449986Y-126724998D01*
X105552697Y-126714505D01*
X105719119Y-126659358D01*
X105719124Y-126659356D01*
X105868345Y-126567315D01*
X105992315Y-126443345D01*
X106084356Y-126294124D01*
X106084358Y-126294119D01*
X106139505Y-126127697D01*
X106139506Y-126127690D01*
X106149999Y-126024986D01*
X106150000Y-126024973D01*
X106150000Y-125750000D01*
X105400000Y-125750000D01*
X105400000Y-126724999D01*
X104850019Y-126724999D01*
X104899999Y-126724998D01*
X104900000Y-126724998D01*
X104900000Y-124275000D01*
X104899999Y-124274999D01*
X104850029Y-124275000D01*
X104850011Y-124275001D01*
X104747302Y-124285494D01*
X104695454Y-124302675D01*
X104625625Y-124305077D01*
X104565584Y-124269345D01*
X104534391Y-124206824D01*
X104541952Y-124137365D01*
X104568769Y-124097288D01*
X104744112Y-123921945D01*
X104744112Y-123921944D01*
X104744114Y-123921943D01*
X104820775Y-123807211D01*
X104825528Y-123795738D01*
X104848613Y-123740003D01*
X104873580Y-123679728D01*
X104897495Y-123559501D01*
X104900500Y-123544396D01*
X104900500Y-123300250D01*
X104920185Y-123233211D01*
X104972989Y-123187456D01*
X104987595Y-123181869D01*
X105104270Y-123145512D01*
X105123046Y-123134162D01*
X105244648Y-123060651D01*
X105244647Y-123060651D01*
X105244653Y-123060648D01*
X105262319Y-123042982D01*
X105323642Y-123009497D01*
X105393334Y-123014481D01*
X105437681Y-123042982D01*
X105455347Y-123060648D01*
X105455351Y-123060651D01*
X105595727Y-123145511D01*
X105595736Y-123145514D01*
X105614497Y-123151360D01*
X105752343Y-123194315D01*
X105820406Y-123200500D01*
X106221800Y-123200500D01*
X106288839Y-123220185D01*
X106334594Y-123272989D01*
X106345800Y-123324500D01*
X106345800Y-124726434D01*
X106326115Y-124793473D01*
X106273311Y-124839228D01*
X106204153Y-124849172D01*
X106140597Y-124820147D01*
X106104094Y-124765438D01*
X106084358Y-124705880D01*
X106084356Y-124705875D01*
X105992315Y-124556654D01*
X105868345Y-124432684D01*
X105719124Y-124340643D01*
X105719119Y-124340641D01*
X105552697Y-124285494D01*
X105552690Y-124285493D01*
X105449986Y-124275000D01*
X105400000Y-124275000D01*
X105400000Y-125250000D01*
X106149999Y-125250000D01*
X106149999Y-125206503D01*
X106169684Y-125139464D01*
X106222488Y-125093709D01*
X106291646Y-125083765D01*
X106355202Y-125112790D01*
X106388560Y-125159051D01*
X106448283Y-125303241D01*
X106448290Y-125303253D01*
X106546835Y-125450734D01*
X106546838Y-125450738D01*
X106672261Y-125576161D01*
X106672265Y-125576164D01*
X106819746Y-125674709D01*
X106819759Y-125674716D01*
X106942663Y-125725623D01*
X106983634Y-125742594D01*
X106983636Y-125742594D01*
X106983641Y-125742596D01*
X107157604Y-125777199D01*
X107157607Y-125777200D01*
X107157609Y-125777200D01*
X107334993Y-125777200D01*
X107334994Y-125777199D01*
X107392982Y-125765664D01*
X107508958Y-125742596D01*
X107508961Y-125742594D01*
X107508966Y-125742594D01*
X107672847Y-125674713D01*
X107820335Y-125576164D01*
X107945764Y-125450735D01*
X108044313Y-125303247D01*
X108112194Y-125139366D01*
X108117481Y-125112790D01*
X108135264Y-125023382D01*
X108146800Y-124965391D01*
X108146800Y-122807609D01*
X108146136Y-122804270D01*
X108112195Y-122633634D01*
X108049764Y-122482914D01*
X108044313Y-122469753D01*
X108032687Y-122452354D01*
X107945764Y-122322265D01*
X107945761Y-122322261D01*
X107836819Y-122213319D01*
X107803334Y-122151996D01*
X107800500Y-122125638D01*
X107800500Y-121720408D01*
X107800500Y-121720406D01*
X107794315Y-121652343D01*
X107745512Y-121495730D01*
X107745511Y-121495727D01*
X107660651Y-121355351D01*
X107660648Y-121355347D01*
X107544652Y-121239351D01*
X107544648Y-121239348D01*
X107404272Y-121154488D01*
X107404263Y-121154485D01*
X107247664Y-121105687D01*
X107247662Y-121105686D01*
X107247657Y-121105685D01*
X107179594Y-121099500D01*
X105820406Y-121099500D01*
X105752343Y-121105685D01*
X105752339Y-121105686D01*
X105752335Y-121105687D01*
X105595736Y-121154485D01*
X105595727Y-121154488D01*
X105455351Y-121239348D01*
X105455346Y-121239352D01*
X105437679Y-121257019D01*
X105376355Y-121290503D01*
X105306664Y-121285517D01*
X105278722Y-121270802D01*
X105269919Y-121264618D01*
X105244653Y-121239352D01*
X105167919Y-121192964D01*
X105164422Y-121190508D01*
X105145197Y-121166382D01*
X105124362Y-121143630D01*
X105123251Y-121138840D01*
X105120880Y-121135865D01*
X105119561Y-121122935D01*
X105111700Y-121089042D01*
X105111700Y-118005251D01*
X105131385Y-117938212D01*
X105169727Y-117900258D01*
X105202262Y-117879816D01*
X105329816Y-117752262D01*
X105425789Y-117599522D01*
X105485368Y-117429255D01*
X105500500Y-117294954D01*
X105500500Y-116885700D01*
X105520185Y-116818661D01*
X105572989Y-116772906D01*
X105624500Y-116761700D01*
X107315295Y-116761700D01*
X107406341Y-116743589D01*
X107450628Y-116734780D01*
X107578111Y-116681975D01*
X107692842Y-116605314D01*
X107790414Y-116507742D01*
X107867075Y-116393011D01*
X107868959Y-116388464D01*
X107907030Y-116296551D01*
X107919880Y-116265528D01*
X107941452Y-116157078D01*
X107946800Y-116130195D01*
X107946800Y-115992204D01*
X107919881Y-115856877D01*
X107919880Y-115856876D01*
X107919880Y-115856872D01*
X107900669Y-115810493D01*
X107867078Y-115729395D01*
X107867071Y-115729382D01*
X107790414Y-115614658D01*
X107790411Y-115614654D01*
X107692845Y-115517088D01*
X107692841Y-115517085D01*
X107578117Y-115440428D01*
X107578104Y-115440421D01*
X107450632Y-115387621D01*
X107450622Y-115387618D01*
X107315295Y-115360700D01*
X107315293Y-115360700D01*
X105624500Y-115360700D01*
X105615814Y-115358149D01*
X105606853Y-115359438D01*
X105582812Y-115348459D01*
X105557461Y-115341015D01*
X105551533Y-115334174D01*
X105543297Y-115330413D01*
X105529007Y-115308178D01*
X105511706Y-115288211D01*
X105509418Y-115277696D01*
X105505523Y-115271635D01*
X105500500Y-115236700D01*
X105500500Y-114405043D01*
X105500499Y-114405039D01*
X105485369Y-114270750D01*
X105485368Y-114270745D01*
X105433946Y-114123789D01*
X105425789Y-114100478D01*
X105329816Y-113947738D01*
X105318758Y-113936680D01*
X105285273Y-113875357D01*
X105290257Y-113805665D01*
X105332129Y-113749732D01*
X105397593Y-113725315D01*
X105406439Y-113724999D01*
X105449972Y-113724999D01*
X105449986Y-113724998D01*
X105552697Y-113714505D01*
X105719119Y-113659358D01*
X105719124Y-113659356D01*
X105868345Y-113567315D01*
X105992315Y-113443345D01*
X106084356Y-113294124D01*
X106084358Y-113294119D01*
X106139505Y-113127697D01*
X106139506Y-113127690D01*
X106149999Y-113024986D01*
X106150000Y-113024973D01*
X106150000Y-112750000D01*
X105274000Y-112750000D01*
X105265314Y-112747449D01*
X105256353Y-112748738D01*
X105232312Y-112737759D01*
X105206961Y-112730315D01*
X105201033Y-112723474D01*
X105192797Y-112719713D01*
X105178507Y-112697478D01*
X105161206Y-112677511D01*
X105158918Y-112666996D01*
X105155023Y-112660935D01*
X105150000Y-112626000D01*
X105150000Y-112543753D01*
X108650000Y-112543753D01*
X108650000Y-112756246D01*
X108683242Y-112966127D01*
X108683242Y-112966130D01*
X108748904Y-113168217D01*
X108845375Y-113357550D01*
X108884728Y-113411716D01*
X109517037Y-112779408D01*
X109534075Y-112842993D01*
X109599901Y-112957007D01*
X109692993Y-113050099D01*
X109807007Y-113115925D01*
X109870590Y-113132962D01*
X109238282Y-113765269D01*
X109238282Y-113765270D01*
X109292449Y-113804624D01*
X109481780Y-113901094D01*
X109510705Y-113910492D01*
X109568381Y-113949929D01*
X109595580Y-114014287D01*
X109583667Y-114083134D01*
X109536424Y-114134610D01*
X109528685Y-114138908D01*
X109397004Y-114206004D01*
X109250505Y-114312441D01*
X109250500Y-114312445D01*
X109122445Y-114440500D01*
X109122441Y-114440505D01*
X109016006Y-114587002D01*
X108933788Y-114748360D01*
X108933787Y-114748363D01*
X108877829Y-114920589D01*
X108849500Y-115099448D01*
X108849500Y-115280551D01*
X108877829Y-115459410D01*
X108933787Y-115631636D01*
X108933788Y-115631639D01*
X109016006Y-115792997D01*
X109122441Y-115939494D01*
X109122445Y-115939499D01*
X109250500Y-116067554D01*
X109250505Y-116067558D01*
X109373719Y-116157077D01*
X109397006Y-116173996D01*
X109502484Y-116227740D01*
X109558360Y-116256211D01*
X109558363Y-116256212D01*
X109624369Y-116277658D01*
X109730591Y-116312171D01*
X109803639Y-116323740D01*
X109890678Y-116337527D01*
X109953813Y-116367456D01*
X109990744Y-116426768D01*
X109989746Y-116496631D01*
X109951136Y-116554863D01*
X109890678Y-116582473D01*
X109730589Y-116607829D01*
X109558363Y-116663787D01*
X109558360Y-116663788D01*
X109397002Y-116746006D01*
X109250505Y-116852441D01*
X109250500Y-116852445D01*
X109122445Y-116980500D01*
X109122441Y-116980505D01*
X109016006Y-117127002D01*
X108933788Y-117288360D01*
X108933787Y-117288363D01*
X108877829Y-117460589D01*
X108849500Y-117639448D01*
X108849500Y-117820551D01*
X108877829Y-117999410D01*
X108933787Y-118171636D01*
X108933788Y-118171639D01*
X109016006Y-118332997D01*
X109122441Y-118479494D01*
X109122445Y-118479499D01*
X109250500Y-118607554D01*
X109250505Y-118607558D01*
X109378287Y-118700396D01*
X109397006Y-118713996D01*
X109492002Y-118762399D01*
X109558360Y-118796211D01*
X109558363Y-118796212D01*
X109644476Y-118824191D01*
X109730591Y-118852171D01*
X109803639Y-118863740D01*
X109890678Y-118877527D01*
X109953813Y-118907456D01*
X109990744Y-118966768D01*
X109989746Y-119036631D01*
X109951136Y-119094863D01*
X109890678Y-119122473D01*
X109730589Y-119147829D01*
X109558363Y-119203787D01*
X109558360Y-119203788D01*
X109397002Y-119286006D01*
X109250505Y-119392441D01*
X109250500Y-119392445D01*
X109122445Y-119520500D01*
X109122441Y-119520505D01*
X109016006Y-119667002D01*
X108933788Y-119828360D01*
X108933787Y-119828363D01*
X108877829Y-120000589D01*
X108849500Y-120179448D01*
X108849500Y-120360551D01*
X108877829Y-120539410D01*
X108933787Y-120711636D01*
X108933788Y-120711639D01*
X108986951Y-120815975D01*
X109000681Y-120842922D01*
X109016006Y-120872997D01*
X109122441Y-121019494D01*
X109122445Y-121019499D01*
X109250500Y-121147554D01*
X109250505Y-121147558D01*
X109330536Y-121205703D01*
X109397006Y-121253996D01*
X109468655Y-121290503D01*
X109558360Y-121336211D01*
X109558363Y-121336212D01*
X109644476Y-121364191D01*
X109730591Y-121392171D01*
X109803639Y-121403740D01*
X109890678Y-121417527D01*
X109953813Y-121447456D01*
X109990744Y-121506768D01*
X109989746Y-121576631D01*
X109951136Y-121634863D01*
X109890678Y-121662473D01*
X109730589Y-121687829D01*
X109558363Y-121743787D01*
X109558360Y-121743788D01*
X109397002Y-121826006D01*
X109250505Y-121932441D01*
X109250500Y-121932445D01*
X109122445Y-122060500D01*
X109122441Y-122060505D01*
X109016006Y-122207002D01*
X108933788Y-122368360D01*
X108933787Y-122368363D01*
X108877829Y-122540589D01*
X108849500Y-122719448D01*
X108849500Y-122900551D01*
X108877829Y-123079410D01*
X108933787Y-123251636D01*
X108933788Y-123251639D01*
X108982947Y-123348116D01*
X109012647Y-123406406D01*
X109016006Y-123412997D01*
X109122441Y-123559494D01*
X109122445Y-123559499D01*
X109250500Y-123687554D01*
X109250505Y-123687558D01*
X109371496Y-123775462D01*
X109397006Y-123793996D01*
X109502484Y-123847740D01*
X109558360Y-123876211D01*
X109558363Y-123876212D01*
X109644476Y-123904191D01*
X109730591Y-123932171D01*
X109803639Y-123943740D01*
X109890678Y-123957527D01*
X109953813Y-123987456D01*
X109990744Y-124046768D01*
X109989746Y-124116631D01*
X109951136Y-124174863D01*
X109890678Y-124202473D01*
X109730589Y-124227829D01*
X109558363Y-124283787D01*
X109558360Y-124283788D01*
X109397002Y-124366006D01*
X109250505Y-124472441D01*
X109250500Y-124472445D01*
X109122445Y-124600500D01*
X109122441Y-124600505D01*
X109016006Y-124747002D01*
X108933788Y-124908360D01*
X108933787Y-124908363D01*
X108877829Y-125080589D01*
X108849500Y-125259448D01*
X108849500Y-125440551D01*
X108877829Y-125619410D01*
X108933787Y-125791636D01*
X108933788Y-125791639D01*
X109016006Y-125952997D01*
X109122441Y-126099494D01*
X109122445Y-126099499D01*
X109250500Y-126227554D01*
X109250505Y-126227558D01*
X109369671Y-126314136D01*
X109397006Y-126333996D01*
X109502484Y-126387740D01*
X109558360Y-126416211D01*
X109558363Y-126416212D01*
X109641872Y-126443345D01*
X109730591Y-126472171D01*
X109803639Y-126483740D01*
X109890678Y-126497527D01*
X109953813Y-126527456D01*
X109990744Y-126586768D01*
X109989746Y-126656631D01*
X109951136Y-126714863D01*
X109890678Y-126742473D01*
X109730589Y-126767829D01*
X109558363Y-126823787D01*
X109558360Y-126823788D01*
X109397002Y-126906006D01*
X109250505Y-127012441D01*
X109250500Y-127012445D01*
X109122445Y-127140500D01*
X109122441Y-127140505D01*
X109016006Y-127287002D01*
X108933788Y-127448360D01*
X108933787Y-127448363D01*
X108877829Y-127620589D01*
X108849500Y-127799448D01*
X108849500Y-127980551D01*
X108877829Y-128159410D01*
X108933787Y-128331636D01*
X108933788Y-128331639D01*
X108974383Y-128411309D01*
X109015252Y-128491519D01*
X109016006Y-128492997D01*
X109122441Y-128639494D01*
X109122445Y-128639499D01*
X109250500Y-128767554D01*
X109250505Y-128767558D01*
X109303984Y-128806412D01*
X109397006Y-128873996D01*
X109500139Y-128926545D01*
X109558360Y-128956211D01*
X109558363Y-128956212D01*
X109638247Y-128982167D01*
X109730591Y-129012171D01*
X109813429Y-129025291D01*
X109909449Y-129040500D01*
X109909454Y-129040500D01*
X110090551Y-129040500D01*
X110177259Y-129026765D01*
X110269409Y-129012171D01*
X110441639Y-128956211D01*
X110602994Y-128873996D01*
X110749501Y-128767553D01*
X110877553Y-128639501D01*
X110983996Y-128492994D01*
X111066211Y-128331639D01*
X111122171Y-128159409D01*
X111147631Y-127998663D01*
X111150500Y-127980551D01*
X111150500Y-127799448D01*
X111134019Y-127695397D01*
X111122171Y-127620591D01*
X111078045Y-127484782D01*
X111066212Y-127448363D01*
X111066211Y-127448360D01*
X111022787Y-127363138D01*
X110983996Y-127287006D01*
X110946095Y-127234839D01*
X110877558Y-127140505D01*
X110877554Y-127140500D01*
X110749499Y-127012445D01*
X110749494Y-127012441D01*
X110602997Y-126906006D01*
X110602996Y-126906005D01*
X110602994Y-126906004D01*
X110551300Y-126879664D01*
X110441639Y-126823788D01*
X110441636Y-126823787D01*
X110269410Y-126767829D01*
X110109321Y-126742473D01*
X110046186Y-126712544D01*
X110009255Y-126653232D01*
X110010253Y-126583370D01*
X110048863Y-126525137D01*
X110109321Y-126497527D01*
X110179425Y-126486422D01*
X110269409Y-126472171D01*
X110441639Y-126416211D01*
X110602994Y-126333996D01*
X110749501Y-126227553D01*
X110877553Y-126099501D01*
X110983996Y-125952994D01*
X111066211Y-125791639D01*
X111122171Y-125619409D01*
X111148886Y-125450738D01*
X111150500Y-125440551D01*
X111150500Y-125259448D01*
X111134019Y-125155397D01*
X111122171Y-125080591D01*
X111066211Y-124908361D01*
X111066211Y-124908360D01*
X111037740Y-124852484D01*
X110983996Y-124747006D01*
X110949843Y-124699998D01*
X110877558Y-124600505D01*
X110877554Y-124600500D01*
X110749499Y-124472445D01*
X110749494Y-124472441D01*
X110602997Y-124366006D01*
X110602996Y-124366005D01*
X110602994Y-124366004D01*
X110551300Y-124339664D01*
X110441639Y-124283788D01*
X110441636Y-124283787D01*
X110269410Y-124227829D01*
X110109321Y-124202473D01*
X110046186Y-124172544D01*
X110009255Y-124113232D01*
X110010253Y-124043370D01*
X110048863Y-123985137D01*
X110109321Y-123957527D01*
X110179425Y-123946422D01*
X110269409Y-123932171D01*
X110441639Y-123876211D01*
X110602994Y-123793996D01*
X110749501Y-123687553D01*
X110877553Y-123559501D01*
X110983996Y-123412994D01*
X111066211Y-123251639D01*
X111122171Y-123079409D01*
X111141828Y-122955301D01*
X111150500Y-122900551D01*
X111150500Y-122719448D01*
X111128072Y-122577850D01*
X111122171Y-122540591D01*
X111066211Y-122368361D01*
X111066211Y-122368360D01*
X111037740Y-122312484D01*
X110983996Y-122207006D01*
X110970396Y-122188287D01*
X110877558Y-122060505D01*
X110877554Y-122060500D01*
X110749499Y-121932445D01*
X110749494Y-121932441D01*
X110602997Y-121826006D01*
X110602996Y-121826005D01*
X110602994Y-121826004D01*
X110527228Y-121787399D01*
X110441639Y-121743788D01*
X110441636Y-121743787D01*
X110269410Y-121687829D01*
X110109321Y-121662473D01*
X110046186Y-121632544D01*
X110009255Y-121573232D01*
X110010253Y-121503370D01*
X110048863Y-121445137D01*
X110109321Y-121417527D01*
X110179425Y-121406422D01*
X110269409Y-121392171D01*
X110441639Y-121336211D01*
X110602994Y-121253996D01*
X110749501Y-121147553D01*
X110877553Y-121019501D01*
X110983996Y-120872994D01*
X111066211Y-120711639D01*
X111122171Y-120539409D01*
X111136765Y-120447259D01*
X111150500Y-120360551D01*
X111150500Y-120179448D01*
X111134019Y-120075397D01*
X111122171Y-120000591D01*
X111066211Y-119828361D01*
X111066211Y-119828360D01*
X111037740Y-119772484D01*
X110983996Y-119667006D01*
X110970396Y-119648287D01*
X110877558Y-119520505D01*
X110877554Y-119520500D01*
X110749499Y-119392445D01*
X110749494Y-119392441D01*
X110602997Y-119286006D01*
X110602996Y-119286005D01*
X110602994Y-119286004D01*
X110551300Y-119259664D01*
X110441639Y-119203788D01*
X110441636Y-119203787D01*
X110269410Y-119147829D01*
X110109321Y-119122473D01*
X110046186Y-119092544D01*
X110009255Y-119033232D01*
X110010253Y-118963370D01*
X110048863Y-118905137D01*
X110109321Y-118877527D01*
X110179425Y-118866422D01*
X110269409Y-118852171D01*
X110441639Y-118796211D01*
X110602994Y-118713996D01*
X110749501Y-118607553D01*
X110877553Y-118479501D01*
X110983996Y-118332994D01*
X111066211Y-118171639D01*
X111122171Y-117999409D01*
X111143891Y-117862274D01*
X111150500Y-117820551D01*
X111150500Y-117639448D01*
X111134019Y-117535397D01*
X111122171Y-117460591D01*
X111066211Y-117288361D01*
X111066211Y-117288360D01*
X111036635Y-117230315D01*
X110983996Y-117127006D01*
X110914374Y-117031179D01*
X110877558Y-116980505D01*
X110877554Y-116980500D01*
X110749499Y-116852445D01*
X110749494Y-116852441D01*
X110602997Y-116746006D01*
X110602996Y-116746005D01*
X110602994Y-116746004D01*
X110551300Y-116719664D01*
X110441639Y-116663788D01*
X110441636Y-116663787D01*
X110269410Y-116607829D01*
X110109321Y-116582473D01*
X110046186Y-116552544D01*
X110009255Y-116493232D01*
X110010253Y-116423370D01*
X110048863Y-116365137D01*
X110109321Y-116337527D01*
X110179425Y-116326422D01*
X110269409Y-116312171D01*
X110441639Y-116256211D01*
X110602994Y-116173996D01*
X110749501Y-116067553D01*
X110877553Y-115939501D01*
X110983996Y-115792994D01*
X111066211Y-115631639D01*
X111122171Y-115459409D01*
X111146124Y-115308178D01*
X111150500Y-115280551D01*
X111150500Y-115099448D01*
X111133145Y-114989877D01*
X111122171Y-114920591D01*
X111094191Y-114834476D01*
X111066212Y-114748363D01*
X111066211Y-114748360D01*
X111037740Y-114692484D01*
X110983996Y-114587006D01*
X110955649Y-114547989D01*
X110877558Y-114440505D01*
X110877554Y-114440500D01*
X110749499Y-114312445D01*
X110749494Y-114312441D01*
X110602995Y-114206004D01*
X110471314Y-114138908D01*
X110420519Y-114090934D01*
X110403724Y-114023113D01*
X110426262Y-113956978D01*
X110480977Y-113913527D01*
X110489295Y-113910492D01*
X110518217Y-113901095D01*
X110707554Y-113804622D01*
X110761716Y-113765270D01*
X110761717Y-113765270D01*
X110129408Y-113132962D01*
X110192993Y-113115925D01*
X110307007Y-113050099D01*
X110400099Y-112957007D01*
X110465925Y-112842993D01*
X110482962Y-112779409D01*
X111115270Y-113411717D01*
X111115270Y-113411716D01*
X111154622Y-113357554D01*
X111251095Y-113168217D01*
X111316757Y-112966130D01*
X111316757Y-112966127D01*
X111350000Y-112756246D01*
X111350000Y-112543753D01*
X111316757Y-112333872D01*
X111316757Y-112333869D01*
X111251095Y-112131782D01*
X111154624Y-111942449D01*
X111115270Y-111888282D01*
X111115269Y-111888282D01*
X110482962Y-112520590D01*
X110465925Y-112457007D01*
X110400099Y-112342993D01*
X110307007Y-112249901D01*
X110192993Y-112184075D01*
X110129409Y-112167037D01*
X110761716Y-111534728D01*
X110707550Y-111495375D01*
X110706786Y-111494986D01*
X110706546Y-111494759D01*
X110703396Y-111492829D01*
X110703801Y-111492167D01*
X110655988Y-111447013D01*
X110639191Y-111379192D01*
X110661726Y-111313057D01*
X110716440Y-111269604D01*
X110763076Y-111260499D01*
X110894864Y-111260499D01*
X110894879Y-111260497D01*
X110894882Y-111260497D01*
X110919987Y-111257586D01*
X110919988Y-111257585D01*
X110919991Y-111257585D01*
X111022765Y-111212206D01*
X111102206Y-111132765D01*
X111147585Y-111029991D01*
X111150500Y-111004865D01*
X111150499Y-109215136D01*
X111150497Y-109215117D01*
X111147586Y-109190012D01*
X111147585Y-109190010D01*
X111147585Y-109190009D01*
X111102206Y-109087235D01*
X111022765Y-109007794D01*
X111022763Y-109007793D01*
X110919992Y-108962415D01*
X110894865Y-108959500D01*
X109105143Y-108959500D01*
X109105117Y-108959502D01*
X109080012Y-108962413D01*
X109080008Y-108962415D01*
X108977235Y-109007793D01*
X108897794Y-109087234D01*
X108852415Y-109190006D01*
X108852415Y-109190008D01*
X108849500Y-109215131D01*
X108849500Y-111004856D01*
X108849502Y-111004882D01*
X108852413Y-111029987D01*
X108852415Y-111029991D01*
X108897793Y-111132764D01*
X108897794Y-111132765D01*
X108977235Y-111212206D01*
X109080009Y-111257585D01*
X109105135Y-111260500D01*
X109236923Y-111260499D01*
X109303960Y-111280183D01*
X109349715Y-111332987D01*
X109359659Y-111402145D01*
X109330635Y-111465701D01*
X109296387Y-111492507D01*
X109296590Y-111492838D01*
X109293715Y-111494599D01*
X109293239Y-111494972D01*
X109292451Y-111495373D01*
X109292440Y-111495380D01*
X109238282Y-111534727D01*
X109238282Y-111534728D01*
X109870591Y-112167037D01*
X109807007Y-112184075D01*
X109692993Y-112249901D01*
X109599901Y-112342993D01*
X109534075Y-112457007D01*
X109517037Y-112520591D01*
X108884728Y-111888282D01*
X108884727Y-111888282D01*
X108845380Y-111942439D01*
X108748904Y-112131782D01*
X108683242Y-112333869D01*
X108683242Y-112333872D01*
X108650000Y-112543753D01*
X105150000Y-112543753D01*
X105150000Y-112500000D01*
X105024000Y-112500000D01*
X104956961Y-112480315D01*
X104911206Y-112427511D01*
X104900000Y-112376000D01*
X104900000Y-112250000D01*
X105400000Y-112250000D01*
X106149999Y-112250000D01*
X106149999Y-111975028D01*
X106149998Y-111975013D01*
X106139505Y-111872302D01*
X106084358Y-111705880D01*
X106084356Y-111705875D01*
X105992315Y-111556654D01*
X105868345Y-111432684D01*
X105719124Y-111340643D01*
X105719119Y-111340641D01*
X105552697Y-111285494D01*
X105552690Y-111285493D01*
X105449986Y-111275000D01*
X105400000Y-111275000D01*
X105400000Y-112250000D01*
X104900000Y-112250000D01*
X104900000Y-111275000D01*
X104899999Y-111274999D01*
X104850029Y-111275000D01*
X104850011Y-111275001D01*
X104747302Y-111285494D01*
X104580880Y-111340641D01*
X104580875Y-111340643D01*
X104431654Y-111432684D01*
X104362181Y-111502158D01*
X104300858Y-111535643D01*
X104231166Y-111530659D01*
X104175233Y-111488787D01*
X104150816Y-111423323D01*
X104150500Y-111414477D01*
X104150500Y-110174360D01*
X104170185Y-110107321D01*
X104186814Y-110086683D01*
X105226082Y-109047415D01*
X105287403Y-109013932D01*
X105289526Y-109013490D01*
X105306420Y-109010130D01*
X105497598Y-108930941D01*
X105511882Y-108921396D01*
X105578559Y-108900520D01*
X105580771Y-108900500D01*
X106888693Y-108900500D01*
X106888694Y-108900499D01*
X107062666Y-108865895D01*
X107144606Y-108831953D01*
X107226547Y-108798013D01*
X107314959Y-108738936D01*
X107374036Y-108699464D01*
X107529823Y-108543677D01*
X118309873Y-108543677D01*
X118309873Y-108543678D01*
X118344858Y-108569096D01*
X118520164Y-108658418D01*
X118707294Y-108719221D01*
X118901618Y-108750000D01*
X119098382Y-108750000D01*
X119292705Y-108719221D01*
X119479835Y-108658418D01*
X119655143Y-108569095D01*
X119690125Y-108543678D01*
X119690126Y-108543678D01*
X119000001Y-107853553D01*
X119000000Y-107853553D01*
X118309873Y-108543677D01*
X107529823Y-108543677D01*
X108671883Y-107401617D01*
X117750000Y-107401617D01*
X117750000Y-107598382D01*
X117780778Y-107792705D01*
X117841581Y-107979835D01*
X117930905Y-108155145D01*
X117956319Y-108190125D01*
X117956320Y-108190125D01*
X118646446Y-107500000D01*
X118646446Y-107499999D01*
X119353553Y-107499999D01*
X119353553Y-107500001D01*
X120043678Y-108190126D01*
X120043678Y-108190125D01*
X120069095Y-108155143D01*
X120158418Y-107979835D01*
X120219221Y-107792705D01*
X120250000Y-107598382D01*
X120250000Y-107401617D01*
X120219221Y-107207294D01*
X120158418Y-107020164D01*
X120069096Y-106844858D01*
X120043678Y-106809873D01*
X120043677Y-106809873D01*
X119353553Y-107499999D01*
X118646446Y-107499999D01*
X117956320Y-106809872D01*
X117956320Y-106809873D01*
X117930902Y-106844859D01*
X117930899Y-106844863D01*
X117841582Y-107020161D01*
X117780778Y-107207294D01*
X117750000Y-107401617D01*
X108671883Y-107401617D01*
X109617180Y-106456320D01*
X118309872Y-106456320D01*
X119000000Y-107146446D01*
X119000001Y-107146446D01*
X119690125Y-106456320D01*
X119690125Y-106456319D01*
X119655145Y-106430905D01*
X119479835Y-106341581D01*
X119292705Y-106280778D01*
X119098382Y-106250000D01*
X118901618Y-106250000D01*
X118707294Y-106280778D01*
X118520161Y-106341582D01*
X118344863Y-106430899D01*
X118344859Y-106430902D01*
X118309873Y-106456320D01*
X118309872Y-106456320D01*
X109617180Y-106456320D01*
X110936681Y-105136819D01*
X110998004Y-105103334D01*
X111024362Y-105100500D01*
X111643097Y-105100500D01*
X111643102Y-105100500D01*
X111731564Y-105089877D01*
X111872342Y-105034361D01*
X111992922Y-104942922D01*
X112084361Y-104822342D01*
X112135433Y-104692832D01*
X112178338Y-104637690D01*
X112244246Y-104614497D01*
X112312230Y-104630617D01*
X112351105Y-104665439D01*
X112470272Y-104829459D01*
X112470276Y-104829464D01*
X112620535Y-104979723D01*
X112620540Y-104979727D01*
X112792442Y-105104620D01*
X112981782Y-105201095D01*
X113183871Y-105266757D01*
X113250000Y-105277231D01*
X113250000Y-104233012D01*
X113307007Y-104265925D01*
X113434174Y-104300000D01*
X113565826Y-104300000D01*
X113692993Y-104265925D01*
X113750000Y-104233012D01*
X113750000Y-105277230D01*
X113816126Y-105266757D01*
X113816129Y-105266757D01*
X114018217Y-105201095D01*
X114207557Y-105104620D01*
X114379459Y-104979727D01*
X114379464Y-104979723D01*
X114529723Y-104829464D01*
X114529727Y-104829459D01*
X114654620Y-104657557D01*
X114751095Y-104468217D01*
X114816757Y-104266130D01*
X114816757Y-104266127D01*
X114850000Y-104056246D01*
X114850000Y-104050000D01*
X113933012Y-104050000D01*
X113957897Y-104006898D01*
X118274500Y-104006898D01*
X118274500Y-104993102D01*
X118279455Y-105034361D01*
X118285122Y-105081561D01*
X118285122Y-105081563D01*
X118285123Y-105081564D01*
X118293708Y-105103334D01*
X118340639Y-105222343D01*
X118432077Y-105342922D01*
X118552656Y-105434360D01*
X118552657Y-105434360D01*
X118552658Y-105434361D01*
X118693436Y-105489877D01*
X118781898Y-105500500D01*
X118781903Y-105500500D01*
X119364179Y-105500500D01*
X119431218Y-105520185D01*
X119451860Y-105536819D01*
X124405536Y-110490495D01*
X124513964Y-110553095D01*
X124634899Y-110585500D01*
X124760101Y-110585500D01*
X126725501Y-110585500D01*
X126792540Y-110605185D01*
X126838295Y-110657989D01*
X126849501Y-110709500D01*
X126849501Y-111004856D01*
X126849502Y-111004882D01*
X126852413Y-111029987D01*
X126852415Y-111029991D01*
X126897793Y-111132764D01*
X126897794Y-111132765D01*
X126977235Y-111212206D01*
X127080009Y-111257585D01*
X127105135Y-111260500D01*
X127842873Y-111260499D01*
X127909910Y-111280183D01*
X127955665Y-111332987D01*
X127965609Y-111402146D01*
X127936584Y-111465702D01*
X127877806Y-111503476D01*
X127862270Y-111506972D01*
X127730589Y-111527829D01*
X127558363Y-111583787D01*
X127558360Y-111583788D01*
X127397002Y-111666006D01*
X127250505Y-111772441D01*
X127250500Y-111772445D01*
X127122445Y-111900500D01*
X127122441Y-111900505D01*
X127016006Y-112047002D01*
X126933788Y-112208360D01*
X126933787Y-112208363D01*
X126877829Y-112380589D01*
X126849500Y-112559448D01*
X126849500Y-112740551D01*
X126877829Y-112919410D01*
X126933787Y-113091636D01*
X126933788Y-113091639D01*
X126982726Y-113187682D01*
X127013124Y-113247342D01*
X127016006Y-113252997D01*
X127122441Y-113399494D01*
X127122445Y-113399499D01*
X127250500Y-113527554D01*
X127250505Y-113527558D01*
X127318572Y-113577011D01*
X127397006Y-113633996D01*
X127497271Y-113685084D01*
X127558360Y-113716211D01*
X127558363Y-113716212D01*
X127644476Y-113744191D01*
X127730591Y-113772171D01*
X127803639Y-113783740D01*
X127890678Y-113797527D01*
X127953813Y-113827456D01*
X127990744Y-113886768D01*
X127989746Y-113956631D01*
X127951136Y-114014863D01*
X127890678Y-114042473D01*
X127730589Y-114067829D01*
X127558363Y-114123787D01*
X127558360Y-114123788D01*
X127397002Y-114206006D01*
X127250505Y-114312441D01*
X127250500Y-114312445D01*
X127122445Y-114440500D01*
X127122441Y-114440505D01*
X127016006Y-114587002D01*
X126933788Y-114748360D01*
X126933787Y-114748363D01*
X126877829Y-114920589D01*
X126849500Y-115099448D01*
X126849500Y-115280551D01*
X126877829Y-115459410D01*
X126933787Y-115631636D01*
X126933788Y-115631639D01*
X127016006Y-115792997D01*
X127121295Y-115937916D01*
X127144775Y-116003722D01*
X127128949Y-116071776D01*
X127108658Y-116098482D01*
X124278927Y-118928212D01*
X124217604Y-118961697D01*
X124167055Y-118962148D01*
X124103469Y-118949500D01*
X124103465Y-118949500D01*
X123896535Y-118949500D01*
X123896530Y-118949500D01*
X123693587Y-118989868D01*
X123693579Y-118989870D01*
X123502403Y-119069058D01*
X123330342Y-119184024D01*
X123184024Y-119330342D01*
X123069058Y-119502403D01*
X122989870Y-119693579D01*
X122989868Y-119693587D01*
X122949500Y-119896530D01*
X122949500Y-120103469D01*
X122989868Y-120306412D01*
X122989870Y-120306420D01*
X123069058Y-120497596D01*
X123184024Y-120669657D01*
X123330342Y-120815975D01*
X123330345Y-120815977D01*
X123502402Y-120930941D01*
X123693580Y-121010130D01*
X123896530Y-121050499D01*
X123896534Y-121050500D01*
X123896535Y-121050500D01*
X124103466Y-121050500D01*
X124103467Y-121050499D01*
X124306420Y-121010130D01*
X124497598Y-120930941D01*
X124669655Y-120815977D01*
X124815977Y-120669655D01*
X124930941Y-120497598D01*
X125010130Y-120306420D01*
X125050500Y-120103465D01*
X125050500Y-119896535D01*
X125010130Y-119693580D01*
X124997418Y-119662892D01*
X124989949Y-119593426D01*
X125021222Y-119530946D01*
X125024269Y-119527788D01*
X126661284Y-117890773D01*
X126722606Y-117857290D01*
X126792298Y-117862274D01*
X126848231Y-117904146D01*
X126871437Y-117959056D01*
X126877829Y-117999411D01*
X126933787Y-118171636D01*
X126933788Y-118171639D01*
X127016006Y-118332997D01*
X127122441Y-118479494D01*
X127122445Y-118479499D01*
X127250500Y-118607554D01*
X127250505Y-118607558D01*
X127378287Y-118700396D01*
X127397006Y-118713996D01*
X127492002Y-118762399D01*
X127558360Y-118796211D01*
X127558363Y-118796212D01*
X127644476Y-118824191D01*
X127730591Y-118852171D01*
X127803639Y-118863740D01*
X127890678Y-118877527D01*
X127953813Y-118907456D01*
X127990744Y-118966768D01*
X127989746Y-119036631D01*
X127951136Y-119094863D01*
X127890678Y-119122473D01*
X127730589Y-119147829D01*
X127558363Y-119203787D01*
X127558360Y-119203788D01*
X127397002Y-119286006D01*
X127250505Y-119392441D01*
X127250500Y-119392445D01*
X127122445Y-119520500D01*
X127122441Y-119520505D01*
X127016006Y-119667002D01*
X126933788Y-119828360D01*
X126933787Y-119828363D01*
X126877829Y-120000589D01*
X126849500Y-120179448D01*
X126849500Y-120360551D01*
X126877829Y-120539410D01*
X126933787Y-120711636D01*
X126933788Y-120711639D01*
X126986951Y-120815975D01*
X127000681Y-120842922D01*
X127016006Y-120872997D01*
X127122441Y-121019494D01*
X127122445Y-121019499D01*
X127250500Y-121147554D01*
X127250505Y-121147558D01*
X127330536Y-121205703D01*
X127397006Y-121253996D01*
X127468655Y-121290503D01*
X127558360Y-121336211D01*
X127558363Y-121336212D01*
X127644476Y-121364191D01*
X127730591Y-121392171D01*
X127803639Y-121403740D01*
X127890678Y-121417527D01*
X127953813Y-121447456D01*
X127990744Y-121506768D01*
X127989746Y-121576631D01*
X127951136Y-121634863D01*
X127890678Y-121662473D01*
X127730589Y-121687829D01*
X127558363Y-121743787D01*
X127558360Y-121743788D01*
X127397002Y-121826006D01*
X127250505Y-121932441D01*
X127250500Y-121932445D01*
X127122445Y-122060500D01*
X127122441Y-122060505D01*
X127016006Y-122207002D01*
X126933788Y-122368360D01*
X126933787Y-122368363D01*
X126877829Y-122540589D01*
X126849500Y-122719448D01*
X126849500Y-122900551D01*
X126877829Y-123079410D01*
X126933787Y-123251636D01*
X126933788Y-123251639D01*
X126982947Y-123348116D01*
X127012647Y-123406406D01*
X127016006Y-123412997D01*
X127122441Y-123559494D01*
X127122445Y-123559499D01*
X127250500Y-123687554D01*
X127250505Y-123687558D01*
X127371496Y-123775462D01*
X127397006Y-123793996D01*
X127502484Y-123847740D01*
X127558360Y-123876211D01*
X127558363Y-123876212D01*
X127644476Y-123904191D01*
X127730591Y-123932171D01*
X127803639Y-123943740D01*
X127890678Y-123957527D01*
X127953813Y-123987456D01*
X127990744Y-124046768D01*
X127989746Y-124116631D01*
X127951136Y-124174863D01*
X127890678Y-124202473D01*
X127730589Y-124227829D01*
X127558363Y-124283787D01*
X127558360Y-124283788D01*
X127397002Y-124366006D01*
X127250505Y-124472441D01*
X127250500Y-124472445D01*
X127122445Y-124600500D01*
X127122441Y-124600505D01*
X127016006Y-124747002D01*
X126933788Y-124908360D01*
X126933787Y-124908363D01*
X126877829Y-125080589D01*
X126849500Y-125259448D01*
X126849500Y-125440551D01*
X126877829Y-125619410D01*
X126933787Y-125791636D01*
X126933788Y-125791639D01*
X127016006Y-125952997D01*
X127122441Y-126099494D01*
X127122445Y-126099499D01*
X127250500Y-126227554D01*
X127250505Y-126227558D01*
X127369671Y-126314136D01*
X127397006Y-126333996D01*
X127502484Y-126387740D01*
X127558360Y-126416211D01*
X127558363Y-126416212D01*
X127641872Y-126443345D01*
X127730591Y-126472171D01*
X127803639Y-126483740D01*
X127890678Y-126497527D01*
X127953813Y-126527456D01*
X127990744Y-126586768D01*
X127989746Y-126656631D01*
X127951136Y-126714863D01*
X127890678Y-126742473D01*
X127730589Y-126767829D01*
X127558363Y-126823787D01*
X127558360Y-126823788D01*
X127397002Y-126906006D01*
X127250505Y-127012441D01*
X127250500Y-127012445D01*
X127122445Y-127140500D01*
X127122441Y-127140505D01*
X127016006Y-127287002D01*
X126933788Y-127448360D01*
X126933787Y-127448363D01*
X126877829Y-127620589D01*
X126849500Y-127799448D01*
X126849500Y-127980551D01*
X126877829Y-128159410D01*
X126933787Y-128331636D01*
X126933788Y-128331639D01*
X126974383Y-128411309D01*
X127015252Y-128491519D01*
X127016006Y-128492997D01*
X127122441Y-128639494D01*
X127122445Y-128639499D01*
X127250500Y-128767554D01*
X127250505Y-128767558D01*
X127303984Y-128806412D01*
X127397006Y-128873996D01*
X127500139Y-128926545D01*
X127558360Y-128956211D01*
X127558363Y-128956212D01*
X127638247Y-128982167D01*
X127730591Y-129012171D01*
X127743437Y-129014205D01*
X127746993Y-129014769D01*
X127810128Y-129044698D01*
X127847059Y-129104010D01*
X127846061Y-129173872D01*
X127815276Y-129224923D01*
X125265936Y-131774264D01*
X125265934Y-131774266D01*
X124300540Y-132739658D01*
X124300534Y-132739665D01*
X124278753Y-132772263D01*
X124278739Y-132772284D01*
X124277028Y-132774847D01*
X124201987Y-132887153D01*
X124187414Y-132922336D01*
X124183932Y-132930741D01*
X124183932Y-132930742D01*
X124140696Y-133035123D01*
X124134105Y-133051034D01*
X124101651Y-133214195D01*
X124099500Y-133225009D01*
X124099500Y-133294549D01*
X124099377Y-133297311D01*
X124088909Y-133327859D01*
X124079815Y-133358832D01*
X124076771Y-133363282D01*
X124076729Y-133363408D01*
X124076635Y-133363481D01*
X124075818Y-133364678D01*
X124016006Y-133447002D01*
X123933788Y-133608360D01*
X123933787Y-133608363D01*
X123877829Y-133780589D01*
X123849500Y-133959448D01*
X123849500Y-134440551D01*
X123877829Y-134619410D01*
X123933787Y-134791636D01*
X123933788Y-134791639D01*
X123966288Y-134855422D01*
X124013877Y-134948820D01*
X124016006Y-134952997D01*
X124122441Y-135099494D01*
X124122445Y-135099499D01*
X124250500Y-135227554D01*
X124250505Y-135227558D01*
X124363097Y-135309360D01*
X124397006Y-135333996D01*
X124478460Y-135375499D01*
X124558360Y-135416211D01*
X124558363Y-135416212D01*
X124644476Y-135444191D01*
X124730591Y-135472171D01*
X124813429Y-135485291D01*
X124909449Y-135500500D01*
X124909454Y-135500500D01*
X125090551Y-135500500D01*
X125177259Y-135486765D01*
X125269409Y-135472171D01*
X125441639Y-135416211D01*
X125602994Y-135333996D01*
X125749501Y-135227553D01*
X125877553Y-135099501D01*
X125983996Y-134952994D01*
X126066211Y-134791639D01*
X126103947Y-134675499D01*
X126107569Y-134664351D01*
X126147006Y-134606676D01*
X126211364Y-134579477D01*
X126280211Y-134591391D01*
X126331687Y-134638635D01*
X126349500Y-134702669D01*
X126349500Y-134993102D01*
X126355126Y-135039954D01*
X126360122Y-135081561D01*
X126360122Y-135081563D01*
X126360123Y-135081564D01*
X126377722Y-135126192D01*
X126415639Y-135222343D01*
X126507077Y-135342922D01*
X126627656Y-135434360D01*
X126627657Y-135434360D01*
X126627658Y-135434361D01*
X126768436Y-135489877D01*
X126856898Y-135500500D01*
X126856903Y-135500500D01*
X128143097Y-135500500D01*
X128143102Y-135500500D01*
X128231564Y-135489877D01*
X128372342Y-135434361D01*
X128492922Y-135342922D01*
X128584361Y-135222342D01*
X128639877Y-135081564D01*
X128650500Y-134993102D01*
X128650500Y-134374362D01*
X128670185Y-134307323D01*
X128686819Y-134286681D01*
X132549461Y-130424039D01*
X132549464Y-130424036D01*
X132612066Y-130330345D01*
X132648013Y-130276547D01*
X132686337Y-130184023D01*
X132715895Y-130112666D01*
X132750500Y-129938692D01*
X132750500Y-129761308D01*
X132750500Y-128411309D01*
X132750500Y-128411307D01*
X132750500Y-128411306D01*
X132750499Y-128411304D01*
X132715896Y-128237341D01*
X132715893Y-128237333D01*
X132678482Y-128147013D01*
X132653025Y-128085552D01*
X132645556Y-128016083D01*
X132676832Y-127953604D01*
X132736921Y-127917952D01*
X132767586Y-127914100D01*
X133442776Y-127914100D01*
X133465943Y-127920902D01*
X133489958Y-127923427D01*
X133498864Y-127930569D01*
X133509815Y-127933785D01*
X133525623Y-127952029D01*
X133544465Y-127967139D01*
X133550026Y-127980191D01*
X133555570Y-127986589D01*
X133560338Y-127998663D01*
X133562850Y-128006151D01*
X133571605Y-128050166D01*
X133601573Y-128122514D01*
X133603211Y-128126470D01*
X133603215Y-128126480D01*
X133639484Y-128214042D01*
X133639485Y-128214044D01*
X133698563Y-128302460D01*
X133698564Y-128302461D01*
X133738034Y-128361534D01*
X134412614Y-129036114D01*
X134440287Y-129078304D01*
X134462635Y-129134974D01*
X134549921Y-129250078D01*
X134665023Y-129337363D01*
X134665024Y-129337363D01*
X134665025Y-129337364D01*
X134799410Y-129390359D01*
X134883856Y-129400500D01*
X134883862Y-129400500D01*
X135416138Y-129400500D01*
X135416144Y-129400500D01*
X135500590Y-129390359D01*
X135634975Y-129337364D01*
X135750078Y-129250078D01*
X135837364Y-129134975D01*
X135873707Y-129042813D01*
X135885956Y-129019419D01*
X135948012Y-128926546D01*
X136015895Y-128762666D01*
X136050500Y-128588692D01*
X136050500Y-128411308D01*
X136015895Y-128237334D01*
X135948012Y-128073453D01*
X135885952Y-127980574D01*
X135873708Y-127957188D01*
X135837364Y-127865025D01*
X135837362Y-127865022D01*
X135750078Y-127749921D01*
X135634974Y-127662635D01*
X135578304Y-127640287D01*
X135570341Y-127635064D01*
X135564368Y-127633765D01*
X135536114Y-127612614D01*
X135374319Y-127450819D01*
X135340834Y-127389496D01*
X135338000Y-127363138D01*
X135338000Y-124525351D01*
X135357685Y-124458312D01*
X135362230Y-124451718D01*
X135427790Y-124362886D01*
X135427789Y-124362886D01*
X135427793Y-124362882D01*
X135454872Y-124285494D01*
X135472646Y-124234701D01*
X135472646Y-124234699D01*
X135475500Y-124204269D01*
X135475500Y-123795730D01*
X135472646Y-123765300D01*
X135472646Y-123765298D01*
X135439006Y-123669163D01*
X135427793Y-123637118D01*
X135347150Y-123527850D01*
X135237882Y-123447207D01*
X135237880Y-123447206D01*
X135142032Y-123413667D01*
X135095307Y-123384308D01*
X135011535Y-123300536D01*
X135011534Y-123300535D01*
X135011533Y-123300534D01*
X134864053Y-123201990D01*
X134864040Y-123201983D01*
X134700167Y-123134106D01*
X134700158Y-123134103D01*
X134526194Y-123099500D01*
X134526191Y-123099500D01*
X134348809Y-123099500D01*
X134348806Y-123099500D01*
X134174841Y-123134103D01*
X134174832Y-123134106D01*
X134010959Y-123201983D01*
X134010946Y-123201990D01*
X133863468Y-123300533D01*
X133811758Y-123352242D01*
X133750434Y-123385726D01*
X133680742Y-123380740D01*
X133624810Y-123338868D01*
X133600394Y-123273403D01*
X133600577Y-123257171D01*
X133600365Y-123257162D01*
X133600500Y-123254276D01*
X133600500Y-122845730D01*
X133597646Y-122815300D01*
X133597646Y-122815298D01*
X133552793Y-122687119D01*
X133552792Y-122687117D01*
X133472150Y-122577850D01*
X133362882Y-122497207D01*
X133362880Y-122497206D01*
X133234700Y-122452353D01*
X133204270Y-122449500D01*
X133204266Y-122449500D01*
X133162000Y-122449500D01*
X133153314Y-122446949D01*
X133144353Y-122448238D01*
X133120312Y-122437259D01*
X133094961Y-122429815D01*
X133089033Y-122422974D01*
X133080797Y-122419213D01*
X133066507Y-122396978D01*
X133049206Y-122377011D01*
X133046918Y-122366496D01*
X133043023Y-122360435D01*
X133038000Y-122325500D01*
X133038000Y-122098320D01*
X133057685Y-122031281D01*
X133074314Y-122010643D01*
X134048139Y-121036818D01*
X134109462Y-121003334D01*
X134135820Y-121000500D01*
X134718097Y-121000500D01*
X134718102Y-121000500D01*
X134806564Y-120989877D01*
X134947342Y-120934361D01*
X135067922Y-120842922D01*
X135159361Y-120722342D01*
X135214877Y-120581564D01*
X135225500Y-120493102D01*
X135225500Y-119506898D01*
X135214877Y-119418436D01*
X135159361Y-119277658D01*
X135159360Y-119277657D01*
X135159360Y-119277656D01*
X135067922Y-119157077D01*
X134940584Y-119060514D01*
X134942117Y-119058491D01*
X134902426Y-119017783D01*
X134888000Y-118959736D01*
X134888000Y-118762400D01*
X134875029Y-118713993D01*
X134855595Y-118641464D01*
X134792995Y-118533036D01*
X134704464Y-118444505D01*
X134669041Y-118409082D01*
X134635556Y-118347759D01*
X134640540Y-118278067D01*
X134682412Y-118222134D01*
X134744121Y-118198043D01*
X134827696Y-118189505D01*
X134994119Y-118134358D01*
X134994124Y-118134356D01*
X135143345Y-118042315D01*
X135267315Y-117918345D01*
X135359356Y-117769124D01*
X135359358Y-117769119D01*
X135414505Y-117602697D01*
X135414506Y-117602690D01*
X135424999Y-117499986D01*
X135425000Y-117499973D01*
X135425000Y-117250000D01*
X134536500Y-117250000D01*
X134469461Y-117230315D01*
X134423706Y-117177511D01*
X134412500Y-117126000D01*
X134412500Y-117000000D01*
X134286500Y-117000000D01*
X134219461Y-116980315D01*
X134173706Y-116927511D01*
X134162500Y-116876000D01*
X134162500Y-116750000D01*
X134662500Y-116750000D01*
X135424999Y-116750000D01*
X135424999Y-116500028D01*
X135424998Y-116500013D01*
X135414505Y-116397302D01*
X135359358Y-116230880D01*
X135359356Y-116230875D01*
X135267315Y-116081654D01*
X135143345Y-115957684D01*
X134994124Y-115865643D01*
X134994119Y-115865641D01*
X134827697Y-115810494D01*
X134827690Y-115810493D01*
X134724986Y-115800000D01*
X134662500Y-115800000D01*
X134662500Y-116750000D01*
X134162500Y-116750000D01*
X134162500Y-115800000D01*
X134162499Y-115799999D01*
X134100028Y-115800000D01*
X134100011Y-115800001D01*
X133997302Y-115810494D01*
X133830880Y-115865641D01*
X133830875Y-115865643D01*
X133681654Y-115957684D01*
X133557682Y-116081656D01*
X133485843Y-116198125D01*
X133433895Y-116244849D01*
X133364932Y-116256070D01*
X133300850Y-116228227D01*
X133281501Y-116207952D01*
X133242922Y-116157077D01*
X133122343Y-116065639D01*
X132981561Y-116010122D01*
X132935926Y-116004642D01*
X132893102Y-115999500D01*
X132893097Y-115999500D01*
X132404020Y-115999500D01*
X132336981Y-115979815D01*
X132316339Y-115963181D01*
X131208765Y-114855606D01*
X131208764Y-114855605D01*
X131100336Y-114793005D01*
X131100337Y-114793005D01*
X131060024Y-114782203D01*
X130979401Y-114760600D01*
X130420301Y-114760600D01*
X130295099Y-114760600D01*
X130214475Y-114782203D01*
X130174163Y-114793005D01*
X130065737Y-114855604D01*
X130065734Y-114855606D01*
X129323860Y-115597480D01*
X129262537Y-115630965D01*
X129192845Y-115625981D01*
X129136912Y-115584109D01*
X129112495Y-115518645D01*
X129118249Y-115471477D01*
X129122171Y-115459409D01*
X129140923Y-115341015D01*
X129150500Y-115280551D01*
X129150500Y-115099448D01*
X129122171Y-114920590D01*
X129101435Y-114856771D01*
X129099440Y-114786930D01*
X129131682Y-114730776D01*
X129350641Y-114511816D01*
X129411963Y-114478334D01*
X129438321Y-114475500D01*
X131662386Y-114475500D01*
X131729425Y-114495185D01*
X131775180Y-114547989D01*
X131782495Y-114574023D01*
X131783173Y-114573852D01*
X131785120Y-114581556D01*
X131785122Y-114581563D01*
X131785123Y-114581564D01*
X131787269Y-114587006D01*
X131840639Y-114722343D01*
X131932077Y-114842922D01*
X132052656Y-114934360D01*
X132052657Y-114934360D01*
X132052658Y-114934361D01*
X132193436Y-114989877D01*
X132281898Y-115000500D01*
X132281903Y-115000500D01*
X132893097Y-115000500D01*
X132893102Y-115000500D01*
X132981564Y-114989877D01*
X133122342Y-114934361D01*
X133242922Y-114842922D01*
X133334361Y-114722342D01*
X133384646Y-114594826D01*
X133427551Y-114539685D01*
X133493459Y-114516492D01*
X133561443Y-114532612D01*
X133609920Y-114582929D01*
X133615348Y-114594814D01*
X133650652Y-114684339D01*
X133665639Y-114722343D01*
X133757077Y-114842922D01*
X133877656Y-114934360D01*
X133877657Y-114934360D01*
X133877658Y-114934361D01*
X134018436Y-114989877D01*
X134106898Y-115000500D01*
X134106903Y-115000500D01*
X134718097Y-115000500D01*
X134718102Y-115000500D01*
X134806564Y-114989877D01*
X134947342Y-114934361D01*
X135067922Y-114842922D01*
X135159361Y-114722342D01*
X135214877Y-114581564D01*
X135225500Y-114493102D01*
X135225500Y-113506898D01*
X135214877Y-113418436D01*
X135159361Y-113277658D01*
X135159360Y-113277657D01*
X135159360Y-113277656D01*
X135067922Y-113157077D01*
X134940584Y-113060514D01*
X134942117Y-113058491D01*
X134902426Y-113017783D01*
X134888000Y-112959736D01*
X134888000Y-112042788D01*
X134907685Y-111975749D01*
X134944416Y-111941124D01*
X134943742Y-111940236D01*
X135069711Y-111844711D01*
X135069712Y-111844710D01*
X135160111Y-111725500D01*
X135214997Y-111586321D01*
X135225500Y-111498860D01*
X135225500Y-110501140D01*
X135214997Y-110413679D01*
X135177487Y-110318561D01*
X135160112Y-110274502D01*
X135160111Y-110274500D01*
X135069711Y-110155288D01*
X134950499Y-110064888D01*
X134950497Y-110064887D01*
X134811322Y-110010003D01*
X134798826Y-110008502D01*
X134723860Y-109999500D01*
X134151140Y-109999500D01*
X134085544Y-110007377D01*
X134063677Y-110010003D01*
X133924502Y-110064887D01*
X133924500Y-110064888D01*
X133805288Y-110155288D01*
X133709764Y-110281258D01*
X133707518Y-110279555D01*
X133667509Y-110318561D01*
X133599053Y-110332545D01*
X133533904Y-110307299D01*
X133492746Y-110250838D01*
X133491762Y-110247985D01*
X133484903Y-110227287D01*
X133484903Y-110227285D01*
X133393629Y-110079308D01*
X133270691Y-109956370D01*
X133122714Y-109865096D01*
X133122709Y-109865094D01*
X132957673Y-109810407D01*
X132855815Y-109800000D01*
X132812500Y-109800000D01*
X132812500Y-112200000D01*
X132855803Y-112200000D01*
X132855815Y-112199999D01*
X132957673Y-112189592D01*
X133122709Y-112134905D01*
X133122714Y-112134903D01*
X133270691Y-112043629D01*
X133393629Y-111920691D01*
X133484903Y-111772714D01*
X133484904Y-111772710D01*
X133491762Y-111752015D01*
X133531533Y-111694569D01*
X133596048Y-111667744D01*
X133664824Y-111680057D01*
X133707959Y-111720110D01*
X133709764Y-111718742D01*
X133714889Y-111725500D01*
X133805289Y-111844711D01*
X133887925Y-111907375D01*
X133929448Y-111963566D01*
X133937000Y-112006179D01*
X133937000Y-112959736D01*
X133917315Y-113026775D01*
X133883214Y-113058929D01*
X133884416Y-113060514D01*
X133757077Y-113157077D01*
X133665639Y-113277656D01*
X133635665Y-113353663D01*
X133615353Y-113405171D01*
X133572449Y-113460314D01*
X133506541Y-113483507D01*
X133438556Y-113467386D01*
X133390080Y-113417070D01*
X133384648Y-113405178D01*
X133334361Y-113277658D01*
X133334360Y-113277657D01*
X133334360Y-113277656D01*
X133242922Y-113157077D01*
X133122343Y-113065639D01*
X132981561Y-113010122D01*
X132935926Y-113004642D01*
X132893102Y-112999500D01*
X132281898Y-112999500D01*
X132248139Y-113003554D01*
X132193438Y-113010122D01*
X132052656Y-113065639D01*
X131932077Y-113157077D01*
X131840639Y-113277656D01*
X131785120Y-113418443D01*
X131783173Y-113426148D01*
X131781068Y-113425616D01*
X131757972Y-113479490D01*
X131700093Y-113518628D01*
X131662386Y-113524500D01*
X129127398Y-113524500D01*
X129042618Y-113547217D01*
X128972769Y-113545554D01*
X128914906Y-113506391D01*
X128887402Y-113442163D01*
X128898989Y-113373261D01*
X128910207Y-113354557D01*
X128954117Y-113294119D01*
X128983996Y-113252994D01*
X129066211Y-113091639D01*
X129122171Y-112919409D01*
X129136765Y-112827259D01*
X129150500Y-112740551D01*
X129150500Y-112559448D01*
X129129602Y-112427511D01*
X129122171Y-112380591D01*
X129066211Y-112208361D01*
X129066211Y-112208360D01*
X129027192Y-112131782D01*
X128983996Y-112047006D01*
X128931701Y-111975028D01*
X128877558Y-111900505D01*
X128877554Y-111900500D01*
X128749499Y-111772445D01*
X128749494Y-111772441D01*
X128602997Y-111666006D01*
X128602996Y-111666005D01*
X128602994Y-111666004D01*
X128551300Y-111639664D01*
X128441639Y-111583788D01*
X128441636Y-111583787D01*
X128269410Y-111527829D01*
X128137728Y-111506972D01*
X128135287Y-111505815D01*
X131575000Y-111505815D01*
X131585407Y-111607673D01*
X131640094Y-111772709D01*
X131640096Y-111772714D01*
X131731370Y-111920691D01*
X131854308Y-112043629D01*
X132002285Y-112134903D01*
X132002290Y-112134905D01*
X132167326Y-112189592D01*
X132269184Y-112199999D01*
X132269197Y-112200000D01*
X132312500Y-112200000D01*
X132312500Y-111250000D01*
X131575000Y-111250000D01*
X131575000Y-111505815D01*
X128135287Y-111505815D01*
X128074594Y-111477042D01*
X128037663Y-111417731D01*
X128038661Y-111347868D01*
X128077271Y-111289636D01*
X128141235Y-111261522D01*
X128157120Y-111260499D01*
X128894864Y-111260499D01*
X128894879Y-111260497D01*
X128894882Y-111260497D01*
X128919987Y-111257586D01*
X128919988Y-111257585D01*
X128919991Y-111257585D01*
X129022765Y-111212206D01*
X129102206Y-111132765D01*
X129147585Y-111029991D01*
X129150500Y-111004865D01*
X129150499Y-110494184D01*
X131575000Y-110494184D01*
X131575000Y-110750000D01*
X132312500Y-110750000D01*
X132312500Y-109800000D01*
X132269184Y-109800000D01*
X132167326Y-109810407D01*
X132002290Y-109865094D01*
X132002285Y-109865096D01*
X131854308Y-109956370D01*
X131731370Y-110079308D01*
X131640096Y-110227285D01*
X131640094Y-110227290D01*
X131585407Y-110392326D01*
X131575000Y-110494184D01*
X129150499Y-110494184D01*
X129150499Y-110107321D01*
X129150499Y-109215143D01*
X129150499Y-109215136D01*
X129150497Y-109215117D01*
X129147586Y-109190012D01*
X129147585Y-109190010D01*
X129147585Y-109190009D01*
X129102206Y-109087235D01*
X129022765Y-109007794D01*
X129022763Y-109007793D01*
X128919992Y-108962415D01*
X128894865Y-108959500D01*
X127105143Y-108959500D01*
X127105117Y-108959502D01*
X127080012Y-108962413D01*
X127080008Y-108962415D01*
X126977235Y-109007793D01*
X126897794Y-109087234D01*
X126852415Y-109190006D01*
X126852415Y-109190008D01*
X126849500Y-109215131D01*
X126849500Y-109510500D01*
X126829815Y-109577539D01*
X126777011Y-109623294D01*
X126725500Y-109634500D01*
X124945821Y-109634500D01*
X124878782Y-109614815D01*
X124858140Y-109598181D01*
X124522116Y-109262157D01*
X124488631Y-109200834D01*
X124493615Y-109131142D01*
X124535487Y-109075209D01*
X124597648Y-109051073D01*
X124603466Y-109050500D01*
X124654552Y-109040338D01*
X124806420Y-109010130D01*
X124997598Y-108930941D01*
X125169655Y-108815977D01*
X125315977Y-108669655D01*
X125430941Y-108497598D01*
X125510130Y-108306420D01*
X125550500Y-108103465D01*
X125550500Y-107896535D01*
X125510130Y-107693580D01*
X125430941Y-107502402D01*
X125412896Y-107475396D01*
X125392020Y-107408719D01*
X125392000Y-107406507D01*
X125392000Y-105040742D01*
X125411685Y-104973703D01*
X125464489Y-104927948D01*
X125465783Y-104927365D01*
X125522765Y-104902206D01*
X125602206Y-104822765D01*
X125647585Y-104719991D01*
X125650500Y-104694865D01*
X125650499Y-104563076D01*
X125670183Y-104496040D01*
X125722987Y-104450285D01*
X125792145Y-104440341D01*
X125855701Y-104469365D01*
X125882495Y-104503600D01*
X125882829Y-104503396D01*
X125884607Y-104506297D01*
X125884977Y-104506770D01*
X125885373Y-104507547D01*
X125924728Y-104561716D01*
X126557037Y-103929408D01*
X126574075Y-103992993D01*
X126639901Y-104107007D01*
X126732993Y-104200099D01*
X126847007Y-104265925D01*
X126910590Y-104282962D01*
X126278282Y-104915269D01*
X126278282Y-104915270D01*
X126332449Y-104954624D01*
X126521782Y-105051095D01*
X126723870Y-105116757D01*
X126933754Y-105150000D01*
X127146246Y-105150000D01*
X127356127Y-105116757D01*
X127356130Y-105116757D01*
X127558217Y-105051095D01*
X127747554Y-104954622D01*
X127801716Y-104915270D01*
X127801717Y-104915270D01*
X127169408Y-104282962D01*
X127232993Y-104265925D01*
X127347007Y-104200099D01*
X127440099Y-104107007D01*
X127505925Y-103992993D01*
X127522962Y-103929408D01*
X128155270Y-104561717D01*
X128155270Y-104561716D01*
X128194622Y-104507554D01*
X128291095Y-104318217D01*
X128300492Y-104289295D01*
X128339928Y-104231618D01*
X128404286Y-104204419D01*
X128473133Y-104216331D01*
X128524610Y-104263574D01*
X128528908Y-104271314D01*
X128596004Y-104402995D01*
X128702441Y-104549494D01*
X128702445Y-104549499D01*
X128830500Y-104677554D01*
X128830505Y-104677558D01*
X128958287Y-104770396D01*
X128977006Y-104783996D01*
X129082484Y-104837740D01*
X129138360Y-104866211D01*
X129138363Y-104866212D01*
X129224476Y-104894191D01*
X129310591Y-104922171D01*
X129393429Y-104935291D01*
X129489449Y-104950500D01*
X129489454Y-104950500D01*
X129670551Y-104950500D01*
X129757259Y-104936765D01*
X129849409Y-104922171D01*
X130021639Y-104866211D01*
X130182994Y-104783996D01*
X130329501Y-104677553D01*
X130457553Y-104549501D01*
X130563996Y-104402994D01*
X130646211Y-104241639D01*
X130702171Y-104069409D01*
X130719450Y-103960314D01*
X130730500Y-103890551D01*
X130730500Y-103709448D01*
X130705245Y-103550000D01*
X130702171Y-103530591D01*
X130646211Y-103358361D01*
X130646211Y-103358360D01*
X130607191Y-103281780D01*
X130563996Y-103197006D01*
X130550396Y-103178287D01*
X130457558Y-103050505D01*
X130457554Y-103050500D01*
X130329499Y-102922445D01*
X130329494Y-102922441D01*
X130182997Y-102816006D01*
X130182996Y-102816005D01*
X130182994Y-102816004D01*
X130116399Y-102782072D01*
X130021639Y-102733788D01*
X130021636Y-102733787D01*
X129849410Y-102677829D01*
X129670551Y-102649500D01*
X129670546Y-102649500D01*
X129489454Y-102649500D01*
X129489449Y-102649500D01*
X129310589Y-102677829D01*
X129138363Y-102733787D01*
X129138360Y-102733788D01*
X128977002Y-102816006D01*
X128830505Y-102922441D01*
X128830500Y-102922445D01*
X128702445Y-103050500D01*
X128702441Y-103050505D01*
X128596004Y-103197004D01*
X128528908Y-103328685D01*
X128480933Y-103379480D01*
X128413112Y-103396275D01*
X128346977Y-103373737D01*
X128303527Y-103319021D01*
X128300492Y-103310705D01*
X128291094Y-103281780D01*
X128194624Y-103092449D01*
X128155270Y-103038282D01*
X128155269Y-103038282D01*
X127522962Y-103670590D01*
X127505925Y-103607007D01*
X127440099Y-103492993D01*
X127347007Y-103399901D01*
X127232993Y-103334075D01*
X127169409Y-103317037D01*
X127801716Y-102684728D01*
X127747550Y-102645375D01*
X127558217Y-102548904D01*
X127356129Y-102483242D01*
X127146246Y-102450000D01*
X126933754Y-102450000D01*
X126723872Y-102483242D01*
X126723869Y-102483242D01*
X126521782Y-102548904D01*
X126332439Y-102645380D01*
X126278282Y-102684727D01*
X126278282Y-102684728D01*
X126910591Y-103317037D01*
X126847007Y-103334075D01*
X126732993Y-103399901D01*
X126639901Y-103492993D01*
X126574075Y-103607007D01*
X126557037Y-103670591D01*
X125924728Y-103038282D01*
X125924727Y-103038282D01*
X125885380Y-103092440D01*
X125885377Y-103092445D01*
X125884981Y-103093223D01*
X125884752Y-103093464D01*
X125882838Y-103096590D01*
X125882180Y-103096187D01*
X125837004Y-103144017D01*
X125769183Y-103160809D01*
X125703049Y-103138268D01*
X125659600Y-103083551D01*
X125650499Y-103036923D01*
X125650499Y-102905143D01*
X125650499Y-102905136D01*
X125650497Y-102905117D01*
X125647586Y-102880012D01*
X125647585Y-102880011D01*
X125647585Y-102880009D01*
X125602206Y-102777235D01*
X125522765Y-102697794D01*
X125522763Y-102697793D01*
X125419992Y-102652415D01*
X125394865Y-102649500D01*
X123605143Y-102649500D01*
X123605117Y-102649502D01*
X123580012Y-102652413D01*
X123580008Y-102652415D01*
X123477235Y-102697793D01*
X123397794Y-102777234D01*
X123352415Y-102880006D01*
X123352415Y-102880008D01*
X123349500Y-102905131D01*
X123349500Y-103200500D01*
X123329815Y-103267539D01*
X123277011Y-103313294D01*
X123225500Y-103324500D01*
X121675101Y-103324500D01*
X121549899Y-103324500D01*
X121469275Y-103346103D01*
X121428963Y-103356905D01*
X121320533Y-103419506D01*
X121276857Y-103463182D01*
X121215534Y-103496666D01*
X121189177Y-103499500D01*
X120606898Y-103499500D01*
X120567853Y-103504188D01*
X120518438Y-103510122D01*
X120377656Y-103565639D01*
X120257077Y-103657077D01*
X120165639Y-103777656D01*
X120156828Y-103800000D01*
X120115353Y-103905171D01*
X120072449Y-103960314D01*
X120006541Y-103983507D01*
X119938556Y-103967386D01*
X119890080Y-103917070D01*
X119884648Y-103905178D01*
X119834361Y-103777658D01*
X119834360Y-103777657D01*
X119834360Y-103777656D01*
X119742922Y-103657077D01*
X119622343Y-103565639D01*
X119481561Y-103510122D01*
X119435926Y-103504642D01*
X119393102Y-103499500D01*
X118781898Y-103499500D01*
X118742853Y-103504188D01*
X118693438Y-103510122D01*
X118552656Y-103565639D01*
X118432077Y-103657077D01*
X118340639Y-103777656D01*
X118285122Y-103918438D01*
X118280094Y-103960314D01*
X118274500Y-104006898D01*
X113957897Y-104006898D01*
X113965925Y-103992993D01*
X114000000Y-103865826D01*
X114000000Y-103734174D01*
X113965925Y-103607007D01*
X113933012Y-103550000D01*
X114850000Y-103550000D01*
X114850000Y-103543753D01*
X114816757Y-103333872D01*
X114816757Y-103333869D01*
X114751095Y-103131782D01*
X114654620Y-102942442D01*
X114529727Y-102770540D01*
X114529723Y-102770535D01*
X114379464Y-102620276D01*
X114379459Y-102620272D01*
X114207557Y-102495379D01*
X114018215Y-102398903D01*
X113816124Y-102333241D01*
X113750000Y-102322768D01*
X113750000Y-103366988D01*
X113692993Y-103334075D01*
X113565826Y-103300000D01*
X113434174Y-103300000D01*
X113307007Y-103334075D01*
X113250000Y-103366988D01*
X113250000Y-102322768D01*
X113249999Y-102322768D01*
X113183875Y-102333241D01*
X112981784Y-102398903D01*
X112792442Y-102495379D01*
X112620540Y-102620272D01*
X112620535Y-102620276D01*
X112470276Y-102770535D01*
X112470272Y-102770540D01*
X112351105Y-102934560D01*
X112295775Y-102977226D01*
X112226162Y-102983205D01*
X112164367Y-102950599D01*
X112135433Y-102907165D01*
X112084362Y-102777660D01*
X112084361Y-102777658D01*
X111992922Y-102657077D01*
X111872343Y-102565639D01*
X111731561Y-102510122D01*
X111685926Y-102504642D01*
X111643102Y-102499500D01*
X110356898Y-102499500D01*
X110317853Y-102504188D01*
X110268438Y-102510122D01*
X110127656Y-102565639D01*
X110007077Y-102657077D01*
X109915639Y-102777656D01*
X109860122Y-102918438D01*
X109854188Y-102967853D01*
X109849500Y-103006898D01*
X109849500Y-103006903D01*
X109849500Y-103625638D01*
X109829815Y-103692677D01*
X109813181Y-103713319D01*
X106463319Y-107063181D01*
X106401996Y-107096666D01*
X106375638Y-107099500D01*
X105580771Y-107099500D01*
X105513732Y-107079815D01*
X105511908Y-107078620D01*
X105497598Y-107069059D01*
X105497595Y-107069057D01*
X105497594Y-107069057D01*
X105306420Y-106989870D01*
X105306412Y-106989868D01*
X105103469Y-106949500D01*
X105103465Y-106949500D01*
X104896535Y-106949500D01*
X104896530Y-106949500D01*
X104693587Y-106989868D01*
X104693579Y-106989870D01*
X104502403Y-107069058D01*
X104330342Y-107184024D01*
X104184024Y-107330342D01*
X104069058Y-107502403D01*
X103989869Y-107693581D01*
X103989868Y-107693585D01*
X103986518Y-107710428D01*
X103954132Y-107772339D01*
X103952582Y-107773917D01*
X102550538Y-109175960D01*
X102550537Y-109175961D01*
X102514083Y-109230519D01*
X102514079Y-109230525D01*
X102511063Y-109235040D01*
X102451987Y-109323453D01*
X102420030Y-109400606D01*
X102417452Y-109406827D01*
X102417451Y-109406831D01*
X102384105Y-109487334D01*
X102384103Y-109487340D01*
X102349500Y-109661303D01*
X102349500Y-112588695D01*
X102384104Y-112762658D01*
X102384107Y-112762670D01*
X102440061Y-112897755D01*
X102449500Y-112945207D01*
X102449500Y-113018102D01*
X102454350Y-113058491D01*
X102460122Y-113106561D01*
X102515639Y-113247343D01*
X102607077Y-113367922D01*
X102727656Y-113459360D01*
X102727657Y-113459360D01*
X102727658Y-113459361D01*
X102868436Y-113514877D01*
X102956898Y-113525500D01*
X102956903Y-113525500D01*
X103236311Y-113525500D01*
X103303350Y-113545185D01*
X103349105Y-113597989D01*
X103359049Y-113667147D01*
X103330024Y-113730703D01*
X103302283Y-113754494D01*
X103197737Y-113820184D01*
X103070184Y-113947737D01*
X102974211Y-114100476D01*
X102914631Y-114270745D01*
X102914630Y-114270750D01*
X102899500Y-114405039D01*
X102899500Y-117294960D01*
X102914630Y-117429249D01*
X102914631Y-117429254D01*
X102974211Y-117599523D01*
X103051384Y-117722342D01*
X103070184Y-117752262D01*
X103197738Y-117879816D01*
X103284544Y-117934360D01*
X103323847Y-117959056D01*
X103350478Y-117975789D01*
X103520745Y-118035368D01*
X103520750Y-118035369D01*
X103600583Y-118044364D01*
X103664997Y-118071430D01*
X103704552Y-118129025D01*
X103710700Y-118167584D01*
X103710700Y-120975500D01*
X103691015Y-121042539D01*
X103638211Y-121088294D01*
X103586700Y-121099500D01*
X103520406Y-121099500D01*
X103452343Y-121105685D01*
X103452341Y-121105685D01*
X103452338Y-121105686D01*
X103295730Y-121154487D01*
X103295723Y-121154490D01*
X103286591Y-121160011D01*
X103219036Y-121177844D01*
X103152563Y-121156323D01*
X103144759Y-121150538D01*
X102999021Y-121033390D01*
X102828523Y-120948831D01*
X102643824Y-120902897D01*
X102601097Y-120900000D01*
X102150000Y-120900000D01*
X101650000Y-120900000D01*
X101198903Y-120900000D01*
X101156169Y-120902898D01*
X101153913Y-120903459D01*
X101152873Y-120903415D01*
X101150772Y-120903745D01*
X101150705Y-120903324D01*
X101084105Y-120900528D01*
X101026963Y-120860321D01*
X101000630Y-120795604D01*
X101000000Y-120783121D01*
X101000000Y-101124000D01*
X101019685Y-101056961D01*
X101072489Y-101011206D01*
X101124000Y-101000000D01*
X136876000Y-101000000D01*
X136943039Y-101019685D01*
G37*
%TD.AperFunction*%
%TD*%
M02*
