%TF.GenerationSoftware,KiCad,Pcbnew,10.0.1*%
%TF.CreationDate,2026-09-08T15:03:44-05:00*%
%TF.ProjectId,WebShooter,57656253-686f-46f7-9465-722e6b696361,rev?*%
%TF.SameCoordinates,Original*%
%TF.FileFunction,Other,User*%
%FSLAX46Y46*%
G04 Gerber Fmt 4.6, Leading zero omitted, Abs format (unit mm)*
G04 Created by KiCad (PCBNEW 10.0.1) date 2026-09-08 15:03:44*
%MOMM*%
%LPD*%
G01*
G04 APERTURE LIST*
%ADD10C,0.050000*%
G04 APERTURE END LIST*
%TO.C,TP_3V3*%
D10*
X105450000Y-128500000D02*
G75*
G02*
X102950000Y-128500000I-1250000J0D01*
G01*
X102950000Y-128500000D02*
G75*
G02*
X105450000Y-128500000I1250000J0D01*
G01*
%TO.C,TP_VBATT*%
X106250000Y-108000000D02*
G75*
G02*
X103750000Y-108000000I-1250000J0D01*
G01*
X103750000Y-108000000D02*
G75*
G02*
X106250000Y-108000000I1250000J0D01*
G01*
%TO.C,D1*%
X131150000Y-127350000D02*
X131150000Y-129650000D01*
X131150000Y-127350000D02*
X135850000Y-127350000D01*
X135850000Y-127350000D02*
X135850000Y-129650000D01*
X135850000Y-129650000D02*
X131150000Y-129650000D01*
%TO.C,C_FILT*%
X114300000Y-130020000D02*
X117700000Y-130020000D01*
X117700000Y-131980000D01*
X114300000Y-131980000D01*
X114300000Y-130020000D01*
%TO.C,J_FSR*%
X106550000Y-132000000D02*
X113450000Y-132000000D01*
X113450000Y-137500000D01*
X106550000Y-137500000D01*
X106550000Y-132000000D01*
%TO.C,H4*%
X136950000Y-134500000D02*
G75*
G02*
X132050000Y-134500000I-2450000J0D01*
G01*
X132050000Y-134500000D02*
G75*
G02*
X136950000Y-134500000I2450000J0D01*
G01*
%TO.C,R_PD*%
X131820000Y-116050000D02*
X135180000Y-116050000D01*
X135180000Y-117950000D01*
X131820000Y-117950000D01*
X131820000Y-116050000D01*
%TO.C,D2*%
X131820000Y-110050000D02*
X135180000Y-110050000D01*
X135180000Y-111950000D01*
X131820000Y-111950000D01*
X131820000Y-110050000D01*
%TO.C,C_OUT*%
X102500000Y-124520000D02*
X105900000Y-124520000D01*
X105900000Y-126480000D01*
X102500000Y-126480000D01*
X102500000Y-124520000D01*
%TO.C,J1*%
X108230000Y-108340000D02*
X111770000Y-108340000D01*
X108230000Y-129660000D02*
X108230000Y-108340000D01*
X111770000Y-108340000D02*
X111770000Y-129660000D01*
X111770000Y-129660000D02*
X108230000Y-129660000D01*
%TO.C,R_PWM*%
X118320000Y-103550000D02*
X121680000Y-103550000D01*
X121680000Y-105450000D01*
X118320000Y-105450000D01*
X118320000Y-103550000D01*
%TO.C,TP_ESC*%
X125750000Y-108000000D02*
G75*
G02*
X123250000Y-108000000I-1250000J0D01*
G01*
X123250000Y-108000000D02*
G75*
G02*
X125750000Y-108000000I1250000J0D01*
G01*
%TO.C,H1*%
X105950000Y-103500000D02*
G75*
G02*
X101050000Y-103500000I-2450000J0D01*
G01*
X101050000Y-103500000D02*
G75*
G02*
X105950000Y-103500000I2450000J0D01*
G01*
%TO.C,J2*%
X126230000Y-108340000D02*
X129770000Y-108340000D01*
X126230000Y-129660000D02*
X126230000Y-108340000D01*
X129770000Y-108340000D02*
X129770000Y-129660000D01*
X129770000Y-129660000D02*
X126230000Y-129660000D01*
%TO.C,R_PROT*%
X116820000Y-127050000D02*
X120180000Y-127050000D01*
X120180000Y-128950000D01*
X116820000Y-128950000D01*
X116820000Y-127050000D01*
%TO.C,TP_GATE*%
X125250000Y-120000000D02*
G75*
G02*
X122750000Y-120000000I-1250000J0D01*
G01*
X122750000Y-120000000D02*
G75*
G02*
X125250000Y-120000000I1250000J0D01*
G01*
%TO.C,R_G*%
X131820000Y-119050000D02*
X135180000Y-119050000D01*
X135180000Y-120950000D01*
X131820000Y-120950000D01*
X131820000Y-119050000D01*
%TO.C,C_IN*%
X102500000Y-111520000D02*
X105900000Y-111520000D01*
X105900000Y-113480000D01*
X102500000Y-113480000D01*
X102500000Y-111520000D01*
%TO.C,R_REF*%
X114320000Y-133250000D02*
X117680000Y-133250000D01*
X117680000Y-135150000D01*
X114320000Y-135150000D01*
X114320000Y-133250000D01*
%TO.C,Q1*%
X131570000Y-122500000D02*
X132600000Y-122500000D01*
X131570000Y-123610000D02*
X131570000Y-122500000D01*
X131570000Y-124390000D02*
X132600000Y-124390000D01*
X131570000Y-125500000D02*
X131570000Y-124390000D01*
X132600000Y-122300000D02*
X134400000Y-122300000D01*
X132600000Y-122500000D02*
X132600000Y-122300000D01*
X132600000Y-123610000D02*
X131570000Y-123610000D01*
X132600000Y-124390000D02*
X132600000Y-123610000D01*
X132600000Y-125500000D02*
X131570000Y-125500000D01*
X132600000Y-125700000D02*
X132600000Y-125500000D01*
X134400000Y-122300000D02*
X134400000Y-123450000D01*
X134400000Y-123450000D02*
X135430000Y-123450000D01*
X134400000Y-124550000D02*
X134400000Y-125700000D01*
X134400000Y-125700000D02*
X132600000Y-125700000D01*
X135430000Y-123450000D02*
X135430000Y-124550000D01*
X135430000Y-124550000D02*
X134400000Y-124550000D01*
%TO.C,U1*%
X100600000Y-114600000D02*
X100600000Y-123400000D01*
X100600000Y-123400000D02*
X107800000Y-123400000D01*
X107800000Y-114600000D02*
X100600000Y-114600000D01*
X107800000Y-123400000D02*
X107800000Y-114600000D01*
%TO.C,J_SOL*%
X122050000Y-130300000D02*
X130450000Y-130300000D01*
X130450000Y-137050000D01*
X122050000Y-137050000D01*
X122050000Y-130300000D01*
%TO.C,J_ESC*%
X122730000Y-102030000D02*
X131350000Y-102030000D01*
X131350000Y-105570000D01*
X122730000Y-105570000D01*
X122730000Y-102030000D01*
%TO.C,TP_GND*%
X120250000Y-107500000D02*
G75*
G02*
X117750000Y-107500000I-1250000J0D01*
G01*
X117750000Y-107500000D02*
G75*
G02*
X120250000Y-107500000I1250000J0D01*
G01*
%TO.C,R_LED*%
X131820000Y-113050000D02*
X135180000Y-113050000D01*
X135180000Y-114950000D01*
X131820000Y-114950000D01*
X131820000Y-113050000D01*
%TO.C,J_BATT*%
X108050000Y-100950000D02*
X116450000Y-100950000D01*
X116450000Y-107700000D01*
X108050000Y-107700000D01*
X108050000Y-100950000D01*
%TO.C,H3*%
X105950000Y-134500000D02*
G75*
G02*
X101050000Y-134500000I-2450000J0D01*
G01*
X101050000Y-134500000D02*
G75*
G02*
X105950000Y-134500000I2450000J0D01*
G01*
%TO.C,TP_FSR*%
X121250000Y-131000000D02*
G75*
G02*
X118750000Y-131000000I-1250000J0D01*
G01*
X118750000Y-131000000D02*
G75*
G02*
X121250000Y-131000000I1250000J0D01*
G01*
%TO.C,H2*%
X136950000Y-103500000D02*
G75*
G02*
X132050000Y-103500000I-2450000J0D01*
G01*
X132050000Y-103500000D02*
G75*
G02*
X136950000Y-103500000I2450000J0D01*
G01*
%TD*%
M02*
